<?xml version="1.0" encoding="utf-8"?>
<!-- Generator: Adobe Illustrator 21.0.0, SVG Export Plug-In . SVG Version: 6.00 Build 0)  -->
<svg version="1.1" id="Layer_1" xmlns="http://www.w3.org/2000/svg" xmlns:xlink="http://www.w3.org/1999/xlink" x="0px" y="0px"
	 width="3000px" height="2000px" viewBox="0 0 3000 2000" style="enable-background:new 0 0 3000 2000;" xml:space="preserve">
<style type="text/css">
	.st0{fill:#C3D3C6;}
	.st1{fill:#BACCBD;}
	.st2{fill:#989181;}
	.st3{fill:#7F7666;}
	.st4{fill:#D1DBD2;}
	.st5{fill:#B0C1B0;}
	.st6{fill:#A5B7A5;}
	.st7{fill:#9BB29C;}
	.st8{fill:#DEE0DE;}
	.st9{fill:#FFFEFF;}
	.st10{fill:#C2CCC2;}
	.st11{fill:#C46E7A;}
	.st12{fill:#F5FFF6;}
	.st13{fill:#E2EDE3;}
	.st14{fill:#D17C86;}
	.st15{fill:#77564F;}
	.st16{fill:#936F69;}
	.st17{fill:#A55564;}
	.st18{fill:#AF6273;}
	.st19{fill:#E29AA5;}
	.st20{fill:#828282;}
	.st21{fill:#959695;}
	.st22{fill:#6D6D6D;}
	.st23{fill:#939393;}
	.st24{fill:#835B4F;}
	.st25{fill:#8C635E;}
	.st26{fill:#C99A97;}
	.st27{fill:#7C5552;}
	.st28{fill:#A08684;}
	.st29{fill:#7A514E;}
	.st30{fill:#895D5C;}
	.st31{fill:#EAE8EA;}
	.st32{fill:#9DB2A0;}
	.st33{fill:#A7B5A8;}
	.st34{fill:#D7DDD8;}
	.st35{fill:#8E9B8E;}
	.st36{fill:#BCC4BC;}
	.st37{fill:#AA9796;}
	.st38{fill:#E8A09E;}
	.st39{fill:#998C8C;}
	.st40{fill:#CC9696;}
	.st41{fill:#A0836A;}
	.st42{fill:#B1C4B4;}
	.st43{fill:#B2C5B5;}
	.st44{fill:#927A61;}
	.st45{fill:#A8BAAB;}
	.st46{fill:#E4EFE5;}
	.st47{fill:#B3C4B5;}
	.st48{fill:#97AF9A;}
	.st49{fill:#859E88;}
	.st50{fill:#ABC6AF;}
	.st51{fill:#728E74;}
	.st52{fill:#99AD9A;}
</style>
<rect x="0.7" class="st0" width="3000" height="2000"/>
<g>
	<rect x="1789.9" class="st1" width="98.8" height="1588.9"/>
	<rect x="1112.6" class="st1" width="98.8" height="1588.9"/>
</g>
<rect y="1588.1" class="st2" width="3000" height="411.9"/>
<path class="st3" d="M2003.6,1588.1h-1006c-1.6,1.1-2.5,2.1-2.5,3.2c0,17.9,226.3,32.3,505.4,32.3s505.4-14.5,505.4-32.3
	C2006.1,1590.2,2005.3,1589.2,2003.6,1588.1z"/>
<g>
	<g>
		<g>
			<path class="st1" d="M2896.4,257.5h-508.3c-15.1,0-27.3,12.2-27.3,27.3V1421h562.8V284.8C2923.7,269.7,2911.5,257.5,2896.4,257.5
				z"/>
			<path class="st4" d="M2879.9,287.7h-475.3c-4,0-7.3,3.3-7.3,7.3v1095.7h489.9V295C2887.2,291,2883.9,287.7,2879.9,287.7z"/>
			<rect x="2629.1" y="287.7" class="st1" width="26.3" height="1070.8"/>
			<rect x="2394.9" y="532.4" class="st1" width="494.8" height="23.3"/>
			<rect x="2390.3" y="785.4" class="st1" width="502.6" height="23.3"/>
			<rect x="2385.7" y="1038.4" class="st1" width="507.2" height="23.3"/>
		</g>
		<g>
			<g>
				<g>
					<path class="st5" d="M2415.7,1237.1c-72.3,30.3-63.3,93.8-63.3,93.8h46.2c75.3-16.5,93.4-144.9,93.4-144.9
						S2488,1206.9,2415.7,1237.1z"/>
					<path class="st6" d="M2352.3,1317.3c-0.7,8.4,0.1,13.7,0.1,13.7h46.2c75.3-16.5,93.4-144.9,93.4-144.9s-0.1,0.3-0.3,1
						C2487.3,1200,2439.4,1335.5,2352.3,1317.3z"/>
				</g>
				<g>
					<path class="st5" d="M2372.7,1227.9c-44.5,35.9-24.6,78.9-24.6,78.9l32.6-9.3c49.6-26.8,35-121,35-121
						S2417.2,1192,2372.7,1227.9z"/>
					<path class="st6" d="M2415.6,1177.3c-0.3,9.9-5.3,115.2-70.5,119.8c1.3,6,3,9.7,3,9.7l32.6-9.3c49.6-26.8,35-121,35-121
						S2415.7,1176.8,2415.6,1177.3z"/>
				</g>
				<g>
					<path class="st5" d="M2353.7,1255c-66.4-32.8-70.1-55.3-70.1-55.3s16.6,139.3,85.8,157.1h42.4
						C2411.9,1356.8,2420.2,1287.9,2353.7,1255z"/>
					<path class="st6" d="M2283.9,1200.7c-0.2-0.7-0.3-1.1-0.3-1.1s16.6,139.3,85.8,157.1h42.4c0,0,0.7-5.8,0.1-14.9
						C2332,1361.7,2287.9,1214.7,2283.9,1200.7z"/>
				</g>
				<g>
					<path class="st5" d="M2919.3,1243.2c-72.3,30.3-63.3,93.8-63.3,93.8h46.2c75.3-16.5,93.4-144.9,93.4-144.9
						S2991.6,1212.9,2919.3,1243.2z"/>
					<path class="st6" d="M2855.9,1323.3c-0.7,8.4,0.1,13.7,0.1,13.7h46.2c75.3-16.5,93.4-144.9,93.4-144.9s-0.1,0.3-0.3,1
						C2990.9,1206,2943,1341.6,2855.9,1323.3z"/>
				</g>
				<g>
					<path class="st5" d="M2876.3,1233.9c-44.5,35.9-24.6,78.9-24.6,78.9l32.6-9.3c49.6-26.8,35-121,35-121
						S2920.8,1198,2876.3,1233.9z"/>
					<path class="st6" d="M2919.2,1183.3c-0.3,9.9-5.3,115.2-70.5,119.8c1.3,6,3,9.7,3,9.7l32.6-9.3c49.6-26.8,35-121,35-121
						S2919.3,1182.8,2919.2,1183.3z"/>
				</g>
				<g>
					<path class="st5" d="M2857.3,1261.1c-66.4-32.8-70.1-55.3-70.1-55.3s16.6,139.3,85.8,157.1h42.4
						C2915.4,1362.9,2923.7,1293.9,2857.3,1261.1z"/>
					<path class="st6" d="M2787.5,1206.8c-0.2-0.7-0.3-1.1-0.3-1.1s16.6,139.3,85.8,157.1h42.4c0,0,0.7-5.8,0.1-14.9
						C2835.6,1367.8,2791.5,1220.8,2787.5,1206.8z"/>
				</g>
				<g>
					<path class="st5" d="M2721.2,1250.6c-53.8,55.9-19.3,110.6-19.3,110.6l42.3-18c62.2-44.4,25.9-169.1,25.9-169.1
						S2775,1194.7,2721.2,1250.6z"/>
					<path class="st6" d="M2770.3,1175.1c1.3,13.5,13.2,156.3-74.1,173.5c2.8,7.9,5.7,12.5,5.7,12.5l42.3-18
						c62.2-44.4,25.9-169.1,25.9-169.1S2770.2,1174.4,2770.3,1175.1z"/>
				</g>
				<g>
					<path class="st5" d="M2700.7,1250.4c-35.8,35.2-14.5,68.3-14.5,68.3l27.7-11.8c41-28.3,19.8-104.3,19.8-104.3
						S2736.5,1215.1,2700.7,1250.4z"/>
					<path class="st6" d="M2733.7,1203.2c0.6,8.3,5.7,95.8-51,107.8c1.7,4.8,3.5,7.6,3.5,7.6l27.7-11.8
						c41-28.3,19.8-104.3,19.8-104.3S2733.7,1202.8,2733.7,1203.2z"/>
				</g>
				<g>
					<path class="st5" d="M2687,1181.6c0,0-37,33-16.4,88l16.1,32.1c0,0,24.6-3.9,9.6-58.9C2681.4,1187.7,2687,1181.6,2687,1181.6z"
						/>
					<path class="st6" d="M2686.8,1182c0.1-0.3,0.2-0.4,0.2-0.4s-37,33-16.4,88l16.1,32.1c0,0,2.1-0.3,4.7-2.1
						C2654.9,1242,2684,1187.1,2686.8,1182z"/>
				</g>
				<g>
					<path class="st5" d="M2647,1202.6c0,0-38.8,76.2,19.5,137.2l40,32.4c0,0,34.8-25.1-15.1-90.8
						C2641.7,1215.7,2647,1202.6,2647,1202.6z"/>
					<path class="st6" d="M2646.9,1203.3c0-0.5,0.1-0.7,0.1-0.7s-38.8,76.2,19.5,137.2l40,32.4c0,0,2.9-2.1,5.9-6.7
						C2629.3,1313.4,2645.2,1212.7,2646.9,1203.3z"/>
				</g>
				<g>
					<path class="st5" d="M2571.9,1255.7c-53.8,55.9-19.3,110.6-19.3,110.6l42.3-18c62.2-44.4,25.9-169.1,25.9-169.1
						S2625.7,1199.8,2571.9,1255.7z"/>
					<path class="st6" d="M2620.9,1180.2c1.3,13.5,13.2,156.3-74.1,173.5c2.8,7.9,5.7,12.5,5.7,12.5l42.3-18
						c62.2-44.4,25.9-169.1,25.9-169.1S2620.9,1179.5,2620.9,1180.2z"/>
				</g>
				<g>
					<path class="st5" d="M2551.4,1255.5c-35.8,35.2-14.5,68.3-14.5,68.3l27.7-11.8c41-28.3,19.8-104.3,19.8-104.3
						S2587.1,1220.2,2551.4,1255.5z"/>
					<path class="st6" d="M2584.4,1208.3c0.6,8.3,5.7,95.8-51,107.8c1.7,4.8,3.5,7.6,3.5,7.6l27.7-11.8
						c41-28.3,19.8-104.3,19.8-104.3S2584.4,1207.9,2584.4,1208.3z"/>
				</g>
				<g>
					<path class="st5" d="M2537.7,1186.7c0,0-37,33-16.4,88l16.1,32.1c0,0,24.6-3.9,9.6-58.9
						C2532.1,1192.8,2537.7,1186.7,2537.7,1186.7z"/>
					<path class="st6" d="M2537.5,1187.1c0.1-0.3,0.2-0.4,0.2-0.4s-37,33-16.4,88l16.1,32.1c0,0,2.1-0.3,4.7-2.1
						C2505.6,1247.1,2534.6,1192.2,2537.5,1187.1z"/>
				</g>
				<g>
					<path class="st5" d="M2497.7,1207.7c0,0-38.8,76.2,19.5,137.2l40,32.4c0,0,34.8-25.1-15.1-90.8
						C2492.4,1220.8,2497.7,1207.7,2497.7,1207.7z"/>
					<path class="st6" d="M2497.5,1208.4c0-0.5,0.1-0.7,0.1-0.7s-38.8,76.2,19.5,137.2l40,32.4c0,0,2.9-2.1,5.9-6.7
						C2480,1318.5,2495.8,1217.8,2497.5,1208.4z"/>
				</g>
			</g>
			<rect x="2283.6" y="1282.5" class="st5" width="717.2" height="305.5"/>
		</g>
		<g>
			<path class="st7" d="M2574.9,1401.5h-34.7c-60.4,0-112.4-42.8-124-102l-20.6-105c-1.4-7-8.2-11.6-15.3-10.2
				c-7,1.4-11.6,8.2-10.2,15.3l0.6,3.1l37.9,226.2c0.6,3.2,3.4,5.5,6.7,5.5h1.2h139.3v13.1v140.8h13.6v-127v-26.9h2.2
				c3.8,0,7-2.9,7-6.7c0-0.2,0-0.5,0-0.7c1.7-0.5,3.3-1.4,4.7-2.5c0.5-0.4,1-0.8,1.4-1.3c0.6-0.6,1-1.3,1.5-2c1.1-1.8,1.7-3.8,1.8-6
				h0C2588.2,1407.6,2582.3,1401.5,2574.9,1401.5z"/>
			<polygon class="st7" points="2413.4,1454.8 2394.2,1587.4 2407.8,1587.4 2428.5,1444.9 2430,1434.2 2416.4,1434.2 			"/>
			<path class="st7" d="M2880.4,1401.5c-7.4,0-13.3,6.2-13,13.6c0.1,2.2,0.8,4.2,1.8,6c0.4,0.7,0.9,1.4,1.5,2
				c0.4,0.5,0.9,0.9,1.4,1.3c1.1,0.9,2.3,1.7,3.7,2.2c0.3,0.1,0.7,0.2,1,0.4c0,0.2,0,0.5,0,0.7c0.1,3.8,3.3,6.7,7,6.7h2.2v26.9v127
				h13.6v-140.8v-13.1h101v-66.1c-22.7,20.8-52.9,33.3-85.5,33.3H2880.4z"/>
			<path class="st7" d="M2885.6,1339.8c-0.1-2.8-1.1-5.3-2.8-7.3c0,0,0,0,0,0c-0.2-0.3-0.5-0.5-0.7-0.8c0,0,0,0-0.1-0.1
				c-0.2-0.2-0.5-0.5-0.8-0.7c0,0-0.1-0.1-0.1-0.1c-0.2-0.2-0.5-0.4-0.8-0.6c-0.1,0-0.1-0.1-0.2-0.1c-0.2-0.2-0.5-0.3-0.7-0.4
				c-0.1-0.1-0.2-0.1-0.3-0.2c-0.2-0.1-0.5-0.2-0.7-0.3c-0.1-0.1-0.3-0.1-0.4-0.2c-0.2-0.1-0.4-0.2-0.6-0.2
				c-0.2-0.1-0.4-0.1-0.6-0.1c-0.2,0-0.4-0.1-0.6-0.1c-0.2,0-0.5-0.1-0.7-0.1c-0.2,0-0.3-0.1-0.5-0.1c-0.4,0-0.7-0.1-1.1-0.1
				c0,0-0.1,0-0.1,0h-122.7l-5.8-54.7h-27.1l-14.6,54.7H2581c0,0-0.1,0-0.1,0c-0.4,0-0.7,0-1.1,0.1c-0.2,0-0.3,0-0.5,0.1
				c-0.2,0-0.5,0.1-0.7,0.1c-0.2,0-0.4,0.1-0.6,0.1c-0.2,0-0.4,0.1-0.5,0.1c-0.2,0.1-0.4,0.2-0.6,0.2c-0.1,0.1-0.3,0.1-0.4,0.2
				c-0.2,0.1-0.5,0.2-0.7,0.3c-0.1,0.1-0.2,0.1-0.3,0.2c-0.3,0.1-0.5,0.3-0.7,0.4c-0.1,0-0.2,0.1-0.2,0.1c-0.3,0.2-0.5,0.4-0.8,0.6
				c0,0-0.1,0.1-0.1,0.1c-0.3,0.2-0.5,0.4-0.8,0.7c0,0,0,0-0.1,0.1c-0.3,0.3-0.5,0.5-0.7,0.8c0,0,0,0,0,0c-1.7,2-2.7,4.5-2.8,7.3
				c0,0,0,0,0,0c0,0,0,0,0,0c0,0.1,0,0.2,0,0.2c0,6.5,5.3,11.8,11.8,11.8h19.7v4.5v0c0,0.5,0,0.9,0.1,1.4s0.2,0.9,0.4,1.3
				c1,2.4,3.4,4.1,6.2,4.1h4.5h22.6l-4,39.2c0,0,0,0,0,0l-18.6,182.7h23.2l21-205.4l1.7-16.5h139.3l1.7,16.5l21,205.4h23.2
				l-18.6-182.7c0,0,0,0,0,0l-4-39.2h27.1c3.7,0,6.7-3,6.7-6.7v0v-4.5h19.7c6.5,0,11.8-5.3,11.8-11.8
				C2885.6,1339.9,2885.6,1339.9,2885.6,1339.8C2885.6,1339.8,2885.6,1339.8,2885.6,1339.8z"/>
		</g>
		<g>
			<g>
				<rect x="2755.1" class="st5" width="20.4" height="385.2"/>
				<path class="st5" d="M2765.3,362.1c-39.5,0-73.2,28.6-85.8,68.6h171.5C2838.5,390.8,2804.8,362.1,2765.3,362.1z"/>
				<circle class="st5" cx="2765.3" cy="423.6" r="38.4"/>
			</g>
			<g>
				<rect x="2515" class="st5" width="20.4" height="620.6"/>
				<path class="st5" d="M2525.2,597.6c-39.5,0-73.2,28.6-85.8,68.6H2611C2598.4,626.2,2564.8,597.6,2525.2,597.6z"/>
				<circle class="st5" cx="2525.2" cy="659" r="38.4"/>
			</g>
		</g>
	</g>
	<g>
		<g>
			<path class="st1" d="M613.4,257.5H105.1c-15.1,0-27.3,12.2-27.3,27.3V1421h562.8V284.8C640.7,269.7,628.5,257.5,613.4,257.5z"/>
			<path class="st4" d="M596.9,287.7H121.6c-4,0-7.3,3.3-7.3,7.3v1095.7h489.9V295C604.2,291,601,287.7,596.9,287.7z"/>
			<rect x="346.1" y="287.7" class="st1" width="26.3" height="1070.8"/>
			<rect x="111.9" y="532.4" class="st1" width="494.8" height="23.3"/>
			<rect x="107.3" y="785.4" class="st1" width="502.6" height="23.3"/>
			<rect x="102.7" y="1038.4" class="st1" width="507.2" height="23.3"/>
		</g>
		<g>
			<g>
				<g>
					<path class="st5" d="M132.7,1237.2c-72.3,30.3-63.3,93.8-63.3,93.8h46.2c75.3-16.5,93.4-144.9,93.4-144.9
						S205,1207,132.7,1237.2z"/>
					<path class="st6" d="M69.4,1317.4c-0.7,8.4,0.1,13.7,0.1,13.7h46.2c75.3-16.5,93.4-144.9,93.4-144.9s-0.1,0.3-0.3,1
						C204.4,1200.1,156.4,1335.6,69.4,1317.4z"/>
				</g>
				<g>
					<path class="st5" d="M89.7,1228c-44.5,35.9-24.6,78.9-24.6,78.9l32.6-9.3c49.6-26.8,35-121,35-121S134.3,1192.1,89.7,1228z"/>
					<path class="st6" d="M132.6,1177.4c-0.3,9.9-5.3,115.2-70.5,119.8c1.3,6,3,9.7,3,9.7l32.6-9.3c49.6-26.8,35-121,35-121
						S132.7,1176.9,132.6,1177.4z"/>
				</g>
				<g>
					<path class="st5" d="M70.8,1255.1c-66.4-32.8-70.1-55.3-70.1-55.3s16.6,139.3,85.8,157.1h42.4
						C128.9,1356.9,137.2,1288,70.8,1255.1z"/>
					<path class="st6" d="M1,1200.8c-0.2-0.7-0.3-1.1-0.3-1.1s16.6,139.3,85.8,157.1h42.4c0,0,0.7-5.8,0.1-14.9
						C49,1361.8,5,1214.8,1,1200.8z"/>
				</g>
				<g>
					<path class="st5" d="M636.3,1243.3c-72.3,30.3-63.3,93.8-63.3,93.8h46.2c75.3-16.5,93.4-144.9,93.4-144.9
						S708.6,1213,636.3,1243.3z"/>
					<path class="st6" d="M572.9,1323.4c-0.7,8.4,0.1,13.7,0.1,13.7h46.2c75.3-16.5,93.4-144.9,93.4-144.9s-0.1,0.3-0.3,1
						C708,1206.1,660,1341.7,572.9,1323.4z"/>
				</g>
				<g>
					<path class="st5" d="M593.3,1234.1c-44.5,35.9-24.6,78.9-24.6,78.9l32.6-9.3c49.6-26.8,35-121,35-121
						S637.9,1198.1,593.3,1234.1z"/>
					<path class="st6" d="M636.2,1183.5c-0.3,9.9-5.3,115.2-70.5,119.8c1.3,6,3,9.7,3,9.7l32.6-9.3c49.6-26.8,35-121,35-121
						S636.3,1182.9,636.2,1183.5z"/>
				</g>
				<g>
					<path class="st5" d="M574.4,1261.2c-66.4-32.8-70.1-55.3-70.1-55.3s16.6,139.3,85.8,157.1h42.4
						C632.5,1363,640.8,1294,574.4,1261.2z"/>
					<path class="st6" d="M504.6,1206.9c-0.2-0.7-0.3-1.1-0.3-1.1s16.6,139.3,85.8,157.1h42.4c0,0,0.7-5.8,0.1-14.9
						C552.6,1367.9,508.5,1220.9,504.6,1206.9z"/>
				</g>
				<g>
					<path class="st5" d="M438.2,1250.7c-53.8,55.9-19.3,110.6-19.3,110.6l42.3-18c62.2-44.4,25.9-169.1,25.9-169.1
						S492,1194.8,438.2,1250.7z"/>
					<path class="st6" d="M487.3,1175.2c1.3,13.5,13.2,156.3-74.1,173.5c2.8,7.9,5.7,12.5,5.7,12.5l42.3-18
						c62.2-44.4,25.9-169.1,25.9-169.1S487.2,1174.5,487.3,1175.2z"/>
				</g>
				<g>
					<path class="st5" d="M417.7,1250.5c-35.8,35.2-14.5,68.3-14.5,68.3l27.7-11.8c41-28.3,19.8-104.3,19.8-104.3
						S453.5,1215.2,417.7,1250.5z"/>
					<path class="st6" d="M450.7,1203.3c0.6,8.3,5.7,95.8-51,107.8c1.7,4.8,3.5,7.6,3.5,7.6l27.7-11.8
						c41-28.3,19.8-104.3,19.8-104.3S450.7,1202.9,450.7,1203.3z"/>
				</g>
				<g>
					<path class="st5" d="M404,1181.7c0,0-37,33-16.4,88l16.1,32.1c0,0,24.6-3.9,9.6-58.9C398.4,1187.8,404,1181.7,404,1181.7z"/>
					<path class="st6" d="M403.8,1182.1c0.1-0.3,0.2-0.4,0.2-0.4s-37,33-16.4,88l16.1,32.1c0,0,2.1-0.3,4.7-2.1
						C372,1242.1,401,1187.2,403.8,1182.1z"/>
				</g>
				<g>
					<path class="st5" d="M364,1202.7c0,0-38.8,76.2,19.5,137.2l40,32.4c0,0,34.8-25.1-15.1-90.8
						C358.7,1215.8,364,1202.7,364,1202.7z"/>
					<path class="st6" d="M363.9,1203.4c0-0.5,0.1-0.7,0.1-0.7s-38.8,76.2,19.5,137.2l40,32.4c0,0,2.9-2.1,5.9-6.7
						C346.3,1313.5,362.2,1212.8,363.9,1203.4z"/>
				</g>
				<g>
					<path class="st5" d="M288.9,1255.8c-53.8,55.9-19.3,110.6-19.3,110.6l42.3-18c62.2-44.4,25.9-169.1,25.9-169.1
						S342.7,1199.9,288.9,1255.8z"/>
					<path class="st6" d="M337.9,1180.3c1.3,13.5,13.2,156.3-74.1,173.5c2.8,7.9,5.7,12.5,5.7,12.5l42.3-18
						c62.2-44.4,25.9-169.1,25.9-169.1S337.9,1179.6,337.9,1180.3z"/>
				</g>
				<g>
					<path class="st5" d="M268.4,1255.6c-35.8,35.2-14.5,68.3-14.5,68.3l27.7-11.8c41-28.3,19.8-104.3,19.8-104.3
						S304.2,1220.3,268.4,1255.6z"/>
					<path class="st6" d="M301.4,1208.4c0.6,8.3,5.7,95.8-51,107.8c1.7,4.8,3.5,7.6,3.5,7.6l27.7-11.8
						c41-28.3,19.8-104.3,19.8-104.3S301.4,1208,301.4,1208.4z"/>
				</g>
				<g>
					<path class="st5" d="M254.7,1186.8c0,0-37,33-16.4,88l16.1,32.1c0,0,24.6-3.9,9.6-58.9C249.1,1192.9,254.7,1186.8,254.7,1186.8
						z"/>
					<path class="st6" d="M254.5,1187.2c0.1-0.3,0.2-0.4,0.2-0.4s-37,33-16.4,88l16.1,32.1c0,0,2.1-0.3,4.7-2.1
						C222.6,1247.2,251.7,1192.3,254.5,1187.2z"/>
				</g>
				<g>
					<path class="st5" d="M214.7,1207.8c0,0-38.8,76.2,19.5,137.2l40,32.4c0,0,34.8-25.1-15.1-90.8
						C209.4,1220.9,214.7,1207.8,214.7,1207.8z"/>
					<path class="st6" d="M214.6,1208.5c0-0.5,0.1-0.7,0.1-0.7s-38.8,76.2,19.5,137.2l40,32.4c0,0,2.9-2.1,5.9-6.7
						C197,1318.6,212.9,1217.9,214.6,1208.5z"/>
				</g>
			</g>
			<rect x="0.7" y="1282.6" class="st5" width="717.2" height="305.5"/>
		</g>
		<g>
			<path class="st7" d="M119.6,1401.5H84.8c-32,0-61.6-12-84.2-32.1v64.9h99.7v13.1v140.8h13.6v-127v-26.9h2.2c3.8,0,7-2.9,7-6.7
				c0-0.2,0-0.5,0-0.7c0.3-0.1,0.7-0.2,1-0.4c1.3-0.5,2.6-1.3,3.7-2.2c0.5-0.4,1-0.8,1.4-1.3c0.6-0.6,1-1.3,1.5-2
				c1.1-1.8,1.7-3.8,1.8-6C132.9,1407.6,127,1401.5,119.6,1401.5z"/>
			<path class="st7" d="M430.7,1339.8C430.7,1339.8,430.7,1339.8,430.7,1339.8c-0.1-2.8-1.1-5.4-2.8-7.3c0,0,0,0,0,0
				c-0.2-0.3-0.5-0.5-0.7-0.8c0,0,0,0-0.1-0.1c-0.2-0.2-0.5-0.5-0.8-0.7c0,0-0.1-0.1-0.1-0.1c-0.2-0.2-0.5-0.4-0.8-0.6
				c-0.1,0-0.2-0.1-0.2-0.1c-0.2-0.2-0.5-0.3-0.7-0.4c-0.1-0.1-0.2-0.1-0.3-0.2c-0.2-0.1-0.5-0.2-0.7-0.3c-0.1-0.1-0.3-0.1-0.4-0.2
				c-0.2-0.1-0.4-0.2-0.6-0.2c-0.2-0.1-0.4-0.1-0.5-0.1c-0.2,0-0.4-0.1-0.6-0.1c-0.2,0-0.5-0.1-0.7-0.1c-0.2,0-0.3-0.1-0.5-0.1
				c-0.4,0-0.7-0.1-1.1-0.1c0,0-0.1,0-0.1,0H296.3l-14.6-54.7h-27.1l-5.8,54.7H126.2c0,0-0.1,0-0.1,0c-0.4,0-0.7,0-1.1,0.1
				c-0.2,0-0.3,0-0.5,0.1c-0.2,0-0.5,0.1-0.7,0.1c-0.2,0-0.4,0.1-0.6,0.1c-0.2,0-0.4,0.1-0.6,0.1c-0.2,0.1-0.4,0.2-0.6,0.2
				c-0.1,0.1-0.3,0.1-0.4,0.2c-0.2,0.1-0.5,0.2-0.7,0.3c-0.1,0.1-0.2,0.1-0.3,0.2c-0.3,0.1-0.5,0.3-0.7,0.4c-0.1,0-0.2,0.1-0.2,0.1
				c-0.3,0.2-0.5,0.4-0.8,0.6c0,0-0.1,0.1-0.1,0.1c-0.3,0.2-0.5,0.4-0.8,0.7c0,0,0,0-0.1,0.1c-0.3,0.3-0.5,0.5-0.7,0.8c0,0,0,0,0,0
				c-1.7,2-2.7,4.5-2.8,7.3c0,0,0,0,0,0c0,0.1,0,0.2,0,0.2c0,6.5,5.3,11.8,11.8,11.8h19.7v4.5v0c0,3.7,3,6.7,6.7,6.7h27.1l-4,39.2
				c0,0,0,0,0,0l-18.6,182.7h23.2l21-205.4l1.7-16.5h139.3l1.7,16.5l21,205.4h23.2l-18.6-182.7c0,0,0,0,0,0l-4-39.2h22.6h4.5
				c2.8,0,5.2-1.7,6.2-4.1c0.2-0.4,0.3-0.8,0.4-1.3s0.1-0.9,0.1-1.4v0v-4.5H419c6.5,0,11.8-5.3,11.8-11.8
				C430.8,1339.9,430.7,1339.9,430.7,1339.8C430.7,1339.8,430.7,1339.8,430.7,1339.8z"/>
			<path class="st7" d="M619.7,1184.2c-7-1.4-13.9,3.2-15.3,10.2l-20.6,105c-11.6,59.3-63.6,102-124,102h-34.7
				c-7.4,0-13.3,6.2-13,13.6h0c0.1,2.2,0.8,4.2,1.8,6c0.4,0.7,0.9,1.4,1.5,2c0.4,0.5,0.9,0.9,1.4,1.3c1.4,1.1,3,2,4.7,2.5
				c0,0.2,0,0.5,0,0.7c0.1,3.8,3.3,6.7,7,6.7h2.2v26.9v127h13.6v-140.8v-13.1h139.3h1.2c3.2,0,6-2.3,6.7-5.5l37.9-226.2l0.6-3.1
				C631.3,1192.4,626.7,1185.6,619.7,1184.2z"/>
			<polygon class="st7" points="583.6,1434.2 570,1434.2 571.5,1444.9 592.2,1587.4 605.8,1587.4 586.6,1454.8 			"/>
		</g>
		<g>
			<g>
				<rect x="228.5" class="st5" width="20.4" height="385.2"/>
				<path class="st5" d="M238.8,362.1c-39.5,0-73.2,28.6-85.8,68.6h171.5C311.9,390.8,278.3,362.1,238.8,362.1z"/>
				<circle class="st5" cx="238.8" cy="423.6" r="38.4"/>
			</g>
			<g>
				<rect x="468.6" class="st5" width="20.4" height="620.6"/>
				<path class="st5" d="M478.8,597.6c-39.5,0-73.2,28.6-85.8,68.6h171.5C552,626.2,518.4,597.6,478.8,597.6z"/>
				<circle class="st5" cx="478.8" cy="659" r="38.4"/>
			</g>
		</g>
	</g>
</g>
<line class="st0" x1="1567.2" y1="917.5" x2="1545.8" y2="922.9"/>
<g>
	<g>
		<rect x="816.8" y="181.5" class="st8" width="1367.8" height="359.7"/>
		<rect x="836.9" y="199.1" class="st9" width="314" height="324"/>
		<g>
			<path class="st10" d="M1081.9,237.5H888.3c-8,0-14.5,6.5-14.5,14.5c0,8,6.5,14.5,14.5,14.5h193.6c8,0,14.5-6.5,14.5-14.5
				C1096.4,244,1089.9,237.5,1081.9,237.5z"/>
			<path class="st10" d="M1057,334.5H856.1c-3.1,0-5.6,2.5-5.6,5.5s2.5,5.5,5.6,5.5H1057c3.1,0,5.6-2.5,5.6-5.5
				S1060.1,334.5,1057,334.5z"/>
			<path class="st10" d="M1057,366.5H856.1c-3.1,0-5.6,2.5-5.6,5.5s2.5,5.5,5.6,5.5H1057c3.1,0,5.6-2.5,5.6-5.5
				S1060.1,366.5,1057,366.5z"/>
			<path class="st10" d="M1057,398.5H856.1c-3.1,0-5.6,2.5-5.6,5.5s2.5,5.5,5.6,5.5H1057c3.1,0,5.6-2.5,5.6-5.5
				S1060.1,398.5,1057,398.5z"/>
			<path class="st10" d="M1057,430.5H856.1c-3.1,0-5.6,2.5-5.6,5.5s2.5,5.5,5.6,5.5H1057c3.1,0,5.6-2.5,5.6-5.5
				S1060.1,430.5,1057,430.5z"/>
			<path class="st10" d="M1057,462.5H856.1c-3.1,0-5.6,2.5-5.6,5.5s2.5,5.5,5.6,5.5H1057c3.1,0,5.6-2.5,5.6-5.5
				S1060.1,462.5,1057,462.5z"/>
			<path class="st10" d="M1110.4,335h-19.6c-2.8,0-5.1,2.2-5.1,5s2.3,5,5.1,5h19.6c2.8,0,5.1-2.2,5.1-5S1113.2,335,1110.4,335z"/>
			<path class="st10" d="M1109.1,367h-19.6c-2.8,0-5.1,2.2-5.1,5s2.3,5,5.1,5h19.6c2.8,0,5.1-2.2,5.1-5S1111.9,367,1109.1,367z"/>
			<path class="st10" d="M1107.7,399h-19.6c-2.8,0-5.1,2.2-5.1,5s2.3,5,5.1,5h19.6c2.8,0,5.1-2.2,5.1-5S1110.5,399,1107.7,399z"/>
			<path class="st10" d="M1106.4,431h-19.6c-2.8,0-5.1,2.2-5.1,5s2.3,5,5.1,5h19.6c2.8,0,5.1-2.2,5.1-5S1109.2,431,1106.4,431z"/>
			<path class="st10" d="M1105,463h-19.6c-2.8,0-5.1,2.2-5.1,5s2.3,5,5.1,5h19.6c2.8,0,5.1-2.2,5.1-5S1107.8,463,1105,463z"/>
		</g>
		<rect x="1174.4" y="199.1" class="st9" width="314" height="324"/>
		<g>
			<path class="st10" d="M1419.4,237.5h-193.6c-8,0-14.5,6.5-14.5,14.5c0,8,6.5,14.5,14.5,14.5h193.6c8,0,14.5-6.5,14.5-14.5
				C1433.9,244,1427.4,237.5,1419.4,237.5z"/>
			<path class="st10" d="M1394.6,334.5h-200.9c-3.1,0-5.6,2.5-5.6,5.5s2.5,5.5,5.6,5.5h200.9c3.1,0,5.6-2.5,5.6-5.5
				S1397.7,334.5,1394.6,334.5z"/>
			<path class="st10" d="M1394.6,366.5h-200.9c-3.1,0-5.6,2.5-5.6,5.5s2.5,5.5,5.6,5.5h200.9c3.1,0,5.6-2.5,5.6-5.5
				S1397.7,366.5,1394.6,366.5z"/>
			<path class="st10" d="M1394.6,398.5h-200.9c-3.1,0-5.6,2.5-5.6,5.5s2.5,5.5,5.6,5.5h200.9c3.1,0,5.6-2.5,5.6-5.5
				S1397.7,398.5,1394.6,398.5z"/>
			<path class="st10" d="M1394.6,430.5h-200.9c-3.1,0-5.6,2.5-5.6,5.5s2.5,5.5,5.6,5.5h200.9c3.1,0,5.6-2.5,5.6-5.5
				S1397.7,430.5,1394.6,430.5z"/>
			<path class="st10" d="M1394.6,462.5h-200.9c-3.1,0-5.6,2.5-5.6,5.5s2.5,5.5,5.6,5.5h200.9c3.1,0,5.6-2.5,5.6-5.5
				S1397.7,462.5,1394.6,462.5z"/>
			<path class="st10" d="M1448,335h-19.6c-2.8,0-5.1,2.2-5.1,5s2.3,5,5.1,5h19.6c2.8,0,5.1-2.2,5.1-5S1450.8,335,1448,335z"/>
			<path class="st10" d="M1446.6,367h-19.6c-2.8,0-5.1,2.2-5.1,5s2.3,5,5.1,5h19.6c2.8,0,5.1-2.2,5.1-5S1449.4,367,1446.6,367z"/>
			<path class="st10" d="M1445.3,399h-19.6c-2.8,0-5.1,2.2-5.1,5s2.3,5,5.1,5h19.6c2.8,0,5.1-2.2,5.1-5S1448.1,399,1445.3,399z"/>
			<path class="st10" d="M1443.9,431h-19.6c-2.8,0-5.1,2.2-5.1,5s2.3,5,5.1,5h19.6c2.8,0,5.1-2.2,5.1-5S1446.7,431,1443.9,431z"/>
			<path class="st10" d="M1442.6,463H1423c-2.8,0-5.1,2.2-5.1,5s2.3,5,5.1,5h19.6c2.8,0,5.1-2.2,5.1-5S1445.4,463,1442.6,463z"/>
		</g>
		<rect x="1512" y="199.1" class="st9" width="314" height="324"/>
		<g>
			<path class="st10" d="M1757,237.5h-193.6c-8,0-14.5,6.5-14.5,14.5c0,8,6.5,14.5,14.5,14.5H1757c8,0,14.5-6.5,14.5-14.5
				C1771.5,244,1765,237.5,1757,237.5z"/>
			<path class="st10" d="M1732.1,334.5h-200.9c-3.1,0-5.6,2.5-5.6,5.5s2.5,5.5,5.6,5.5h200.9c3.1,0,5.6-2.5,5.6-5.5
				S1735.2,334.5,1732.1,334.5z"/>
			<path class="st10" d="M1732.1,366.5h-200.9c-3.1,0-5.6,2.5-5.6,5.5s2.5,5.5,5.6,5.5h200.9c3.1,0,5.6-2.5,5.6-5.5
				S1735.2,366.5,1732.1,366.5z"/>
			<path class="st10" d="M1732.1,398.5h-200.9c-3.1,0-5.6,2.5-5.6,5.5s2.5,5.5,5.6,5.5h200.9c3.1,0,5.6-2.5,5.6-5.5
				S1735.2,398.5,1732.1,398.5z"/>
			<path class="st10" d="M1732.1,430.5h-200.9c-3.1,0-5.6,2.5-5.6,5.5s2.5,5.5,5.6,5.5h200.9c3.1,0,5.6-2.5,5.6-5.5
				S1735.2,430.5,1732.1,430.5z"/>
			<path class="st10" d="M1732.1,462.5h-200.9c-3.1,0-5.6,2.5-5.6,5.5s2.5,5.5,5.6,5.5h200.9c3.1,0,5.6-2.5,5.6-5.5
				S1735.2,462.5,1732.1,462.5z"/>
			<path class="st10" d="M1785.5,335H1766c-2.8,0-5.1,2.2-5.1,5s2.3,5,5.1,5h19.6c2.8,0,5.1-2.2,5.1-5S1788.3,335,1785.5,335z"/>
			<path class="st10" d="M1784.2,367h-19.6c-2.8,0-5.1,2.2-5.1,5s2.3,5,5.1,5h19.6c2.8,0,5.1-2.2,5.1-5S1787,367,1784.2,367z"/>
			<path class="st10" d="M1782.8,399h-19.6c-2.8,0-5.1,2.2-5.1,5s2.3,5,5.1,5h19.6c2.8,0,5.1-2.2,5.1-5S1785.6,399,1782.8,399z"/>
			<path class="st10" d="M1781.5,431h-19.6c-2.8,0-5.1,2.2-5.1,5s2.3,5,5.1,5h19.6c2.8,0,5.1-2.2,5.1-5S1784.3,431,1781.5,431z"/>
			<path class="st10" d="M1780.1,463h-19.6c-2.8,0-5.1,2.2-5.1,5s2.3,5,5.1,5h19.6c2.8,0,5.1-2.2,5.1-5S1782.9,463,1780.1,463z"/>
		</g>
		<rect x="1849.5" y="199.1" class="st9" width="314" height="324"/>
		<g>
			<path class="st10" d="M2094.5,237.5h-193.6c-8,0-14.5,6.5-14.5,14.5c0,8,6.5,14.5,14.5,14.5h193.6c8,0,14.5-6.5,14.5-14.5
				C2109,244,2102.5,237.5,2094.5,237.5z"/>
			<path class="st10" d="M2069.7,334.5h-200.9c-3.1,0-5.6,2.5-5.6,5.5s2.5,5.5,5.6,5.5h200.9c3.1,0,5.6-2.5,5.6-5.5
				S2072.8,334.5,2069.7,334.5z"/>
			<path class="st10" d="M2069.7,366.5h-200.9c-3.1,0-5.6,2.5-5.6,5.5s2.5,5.5,5.6,5.5h200.9c3.1,0,5.6-2.5,5.6-5.5
				S2072.8,366.5,2069.7,366.5z"/>
			<path class="st10" d="M2069.7,398.5h-200.9c-3.1,0-5.6,2.5-5.6,5.5s2.5,5.5,5.6,5.5h200.9c3.1,0,5.6-2.5,5.6-5.5
				S2072.8,398.5,2069.7,398.5z"/>
			<path class="st10" d="M2069.7,430.5h-200.9c-3.1,0-5.6,2.5-5.6,5.5s2.5,5.5,5.6,5.5h200.9c3.1,0,5.6-2.5,5.6-5.5
				S2072.8,430.5,2069.7,430.5z"/>
			<path class="st10" d="M2069.7,462.5h-200.9c-3.1,0-5.6,2.5-5.6,5.5s2.5,5.5,5.6,5.5h200.9c3.1,0,5.6-2.5,5.6-5.5
				S2072.8,462.5,2069.7,462.5z"/>
			<path class="st10" d="M2123.1,335h-19.6c-2.8,0-5.1,2.2-5.1,5s2.3,5,5.1,5h19.6c2.8,0,5.1-2.2,5.1-5S2125.9,335,2123.1,335z"/>
			<path class="st10" d="M2121.7,367h-19.6c-2.8,0-5.1,2.2-5.1,5s2.3,5,5.1,5h19.6c2.8,0,5.1-2.2,5.1-5S2124.5,367,2121.7,367z"/>
			<path class="st10" d="M2120.4,399h-19.6c-2.8,0-5.1,2.2-5.1,5s2.3,5,5.1,5h19.6c2.8,0,5.1-2.2,5.1-5S2123.2,399,2120.4,399z"/>
			<path class="st10" d="M2119,431h-19.6c-2.8,0-5.1,2.2-5.1,5s2.3,5,5.1,5h19.6c2.8,0,5.1-2.2,5.1-5S2121.8,431,2119,431z"/>
			<path class="st10" d="M2117.7,463h-19.6c-2.8,0-5.1,2.2-5.1,5s2.3,5,5.1,5h19.6c2.8,0,5.1-2.2,5.1-5S2120.5,463,2117.7,463z"/>
		</g>
	</g>
	<g>
		<g>
			<path class="st11" d="M1848.7,916.2l-50.2-12.6c-7.3-1.8-12.5-8.4-12.5-16v-26.2h-42.5v26c0,7.6-5.1,14.2-12.5,16l-50.9,12.7
				l21.9,122.8c6.3,35.3,5.9,71.4-1.1,106.6h63.4h63.4v0c-7-35.1-7.4-71.3-1.1-106.6L1848.7,916.2z"/>
			<path class="st12" d="M1848.7,916.2l-45.9-11.5c-2.3,19.2-18.6,34.1-38.3,34.1s-36.1-14.9-38.3-34.1l-45.9,11.5l21.9,122.8
				c6.3,35.3,5.9,71.4-1.1,106.6h63.4h63.4v0c-7-35.1-7.4-71.3-1.1-106.6L1848.7,916.2z"/>
			<path class="st3" d="M1706.4,1079.4c0.2,6.4,0.2,12.8,0,19.2h116.1c-0.2-6.4-0.2-12.8,0-19.2H1706.4z"/>
			<path class="st13" d="M1707.3,1109.8l5.4,36.1c10.9-27,89.3-31.5,89.3-31.5l14.1-15.7h-109.7L1707.3,1109.8z"/>
			<g>
				<path class="st12" d="M1673.1,1054.4l30.6-114.8c2.7-10.2-3.3-20.6-13.5-23.3c-10.2-2.7-20.6,3.3-23.3,13.5l-33.3,124.8
					c-1.7,6.2-0.1,12.8,4.2,17.6l84.2,93.8c3.8,4.2,9,6.3,14.2,6.3c4.5,0,9.1-1.6,12.7-4.9c7.8-7,8.5-19.1,1.5-26.9L1673.1,1054.4z"
					/>
				<circle class="st14" cx="1732.6" cy="1151.1" r="24.2"/>
			</g>
			<g>
				<path class="st12" d="M1862,929.7c-2.7-10.2-13.2-16.2-23.3-13.5c-10.2,2.7-16.2,13.2-13.5,23.3l30.6,114.8l-77.3,86.2
					c-7,7.8-6.4,19.9,1.5,26.9c3.6,3.3,8.2,4.9,12.7,4.9c5.2,0,10.4-2.1,14.2-6.3l84.2-93.8c4.3-4.8,5.9-11.4,4.2-17.6L1862,929.7z"
					/>
				<circle class="st14" cx="1796.2" cy="1151.1" r="24.2"/>
			</g>
			<path class="st13" d="M1692.3,984.1l-0.2-1.1C1692.1,983,1692.2,983.4,1692.3,984.1z"/>
			<path class="st13" d="M1692.3,984.1l14.1,95.3h116.1C1710.2,1071.5,1693.9,994,1692.3,984.1z"/>
		</g>
		<g>
			<path class="st14" d="M1764.4,731.1c-37,0-68.4,31.2-63.2,70.2c5.4,41.2,36.4,84.5,63.2,84.5s57.8-43.2,63.2-84.5
				C1832.8,762.4,1801.4,731.1,1764.4,731.1z"/>
			<g>
				<path class="st15" d="M1809.1,746.5C1809.1,746.5,1809.1,746.5,1809.1,746.5c0,0-0.1-0.1-0.1-0.1c-0.3-0.3-0.7-0.5-1.1-0.8
					c-0.4-0.3-0.7-0.5-1.1-0.8c-0.4-0.3-0.7-0.5-1.1-0.7c-0.8-0.5-1.5-1-2.3-1.5c-0.3-0.2-0.6-0.4-1-0.6c-0.4-0.2-0.8-0.5-1.3-0.7
					c-0.3-0.2-0.7-0.4-1-0.6c-0.4-0.2-0.9-0.5-1.3-0.7c-0.4-0.2-0.7-0.4-1.1-0.5c-0.4-0.2-0.9-0.4-1.4-0.6c-0.4-0.2-0.7-0.3-1.1-0.5
					c-0.5-0.2-0.9-0.4-1.4-0.6c-0.4-0.1-0.7-0.3-1.1-0.4c-0.5-0.2-1-0.4-1.4-0.5c-0.4-0.1-0.7-0.3-1.1-0.4c-0.5-0.2-1-0.3-1.5-0.5
					c-0.3-0.1-0.5-0.2-0.8-0.3c0,0,0,0,0,0c-0.3-0.1-0.5-0.2-0.8-0.3c0.1-0.9,0.1-1.9,0.1-2.9c0-18.4-14.9-33.4-33.4-33.4
					c-10.4,0-19.7,4.8-25.8,12.2c-6.5-4.7-14.6-7.5-23.3-7.5c-22,0-39.8,17.8-39.8,39.8c0,5,0.9,9.8,2.6,14.2
					c-9.8,5.8-16.4,16.5-16.4,28.7c0,18.4,14.9,33.4,33.4,33.4c15,0,27.7-9.9,31.9-23.6c7.7-1.5,15.7-3.6,23.7-6.3
					c21.1-7,39.3-16.6,52.5-27.1c4.5,8.9,11.8,17.7,21.3,24.9c5.5,4.2,11.3,7.5,17.2,10C1833.9,776.9,1824.5,758.4,1809.1,746.5z"/>
				<circle class="st16" cx="1695.2" cy="729.4" r="15.2"/>
				<circle class="st16" cx="1754.7" cy="720.4" r="15.2"/>
				<circle class="st16" cx="1680" cy="793.8" r="15.2"/>
			</g>
			<g>
				
					<ellipse transform="matrix(0.9965 -8.329684e-02 8.329684e-02 0.9965 -61.804 147.5308)" class="st15" cx="1737.2" cy="814.4" rx="5.2" ry="6.3"/>
				<path class="st15" d="M1736.4,806c-2.1,0.2-4,0.9-5.8,1.6c-4.5,1.6-7.2,2.3-10.2-1c-0.7-0.8-1.9-0.8-2.7-0.1
					c-0.8,0.7-0.8,1.9-0.1,2.7c4.8,5.3,10,3.5,14.2,2c1.7-0.6,3.4-1.2,5-1.4c5.3-0.6,7.7,4.1,7.8,4.3c0.4,0.7,1.1,1.1,1.9,1
					c0.2,0,0.5-0.1,0.7-0.2c0.9-0.5,1.3-1.6,0.9-2.5C1747.9,812.2,1744.4,805.1,1736.4,806z"/>
			</g>
			<g>
				
					<ellipse transform="matrix(8.329684e-02 -0.9965 0.9965 8.329684e-02 830.8385 2532.0806)" class="st15" cx="1791.7" cy="814.4" rx="6.3" ry="5.2"/>
				<path class="st15" d="M1808.4,806.6c-3,3.3-5.7,2.6-10.2,1c-1.9-0.6-3.8-1.3-5.8-1.6c-8-1-11.5,6.1-11.7,6.4
					c-0.5,0.9-0.1,2.1,0.9,2.5c0.2,0.1,0.4,0.2,0.7,0.2c0.8,0.1,1.5-0.3,1.9-1c0.1-0.2,2.6-4.9,7.8-4.3c1.6,0.2,3.3,0.8,5,1.4
					c4.2,1.5,9.4,3.3,14.2-2c0.7-0.8,0.6-2-0.1-2.7C1810.3,805.8,1809.1,805.8,1808.4,806.6z"/>
			</g>
			<g>
				<path class="st17" d="M1764.4,869.7c10.3,0,18.9-7.2,20.5-16.6h-41.1C1745.6,862.6,1754.1,869.7,1764.4,869.7z"/>
				<path class="st18" d="M1764.4,855.3c-6.3,0-11.6,4-13.5,9.6c3.6,3,8.4,4.8,13.5,4.8s9.9-1.8,13.5-4.8
					C1776,859.4,1770.7,855.3,1764.4,855.3z"/>
			</g>
			<path class="st19" d="M1765.7,822.7c-0.4-1.1-2-1.1-2.5,0l-4.9,12.1c-1.2,2.9,1,6.1,4.1,6.1h2h2c3.1,0,5.3-3.2,4.1-6.1
				L1765.7,822.7z"/>
		</g>
	</g>
	<g>
		<g>
			<g>
				<rect x="1856" y="922" class="st20" width="15.4" height="75.1"/>
				<path class="st20" d="M2045.2,997H1832c-5.9,0-10.7,4.8-10.7,10.7v40.5H2056v-40.5C2056,1001.8,2051.1,997,2045.2,997z"/>
				<path class="st20" d="M2066.3,1048.3h-255.4c-3.4,0-6.1,2.7-6.1,6.1v0c0,3.4,2.7,6.1,6.1,6.1h255.4c3.4,0,6.1-2.7,6.1-6.1v0
					C2072.4,1051,2069.7,1048.3,2066.3,1048.3z"/>
				<rect x="1811.5" y="1060.5" class="st20" width="254.2" height="85"/>
				<path class="st21" d="M1906.1,912.5h-83.5c-5.8,0-10.5,4.7-10.5,10.5v14.2c0,5.8,4.7,10.5,10.5,10.5h83.5
					c5.8,0,10.5-4.7,10.5-10.5V923C1916.7,917.2,1911.9,912.5,1906.1,912.5z"/>
				<path class="st22" d="M1856,959.5c2.5-9,15.4-7.1,15.4-7.1v-4.6H1856V959.5z"/>
				<path class="st22" d="M1811.5,1095.5c20.2-31.4,254.2-28.4,254.2-28.4v-6.6h-254.2V1095.5z"/>
				<path class="st23" d="M2045.2,997H1832c-5.9,0-10.7,4.8-10.7,10.7v21.6c34.5,5.2,74.6,8.1,117.4,8.1c42.8,0,82.9-3,117.4-8.1
					v-21.6C2056,1001.8,2051.1,997,2045.2,997z"/>
			</g>
		</g>
		<g>
			<rect x="717.9" class="st24" width="98.9" height="1588.9"/>
			<rect x="2184.6" class="st24" width="98.9" height="1588.9"/>
			<rect x="816.8" y="1188.9" class="st25" width="1367.8" height="400"/>
			<rect x="816.8" y="1145.5" class="st26" width="1367.8" height="43.4"/>
			<rect x="816.8" y="1188.9" class="st27" width="1367.8" height="33"/>
			<g>
				<g>
					<path class="st28" d="M816.8,1340.7v26.7c4.6,11,9.9,21.7,15,32.3c15.1,31.2,32.1,70.9,14.6,104.7
						c-6.4,12.3-16.6,22.3-29.6,26.7v9.6c29.6-7.6,46-39.6,45.9-68.8c-0.2-40.2-23.6-74.1-38.5-109.9
						C821.4,1355.2,818.8,1348,816.8,1340.7z"/>
					<path class="st28" d="M871.6,1392.8c-5.1-41.2-12.4-82.5-14.6-122.4c-1.5-27.3-0.6-54.7,4.7-81.5h-9.3
						c-19.7,102.1,23.5,204.6,13.8,307.4c-2.7,28.6-9.9,56.9-23.3,82.4c-2.8,5.2,5.1,9.8,7.9,4.6c12.1-22.9,19.2-46.5,22.9-70.7
						c-0.3-5.3-0.5-10.7-0.7-16C871.5,1462.1,871.1,1427.4,871.6,1392.8z"/>
					<path class="st28" d="M942,1189.5c0-0.2,0-0.4,0-0.5h-9.1c0,0.2,0,0.4,0,0.5c1.2,107.3,2.3,214.6,3.5,321.9
						c0.3,25.8,0.6,51.7,0.8,77.5h9.2c-1.1-102.7-2.2-205.3-3.4-308C942.7,1250.4,942.4,1220,942,1189.5z"/>
					<path class="st28" d="M910.1,1516.5c0,24.1,0,48.3-0.1,72.4h9.2c0.1-105.1,0.2-210.3,0.2-315.4c0-28.2,0-56.4,0.1-84.6h-9.2
						C910.3,1298.1,910.2,1407.3,910.1,1516.5z"/>
					<path class="st28" d="M1005.6,1188.9h-7.7c-0.8,1.3-1,2.9-0.2,4.6c26.8,52.9,53.1,107.3,63.3,166.2
						c9.4,54.1,3.8,110.8-24.8,158.5c-12.9,21.6-29.4,44.8-28,70.7h9.1c-1.8-23.8,14.7-45.9,26.4-65.4c14-23.4,23.4-48.9,27.6-75.9
						c8.8-56.7-3-113.7-23.4-166.6C1035.8,1249.4,1020.9,1219,1005.6,1188.9z"/>
					<path class="st28" d="M894.7,1188.9h-9.1c-8.3,67.7-12.9,135.7-14,203.9c5,40.4,8,80.8,2,119.9c1.2,24.1,2.8,48.1,4.8,72.1
						c0.2,2.1,1.5,3.5,3.1,4.1h3.6c1.5-0.6,2.6-1.9,2.4-4.1c-9-104.2-9.4-209.1-1.2-313.4C888.5,1243.9,891.3,1216.4,894.7,1188.9z"
						/>
					<path class="st28" d="M1006.3,1299.6c-4.9-11.9-11.2-23.1-17.6-34.3c-13-23-27.2-49.5-22.4-76.4h-9.3
						c-3.3,21.9,4.4,44.3,14.4,63.8c12.6,24.5,28.1,47,33.6,74.4c11.5,56.6-10.4,113.1-21.3,167.9c-6.2,30.9-9.3,62.7-3,93.9h9.3
						c0-0.1,0-0.1,0-0.2c-12.6-57.2,9.3-113.9,20.4-169.4c5.3-26.4,8.8-53.6,5.6-80.5C1014.6,1325.4,1011.5,1312.2,1006.3,1299.6z"
						/>
					<path class="st28" d="M1078.5,1497.7c-7.8,34.4-37.8,58.1-48.8,91.2h9.7c9.1-24.9,28.7-44.5,40.4-68.1
						c1.1,22.7,0.9,45.4-0.5,68.1h9.2c1.9-30,1.6-60-0.9-90C1087.1,1494.1,1079.7,1492.4,1078.5,1497.7z"/>
					<path class="st28" d="M970.3,1299.4c0.1-2.1-0.9-3.4-2.4-4c-0.4-1.2-0.9-2.4-1.3-3.6c-2.1-5.5-10.9-3.1-8.8,2.4
						c1.1,2.9,2.2,5.9,3.2,8.8c-4,62.3-3.1,124.9,2.6,187.1c0.5,5,7.4,6.4,9,1.2c19.1-61.5,18.2-128.6-2.4-189.6
						C970.2,1300.9,970.3,1300.2,970.3,1299.4z M970.5,1462.8c-3.1-44.4-3.7-88.9-1.9-133.3C979.2,1373.1,979.9,1418.9,970.5,1462.8
						z"/>
					<path class="st28" d="M2106.6,1484.4c-6.5,8.2-4.3,17.9-1.8,27.2c3.1,11.1,6.6,22.1,10.6,32.9c5.6,15.2,12.1,30,19.4,44.5h10.3
						c-7.1-13.7-13.5-27.8-19-42.2c-3.6-9.4-6.9-19-9.8-28.7c-1.4-4.7-2.8-9.4-3.9-14.2c-0.4-1.7-0.8-3.7-1-5.7
						c18.2,28.6,33.4,59,45.2,90.7h9.7c-13.2-36.5-30.8-71.3-52.4-103.6C2112.4,1483.1,2108.6,1481.9,2106.6,1484.4z"/>
					<path class="st28" d="M1672.8,1329.2c-3.8-2.2-7.2,1.4-6.7,5.2c10,73,15.2,146.6,15.5,220.3c0,11.4,0,22.8-0.2,34.3h9.2
						c1-65-1.7-130.1-8.2-194.8c-1.7-17.4-3.8-34.8-6.1-52.2c57.4,36.7,86.7,100.8,98.7,166.6c-5.2-15.1-11.8-29.7-19.8-43.6
						c-6.1-10.6-13-20.8-20.6-30.4c-4-5-8.1-10.1-12.5-14.7c-3.7-3.8-9.2-7.5-14.6-4.7c-5.2,2.7-5.6,8.5-5.8,13.7
						c-0.2,7.6-0.4,15.3-0.6,22.9c-0.4,15.6-0.9,31.1-1.3,46.7c-0.8,30.2-1.7,60.3-2.5,90.5h9.2c0.9-32.9,1.8-65.8,2.7-98.8
						c0,0,0,0.1,0,0.1c0.5,12.1,1,24.1,1.5,36.2c0.9,20.8,1.8,41.6,2.7,62.4h9.2c-1.5-36.2-3.1-72.4-4.6-108.6
						c-0.2-5.1-2.8-18.1,2.2-22.1c6.3-4.9,12.7,12.4,14.2,16c8.1,18,14.5,36.9,19.1,56.2c4.6,19.2,7.4,38.8,8.3,58.5h9.2
						c-2.1-41.7-12-82.8-29.4-120.8c-3.4-7.5-7.6-17.3-16.5-19.5c-6.9-1.7-12.5,2.8-15,8.8c0.2-7.7,0.4-15.4,0.6-23.1
						c0.1-2.5-0.8-7.7,0.4-9.9c1.1-1.9-0.2-0.9,1.4-0.7c1.2,0.2,2.3,1.8,3.1,2.5c4.2,4.2,7.9,8.9,11.6,13.5
						c7.2,9,13.6,18.5,19.4,28.4c11.5,19.8,20.2,41.1,25.8,63.3c4.8,18.8,7.3,38,7.5,57.3h11.4c-1.6-77.1-15.1-155.5-66.2-216
						C1710.3,1355.5,1692.7,1340.5,1672.8,1329.2z"/>
					<path class="st28" d="M1893.1,1324.5c-14.7-24.4-34.7-45-54.8-65c-22.1-22-44.8-43.9-61.4-70.6h-10.1c0,0.7,0.2,1.4,0.7,2.2
						c29.8,49.4,79.8,81.7,112.1,129.2c38.2,56.2,37,126.5,20.1,189.8c-4.9,18.4-11.6,36.1-17.4,54.2c-2.6,8.1-4.7,16.4-5.3,24.6h9
						c0.8-8.6,3.4-17.3,6.1-25.3c5.4-16.2,11.2-32.1,15.7-48.6c8.9-32.6,14.2-66.6,12.1-100.5
						C1917.8,1383,1909.5,1351.7,1893.1,1324.5z"/>
					<path class="st28" d="M1744.2,1355.1c-19.2-26.8-40.2-52.5-55.9-81.6c-13.9-25.8-23.5-55.3-21.6-84.6h-16
						c-12.6,51.6-10.2,105.5-4.1,158c6.7,57.6,17.8,114.9,18.8,173c0.4,23.1-1,46.3-5,69h9.3c7.9-46.7,5-94.8-0.6-141.8
						c-6.9-57.5-17.9-114.8-18.3-172.9c-0.2-24.5,1.7-48.9,6.6-72.8c1.8,52.3,35.8,99.6,66.2,140.8c19.2,26,37.2,52.4,51.2,81.6
						c13.6,28.5,23.8,58.6,30.4,89.4c5.3,24.9,8.2,50.2,8.7,75.6h9.2c-1-52-12.1-103.7-32.3-151.6
						C1778.4,1408.1,1762.6,1380.9,1744.2,1355.1z"/>
					<path class="st28" d="M2149.8,1486.4c-7.1-10.6-14.6-21.5-23.9-30.3c-8.8-8.3-20.2-14.7-32.7-14.5
						c-11.2,0.2-20.8,6.2-26.8,15.4c-14.3,21.8-4.3,47.6,6.7,68.3c11.2,21.2,22.6,42.4,34,63.5h10.4c-9-16.8-18-33.5-27-50.3
						c-10.7-19.9-27.8-44.2-20.5-67.9c2.7-8.7,8.7-16.9,17.9-19.3c11.9-3.1,23.8,3.6,32.1,11.6c8.3,8,15.1,17.7,21.5,27.3
						c6.7,10,12.7,20.4,18.1,31.1c10.7,21.4,18.5,44.1,23.5,67.4h1.6v-29.7c-4.2-13.3-9.4-26.2-15.4-38.8
						C2163.5,1508.6,2157,1497.3,2149.8,1486.4z"/>
					<path class="st28" d="M1087.8,1188.9c3.7,34-0.5,68.5-12.7,100.5c-11.6-32.9-21.2-66.4-28.7-100.5h-9.4
						c8.4,38.9,19.5,77.1,33.3,114.4c1.2,3.2,6.6,5.1,8.4,1.1c16-36.2,22.4-76.1,18.1-115.4H1087.8z"/>
					<path class="st28" d="M1554.1,1551.6c-3.6,12.3-3.9,25.1-1,37.3h9.4c-2.2-8.3-2.7-17-1.5-25.5c4.8,7.6,7.5,16.4,7.9,25.5h9.2
						c-0.4-14.6-6.2-28.6-16.2-39.3C1559.4,1547,1555,1548.4,1554.1,1551.6z"/>
					<path class="st28" d="M1322.1,1382c-1.5-4.9-8.9-4-9,1.2c-1.3,68.6,1,137.3,7,205.7h9.2c-5.1-58.1-7.6-116.5-7.4-174.8
						c13,48,21.4,97.1,25,146.7c0.7,9.3,1.2,18.7,1.5,28.1h9.1c-1.9-52.9-9.1-105.7-21.6-157.2
						C1331.9,1415,1327.3,1398.4,1322.1,1382z"/>
					<path class="st28" d="M1574,1448c-15.5,26.8-27.4,55.7-35,85.7c-3.8,14.8-6.5,29.9-8.2,45.1c-0.4,3.2-0.7,6.7-0.6,10.1h8.7
						c-0.1-6.6,1.5-13.8,2.1-18.5c2-13.7,4.8-27.2,8.5-40.5c6.5-23.5,15.6-46.1,27.1-67.6c11,41.3,16.9,83.9,17.6,126.6h9.2
						c-0.7-47.3-7.8-94.4-20.9-139.8C1581.3,1445.4,1576,1444.6,1574,1448z"/>
					<path class="st28" d="M1297.2,1265.9c-2.7-4-8-2.2-8.5,2.3c-9.6,85.7-12,172.2-6.8,258.3c1.2,20.8,2.9,41.6,5,62.4h9.2
						c-8.3-82.3-10-165.3-4.7-247.9c1.3-19.8,2.9-39.6,5-59.4c46.3,74.6,62.4,163.1,69.7,249.5c1.6,19.3,2.8,38.5,4,57.8h9.2
						c-5.1-87.2-12.7-175.7-46.7-257C1322.9,1308.9,1311.2,1286.7,1297.2,1265.9z"/>
					<path class="st28" d="M1176.4,1356.2c-0.7-4.4-8-4.3-8.8,0c-11.2,59.3-15.5,119.9-12.7,180.2c0.8,17.2,2.2,34.3,4.2,51.4
						c0,0.4,0.1,0.8,0.3,1.1h17.8c8.6-59.1,10.6-119.1,5.6-178.6C1181.3,1392.2,1179.1,1374.2,1176.4,1356.2z M1173,1546.8
						c-1.2,13.5-2.9,27-4.8,40.4c-6.7-59.1-6.7-118.9,0.4-177.9c0.8-7.1,1.8-14.2,2.9-21.2C1177.4,1440.8,1177.9,1494,1173,1546.8z"
						/>
					<path class="st28" d="M1605.4,1264c-0.3-5.1-7.4-6.3-9-1.2c-27,89-51.1,179-72.2,269.6c-4.4,18.8-8.7,37.7-12.8,56.6h9.4
						c18.3-83.3,39.1-166.1,62.3-248.1c4.8-17,9.8-34.1,14.8-51c5.3,82,10.8,164.1,18.3,245.9c1.6,17.8,3.4,35.5,5.2,53.2h9.2
						c-8.6-82.8-14.8-165.8-20.3-248.8C1608.6,1314.8,1607,1289.4,1605.4,1264z"/>
					<path class="st28" d="M2020,1360.7c-13.8,29.8-29.4,58.4-44.8,87.4c-0.6,1.1-1.1,2.1-1.7,3.2c19.1-59.5,38.2-118.9,57.3-178.4
						c9-28,18-56,27-84h-9.6c-33.9,105.5-67.8,211-101.7,316.5c-9,27.8-17.9,55.7-26.9,83.5h9.6c6.7-21,13.5-41.9,20.2-62.9
						c-0.1,2-0.1,3.9,0,5.9c0.5,20.7,7.3,41.9,21.3,57h13.5c-16.7-12.9-24.7-34.3-25.6-55.1c-1.3-29.5,11.7-57.2,25.2-82.6
						c14.8-27.7,29.7-55.2,43-83.6c13.3-28.5,25.4-57.6,36.3-87.1c11.1-30.1,20.9-60.7,29.5-91.6h-9.5
						C2066.7,1247.7,2045.6,1305.3,2020,1360.7z"/>
					<path class="st28" d="M1918.4,1229.9c-2.4,3.2-7.2,9.4-11.1,4.7c-3.5-4.2-4.8-10.7-6.7-15.7c-3.8-10-7.7-20-11.5-30h-9.8
						c5,13.1,10,26.2,15,39.2c2,5.1,3.8,10.9,8.2,14.5c4.5,3.7,10.5,3.7,15.4,0.6c5.3-3.4,8.8-9.2,12.4-14.2c4.3-6,8.5-12,12.6-18.1
						c4.8-7.2,9.4-14.6,13.9-22.1h-10.6C1937.6,1203.1,1928.4,1216.8,1918.4,1229.9z"/>
					<path class="st28" d="M1964.5,1195c-6,16.9-12.3,33.6-19,50.2c-3.2,8-6.3,16.2-10,24c-2.5,5.5-5.7,11.9-11.6,14.4
						c-14.2,6.1-28.9-14-36.4-23.3c-9.3-11.7-17.2-24.6-23.6-38.1c-5.1-10.7-9-21.9-12-33.4h-9.4c7,28.4,20.2,55,38.5,77.9
						c9.3,11.6,22.6,28.1,39.2,27c17.1-1.2,23.1-19.5,28.6-32.9c8.7-20.9,16.8-42.1,24.4-63.5
						C1975.3,1191.9,1966.4,1189.5,1964.5,1195z"/>
					<path class="st28" d="M1920.7,1353.6c-12-23.4-24.3-46.7-38.8-68.7c-7.9-12.1-16.6-23.7-26-34.7c-8.8-10.2-18.8-19.3-27.6-29.5
						c-7.9-9.2-14.8-19.7-15.4-31.8h-9.2c0.6,24,21.8,42.1,37.2,58.3c20.9,21.9,37.4,47.5,52.2,73.8c8.4,14.9,16.2,30.2,24,45.4
						c1.5,2.9,6.5,3.1,7.9,0c26.2-57.3,47.7-116.7,64.3-177.5h-9.5C1964.2,1245.2,1944.6,1300.3,1920.7,1353.6z"/>
					<path class="st28" d="M1543.4,1327.1c-17.8,56-30.4,113.5-38,171.7c-3.9,29.9-6.4,59.9-7.5,90.1h9.1c2-55.1,8.7-110,20.1-164
						c11.9-56.8,28.9-112.5,50.6-166.3c9.6-23.7,20.1-46.9,31.5-69.7h-10.2C1577.1,1233.5,1558.4,1279.7,1543.4,1327.1z"/>
					<path class="st28" d="M1635.8,1188.9h-9.2c-2.7,104.7,1,209.5,11,313.8c2.8,28.8,6,57.5,9.8,86.2h9.2
						c-13.5-104.1-20.7-209-21.5-314C1634.8,1246.2,1635,1217.6,1635.8,1188.9z"/>
					<path class="st28" d="M1100.9,1497c1.4,29.4,3.6,58.7,6.5,88c0.2,2,1.4,3.3,2.9,3.9h4.3c1.3-0.6,2.2-1.9,2-3.9
						c-10.3-102.4-11.2-205.7-2.3-308.3c2.5-29.2,5.8-58.3,9.9-87.3c0-0.2,0-0.3,0-0.5h-9.1C1100.9,1290.9,1096,1394.2,1100.9,1497z
						"/>
					<path class="st28" d="M1831.9,1322.5c-7.5-11.9-16.1-23-25.8-33.1c-10.4-10.7-22.2-20-33.4-29.7
						c-20.2-17.5-42.7-42.7-39.6-70.7h-9.2c-1.8,22.4,10.2,44.7,25.2,60.9c10.4,11.2,22.4,20.7,34,30.6
						c11.1,9.5,21.5,19.8,30.4,31.4c37,48.2,49.6,110.3,50.8,169.9c0.7,35.8-2.3,71.6-5.6,107.2h9.2c5.8-62.5,10.7-126.4-4-188
						C1857.3,1373.4,1847,1346.5,1831.9,1322.5z"/>
					<path class="st28" d="M2183.2,1227.8c1.3-12.9,1.2-26.1-1.3-38.8h-9.4c13.8,63.8-40,135.2,5.2,193.3c2.1,2.7,4.4,5.2,6.8,7.6
						v-13.5c-8.9-11.7-14.2-26.7-15.5-40.6C2165.6,1299,2179.7,1263.8,2183.2,1227.8z"/>
					<path class="st28" d="M2146.2,1375.8c-6.7-5.3-13.8-11.4-17.1-19.5c-4.2-10.3,0.2-21.1,4-30.8c8.2-21.2,14.4-43.1,18.2-65.5
						c4-23.5,5.6-47.3,4.8-71h-9.2c1.6,44.6-5.6,89.2-21.5,131c-4,10.4-8.6,21.1-6.8,32.5c1.4,8.9,6.6,16.5,12.9,22.7
						c6.7,6.6,14.6,11.9,21.8,17.8c7.9,6.5,15.5,13.5,22.6,20.9c3,3.1,5.9,6.3,8.7,9.6v-13.6
						C2172.7,1397.4,2159.7,1386.6,2146.2,1375.8z"/>
					<path class="st28" d="M1958,1338.9c-17.3,55.2-31.2,111.5-41.6,168.5c-4.9,27-9,54.2-12.3,81.5h9.2
						c6.3-51.7,15.6-103,27.7-153.7c13.3-55.5,29.9-110.2,49.8-163.6c10.4-27.9,21.7-55.5,33.9-82.7h-10
						C1992.9,1237.8,1974,1287.9,1958,1338.9z"/>
					<path class="st28" d="M2112.1,1188.9c4.8,30.4,3.1,61.6-4.8,91.3c-8.4,31.6-23.7,60-44,85.6c-37.9,47.7-91.2,96.2-81.7,163.4
						c3.1,22.1,12.7,42.9,27.2,59.7h12.3c-15.7-15.6-26.2-36.3-30-58.1c-5.4-30.4,4.8-59.9,20.8-85.5c17.4-27.8,40.9-51.1,60.9-76.9
						c19.3-24.8,34-52.4,42.5-82.8c8.8-31.4,10.8-64.5,6-96.7H2112.1z"/>
					<path class="st28" d="M2148.5,1405.4c-12.9-8.9-28.4-14.4-44.2-14c-16,0.4-31.3,6.7-43.8,16.5c-28.5,22.2-38.4,58.7-33.7,93.5
						c4.4,32.7,20.5,61.4,40,87.5h11.4c-17.2-22-32.2-46-39.3-73.1c-8.4-32.3-4.8-69.2,19.6-93.9c10.4-10.6,23.8-18.3,38.5-20.7
						c14.8-2.4,29.8,1.5,42.4,9.1c21.2,12.8,35.6,34,45.2,56.7v-20.7C2175.5,1430.3,2163.7,1416,2148.5,1405.4z"/>
					<path class="st28" d="M1830.9,1406.3c-8.7-29-22.7-56.1-47.3-74.6c-23.2-17.4-53.7-27.4-70.3-52.4
						c-17.5-26.3-16.1-59.8-13.2-90.4h-9.1c-2.5,26.9-3.6,55.1,6.8,80.3c5.7,13.7,14.6,25.3,26.2,34.6c11.3,9.1,24,16.1,36.5,23.5
						c12.8,7.6,25,15.9,34.7,27.3c10,11.7,17.1,25.7,22.4,40.1c12.1,32.6,18,68,21.8,102.4c3.4,30.4,4.4,61.1,3,91.7h9.2
						c1.1-25.9,0.6-51.8-1.6-77.7C1846.6,1476,1841.1,1440.3,1830.9,1406.3z"/>
					<path class="st28" d="M1208.1,1268.9c1.1-27,4.5-53.8,10.9-80h-9.4c-25.1,104.5-0.8,212.2,6.9,317.5c2,27.4,2.9,55,1.5,82.5
						h9.2C1232.4,1481.8,1203.6,1376.1,1208.1,1268.9z"/>
					<path class="st28" d="M1261,1191.6c0-0.9,0-1.8,0-2.7h-9.5c-0.1,7.6,0.5,15.2,0.7,22.4c0.6,31,1.2,62,1.8,93.1
						c1.2,61.7,2.4,123.5,3.5,185.2c0.6,33.1,1.3,66.2,1.9,99.3h9.2c-2.2-116.1-4.4-232.2-6.7-348.4
						C1261.6,1224.2,1261.2,1207.9,1261,1191.6z"/>
					<path class="st28" d="M1231.2,1272.3c2.4-28.1,6.7-55.9,12.9-83.4h-9.4c-23.7,105.8-16.4,215.3-2.3,321.9
						c3.4,26.1,7.3,52.1,11.2,78.1h9.2C1237,1484.3,1222,1378.2,1231.2,1272.3z"/>
					<path class="st28" d="M1507.1,1364c-4,13.3-8,26.5-12.1,39.8c-15.1-65-43.3-127-82.5-181c-8.5-11.7-17.5-23-27-34h-12.2
						c45.5,50.8,80.3,111.1,101.4,176c6.2,19.2,11.3,38.7,15.1,58.5c0.9,4.6,7.6,4.1,8.8,0c20.1-66.3,40.1-132.5,60.2-198.8
						c3.6-11.9,7.2-23.8,10.8-35.7h-9.6C1542.5,1247.3,1524.8,1305.7,1507.1,1364z"/>
					<path class="st28" d="M1185.3,1256.1c-0.9-22.5,0-45,3.5-67.2h-9.3c-7.2,47.3-2.6,96,4.2,143.3c8.5,58.9,20.6,117.7,17.9,177.5
						c-1.2,26.9-5.7,53.8-14.9,79.1h9.6c16.6-48,17-99.9,11.9-150.2C1202,1377.7,1187.6,1317.6,1185.3,1256.1z"/>
					<path class="st28" d="M1148.3,1188.9c-0.3,0.4-0.5,1-0.6,1.6c-17.7,100.1-23.2,202.2-16,303.6c2.1,28.7,5.2,57.4,9.2,85.9
						c0.8,5.8,9.6,3.3,8.8-2.4c-14-99.2-15.7-200.2-5.2-299.8c3-28.4,7-56.7,12-84.9c0.3-1.7-0.2-3-1.1-4H1148.3z"/>
					<path class="st28" d="M1495.2,1200.4c-1.5,4.9-3,9.7-4.6,14.6c-0.1,0.4-0.4,1-0.7,1.6c-0.1-0.1-0.1-0.1-0.2-0.2
						c-1.4-1.6-3.4-2.9-4.9-4.3c-7.2-6.8-13.4-14.6-18.3-23.1h-10.4c6.8,13.2,16.1,25.1,27.7,34.4c3.4,2.7,7.6,4.7,11.5,1.6
						c3.7-3,4.6-9.2,5.9-13.5c2.4-7.5,4.7-15,7.1-22.4h-9.6C1497.6,1192.7,1496.4,1196.6,1495.2,1200.4z"/>
					<path class="st28" d="M1499.3,1299c-20.1-36.3-39.4-73-58-110h-10.2c20.9,42,42.9,83.6,65.8,124.5c1.9,3.4,7.4,2.7,8.4-1.1
						c10.9-40.9,20.8-82.1,29.5-123.5h-9.3C1517.6,1225.8,1508.9,1262.5,1499.3,1299z"/>
					<path class="st28" d="M1378.3,1324.4c-13.5-24-31-44.2-50.7-63.4c-19.5-19-42.7-43.2-41.5-72.1h-9c-0.6,23.3,12.3,44.9,27.8,62
						c9.7,10.7,20.4,20.2,30.4,30.6c9.5,9.8,18,20.5,25.5,31.9c31.9,48.2,45.7,105.8,49.1,162.9c2.2,36.2,0.5,72.5-2.4,108.6
						c-0.2,2.1,0.8,3.4,2.3,4h4c1.5-0.6,2.7-1.9,2.9-4c4.9-61.6,6.3-124.6-8.8-184.9C1401.3,1373.7,1391.6,1348,1378.3,1324.4z"/>
					<path class="st28" d="M1446.2,1328.8c-12.1-26.9-28.3-51.8-46.2-75.2c-17.3-22.5-36.1-43.8-55.2-64.7h-12.4
						c37.8,41.2,75.7,83.5,100.8,133.9c27.3,54.7,34.1,116,32.1,176.5c-1,30-4,59.8-7.5,89.6h9.2c6.8-57.1,11.7-115,3.9-172.3
						C1466.7,1386.3,1458.8,1356.7,1446.2,1328.8z"/>
					<path class="st28" d="M1363.8,1263.8c-18.7-20.4-44-45.2-41.4-74.8h-9.1c-1.5,23.6,12.2,45.7,27.5,63.3
						c9.7,11.1,20.1,21.5,29.3,33c8.7,10.9,16.4,22.5,23.3,34.6c29.1,51.1,41.8,109.8,42.6,168.2c0.4,33.9-3,67.6-9,100.9h9.3
						c10.4-58.7,12.9-119.2,0.7-177.8C1425.7,1356.6,1401.5,1305,1363.8,1263.8z"/>
				</g>
			</g>
			<g>
				<path class="st29" d="M816.8,1367.5C931.6,1157.8,2184,1232.9,2184,1232.9l0.5-43.9H816.8V1367.5z"/>
				<path class="st30" d="M861.6,1188.9h-9.3c-9,46.8-4.8,93.7,1.4,140.6c2.7-1.9,5.6-3.7,8.5-5.5c-2.3-18.1-4.3-36-5.3-53.6
					C855.4,1243.2,856.3,1215.7,861.6,1188.9z"/>
				<path class="st30" d="M942,1189.5c0-0.2,0-0.4,0-0.5h-9.1c0,0.2,0,0.4,0,0.5c0.4,34.2,0.7,68.5,1.1,102.7c3-1,6-2,9.1-3
					c0-2.8-0.1-5.5-0.1-8.3C942.7,1250.4,942.4,1220,942,1189.5z"/>
				<path class="st30" d="M910.3,1300.8c3-1.2,6-2.3,9.2-3.5c0-7.9,0-15.9,0-23.8c0-28.2,0-56.4,0.1-84.6h-9.2
					C910.3,1226.2,910.3,1263.5,910.3,1300.8z"/>
				<path class="st30" d="M997.9,1188.9c-0.8,1.3-1,2.9-0.2,4.6c12.2,23.9,24.2,48.2,34.7,73.1c3-0.6,6.1-1.2,9.1-1.8
					c-10.8-25.8-23.2-50.9-35.8-75.8H997.9z"/>
				<path class="st30" d="M874.2,1317.2c3-1.6,6.2-3.2,9.4-4.8c0.8-13.7,1.7-27.3,2.8-41c2.2-27.6,5-55.1,8.3-82.6h-9.1
					C880.3,1231.6,876.5,1274.3,874.2,1317.2z"/>
				<path class="st30" d="M966.4,1188.9h-9.3c-3.3,21.9,4.4,44.3,14.4,63.8c4.3,8.3,8.9,16.5,13.4,24.6c3.1-0.8,6.2-1.6,9.4-2.3
					c-1.8-3.3-3.6-6.5-5.5-9.8C975.8,1242.3,961.6,1215.8,966.4,1188.9z"/>
				<path class="st30" d="M1766.8,1188.9c0,0.7,0.2,1.4,0.7,2.2c6.3,10.4,13.4,20,21.1,29.1c4,0,8.1,0.1,12.1,0.1
					c-8.6-9.9-16.7-20.3-23.7-31.5H1766.8z"/>
				<path class="st30" d="M1666.7,1188.9h-16c-2.5,10.3-4.4,20.7-5.8,31.1c3.1,0,6.2,0,9.2-0.1c0.9-6.2,1.9-12.4,3.2-18.5
					c0.2,6.2,0.9,12.4,2,18.5c3.2,0,6.3,0,9.4,0C1666.8,1209.7,1666,1199.3,1666.7,1188.9z"/>
				<path class="st30" d="M1037.1,1188.9c5.3,24.6,11.7,49,19.2,73c3-0.6,6-1.1,9.1-1.6c-7.4-23.5-13.7-47.3-19-71.4H1037.1z"/>
				<path class="st30" d="M1087.8,1188.9c2.5,22.8,1.4,45.8-3.2,68.1c3.2-0.5,6.4-1,9.6-1.5c4.2-21.8,5.2-44.3,2.8-66.6H1087.8z"/>
				<path class="st30" d="M2036.3,1226.1c3.2,0.1,6.4,0.2,9.5,0.4c4-12.5,8-25,12.1-37.5h-9.6
					C2044.2,1201.3,2040.3,1213.7,2036.3,1226.1z"/>
				<path class="st30" d="M2071.6,1227.5c3.2,0.1,6.4,0.3,9.5,0.4c4.1-12.9,7.9-25.9,11.5-39h-9.5
					C2079.5,1201.8,2075.6,1214.7,2071.6,1227.5z"/>
				<path class="st30" d="M1889.1,1188.9h-9.8c4.2,11,8.4,22,12.6,33c3.2,0.1,6.5,0.1,9.7,0.2c-0.4-1.1-0.7-2.2-1.1-3.2
					C1896.8,1208.9,1892.9,1198.9,1889.1,1188.9z"/>
				<path class="st30" d="M1923.9,1222.6c3.7,0.1,7.3,0.2,10.9,0.3c2.8-3.9,5.5-7.9,8.2-11.9c4.8-7.2,9.4-14.6,13.9-22.1h-10.6
					C1939.2,1200.5,1931.8,1211.8,1923.9,1222.6z"/>
				<path class="st30" d="M1968.9,1191.9c-1.8,0-3.7,0.9-4.5,3.1c-3.4,9.5-6.9,19-10.5,28.4c3.2,0.1,6.5,0.2,9.6,0.3
					c3.3-8.7,6.5-17.5,9.6-26.3C1974.5,1194.1,1971.7,1191.9,1968.9,1191.9z"/>
				<path class="st30" d="M1842.5,1188.9c2.7,11,6.4,21.8,10.9,32.2c3.3,0.1,6.7,0.1,10,0.2c-4.8-10.4-8.7-21.3-11.6-32.4H1842.5z"
					/>
				<path class="st30" d="M1812.9,1188.9h-9.2c0.3,11.8,5.6,22.2,12.7,31.7c4,0.1,8,0.1,11.9,0.2c0,0,0,0,0,0
					C1820.4,1211.5,1813.6,1201,1812.9,1188.9z"/>
				<path class="st30" d="M1969.5,1223.9c3.2,0.1,6.3,0.2,9.5,0.3c3.6-11.7,7-23.5,10.2-35.3h-9.5
					C1976.5,1200.6,1973.1,1212.3,1969.5,1223.9z"/>
				<path class="st30" d="M1584.1,1220.8c3.3-0.1,6.7-0.1,10.1-0.2c4.9-10.6,9.9-21.2,15.2-31.7h-10.2
					C1593.9,1199.4,1588.9,1210.1,1584.1,1220.8z"/>
				<path class="st30" d="M1626,1220.2c3,0,6.1-0.1,9.2-0.1c0.1-10.4,0.3-20.8,0.6-31.2h-9.2
					C1626.3,1199.3,1626.1,1209.8,1626,1220.2z"/>
				<path class="st30" d="M1107.4,1253.4c3.1-0.5,6.1-0.9,9.2-1.4c2.1-20.9,4.6-41.8,7.5-62.7c0-0.2,0-0.3,0-0.5h-9.1
					C1112.1,1210.4,1109.5,1231.9,1107.4,1253.4z"/>
				<path class="st30" d="M1733,1188.9h-9.2c-0.9,10.5,1.3,21,5.5,30.9c3.3,0,6.7,0,10,0C1734.4,1210.2,1731.8,1199.8,1733,1188.9z"
					/>
				<path class="st30" d="M2172.6,1188.9c3.1,14.2,2.8,28.7,1,43.4c4.4,0.2,7.4,0.4,9.1,0.5c0.2-1.7,0.4-3.4,0.6-5
					c1.3-12.9,1.2-26.1-1.3-38.8H2172.6z"/>
				<path class="st30" d="M2146.9,1188.9c0.5,14,0.1,28-1.1,41.9c3.2,0.2,6.3,0.3,9.2,0.5c1.2-14.1,1.6-28.2,1.1-42.4H2146.9z"/>
				<path class="st30" d="M1999.3,1224.8c3.3,0.1,6.5,0.2,9.7,0.3c5-12.1,10.3-24.2,15.6-36.2h-10
					C2009.4,1200.8,2004.2,1212.8,1999.3,1224.8z"/>
				<path class="st30" d="M2112.1,1188.9c2.1,13.4,3,26.9,2.6,40.4c3.1,0.1,6.2,0.3,9.1,0.4c0.4-13.6-0.4-27.3-2.4-40.8H2112.1z"/>
				<path class="st30" d="M1689.2,1219.8c3,0,6.1,0,9.1,0c0-10.4,0.8-20.8,1.7-30.9h-9.1C1689.9,1199.1,1689.2,1209.5,1689.2,1219.8
					z"/>
				<path class="st30" d="M1200.8,1241.6c3.1-0.3,6.2-0.7,9.3-1c1.8-17.4,4.7-34.7,8.9-51.7h-9.4
					C1205.4,1206.4,1202.6,1224,1200.8,1241.6z"/>
				<path class="st30" d="M1261,1188.9h-9.5c-0.1,7.6,0.5,15.2,0.7,22.4c0.2,8.4,0.3,16.8,0.5,25.2c3-0.3,6.1-0.5,9.1-0.8
					c-0.3-14.7-0.7-29.4-0.8-44.2C1261,1190.8,1261,1189.9,1261,1188.9z"/>
				<path class="st30" d="M1225.8,1239c3.1-0.3,6.2-0.6,9.3-0.9c2.3-16.5,5.3-33,9.1-49.2h-9.4
					C1231,1205.5,1228.1,1222.3,1225.8,1239z"/>
				<path class="st30" d="M1385.6,1188.9h-12.2c10.8,12,20.9,24.5,30.4,37.5c3.7-0.2,7.3-0.3,10.9-0.5c-0.7-1-1.4-2-2.2-3
					C1404.1,1211.2,1395,1199.9,1385.6,1188.9z"/>
				<path class="st30" d="M1550.3,1221.4c3.2-0.1,6.4-0.1,9.6-0.2c3.3-10.8,6.5-21.5,9.8-32.3h-9.6
					C1556.8,1199.7,1553.6,1210.6,1550.3,1221.4z"/>
				<path class="st30" d="M1175.9,1244.4c3-0.4,6-0.7,9.1-1c-0.1-18.2,1-36.4,3.8-54.4h-9.3
					C1176.8,1207.2,1175.7,1225.8,1175.9,1244.4z"/>
				<path class="st30" d="M1148.3,1188.9c-0.3,0.4-0.5,1-0.6,1.6c-3.4,19.4-6.4,38.9-8.9,58.5c3.1-0.4,6.2-0.8,9.3-1.2
					c2.4-18.3,5.2-36.6,8.5-54.8c0.3-1.7-0.2-3-1.1-4H1148.3z"/>
				<path class="st30" d="M1495.2,1200.4c-1.5,4.9-3,9.7-4.6,14.6c-0.1,0.4-0.4,1-0.7,1.6l-0.2-0.2c-1.4-1.6-3.4-2.9-4.9-4.3
					c-7.2-6.8-13.4-14.6-18.3-23.1h-10.4c6.7,13.2,16,25,27.6,34.3c4.5-0.1,9-0.3,13.5-0.4c2.2-3.3,3-7.9,4.1-11.4
					c2.4-7.5,4.7-15,7.1-22.4h-9.6C1497.6,1192.7,1496.4,1196.6,1495.2,1200.4z"/>
				<path class="st30" d="M1431.1,1188.9c5.9,11.9,11.9,23.7,18,35.5c3.4-0.1,6.7-0.3,10.1-0.4c-6-11.7-12-23.4-17.9-35.1H1431.1z"
					/>
				<path class="st30" d="M1518.1,1222.2c3.2-0.1,6.3-0.2,9.4-0.2c2.5-11,4.9-22,7.2-33h-9.3
					C1523.1,1200,1520.6,1211.1,1518.1,1222.2z"/>
				<path class="st30" d="M1286.1,1188.9h-9c-0.4,15.9,5.5,31,14.2,44.5c3.5-0.3,7-0.5,10.6-0.8
					C1292.3,1219.5,1285.4,1204.9,1286.1,1188.9z"/>
				<path class="st30" d="M1332.4,1188.9c11.9,13,23.8,26,35.3,39.4c3.8-0.2,7.6-0.4,11.4-0.6c-11.1-13.2-22.6-26-34.3-38.8H1332.4z
					"/>
				<path class="st30" d="M1322.4,1188.9h-9.1c-0.9,14.9,4.2,29.1,11.9,42c3.4-0.2,6.9-0.5,10.3-0.7
					C1326.9,1217.7,1321,1203.9,1322.4,1188.9z"/>
			</g>
		</g>
		<g>
			<g>
				<path class="st0" d="M1092.6,1378.2c-6.8-1.3-13.4,3.3-14.7,10.1l-36.3,197.7c-0.1,0.8-0.2,1.5-0.2,2.3h25.4l35.9-195.4
					C1104,1386,1099.4,1379.4,1092.6,1378.2z"/>
				<path class="st0" d="M1185.7,1388.3c-1.3-6.8-7.8-11.4-14.7-10.1c-6.8,1.3-11.4,7.8-10.1,14.7l35.9,195.4h25.4
					c0-0.8-0.1-1.5-0.2-2.3L1185.7,1388.3z"/>
				<rect x="1072.2" y="1488.8" class="st0" width="119.2" height="22.2"/>
				<path class="st9" d="M1199.6,1355.7H1064c-9.6,0-17.4,7.8-17.4,17.4v0c0,9.6,7.8,17.4,17.4,17.4h135.6c9.6,0,17.4-7.8,17.4-17.4
					v0C1217,1363.5,1209.2,1355.7,1199.6,1355.7z"/>
				<path class="st31" d="M1050.7,1362c-2.5,3-4.1,6.9-4.1,11.2c0,9.6,7.8,17.4,17.4,17.4h135.6c5.7,0,10.7-2.7,13.9-7
					C1048.7,1391,1050.6,1362.4,1050.7,1362z"/>
				<path class="st32" d="M1072.4,1418.5c0,0,6.6-20.8,29.4-20.8l1.2-7.2l-25.7-0.1L1072.4,1418.5z"/>
				<path class="st32" d="M1160.7,1390.6l1.2,7.2c22.8,0,29.4,20.8,29.4,20.8l-4.8-28L1160.7,1390.6z"/>
			</g>
			<g>
				<path class="st0" d="M1461.5,1379.7c-6.8-1.3-13.4,3.3-14.7,10.1l-36.3,197.7c-0.1,0.8-0.2,1.5-0.2,2.3h25.4l35.9-195.4
					C1472.8,1387.5,1468.3,1381,1461.5,1379.7z"/>
				<path class="st0" d="M1554.5,1389.8c-1.3-6.8-7.8-11.4-14.7-10.1c-6.8,1.3-11.4,7.8-10.1,14.7l35.9,195.4h25.4
					c0-0.8-0.1-1.5-0.2-2.3L1554.5,1389.8z"/>
				<rect x="1441" y="1490.4" class="st0" width="119.2" height="22.2"/>
				<path class="st9" d="M1568.4,1357.3h-135.6c-9.6,0-17.4,7.8-17.4,17.4v0c0,9.6,7.8,17.4,17.4,17.4h135.6
					c9.6,0,17.4-7.8,17.4-17.4v0C1585.9,1365.1,1578.1,1357.3,1568.4,1357.3z"/>
				<path class="st31" d="M1419.5,1363.5c-2.5,3-4.1,6.9-4.1,11.2c0,9.6,7.8,17.4,17.4,17.4h135.6c5.7,0,10.7-2.7,13.9-7
					C1417.6,1392.5,1419.5,1363.9,1419.5,1363.5z"/>
				<path class="st32" d="M1441.2,1420.1c0,0,6.6-20.8,29.4-20.8l1.2-7.2l-25.7-0.1L1441.2,1420.1z"/>
				<path class="st32" d="M1529.6,1392.1l1.2,7.2c22.8,0,29.4,20.8,29.4,20.8l-4.8-28L1529.6,1392.1z"/>
			</g>
			<g>
				<path class="st0" d="M1830.3,1381.3c-6.8-1.3-13.4,3.3-14.7,10.1l-36.3,197.7c-0.1,0.8-0.2,1.5-0.2,2.3h25.4l35.9-195.4
					C1841.7,1389.1,1837.2,1382.5,1830.3,1381.3z"/>
				<path class="st0" d="M1923.4,1391.4c-1.3-6.8-7.8-11.4-14.7-10.1c-6.8,1.3-11.4,7.8-10.1,14.7l35.9,195.4h25.4
					c0-0.8-0.1-1.5-0.2-2.3L1923.4,1391.4z"/>
				<rect x="1809.9" y="1491.9" class="st0" width="119.2" height="22.2"/>
				<path class="st9" d="M1937.3,1358.8h-135.6c-9.6,0-17.4,7.8-17.4,17.4l0,0c0,9.6,7.8,17.4,17.4,17.4h135.6
					c9.6,0,17.4-7.8,17.4-17.4l0,0C1954.7,1366.6,1946.9,1358.8,1937.3,1358.8z"/>
				<path class="st31" d="M1788.4,1365.1c-2.5,3-4.1,6.9-4.1,11.2c0,9.6,7.8,17.4,17.4,17.4h135.6c5.7,0,10.7-2.7,13.9-7
					C1786.4,1394,1788.4,1365.5,1788.4,1365.1z"/>
				<path class="st32" d="M1810.1,1421.6c0,0,6.6-20.8,29.4-20.8l1.2-7.2l-25.7-0.1L1810.1,1421.6z"/>
				<path class="st32" d="M1898.4,1393.6l1.2,7.2c22.8,0,29.4,20.8,29.4,20.8l-4.8-28L1898.4,1393.6z"/>
			</g>
		</g>
		<g>
			<path class="st33" d="M1253.2,690.8H918.8c-14.4,0-26,11.6-26,26v428.7h386.5V716.8C1279.2,702.5,1267.6,690.8,1253.2,690.8z"/>
			<path class="st34" d="M1199.7,721H938.1c-7.3,0-13.3,5.9-13.3,13.3v411.3h288.1V734.2C1212.9,726.9,1207,721,1199.7,721z"/>
			<path class="st35" d="M1247,972.2L1247,972.2c-5.7,0-10.3,4.6-10.3,10.3v65.7c0,5.7,4.6,10.3,10.3,10.3l0,0
				c5.7,0,10.3-4.6,10.3-10.3v-65.7C1257.3,976.8,1252.7,972.2,1247,972.2z"/>
			<rect x="924.9" y="892.3" class="st36" width="288.2" height="21.1"/>
			<rect x="924.9" y="1069" class="st36" width="288.2" height="21.1"/>
			<g>
				<path class="st37" d="M963.6,798.6c-2.1-3.2-3.3-7-3.3-10.8v-12.9h-5.8h-5.8v12.9c0,3.8-1.1,7.6-3.3,10.8l-6.9,10.4
					c-2.3,3.5-3.6,7.6-3.6,11.7v66.1c0,3,2.4,5.4,5.4,5.4h14.2h14.2c3,0,5.4-2.4,5.4-5.4v-66.1c0-4.2-1.2-8.3-3.6-11.7L963.6,798.6z
					"/>
				<path class="st38" d="M960.5,773.5h-12.1c-0.5,0-1,0.4-1,1v4.5c0,0.5,0.4,1,1,1h12.1c0.5,0,1-0.4,1-1v-4.5
					C961.5,773.9,961,773.5,960.5,773.5z"/>
				<path class="st39" d="M948.7,788.9c4.1-7.6,11.6-6.9,11.6-6.9v-2.1h-11.6V788.9z"/>
				<ellipse class="st38" cx="954.5" cy="842.9" rx="13.5" ry="22.7"/>
				<path class="st40" d="M958.3,858.9c-7.5,0-13.5-10.2-13.5-22.7c0-4.5,0.8-8.6,2.1-12.1c-3.6,4.1-5.9,11-5.9,18.8
					c0,12.5,6,22.7,13.5,22.7c4.8,0,9-4.2,11.4-10.6C963.7,857.5,961.1,858.9,958.3,858.9z"/>
				<path class="st39" d="M934.9,858.2v28.6c0,3,2.4,5.4,5.4,5.4h14.2h14.2c3,0,5.4-2.4,5.4-5.4v-4.7
					C938.3,898.2,934.9,858.2,934.9,858.2z"/>
			</g>
			<g>
				<path class="st37" d="M1009.3,798.6c-2.1-3.2-3.3-7-3.3-10.8v-12.9h-5.8h-5.8v12.9c0,3.8-1.1,7.6-3.3,10.8l-6.9,10.4
					c-2.3,3.5-3.6,7.6-3.6,11.7v66.1c0,3,2.4,5.4,5.4,5.4h14.2h14.2c3,0,5.4-2.4,5.4-5.4v-66.1c0-4.2-1.2-8.3-3.6-11.7L1009.3,798.6
					z"/>
				<path class="st38" d="M1006.3,773.5h-12.1c-0.5,0-1,0.4-1,1v4.5c0,0.5,0.4,1,1,1h12.1c0.5,0,1-0.4,1-1v-4.5
					C1007.3,773.9,1006.8,773.5,1006.3,773.5z"/>
				<path class="st39" d="M994.4,788.9c4.1-7.6,11.6-6.9,11.6-6.9v-2.1h-11.6V788.9z"/>
				<ellipse class="st38" cx="1000.2" cy="842.9" rx="13.5" ry="22.7"/>
				<path class="st40" d="M1004.1,858.9c-7.5,0-13.5-10.2-13.5-22.7c0-4.5,0.8-8.6,2.1-12.1c-3.6,4.1-5.9,11-5.9,18.8
					c0,12.5,6,22.7,13.5,22.7c4.8,0,9-4.2,11.4-10.6C1009.5,857.5,1006.9,858.9,1004.1,858.9z"/>
				<path class="st39" d="M980.7,858.2v28.6c0,3,2.4,5.4,5.4,5.4h14.2h14.2c3,0,5.4-2.4,5.4-5.4v-4.7
					C984.1,898.2,980.7,858.2,980.7,858.2z"/>
			</g>
			<g>
				<path class="st37" d="M1055.1,798.6c-2.1-3.2-3.3-7-3.3-10.8v-12.9h-5.8h-5.8v12.9c0,3.8-1.1,7.6-3.3,10.8L1030,809
					c-2.3,3.5-3.6,7.6-3.6,11.7v66.1c0,3,2.4,5.4,5.4,5.4h14.2h14.2c3,0,5.4-2.4,5.4-5.4v-66.1c0-4.2-1.2-8.3-3.6-11.7L1055.1,798.6
					z"/>
				<path class="st38" d="M1052.1,773.5H1040c-0.5,0-1,0.4-1,1v4.5c0,0.5,0.4,1,1,1h12.1c0.5,0,1-0.4,1-1v-4.5
					C1053,773.9,1052.6,773.5,1052.1,773.5z"/>
				<path class="st39" d="M1040.2,788.9c4.1-7.6,11.6-6.9,11.6-6.9v-2.1h-11.6V788.9z"/>
				<ellipse class="st38" cx="1046" cy="842.9" rx="13.5" ry="22.7"/>
				<path class="st40" d="M1049.9,858.9c-7.5,0-13.5-10.2-13.5-22.7c0-4.5,0.8-8.6,2.1-12.1c-3.6,4.1-5.9,11-5.9,18.8
					c0,12.5,6,22.7,13.5,22.7c4.8,0,9-4.2,11.4-10.6C1055.3,857.5,1052.7,858.9,1049.9,858.9z"/>
				<path class="st39" d="M1026.4,858.2v28.6c0,3,2.4,5.4,5.4,5.4h14.2h14.2c3,0,5.4-2.4,5.4-5.4v-4.7
					C1029.9,898.2,1026.4,858.2,1026.4,858.2z"/>
			</g>
			<g>
				<path class="st37" d="M1100.9,798.6c-2.1-3.2-3.3-7-3.3-10.8v-12.9h-5.8h-5.8v12.9c0,3.8-1.1,7.6-3.3,10.8l-6.9,10.4
					c-2.3,3.5-3.6,7.6-3.6,11.7v66.1c0,3,2.4,5.4,5.4,5.4h14.2h14.2c3,0,5.4-2.4,5.4-5.4v-66.1c0-4.2-1.2-8.3-3.6-11.7L1100.9,798.6
					z"/>
				<path class="st38" d="M1097.8,773.5h-12.1c-0.5,0-1,0.4-1,1v4.5c0,0.5,0.4,1,1,1h12.1c0.5,0,1-0.4,1-1v-4.5
					C1098.8,773.9,1098.4,773.5,1097.8,773.5z"/>
				<path class="st39" d="M1086,788.9c4.1-7.6,11.6-6.9,11.6-6.9v-2.1H1086V788.9z"/>
				<ellipse class="st38" cx="1091.8" cy="842.9" rx="13.5" ry="22.7"/>
				<path class="st40" d="M1095.7,858.9c-7.5,0-13.5-10.2-13.5-22.7c0-4.5,0.8-8.6,2.1-12.1c-3.6,4.1-5.9,11-5.9,18.8
					c0,12.5,6,22.7,13.5,22.7c4.8,0,9-4.2,11.4-10.6C1101.1,857.5,1098.5,858.9,1095.7,858.9z"/>
				<path class="st39" d="M1072.2,858.2v28.6c0,3,2.4,5.4,5.4,5.4h14.2h14.2c3,0,5.4-2.4,5.4-5.4v-4.7
					C1075.6,898.2,1072.2,858.2,1072.2,858.2z"/>
			</g>
			<g>
				<path class="st37" d="M1146.7,798.6c-2.1-3.2-3.3-7-3.3-10.8v-12.9h-5.8h-5.8v12.9c0,3.8-1.1,7.6-3.3,10.8l-6.9,10.4
					c-2.3,3.5-3.6,7.6-3.6,11.7v66.1c0,3,2.4,5.4,5.4,5.4h14.2h14.2c3,0,5.4-2.4,5.4-5.4v-66.1c0-4.2-1.2-8.3-3.6-11.7L1146.7,798.6
					z"/>
				<path class="st38" d="M1143.6,773.5h-12.1c-0.5,0-1,0.4-1,1v4.5c0,0.5,0.4,1,1,1h12.1c0.5,0,1-0.4,1-1v-4.5
					C1144.6,773.9,1144.2,773.5,1143.6,773.5z"/>
				<path class="st39" d="M1131.8,788.9c4.1-7.6,11.6-6.9,11.6-6.9v-2.1h-11.6V788.9z"/>
				<ellipse class="st38" cx="1137.6" cy="842.9" rx="13.5" ry="22.7"/>
				<path class="st40" d="M1141.4,858.9c-7.5,0-13.5-10.2-13.5-22.7c0-4.5,0.8-8.6,2.1-12.1c-3.6,4.1-5.9,11-5.9,18.8
					c0,12.5,6,22.7,13.5,22.7c4.8,0,9-4.2,11.4-10.6C1146.8,857.5,1144.2,858.9,1141.4,858.9z"/>
				<path class="st39" d="M1118,858.2v28.6c0,3,2.4,5.4,5.4,5.4h14.2h14.2c3,0,5.4-2.4,5.4-5.4v-4.7
					C1121.4,898.2,1118,858.2,1118,858.2z"/>
			</g>
			<g>
				<path class="st37" d="M1192.5,798.6c-2.1-3.2-3.3-7-3.3-10.8v-12.9h-5.8h-5.8v12.9c0,3.8-1.1,7.6-3.3,10.8l-6.9,10.4
					c-2.3,3.5-3.6,7.6-3.6,11.7v66.1c0,3,2.4,5.4,5.4,5.4h14.2h14.2c3,0,5.4-2.4,5.4-5.4v-66.1c0-4.2-1.2-8.3-3.6-11.7L1192.5,798.6
					z"/>
				<path class="st38" d="M1189.4,773.5h-12.1c-0.5,0-1,0.4-1,1v4.5c0,0.5,0.4,1,1,1h12.1c0.5,0,1-0.4,1-1v-4.5
					C1190.4,773.9,1189.9,773.5,1189.4,773.5z"/>
				<path class="st39" d="M1177.6,788.9c4.1-7.6,11.6-6.9,11.6-6.9v-2.1h-11.6V788.9z"/>
				<ellipse class="st38" cx="1183.4" cy="842.9" rx="13.5" ry="22.7"/>
				<path class="st40" d="M1187.2,858.9c-7.5,0-13.5-10.2-13.5-22.7c0-4.5,0.8-8.6,2.1-12.1c-3.6,4.1-5.9,11-5.9,18.8
					c0,12.5,6,22.7,13.5,22.7c4.8,0,9-4.2,11.4-10.6C1192.6,857.5,1190,858.9,1187.2,858.9z"/>
				<path class="st39" d="M1163.8,858.2v28.6c0,3,2.4,5.4,5.4,5.4h14.2h14.2c3,0,5.4-2.4,5.4-5.4v-4.7
					C1167.2,898.2,1163.8,858.2,1163.8,858.2z"/>
			</g>
			<g>
				<path class="st0" d="M980.2,997.2c-5.2-7.4-8-16.3-8-25.4v-24.2h-5.3h-5.3v24.2c0,9.1-2.8,17.9-8,25.4l-4.1,5.9
					c-1.5,2.2-2.4,4.9-2.4,7.6v54.2c0,2.2,1.8,4.1,4.1,4.1h15.7h15.7c2.2,0,4.1-1.8,4.1-4.1v-54.2c0-2.7-0.8-5.3-2.4-7.6
					L980.2,997.2z"/>
				<path class="st41" d="M972.2,946.5h-10.7c-0.7,0-1.3,0.6-1.3,1.3v4.8c0,0.7,0.6,1.3,1.3,1.3h10.7c0.7,0,1.3-0.6,1.3-1.3v-4.8
					C973.5,947.1,972.9,946.5,972.2,946.5z"/>
				<rect x="947.1" y="1016.8" class="st41" width="39.5" height="31.7"/>
				<path class="st42" d="M961.5,969c1.7-9.2,10.7-8.3,10.7-8.3v-6.9h-10.7V969z"/>
				<path class="st42" d="M947.1,1023.1v41.7c0,2.2,1.8,4.1,4.1,4.1h15.7h15.7c2.2,0,4.1-1.8,4.1-4.1v-4.1
					C950.7,1060.7,947.1,1023.1,947.1,1023.1z"/>
				<g>
					<path class="st43" d="M958.1,1048.5h-11v16.3c0,2.2,1.8,4.1,4.1,4.1h15.7h15.7c2.2,0,4.1-1.8,4.1-4.1v-4.1c0,0,0,0-0.1,0
						C973,1060.7,964,1055.3,958.1,1048.5z"/>
					<path class="st44" d="M947.1,1048.5h11c-9.6-11-11-25.4-11-25.4V1048.5z"/>
				</g>
			</g>
			<g>
				<path class="st0" d="M1031.5,997.3c-5.2-7.4-8-16.3-8-25.4v-24.2h-5.3h-5.3v24.2c0,9.1-2.8,17.9-8,25.4l-4.1,5.9
					c-1.5,2.2-2.4,4.9-2.4,7.6v54.2c0,2.2,1.8,4.1,4.1,4.1h15.7h15.7c2.2,0,4.1-1.8,4.1-4.1v-54.2c0-2.7-0.8-5.3-2.4-7.6
					L1031.5,997.3z"/>
				<path class="st41" d="M1023.6,946.6h-10.7c-0.7,0-1.3,0.6-1.3,1.3v4.8c0,0.7,0.6,1.3,1.3,1.3h10.7c0.7,0,1.2-0.6,1.2-1.3v-4.8
					C1024.8,947.2,1024.3,946.6,1023.6,946.6z"/>
				<rect x="998.5" y="1016.9" class="st41" width="39.5" height="31.7"/>
				<path class="st42" d="M1012.9,969.1c1.7-9.2,10.7-8.3,10.7-8.3v-6.9h-10.7V969.1z"/>
				<path class="st42" d="M998.5,1023.2v41.7c0,2.2,1.8,4.1,4.1,4.1h15.7h15.7c2.2,0,4.1-1.8,4.1-4.1v-4.1
					C1002.1,1060.8,998.5,1023.2,998.5,1023.2z"/>
				<g>
					<path class="st43" d="M1009.5,1048.6h-11v16.3c0,2.2,1.8,4.1,4.1,4.1h15.7h15.7c2.2,0,4.1-1.8,4.1-4.1v-4.1c0,0,0,0-0.1,0
						C1024.3,1060.8,1015.4,1055.4,1009.5,1048.6z"/>
					<path class="st44" d="M998.5,1048.6h11c-9.6-11-11-25.4-11-25.4V1048.6z"/>
				</g>
			</g>
			<g>
				<path class="st0" d="M1082.9,997.2c-5.2-7.4-8-16.3-8-25.4v-24.2h-5.3h-5.3v24.2c0,9.1-2.8,17.9-8,25.4l-4.1,5.9
					c-1.5,2.2-2.4,4.9-2.4,7.6v54.2c0,2.2,1.8,4.1,4.1,4.1h15.7h15.7c2.2,0,4.1-1.8,4.1-4.1v-54.2c0-2.7-0.8-5.3-2.4-7.6
					L1082.9,997.2z"/>
				<path class="st41" d="M1075,946.5h-10.7c-0.7,0-1.3,0.6-1.3,1.3v4.8c0,0.7,0.6,1.3,1.3,1.3h10.7c0.7,0,1.3-0.6,1.3-1.3v-4.8
					C1076.2,947.1,1075.7,946.5,1075,946.5z"/>
				<rect x="1049.9" y="1016.8" class="st41" width="39.5" height="31.7"/>
				<path class="st42" d="M1064.3,969c1.7-9.2,10.7-8.3,10.7-8.3v-6.9h-10.7V969z"/>
				<path class="st42" d="M1049.9,1023.1v41.7c0,2.2,1.8,4.1,4.1,4.1h15.7h15.7c2.2,0,4.1-1.8,4.1-4.1v-4.1
					C1053.5,1060.7,1049.9,1023.1,1049.9,1023.1z"/>
				<g>
					<path class="st43" d="M1060.9,1048.5h-11v16.3c0,2.2,1.8,4.1,4.1,4.1h15.7h15.7c2.2,0,4.1-1.8,4.1-4.1v-4.1c0,0,0,0-0.1,0
						C1075.7,1060.7,1066.8,1055.3,1060.9,1048.5z"/>
					<path class="st44" d="M1049.9,1048.5h11c-9.6-11-11-25.4-11-25.4V1048.5z"/>
				</g>
			</g>
			<g>
				<path class="st0" d="M1134.3,997.7c-5.2-7.4-8-16.3-8-25.4v-24.2h-5.3h-5.3v24.2c0,9.1-2.8,17.9-8,25.4l-4.1,5.9
					c-1.5,2.2-2.4,4.9-2.4,7.6v54.2c0,2.2,1.8,4.1,4.1,4.1h15.7h15.7c2.2,0,4.1-1.8,4.1-4.1v-54.2c0-2.7-0.8-5.3-2.4-7.6
					L1134.3,997.7z"/>
				<path class="st41" d="M1126.4,947.1h-10.7c-0.7,0-1.3,0.6-1.3,1.3v4.8c0,0.7,0.6,1.3,1.3,1.3h10.7c0.7,0,1.3-0.6,1.3-1.3v-4.8
					C1127.6,947.6,1127,947.1,1126.4,947.1z"/>
				<rect x="1101.3" y="1017.4" class="st41" width="39.5" height="31.7"/>
				<path class="st42" d="M1115.7,969.5c1.7-9.2,10.7-8.3,10.7-8.3v-6.9h-10.7V969.5z"/>
				<path class="st42" d="M1101.3,1023.6v41.7c0,2.2,1.8,4.1,4.1,4.1h15.7h15.7c2.2,0,4.1-1.8,4.1-4.1v-4.1
					C1104.9,1061.3,1101.3,1023.6,1101.3,1023.6z"/>
				<g>
					<path class="st43" d="M1112.3,1049.1h-11v16.3c0,2.2,1.8,4.1,4.1,4.1h15.7h15.7c2.2,0,4.1-1.8,4.1-4.1v-4.1c0,0,0,0-0.1,0
						C1127.1,1061.2,1118.1,1055.8,1112.3,1049.1z"/>
					<path class="st44" d="M1101.3,1049.1h11c-9.6-11-11-25.4-11-25.4V1049.1z"/>
				</g>
			</g>
			<g>
				<path class="st0" d="M1185.7,998.3c-5.2-7.4-8-16.3-8-25.4v-24.2h-5.3h-5.3v24.2c0,9.1-2.8,17.9-8,25.4l-4.1,5.9
					c-1.5,2.2-2.4,4.9-2.4,7.6v54.2c0,2.2,1.8,4.1,4.1,4.1h15.7h15.7c2.2,0,4.1-1.8,4.1-4.1v-54.2c0-2.7-0.8-5.3-2.4-7.6
					L1185.7,998.3z"/>
				<path class="st41" d="M1177.7,947.6h-10.7c-0.7,0-1.3,0.6-1.3,1.3v4.8c0,0.7,0.6,1.3,1.3,1.3h10.7c0.7,0,1.3-0.6,1.3-1.3v-4.8
					C1179,948.2,1178.4,947.6,1177.7,947.6z"/>
				<rect x="1152.6" y="1017.9" class="st41" width="39.5" height="31.7"/>
				<path class="st42" d="M1167.1,970.1c1.7-9.2,10.7-8.3,10.7-8.3v-6.9h-10.7V970.1z"/>
				<path class="st42" d="M1152.6,1024.2v41.7c0,2.2,1.8,4.1,4.1,4.1h15.7h15.7c2.2,0,4.1-1.8,4.1-4.1v-4.1
					C1156.3,1061.8,1152.6,1024.2,1152.6,1024.2z"/>
				<g>
					<path class="st43" d="M1163.6,1049.6h-11v16.3c0,2.2,1.8,4.1,4.1,4.1h15.7h15.7c2.2,0,4.1-1.8,4.1-4.1v-4.1c0,0,0,0-0.1,0
						C1178.5,1061.7,1169.5,1056.3,1163.6,1049.6z"/>
					<path class="st44" d="M1152.6,1049.6h11c-9.6-11-11-25.4-11-25.4V1049.6z"/>
				</g>
			</g>
		</g>
	</g>
</g>
<g>
	<ellipse class="st3" cx="478.9" cy="1763.7" rx="438.9" ry="32.3"/>
	<ellipse class="st3" cx="2521.1" cy="1772.5" rx="438.9" ry="32.3"/>
	<g>
		<polygon class="st45" points="1602.6,1767.2 1626.4,2000 1660.5,2000 1636.8,1767.2 		"/>
		<path class="st46" d="M1715.4,1716.2h-430.2c-9.6,0-17.3,7.7-17.3,17.3s7.7,17.3,17.3,17.3h430.2c9.6,0,17.3-7.7,17.3-17.3
			S1725,1716.2,1715.4,1716.2z"/>
		<path class="st47" d="M1314.2,1757.3c0,5.4,4.4,9.9,9.9,9.9h352.5c5.4,0,9.9-4.4,9.9-9.9v-6.5h-372.3V1757.3z"/>
		<g>
			<polygon class="st0" points="1024.7,2000 1044.8,2000 1063.3,1871.9 1043.3,1871.9 			"/>
			<rect x="1247.9" y="1871.9" class="st0" width="20" height="128.1"/>
			<path class="st47" d="M1271.5,1851.9h-221.8c0,0,0,0,0,0l-63.6-322.5l-10,2l55.6,332.4c0.9,4.7,5,8.1,9.8,8.1h229.6
				c5.5,0,10.3-4.3,10.4-9.8C1281.6,1856.5,1277.1,1851.9,1271.5,1851.9z"/>
			<path class="st12" d="M1276.2,1823.8h-51.1c-88.8,0-165.1-62.8-182.2-149.9l-30.3-154.2c-2-10.3-12.1-17.1-22.4-15.1
				c-10.3,2-17.1,12.1-15.1,22.4l62.7,319.6c1.8,9,9.6,15.4,18.7,15.4h219c10.3,0,19.1-7.9,19.6-18.2
				C1295.8,1832.8,1287.1,1823.8,1276.2,1823.8z"/>
			<path class="st46" d="M1005.9,1683.1l32.1,163.5c1.8,9,9.6,15.4,18.7,15.4h219c10.3,0,19.1-7.9,19.6-18.2
				C1065.7,1884.9,1005.9,1683.1,1005.9,1683.1z"/>
			<path class="st48" d="M1038.9,1902.2c8.4-15.1,22.2-14.6,22.2-14.6l2.3-15.7l-20.1,0L1038.9,1902.2z"/>
			<path class="st48" d="M1247.9,1891.2c0,0,17.9-1.1,20,20.3v-39.6h-20V1891.2z"/>
		</g>
		<g>
			<rect x="1733.4" y="1871.9" class="st0" width="20" height="128.1"/>
			<polygon class="st0" points="1938,1871.9 1956.5,2000 1976.6,2000 1958.1,1871.9 			"/>
			<path class="st47" d="M1951.6,1851.9C1951.6,1851.9,1951.6,1851.9,1951.6,1851.9l-221.8,0c-5.6,0-10.1,4.6-10,10.2
				c0.1,5.5,4.8,9.8,10.4,9.8h229.6c4.8,0,8.9-3.4,9.8-8.1l55.6-332.4l-10-2L1951.6,1851.9z"/>
			<path class="st12" d="M2011.1,1504.5c-10.3-2-20.4,4.7-22.4,15.1l-30.3,154.2c-17.1,87.1-93.4,149.9-182.2,149.9h-51.1
				c-10.8,0-19.6,9.1-19.1,20c0.5,10.3,9.3,18.2,19.6,18.2h219c9.1,0,17-6.5,18.7-15.4l62.7-319.6
				C2028.1,1516.6,2021.4,1506.6,2011.1,1504.5z"/>
			<path class="st46" d="M1706,1843.8c0.5,10.3,9.3,18.2,19.6,18.2h219c9.1,0,17-6.5,18.7-15.4l32.1-163.5
				C1995.5,1683.1,1935.7,1884.9,1706,1843.8z"/>
			<path class="st48" d="M1938,1871.9l2.3,15.7c0,0,13.8-0.5,22.2,14.6l-4.4-30.3L1938,1871.9z"/>
			<path class="st48" d="M1733.4,1911.5c2.1-21.4,20-20.3,20-20.3v-19.3h-20V1911.5z"/>
		</g>
		<g>
			<polygon class="st32" points="1465.5,1716.2 1505.2,1716.2 1526.7,1635.8 1486.9,1635.8 			"/>
			<polygon class="st12" points="1471.9,1707.7 1503.3,1707.7 1520.2,1644.3 1488.8,1644.3 			"/>
			<polygon class="st49" points="1505.2,1716.2 1535.2,1716.2 1526.7,1635.8 			"/>
			<g>
				<path class="st50" d="M1513.5,1653.4h-23c-0.7,0-1.2,0.5-1.2,1.2s0.5,1.2,1.2,1.2h23c0.7,0,1.2-0.5,1.2-1.2
					S1514.2,1653.4,1513.5,1653.4z"/>
				<path class="st50" d="M1511.2,1662h-23c-0.7,0-1.2,0.5-1.2,1.2c0,0.7,0.5,1.2,1.2,1.2h23c0.7,0,1.2-0.5,1.2-1.2
					C1512.3,1662.5,1511.8,1662,1511.2,1662z"/>
				<path class="st50" d="M1508.8,1670.5h-23c-0.7,0-1.2,0.5-1.2,1.2c0,0.7,0.5,1.2,1.2,1.2h23c0.7,0,1.2-0.5,1.2-1.2
					C1510,1671.1,1509.4,1670.5,1508.8,1670.5z"/>
				<path class="st50" d="M1506.4,1679.1h-23c-0.7,0-1.2,0.5-1.2,1.2c0,0.7,0.5,1.2,1.2,1.2h23c0.7,0,1.2-0.5,1.2-1.2
					C1507.6,1679.6,1507,1679.1,1506.4,1679.1z"/>
				<path class="st50" d="M1504,1687.6h-23c-0.7,0-1.2,0.5-1.2,1.2c0,0.7,0.5,1.2,1.2,1.2h23c0.7,0,1.2-0.5,1.2-1.2
					C1505.2,1688.1,1504.7,1687.6,1504,1687.6z"/>
				<path class="st50" d="M1501.6,1696.1h-23c-0.7,0-1.2,0.5-1.2,1.2c0,0.7,0.5,1.2,1.2,1.2h23c0.7,0,1.2-0.5,1.2-1.2
					C1502.8,1696.7,1502.3,1696.1,1501.6,1696.1z"/>
			</g>
			<path class="st51" d="M1515.9,1676c0,0,13.1,10.8,19.2,40.2l-8.5-80.4L1515.9,1676z"/>
		</g>
		<path class="st52" d="M1314.2,1757.3c0,5.4,4.4,9.9,9.9,9.9h6.6c0,0,55.3-8.4,355.8-9.9v-6.5h-372.3V1757.3z"/>
		<path class="st12" d="M1715.4,1716.2h-430.2c-9.4,0-17.1,7.6-17.3,16.9c66,6,146.1,9.5,232.4,9.5s166.4-3.5,232.4-9.5
			C1732.5,1723.7,1724.9,1716.2,1715.4,1716.2z"/>
		<path class="st48" d="M1358,1824.7c6.5-34.9,37.5-33.4,37.5-33.4l2.5-24.2h-34.1L1358,1824.7z"/>
		<path class="st48" d="M1602.6,1767.2l2.5,24.2c0,0,31.1-1.6,37.5,33.4l-5.9-57.5H1602.6z"/>
		<polygon class="st45" points="1340.1,2000 1374.3,2000 1398,1767.2 1363.9,1767.2 		"/>
	</g>
	<g>
		<path class="st46" d="M646.9,1469.7H311.4c-7.5,0-13.5,6-13.5,13.5c0,7.5,6,13.5,13.5,13.5h335.5c7.5,0,13.5-6,13.5-13.5
			C660.4,1475.8,654.4,1469.7,646.9,1469.7z"/>
		<path class="st47" d="M334,1501.8c0,4.2,3.4,7.7,7.7,7.7h274.9c4.2,0,7.7-3.4,7.7-7.7v-5.1H334V1501.8z"/>
		<polygon class="st45" points="559,1509.5 584.9,1763.7 611.5,1763.7 585.6,1509.5 		"/>
		<polygon class="st45" points="346.8,1763.7 373.4,1763.7 399.4,1509.5 372.8,1509.5 		"/>
		<g>
			<rect x="660.4" y="1591.2" class="st0" width="15.6" height="176.3"/>
			<polygon class="st0" points="820,1591.2 845.4,1766.7 861,1766.7 835.6,1591.2 			"/>
			<path class="st47" d="M830.6,1575.6C830.6,1575.6,830.5,1575.6,830.6,1575.6l-173,0c-4.3,0-7.9,3.6-7.8,7.9
				c0.1,4.3,3.8,7.7,8.1,7.7H837c3.7,0,6.9-2.6,7.6-6.3l43.4-259.2l-7.8-1.6L830.6,1575.6z"/>
			<path class="st12" d="M876.9,1304.7c-8.1-1.6-15.9,3.7-17.5,11.7l-23.6,120.3c-13.3,67.9-72.9,116.9-142.1,116.9h-39.8
				c-8.5,0-15.3,7.1-14.9,15.6c0.4,8,7.3,14.2,15.3,14.2h170.8c7.1,0,13.2-5,14.6-12l48.9-249.2
				C890.3,1314.1,885,1306.2,876.9,1304.7z"/>
			<path class="st46" d="M639.1,1569.2c0.4,8,7.3,14.2,15.3,14.2h170.8c7.1,0,13.2-5,14.6-12l25-127.5
				C864.8,1443.9,818.1,1601.3,639.1,1569.2z"/>
			<path class="st48" d="M820,1591.2l1.8,12.2c0,0,10.7-0.4,17.3,11.4l-3.4-23.6L820,1591.2z"/>
			<path class="st48" d="M660.4,1622c1.7-16.7,15.6-15.8,15.6-15.8v-15h-15.6V1622z"/>
		</g>
		<g>
			<rect x="281.8" y="1591.2" class="st0" width="15.6" height="176.3"/>
			<polygon class="st0" points="96.7,1766.7 112.4,1766.7 137.8,1591.2 122.2,1591.2 			"/>
			<path class="st47" d="M300.2,1575.6h-173c0,0,0,0,0,0l-49.6-251.5l-7.8,1.6l43.4,259.2c0.7,3.7,3.9,6.3,7.7,6.3h179.1
				c4.3,0,8-3.4,8.1-7.7C308.1,1579.2,304.6,1575.6,300.2,1575.6z"/>
			<path class="st12" d="M303.8,1553.6H264c-69.2,0-128.8-49-142.1-116.9l-23.6-120.3c-1.6-8.1-9.4-13.3-17.5-11.7
				c-8.1,1.6-13.3,9.4-11.7,17.5l48.9,249.2c1.4,7,7.5,12,14.6,12h170.8c8,0,14.9-6.2,15.3-14.2
				C319.1,1560.7,312.3,1553.6,303.8,1553.6z"/>
			<path class="st46" d="M93,1443.9l25,127.5c1.4,7,7.5,12,14.6,12h170.8c8,0,14.9-6.2,15.3-14.2C139.6,1601.3,93,1443.9,93,1443.9z
				"/>
			<path class="st48" d="M118.7,1614.8c6.6-11.7,17.3-11.4,17.3-11.4l1.8-12.2l-15.7,0L118.7,1614.8z"/>
			<path class="st48" d="M281.8,1606.2c0,0,13.9-0.8,15.6,15.8v-30.8h-15.6V1606.2z"/>
		</g>
		<g>
			<polygon class="st32" points="458.6,1407 475.3,1469.7 506.3,1469.7 489.6,1407 			"/>
			<polygon class="st12" points="463.7,1413.7 476.9,1463.1 501.3,1463.1 488.1,1413.7 			"/>
			<polygon class="st49" points="452,1469.7 475.3,1469.7 458.6,1407 			"/>
			<g>
				<path class="st50" d="M486.8,1420.8h-18c-0.5,0-0.9,0.4-0.9,0.9c0,0.5,0.4,0.9,0.9,0.9h18c0.5,0,0.9-0.4,0.9-0.9
					C487.8,1421.2,487.3,1420.8,486.8,1420.8z"/>
				<path class="st50" d="M488.7,1427.5h-18c-0.5,0-0.9,0.4-0.9,0.9c0,0.5,0.4,0.9,0.9,0.9h18c0.5,0,0.9-0.4,0.9-0.9
					C489.6,1427.9,489.2,1427.5,488.7,1427.5z"/>
				<path class="st50" d="M490.5,1434.1h-18c-0.5,0-0.9,0.4-0.9,0.9c0,0.5,0.4,0.9,0.9,0.9h18c0.5,0,0.9-0.4,0.9-0.9
					C491.5,1434.5,491.1,1434.1,490.5,1434.1z"/>
				<path class="st50" d="M492.4,1440.8h-18c-0.5,0-0.9,0.4-0.9,0.9c0,0.5,0.4,0.9,0.9,0.9h18c0.5,0,0.9-0.4,0.9-0.9
					C493.3,1441.2,492.9,1440.8,492.4,1440.8z"/>
				<path class="st50" d="M494.3,1447.4h-18c-0.5,0-0.9,0.4-0.9,0.9s0.4,0.9,0.9,0.9h18c0.5,0,0.9-0.4,0.9-0.9
					S494.8,1447.4,494.3,1447.4z"/>
				<path class="st50" d="M496.1,1454.1h-18c-0.5,0-0.9,0.4-0.9,0.9c0,0.5,0.4,0.9,0.9,0.9h18c0.5,0,0.9-0.4,0.9-0.9
					C497,1454.5,496.6,1454.1,496.1,1454.1z"/>
			</g>
			<path class="st51" d="M452,1469.7c4.8-22.9,15-31.3,15-31.3l-8.4-31.3L452,1469.7z"/>
		</g>
		<path class="st52" d="M334,1501.8c234.4,1.1,277.5,7.7,277.5,7.7h5.1c4.2,0,7.7-3.4,7.7-7.7v-5.1H334V1501.8z"/>
		<path class="st12" d="M646.9,1469.7H311.4c-7.4,0-13.3,5.9-13.5,13.2c51.5,4.7,113.9,7.4,181.2,7.4s129.8-2.7,181.2-7.4
			C660.3,1475.6,654.3,1469.7,646.9,1469.7z"/>
		<path class="st48" d="M559,1509.5l1.9,18.9c0,0,24.2-1.2,29.3,26l-4.6-44.9H559z"/>
		<path class="st48" d="M368.2,1554.4c5-27.2,29.3-26,29.3-26l1.9-18.9h-26.6L368.2,1554.4z"/>
	</g>
	<g>
		<path class="st46" d="M2688.6,1469.7h-335.5c-7.5,0-13.5,6-13.5,13.5c0,7.5,6,13.5,13.5,13.5h335.5c7.5,0,13.5-6,13.5-13.5
			C2702.1,1475.8,2696,1469.7,2688.6,1469.7z"/>
		<path class="st47" d="M2375.7,1501.8c0,4.2,3.4,7.7,7.7,7.7h274.9c4.2,0,7.7-3.4,7.7-7.7v-5.1h-290.3V1501.8z"/>
		<polygon class="st45" points="2388.5,1763.7 2415.1,1763.7 2441,1509.5 2414.4,1509.5 		"/>
		<polygon class="st45" points="2600.6,1509.5 2626.6,1763.7 2653.2,1763.7 2627.2,1509.5 		"/>
		<g>
			<rect x="2324" y="1591.2" class="st0" width="15.6" height="176.3"/>
			<polygon class="st0" points="2139,1766.7 2154.6,1766.7 2180,1591.2 2164.4,1591.2 			"/>
			<path class="st47" d="M2342.4,1575.6h-173c0,0,0,0,0,0l-49.6-251.5l-7.8,1.6l43.4,259.2c0.7,3.7,3.9,6.3,7.6,6.3h179.1
				c4.3,0,8-3.4,8.1-7.7C2350.3,1579.2,2346.8,1575.6,2342.4,1575.6z"/>
			<path class="st12" d="M2346.1,1553.6h-39.8c-69.2,0-128.8-49-142.1-116.9l-23.6-120.3c-1.6-8.1-9.4-13.3-17.5-11.7
				c-8.1,1.6-13.3,9.4-11.7,17.5l48.9,249.2c1.4,7,7.5,12,14.6,12h170.8c8,0,14.9-6.2,15.3-14.2
				C2361.3,1560.7,2354.5,1553.6,2346.1,1553.6z"/>
			<path class="st46" d="M2135.2,1443.9l25,127.5c1.4,7,7.5,12,14.6,12h170.8c8,0,14.9-6.2,15.3-14.2
				C2181.9,1601.3,2135.2,1443.9,2135.2,1443.9z"/>
			<path class="st48" d="M2161,1614.8c6.6-11.7,17.3-11.4,17.3-11.4l1.8-12.2l-15.7,0L2161,1614.8z"/>
			<path class="st48" d="M2324,1606.2c0,0,13.9-0.8,15.6,15.8v-30.8H2324V1606.2z"/>
		</g>
		<g>
			<rect x="2702.6" y="1591.2" class="st0" width="15.6" height="176.3"/>
			<polygon class="st0" points="2862.2,1591.2 2887.6,1766.7 2903.3,1766.7 2877.8,1591.2 			"/>
			<path class="st47" d="M2872.8,1575.6C2872.8,1575.6,2872.8,1575.6,2872.8,1575.6l-173,0c-4.3,0-7.9,3.6-7.8,7.9
				c0.1,4.3,3.8,7.7,8.1,7.7h179.1c3.7,0,6.9-2.6,7.7-6.3l43.4-259.2l-7.8-1.6L2872.8,1575.6z"/>
			<path class="st12" d="M2919.2,1304.7c-8.1-1.6-15.9,3.7-17.5,11.7l-23.6,120.3c-13.3,67.9-72.9,116.9-142.1,116.9h-39.8
				c-8.5,0-15.3,7.1-14.9,15.6c0.4,8,7.3,14.2,15.3,14.2h170.8c7.1,0,13.2-5,14.6-12l48.9-249.2
				C2932.5,1314.1,2927.2,1306.2,2919.2,1304.7z"/>
			<path class="st46" d="M2681.3,1569.2c0.4,8,7.3,14.2,15.3,14.2h170.8c7.1,0,13.2-5,14.6-12l25-127.5
				C2907,1443.9,2860.4,1601.3,2681.3,1569.2z"/>
			<path class="st48" d="M2862.2,1591.2l1.8,12.2c0,0,10.7-0.4,17.3,11.4l-3.4-23.6L2862.2,1591.2z"/>
			<path class="st48" d="M2702.6,1622c1.7-16.7,15.6-15.8,15.6-15.8v-15h-15.6V1622z"/>
		</g>
		<g>
			<polygon class="st32" points="2493.7,1469.7 2524.7,1469.7 2541.4,1407 2510.4,1407 			"/>
			<polygon class="st12" points="2498.7,1463.1 2523.1,1463.1 2536.3,1413.7 2511.9,1413.7 			"/>
			<polygon class="st49" points="2524.7,1469.7 2548,1469.7 2541.4,1407 			"/>
			<g>
				<path class="st50" d="M2531.1,1420.8h-18c-0.5,0-0.9,0.4-0.9,0.9c0,0.5,0.4,0.9,0.9,0.9h18c0.5,0,0.9-0.4,0.9-0.9
					C2532.1,1421.2,2531.7,1420.8,2531.1,1420.8z"/>
				<path class="st50" d="M2529.3,1427.5h-18c-0.5,0-0.9,0.4-0.9,0.9c0,0.5,0.4,0.9,0.9,0.9h18c0.5,0,0.9-0.4,0.9-0.9
					C2530.2,1427.9,2529.8,1427.5,2529.3,1427.5z"/>
				<path class="st50" d="M2527.4,1434.1h-18c-0.5,0-0.9,0.4-0.9,0.9c0,0.5,0.4,0.9,0.9,0.9h18c0.5,0,0.9-0.4,0.9-0.9
					C2528.4,1434.5,2527.9,1434.1,2527.4,1434.1z"/>
				<path class="st50" d="M2525.6,1440.8h-18c-0.5,0-0.9,0.4-0.9,0.9c0,0.5,0.4,0.9,0.9,0.9h18c0.5,0,0.9-0.4,0.9-0.9
					C2526.5,1441.2,2526.1,1440.8,2525.6,1440.8z"/>
				<path class="st50" d="M2523.7,1447.4h-18c-0.5,0-0.9,0.4-0.9,0.9s0.4,0.9,0.9,0.9h18c0.5,0,0.9-0.4,0.9-0.9
					S2524.2,1447.4,2523.7,1447.4z"/>
				<path class="st50" d="M2521.9,1454.1h-18c-0.5,0-0.9,0.4-0.9,0.9c0,0.5,0.4,0.9,0.9,0.9h18c0.5,0,0.9-0.4,0.9-0.9
					C2522.8,1454.5,2522.4,1454.1,2521.9,1454.1z"/>
			</g>
			<path class="st51" d="M2533,1438.4c0,0,10.2,8.4,15,31.3l-6.6-62.7L2533,1438.4z"/>
		</g>
		<path class="st52" d="M2375.7,1501.8c0,4.2,3.4,7.7,7.7,7.7h5.1c0,0,43.1-6.6,277.5-7.7v-5.1h-290.3V1501.8z"/>
		<path class="st12" d="M2688.6,1469.7h-335.5c-7.4,0-13.3,5.9-13.5,13.2c51.5,4.7,113.9,7.4,181.2,7.4c67.3,0,129.8-2.7,181.2-7.4
			C2701.9,1475.6,2696,1469.7,2688.6,1469.7z"/>
		<path class="st48" d="M2409.8,1554.4c5-27.2,29.3-26,29.3-26l1.9-18.9h-26.6L2409.8,1554.4z"/>
		<path class="st48" d="M2600.6,1509.5l1.9,18.9c0,0,24.2-1.2,29.3,26l-4.6-44.9H2600.6z"/>
	</g>
</g>
</svg>
