<?xml version="1.0" encoding="UTF-8" standalone="no"?>
<svg
   xmlns:dc="http://purl.org/dc/elements/1.1/"
   xmlns:cc="http://creativecommons.org/ns#"
   xmlns:rdf="http://www.w3.org/1999/02/22-rdf-syntax-ns#"
   xmlns:svg="http://www.w3.org/2000/svg"
   xmlns="http://www.w3.org/2000/svg"
   xmlns:sodipodi="http://sodipodi.sourceforge.net/DTD/sodipodi-0.dtd"
   xmlns:inkscape="http://www.inkscape.org/namespaces/inkscape"
   version="1.1"
   id="svg2"
   xml:space="preserve"
   width="960"
   height="671.99866"
   viewBox="0 0 960 671.99866"
   sodipodi:docname="living_room.svg"
   inkscape:version="1.0.2 (394de47547, 2021-03-26)"><metadata
     id="metadata8"><rdf:RDF><cc:Work
         rdf:about=""><dc:format>image/svg+xml</dc:format><dc:type
           rdf:resource="http://purl.org/dc/dcmitype/StillImage" /><dc:title></dc:title></cc:Work></rdf:RDF></metadata><defs
     id="defs6"><clipPath
       clipPathUnits="userSpaceOnUse"
       id="clipPath20"><path
         d="M 0,503.999 H 720 V 0 H 0 Z"
         id="path18" /></clipPath><clipPath
       clipPathUnits="userSpaceOnUse"
       id="clipPath44"><path
         d="M 605.934,54.0518 H 645.946 V 48.4443 H 605.934 Z"
         id="path42" /></clipPath><clipPath
       clipPathUnits="userSpaceOnUse"
       id="clipPath268"><path
         d="M 226.042,55.8564 H 452.464 V 46.6387 H 226.042 Z"
         id="path266" /></clipPath><clipPath
       clipPathUnits="userSpaceOnUse"
       id="clipPath288"><path
         d="M 201.04,348.362 H 289.234 V 227.079 H 201.04 Z"
         id="path286" /></clipPath><clipPath
       clipPathUnits="userSpaceOnUse"
       id="clipPath310"><path
         d="M 280.891,345.155 H 281.523 V 235.771 H 280.891 Z"
         id="path308" /></clipPath><clipPath
       clipPathUnits="userSpaceOnUse"
       id="clipPath314"><path
         d="M 280.891,345.155 H 281.523 V 235.771 H 280.891 Z"
         id="path312" /></clipPath><clipPath
       clipPathUnits="userSpaceOnUse"
       id="clipPath348"><path
         d="M 204.522,236.237 H 281.36 V 235.771 H 204.522 Z"
         id="path346" /></clipPath><clipPath
       clipPathUnits="userSpaceOnUse"
       id="clipPath370"><path
         d="M 376.8,351.115 H 464.994 V 229.832 H 376.8 Z"
         id="path368" /></clipPath><clipPath
       clipPathUnits="userSpaceOnUse"
       id="clipPath392"><path
         d="M 456.651,347.908 H 457.283 V 238.524 H 456.651 Z"
         id="path390" /></clipPath><clipPath
       clipPathUnits="userSpaceOnUse"
       id="clipPath396"><path
         d="M 456.651,347.908 H 457.283 V 238.524 H 456.651 Z"
         id="path394" /></clipPath><clipPath
       clipPathUnits="userSpaceOnUse"
       id="clipPath430"><path
         d="M 380.283,238.99 H 457.12 V 238.524 H 380.283 Z"
         id="path428" /></clipPath><clipPath
       clipPathUnits="userSpaceOnUse"
       id="clipPath498"><path
         d="M 106.979,172.361 H 113.483 V 165.858 H 106.979 Z"
         id="path496" /></clipPath><clipPath
       clipPathUnits="userSpaceOnUse"
       id="clipPath516"><path
         d="M 106.979,136.633 H 113.483 V 130.129 H 106.979 Z"
         id="path514" /></clipPath><clipPath
       clipPathUnits="userSpaceOnUse"
       id="clipPath562"><path
         d="M 73.8105,67.1641 H 149.059 V 43.2344 H 73.8105 Z"
         id="path560" /></clipPath><clipPath
       clipPathUnits="userSpaceOnUse"
       id="clipPath620"><path
         d="M 507.895,47.2666 H 580.737 V 43.377 H 507.895 Z"
         id="path618" /></clipPath><clipPath
       clipPathUnits="userSpaceOnUse"
       id="clipPath684"><path
         d="M 547.953,124.136 H 551.617 V 121.082 H 547.953 Z"
         id="path682" /></clipPath><clipPath
       clipPathUnits="userSpaceOnUse"
       id="clipPath704"><path
         d="M 522.77,126.912 H 570.768 V 119.117 H 522.77 Z"
         id="path702" /></clipPath><clipPath
       clipPathUnits="userSpaceOnUse"
       id="clipPath728"><path
         d="M 550.12,133.539 H 553.561 V 130.485 H 550.12 Z"
         id="path726" /></clipPath><clipPath
       clipPathUnits="userSpaceOnUse"
       id="clipPath748"><path
         d="M 526.471,136.315 H 571.544 V 128.521 H 526.471 Z"
         id="path746" /></clipPath></defs><sodipodi:namedview
     pagecolor="#ffffff"
     bordercolor="#666666"
     borderopacity="1"
     objecttolerance="10"
     gridtolerance="10"
     guidetolerance="10"
     inkscape:pageopacity="0"
     inkscape:pageshadow="2"
     inkscape:window-width="1848"
     inkscape:window-height="1016"
     id="namedview4"
     showgrid="false"
     inkscape:zoom="0.61393274"
     inkscape:cx="444.01434"
     inkscape:cy="421.33058"
     inkscape:window-x="72"
     inkscape:window-y="27"
     inkscape:window-maximized="1"
     inkscape:current-layer="g10" /><g
     id="g10"
     inkscape:groupmode="layer"
     inkscape:label="01"
     transform="matrix(1.3333333,0,0,-1.3333333,0,671.99867)"><g
       id="g30"
       transform="translate(675.584,67.1133)"><path
         d="M 0,0 L -632.611,0.051 L -640.27,9.684 H 6.083 Z"
         style="fill:#f5fffd;fill-opacity:1;fill-rule:nonzero;stroke:none"
         id="path32" /></g><g
       id="g38"><g
         id="g40" /><g
         id="g52"><g
           clip-path="url(#clipPath44)"
           opacity="0.199997"
           id="g50"><g
             transform="translate(645.9463,51.248)"
             id="g48"><path
               d="M 0,0 C 0,-1.549 -8.957,-2.804 -20.007,-2.804 C -31.056,-2.804 -40.013,-1.549 -40.013,0 C -40.013,1.549 -31.056,2.804 -20.007,2.804 C -8.957,2.804 0,1.549 0,0"
               style="fill:#665f52;fill-opacity:1;fill-rule:nonzero;stroke:none"
               id="path46" /></g></g></g></g><g
       id="g54"
       transform="translate(588.9082,93.29)"><path
         d="M 0,0 C -1.518,-3.997 -2.37,-8.436 -2.37,-13.114 C -2.37,-30.449 9.236,-44.523 23.632,-44.781 C 33.483,-33.207 36.989,-15.918 37.194,0 Z"
         style="fill:#998f82;fill-opacity:1;fill-rule:nonzero;stroke:none"
         id="path56" /></g><g
       id="g58"
       transform="translate(636.9707,93.29)"><path
         d="M 0,0 H -10.868 C -11.073,-15.918 -14.579,-33.207 -24.431,-44.781 C -24.297,-44.783 -24.165,-44.793 -24.031,-44.793 C -9.45,-44.793 2.37,-30.61 2.37,-13.114 C 2.37,-8.436 1.518,-3.997 0,0"
         style="fill:#897e72;fill-opacity:1;fill-rule:nonzero;stroke:none"
         id="path60" /></g><g
       id="g62"
       transform="translate(637,93.29)"><path
         d="M 0,0 C 0,-1.337 -10.802,-2.421 -24.127,-2.421 C -37.453,-2.421 -48.254,-1.337 -48.254,0 C -48.254,1.337 -37.453,2.421 -24.127,2.421 C -10.802,2.421 0,1.337 0,0"
         style="fill:#595247;fill-opacity:1;fill-rule:nonzero;stroke:none"
         id="path64" /></g><g
       id="g66"
       transform="translate(599.4844,205.3164)"><path
         d="M 0,0 C -1.363,5.318 -2.919,11.151 -2.919,11.151 L -5.035,11.458 C -5.035,11.458 -4.132,8.024 -2.83,2.859 C -1.75,2.007 -0.819,1.043 0,0"
         style="fill:#334424;fill-opacity:1;fill-rule:nonzero;stroke:none"
         id="path68" /></g><g
       id="g70"
       transform="translate(609.4268,162.1729)"><path
         d="M 0,0 C -1.312,7.824 -7.705,34.246 -9.164,40.074 C -9.406,41.043 -9.671,42.084 -9.942,43.144 C -10.762,44.187 -11.692,45.15 -12.772,46.003 C -9.752,34.012 -4.573,12.632 -3.481,2.809 C -2.665,-4.541 -1.229,-24.08 -0.052,-41.23 L 3.92,-47.989 C 2.537,-28.793 0.677,-4.032 0,0"
         style="fill:#41573f;fill-opacity:1;fill-rule:nonzero;stroke:none"
         id="path72" /></g><g
       id="g74"
       transform="translate(609.375,120.9424)"><path
         d="M 0,0 C 1.075,-15.646 1.937,-29.304 1.919,-29.897 L 5.606,-29.94 C 5.606,-29.94 4.896,-19.593 3.972,-6.759 Z"
         style="fill:#334424;fill-opacity:1;fill-rule:nonzero;stroke:none"
         id="path76" /></g><g
       id="g78"
       transform="translate(609.7451,241.7764)"><path
         d="M 0,0 C 0.898,5.2 -5.666,8.6 -10.137,10.546 C -14.607,12.491 -19.524,13.349 -22.301,16.056 C -25.076,18.763 -30.264,24.702 -35.687,25.052 C -41.108,25.403 -49.13,25.711 -56.02,27.863 C -60.504,29.264 -66.094,25.291 -74.076,27.713 C -73.785,27.553 -69.185,25.434 -68.877,25.319 C -62.035,23.038 -53.483,24.178 -45.501,19.617 C -41.51,17.336 -34.668,20.757 -31.816,16.196 C -25.545,7.073 -17.562,4.222 -10.15,-2.049 C -3.82,-8.379 -6.768,-20.561 -14.919,-25.057 C -14.626,-25.1 -14.105,-25.176 -13.18,-25.309 C 6.071,-28.104 -0.899,-5.197 0,0"
         style="fill:#7a8c75;fill-opacity:1;fill-rule:nonzero;stroke:none"
         id="path80" /></g><g
       id="g82"
       transform="translate(599.5947,239.7275)"><path
         d="M 0,0 C -7.412,6.271 -15.395,9.122 -21.666,18.245 C -24.518,22.806 -31.359,19.385 -35.351,21.666 C -43.333,26.227 -51.885,25.086 -58.727,27.368 C -59.034,27.483 -63.635,29.602 -63.926,29.762 C -64.5,27.624 -64.185,24.792 -42.751,17.648 C -20.136,10.11 -5.146,-22.953 -5.146,-22.953 L -4.769,-23.008 C 3.383,-18.512 6.33,-6.33 0,0"
         style="fill:#41573f;fill-opacity:1;fill-rule:nonzero;stroke:none"
         id="path84" /></g><g
       id="g86"
       transform="translate(573.5439,174.0439)"><path
         d="M 0,0 L -1.734,-1.141 C -0.842,-2.899 0.012,-4.584 0.834,-6.209 C 2.817,-7.997 4.613,-9.785 6.401,-11.573 C 3.802,-6.506 1.549,-2.369 0,0"
         style="fill:#334424;fill-opacity:1;fill-rule:nonzero;stroke:none"
         id="path88" /></g><g
       id="g90"
       transform="translate(595.4189,130.6104)"><path
         d="M 0,0 C -4.899,10.413 -10.759,22.672 -15.474,31.86 C -17.262,33.648 -19.058,35.437 -21.041,37.225 C -2.022,-0.352 -1.361,-2.816 -0.422,-5.791 C 0.254,-7.931 1.157,-11.509 2.087,-15.742 L 6.483,-20.139 C 4.819,-12.941 2.642,-5.613 0,0"
         style="fill:#41573f;fill-opacity:1;fill-rule:nonzero;stroke:none"
         id="path92" /></g><g
       id="g94"
       transform="translate(605.2939,91.1348)"><path
         d="M 0,0 C -0.582,5.086 -1.729,12.146 -3.392,19.337 L -7.788,23.733 C -6.2,16.493 -4.539,7.334 -3.826,0.155 C -2.312,0.079 -1.264,-0.008 0,0"
         style="fill:#334424;fill-opacity:1;fill-rule:nonzero;stroke:none"
         id="path96" /></g><g
       id="g98"
       transform="translate(524.8662,202.7412)"><path
         d="M 0,0 C 0,0 -6.272,-9.502 3.23,-14.254 C 12.733,-19.006 9.123,-9.502 21.856,-14.254 C 34.59,-19.006 48.678,-28.697 48.678,-28.697 C 48.678,-28.697 54.926,-25.49 53.215,-20.537 C 51.505,-15.584 41.621,-10.453 41.432,-7.602 C 41.242,-4.752 37.631,-6.082 32.5,-6.082 C 27.368,-6.082 27.558,3.99 18.055,3.041 C 8.553,2.092 1.9,3.104 1.9,3.104 Z"
         style="fill:#7a8c75;fill-opacity:1;fill-rule:nonzero;stroke:none"
         id="path100" /></g><g
       id="g102"
       transform="translate(571.8096,172.9033)"><path
         d="M 0,0 L 1.734,1.141 C 2.95,-0.979 -3.613,12.691 -9.313,13.303 C -14.635,13.873 -25.467,17.484 -27.558,18.436 C -29.648,19.385 -39.522,15.852 -43.713,15.584 C -44.83,15.512 -39.318,13.779 -33.284,13.375 C -29.559,13.125 -26.583,14.191 -25.277,13.684 C -21.855,12.354 -4.094,6.406 0,0"
         style="fill:#41573f;fill-opacity:1;fill-rule:nonzero;stroke:none"
         id="path104" /></g><g
       id="g106"
       transform="translate(606.2051,114.6689)"><path
         d="M 0,0 C -1.689,19.82 -3.668,43.09 -4.034,47.59 C -4.042,47.689 -4.051,47.777 -4.06,47.875 C -4.938,50.229 -5.947,52.584 -7.163,54.863 L -2.866,2.866 Z"
         style="fill:#41573f;fill-opacity:1;fill-rule:nonzero;stroke:none"
         id="path108" /></g><g
       id="g110"
       transform="translate(599.4619,178.2881)"><path
         d="M 0,0 L -1.141,-0.064 L -1.043,-1.221 L -0.42,-8.756 C 0.796,-11.035 1.805,-13.391 2.684,-15.744 C 2.038,-8.085 1.032,-6.41 0,0"
         style="fill:#334424;fill-opacity:1;fill-rule:nonzero;stroke:none"
         id="path112" /></g><g
       id="g114"
       transform="translate(603.3389,117.5352)"><path
         d="M 0,0 L 2.182,-26.4 C 3.08,-26.398 3.979,-26.414 4.877,-26.447 C 4.41,-20.975 3.671,-12.312 2.866,-2.866 Z"
         style="fill:#334424;fill-opacity:1;fill-rule:nonzero;stroke:none"
         id="path116" /></g><g
       id="g118"
       transform="translate(599.1133,176.1885)"><path
         d="M 0,0 C 0.937,0.041 6.21,3.461 6.638,7.168 C 7.065,10.873 4.196,17.629 2.86,18.855 C 1.525,20.082 -1.202,4.174 -1.202,4.174 Z"
         style="fill:#334424;fill-opacity:1;fill-rule:nonzero;stroke:none"
         id="path120" /></g><g
       id="g122"
       transform="translate(598.4189,177.0674)"><path
         d="M 0,0 C 0,0 7.457,7.713 5.105,15.553 C 2.754,23.393 -2.378,30.947 -17.06,35.367 C -31.741,39.785 -33.452,39.643 -35.02,40.355 C -36.588,41.068 -46.365,42.352 -49.986,42.352 C -53.607,42.352 -41.149,39.215 -34.164,28.777 C -29.769,22.207 -8.553,14.824 0,0"
         style="fill:#41573f;fill-opacity:1;fill-rule:nonzero;stroke:none"
         id="path124" /></g><g
       id="g126"
       transform="translate(615.4521,115.9473)"><path
         d="M 0,0 C -1.461,-10.401 -2.782,-19.388 -3.596,-24.909 C -2.618,-24.957 -1.448,-24.92 -0.471,-24.945 C 0.521,-18.892 2.181,-8.567 3.955,3.372 C 2.735,1.998 1.678,0.682 0,0"
         style="fill:#334424;fill-opacity:1;fill-rule:nonzero;stroke:none"
         id="path128" /></g><g
       id="g130"
       transform="translate(619.1074,244.9336)"><path
         d="M 0,0 L -2.825,3.705 C -2.825,3.705 -1.629,-1.952 -0.226,-10.463 C 1.01,-12.986 2.158,-15.564 3.199,-18.185 C 1.469,-7.773 0,0 0,0"
         style="fill:#334424;fill-opacity:1;fill-rule:nonzero;stroke:none"
         id="path132" /></g><g
       id="g134"
       transform="translate(622.3066,226.749)"><path
         d="M 0,0 C -1.041,2.62 -2.189,5.198 -3.425,7.722 C -1.138,-6.146 1.701,-27.597 0.817,-44.547 C 0.017,-59.915 -3.736,-88.596 -6.854,-110.802 C -5.177,-110.12 -4.119,-108.804 -2.899,-107.43 C 1.177,-80.006 5.868,-44.045 4.523,-31.637 C 3.428,-21.53 1.602,-9.636 0,0"
         style="fill:#41573f;fill-opacity:1;fill-rule:nonzero;stroke:none"
         id="path136" /></g><g
       id="g138"
       transform="translate(619.1074,246.0742)"><path
         d="M 0,0 C 0,0 8.293,2.281 9.291,8.267 C 10.288,14.253 11.286,11.118 12.569,11.545 C 13.853,11.973 15.848,19.67 14.279,22.664 C 12.712,25.657 5.269,30.049 1.222,29.421 C -2.825,28.793 -1.257,17.936 -1.399,14.741 C -1.542,11.545 -2.877,4.704 0,0"
         style="fill:#7a8c75;fill-opacity:1;fill-rule:nonzero;stroke:none"
         id="path140" /></g><g
       id="g142"
       transform="translate(619.1074,244.9336)"><path
         d="M 0,0 C 0,0 -2.021,9.123 0,10.691 C 2.021,12.258 -0.025,15.251 0,16.82 C 0.025,18.388 4.214,23.935 0.893,31.359 C -3.253,40.625 -12.946,44.045 -18.077,46.896 C -23.209,49.747 -24.634,53.31 -28.625,54.023 C -32.616,54.736 -42.853,59.583 -43.223,61.72 C -43.593,63.859 -52.002,67.85 -51.859,71.271 C -51.717,74.692 -53.855,64.856 -45.445,56.019 C -37.035,47.181 -15.654,26.228 -13.231,22.094 C -10.808,17.96 -3.396,3.705 -3.396,3.705 Z"
         style="fill:#41573f;fill-opacity:1;fill-rule:nonzero;stroke:none"
         id="path144" /></g><g
       id="g146"
       transform="translate(622.2881,119.5049)"><path
         d="M 0,0 C -2.429,-11.049 -4.795,-22.001 -6.174,-28.417 C -4.955,-28.428 -3.794,-28.508 -2.575,-28.417 C -1.111,-21.372 1.535,-8.931 4.233,3.448 C 2.759,2.362 1.197,1.363 0,0"
         style="fill:#334424;fill-opacity:1;fill-rule:nonzero;stroke:none"
         id="path148" /></g><g
       id="g150"
       transform="translate(650.9199,206.4482)"><path
         d="M 0,0 C 0,0 -2.591,-6.046 -4.768,-11.28 C -3.798,-10.56 -2.776,-9.892 -1.719,-9.26 C 0.549,-3.743 2.138,0 2.138,0 Z"
         style="fill:#334424;fill-opacity:1;fill-rule:nonzero;stroke:none"
         id="path152" /></g><g
       id="g154"
       transform="translate(645.2178,192.9053)"><path
         d="M 0,0 C -2.28,-5.559 -12.4,-30.789 -14.824,-38.344 C -15.826,-41.466 -19.441,-57.533 -22.93,-73.4 C -21.732,-72.037 -20.171,-71.038 -18.696,-69.952 C -15.64,-55.928 -12.518,-41.984 -10.976,-36.063 C -8.561,-26.79 -0.782,-7.315 3.983,4.283 C 2.926,3.651 1.904,2.983 0.935,2.263 C 0.611,1.483 0.296,0.721 0,0"
         style="fill:#41573f;fill-opacity:1;fill-rule:nonzero;stroke:none"
         id="path156" /></g><g
       id="g158"
       transform="translate(653.0576,206.4482)"><path
         d="M 0,0 C 0,0 19.584,30.568 43.048,34.779 C 65.284,38.771 63.573,38.343 63.858,39.626 C 64.144,40.909 55.021,47.608 47.895,46.467 C 40.767,45.328 32.785,46.174 27.368,46.606 C 21.951,47.038 15.965,41.907 12.829,39.626 C 9.693,37.346 4.704,37.203 0,35.92 C -4.704,34.637 -11.688,32.213 -11.546,26.939 C -11.403,21.666 -21.591,0 -2.138,0 Z"
         style="fill:#41573f;fill-opacity:1;fill-rule:nonzero;stroke:none"
         id="path160" /></g><g
       id="g162"
       transform="translate(681.2578,173.7979)"><path
         d="M 0,0 C 0,0 -6.392,5.068 -9.456,4.498 C -12.521,3.928 -16.155,2.715 -17.581,2.857 C -19.006,3 -24.28,2.512 -25.849,1.295 C -27.416,0.078 -30.885,-2.037 -31.716,-5.078 C -32.548,-8.117 -24.565,-2.344 -20.931,-2.131 C -17.296,-1.916 0,0 0,0"
         style="fill:#7a8c75;fill-opacity:1;fill-rule:nonzero;stroke:none"
         id="path164" /></g><g
       id="g166"
       transform="translate(620.0479,91.0977)"><path
         d="M 0,0 C 1.013,0.083 1.976,0.021 2.987,0.211 C 4.78,6.886 7.491,16.934 9.158,22.888 C 9.322,23.474 9.557,24.159 9.851,24.926 C 8.491,23.681 7.252,22.317 5.864,21.102 C 3.579,13.783 1.383,5.454 0,0"
         style="fill:#334424;fill-opacity:1;fill-rule:nonzero;stroke:none"
         id="path168" /></g><g
       id="g170"
       transform="translate(651.4463,159.7187)"><path
         d="M 0,0 C 0,0 -0.969,-1.503 -2.507,-3.931 C -2.855,-5.991 -3.354,-8.052 -3.948,-10.112 C -0.929,-4.866 1.233,-1.229 1.233,-1.229 Z"
         style="fill:#334424;fill-opacity:1;fill-rule:nonzero;stroke:none"
         id="path172" /></g><g
       id="g174"
       transform="translate(630.3467,124.249)"><path
         d="M 0,0 C -1.378,-2.829 -2.926,-7.22 -4.435,-12.05 C -3.047,-10.834 -1.808,-9.471 -0.448,-8.226 C 2.479,-0.576 11.381,15.332 17.151,25.357 C 17.745,27.418 18.244,29.479 18.593,31.539 C 13.949,24.207 4.104,8.424 0,0"
         style="fill:#41573f;fill-opacity:1;fill-rule:nonzero;stroke:none"
         id="path176" /></g><g
       id="g178"
       transform="translate(683.3711,172.7139)"><path
         d="M 0,0 C 0,0 -19.86,-3.137 -23.566,-6.654 C -27.272,-10.17 -30.691,-14.225 -30.691,-14.225 C -30.691,-14.225 -38.201,-7.605 -33.829,-3.994 C -29.458,-0.381 -24.231,-0.855 -22.996,0 C -21.761,0.854 -12.163,3.039 -8.742,2.184 C -5.321,1.328 -1.806,1.711 0,0"
         style="fill:#41573f;fill-opacity:1;fill-rule:nonzero;stroke:none"
         id="path180" /></g><g
       id="g182"
       transform="translate(456.624,104.8096)"><path
         d="M 0,0 H -250.255 L -281.825,75.023 C -281.825,75.023 -250.921,79.936 -236.694,81.356 C -219.364,83.085 -55.823,83.663 -31.598,82.928 C -10.961,82.299 39.399,74.878 39.399,74.878 Z"
         style="fill:#465172;fill-opacity:1;fill-rule:nonzero;stroke:none"
         id="path184" /></g><g
       id="g186"
       transform="translate(220.8252,157.4014)"><path
         d="M 0,0 C 0,0 47.075,-27.163 83.843,-30.934 C 120.611,-34.704 229.665,-35.517 229.665,-35.517 V -46.122 H 10.484 C 10.484,-46.122 6.625,-7.709 0,0"
         style="fill:#303853;fill-opacity:1;fill-rule:nonzero;stroke:none"
         id="path188" /></g><g
       id="g190"
       transform="translate(456.3516,104.8096)"><path
         d="M 0,0 H -231.2 V 10.347 C -231.2,10.347 -151.293,13.472 -121.682,12.86 C -92.069,12.249 0,10.347 0,10.347 Z"
         style="fill:#566489;fill-opacity:1;fill-rule:nonzero;stroke:none"
         id="path192" /></g><g
       id="g194"
       transform="translate(386.541,113.3086)"><path
         d="M 0,0 C 3.827,0.302 14.037,2.497 21.474,2.165 C 20.379,2.72 19.318,3.271 18.447,3.686 C 12.078,5.962 5.714,4.106 0,0"
         style="fill:#89936c;fill-opacity:1;fill-rule:nonzero;stroke:none"
         id="path196" /></g><g
       id="g198"
       transform="translate(387.3877,144.1025)"><path
         d="M 0,0 C 0.339,-4.113 0.979,-19.9 -0.37,-21.832 C -0.649,-22.229 -0.991,-22.794 -1.34,-23.449 C 3.304,-18.556 3.489,-8.105 0,0"
         style="fill:#89936c;fill-opacity:1;fill-rule:nonzero;stroke:none"
         id="path200" /></g><g
       id="g202"
       transform="translate(453.0127,152.2598)"><path
         d="M 0,0 V 0 C -0.308,0.278 -0.716,0.358 -1.264,0.175 C -6.243,-1.502 -59.259,1.432 -61.601,2.27 C -63.946,3.108 -67.461,2.27 -67.461,2.27 C -68.633,-2.339 -65.995,-5.271 -65.704,-7.366 C -65.679,-7.53 -65.654,-7.807 -65.625,-8.157 C -62.136,-16.263 -62.321,-26.713 -66.965,-31.606 C -68.453,-34.397 -70.071,-38.823 -67.461,-38.979 C -67.212,-38.994 -66.873,-38.981 -66.472,-38.951 C -60.758,-34.845 -54.394,-32.989 -48.024,-35.266 C -47.153,-35.681 -46.093,-36.231 -44.998,-36.786 C -43.199,-36.865 -41.563,-37.092 -40.221,-37.529 C -37.684,-38.359 -34.261,-38.944 -30.497,-39.327 C -20.929,-38.814 -11.108,-36.206 -1.825,-37.33 C -7.614,-33.021 -4.734,-19.558 -4.302,-15.534 C -3.864,-11.449 0,0 0,0"
         style="fill:#98a579;fill-opacity:1;fill-rule:nonzero;stroke:none"
         id="path204" /></g><g
       id="g206"
       transform="translate(451.1875,114.9297)"><path
         d="M 0,0 C -9.283,1.124 -19.104,-1.484 -28.672,-1.997 C -15.331,-3.354 2.323,-2.159 0.268,-0.199 C 0.174,-0.137 0.09,-0.066 0,0"
         style="fill:#89936c;fill-opacity:1;fill-rule:nonzero;stroke:none"
         id="path208" /></g><g
       id="g210"
       transform="translate(450.5752,128.5557)"><path
         d="M 0,0 C 0.261,5.593 4.924,21.46 2.438,23.704 C 2.438,23.704 -1.427,12.255 -1.864,8.17 C -2.305,4.085 -5.271,-9.742 0.88,-13.825 C -1.756,-11.312 -0.291,-6.285 0,0"
         style="fill:#89936c;fill-opacity:1;fill-rule:nonzero;stroke:none"
         id="path212" /></g><g
       id="g214"
       transform="translate(285.8809,114.2207)"><path
         d="M 0,0 C -3.37,0.342 -12.341,2.646 -18.9,2.394 C -17.928,2.936 -16.986,3.476 -16.213,3.882 C -10.573,6.091 -4.986,4.168 0,0"
         style="fill:#a2b29e;fill-opacity:1;fill-rule:nonzero;stroke:none"
         id="path216" /></g><g
       id="g218"
       transform="translate(285.5049,145.0215)"><path
         d="M 0,0 C -0.348,-4.108 -1.101,-19.889 0.064,-21.834 C 0.305,-22.233 0.6,-22.803 0.899,-23.462 C -3.135,-18.519 -3.172,-8.068 0,0"
         style="fill:#a2b29e;fill-opacity:1;fill-rule:nonzero;stroke:none"
         id="path220" /></g><g
       id="g222"
       transform="translate(227.7651,153.874)"><path
         d="M 0,0 V 0 C 0.275,0.276 0.636,0.352 1.116,0.162 C 5.484,-1.566 52.245,0.804 54.319,1.616 C 56.396,2.431 59.484,1.555 59.484,1.555 C 60.462,-3.066 58.101,-5.971 57.819,-8.062 C 57.795,-8.226 57.771,-8.502 57.74,-8.853 C 54.567,-16.921 54.604,-27.371 58.639,-32.314 C 59.917,-35.121 61.29,-39.563 58.987,-39.691 C 58.768,-39.704 58.469,-39.688 58.116,-39.653 C 53.129,-35.485 47.542,-33.563 41.902,-35.771 C 41.129,-36.178 40.188,-36.718 39.216,-37.26 C 37.63,-37.319 36.186,-37.529 34.996,-37.952 C 32.751,-38.755 29.727,-39.306 26.405,-39.647 C 17.978,-39.033 9.355,-36.32 1.16,-37.347 C 6.314,-33.1 3.938,-19.605 3.604,-15.579 C 3.269,-11.488 0,0 0,0"
         style="fill:#c3cdc1;fill-opacity:1;fill-rule:nonzero;stroke:none"
         id="path224" /></g><g
       id="g226"
       transform="translate(228.9253,116.5273)"><path
         d="M 0,0 C 8.195,1.026 16.818,-1.687 25.245,-2.301 C 13.471,-3.516 -2.074,-2.134 -0.239,-0.196 C -0.155,-0.134 -0.08,-0.064 0,0"
         style="fill:#a2b29e;fill-opacity:1;fill-rule:nonzero;stroke:none"
         id="path228" /></g><g
       id="g230"
       transform="translate(229.6279,130.1465)"><path
         d="M 0,0 C -0.162,5.596 -4.081,21.511 -1.863,23.728 C -1.863,23.728 1.406,12.239 1.742,8.148 C 2.081,4.06 4.529,-9.798 -0.941,-13.815 C 1.412,-11.329 0.181,-6.288 0,0"
         style="fill:#a2b29e;fill-opacity:1;fill-rule:nonzero;stroke:none"
         id="path232" /></g><g
       id="g234"
       transform="translate(230.3022,115.3398)"><path
         d="M 0,0 C 0,0 2.267,14.583 0,24.323 C -1.425,30.447 -10.947,48.105 -24.448,56.479 C -37.948,64.856 -53.172,67.369 -63.227,62.028 C -73.28,56.688 -69.546,51.345 -69.546,51.345 C -69.546,51.345 -38.05,51.206 -27.033,40.662 C -15.543,29.666 -7.788,6.152 -8.074,0 Z"
         style="fill:#566489;fill-opacity:1;fill-rule:nonzero;stroke:none"
         id="path236" /></g><g
       id="g238"
       transform="translate(451.2061,115.3398)"><path
         d="M 0,0 C 0,0 -2.267,14.583 0,24.323 C 1.425,30.447 10.946,48.105 24.448,56.479 C 37.948,64.856 53.173,67.369 63.227,62.028 C 73.28,56.688 69.546,51.345 69.546,51.345 C 69.546,51.345 38.05,51.206 27.032,40.662 C 15.543,29.666 7.787,6.152 8.075,0 Z"
         style="fill:#566489;fill-opacity:1;fill-rule:nonzero;stroke:none"
         id="path240" /></g><path
       d="M 458.348,73.135 H 222.228 V 87.701 H 458.348 Z"
       style="fill:#303853;fill-opacity:1;fill-rule:nonzero;stroke:none"
       id="path242" /><path
       d="M 458.348,86.18 H 222.228 V 104.81 H 458.348 Z"
       style="fill:#28304a;fill-opacity:1;fill-rule:nonzero;stroke:none"
       id="path244" /><g
       id="g246"
       transform="translate(455.459,87.6836)"><path
         d="M 0,0 L -229.417,0.034 L -229.415,17.144 L 0.002,17.109 Z"
         style="fill:#404c6b;fill-opacity:1;fill-rule:nonzero;stroke:none"
         id="path248" /></g><g
       id="g250"
       transform="translate(160.7563,166.6846)"><path
         d="M 0,0 C 0,0 11.777,-26.707 16.948,-40.845 C 22.118,-54.983 26.714,-76.765 27.289,-80.172 C 27.863,-83.576 27.729,-98.276 61.758,-93.944 C 65.008,-93.53 64.344,-44.478 64.344,-44.478 C 64.344,-44.478 66.221,-14.605 37.917,-1.57 C 10.628,10.997 2.298,2.514 0,0"
         style="fill:#404c6b;fill-opacity:1;fill-rule:nonzero;stroke:none"
         id="path252" /></g><g
       id="g254"
       transform="translate(520.752,166.6846)"><path
         d="M 0,0 C 0,0 -11.777,-26.707 -16.948,-40.845 C -22.118,-54.983 -26.715,-76.765 -27.289,-80.172 C -27.863,-83.576 -27.729,-98.276 -61.759,-93.944 C -65.009,-93.53 -64.344,-44.478 -64.344,-44.478 C -64.344,-44.478 -66.222,-14.605 -37.917,-1.57 C -10.629,10.997 -2.299,2.514 0,0"
         style="fill:#404c6b;fill-opacity:1;fill-rule:nonzero;stroke:none"
         id="path256" /></g><path
       d="M 231.309,51.755 H 226.041 V 73.135 H 231.309 Z"
       style="fill:#665f52;fill-opacity:1;fill-rule:nonzero;stroke:none"
       id="path258" /><path
       d="M 455.647,51.755 H 450.379 V 73.135 H 455.647 Z"
       style="fill:#665f52;fill-opacity:1;fill-rule:nonzero;stroke:none"
       id="path260" /><g
       id="g262"><g
         id="g264" /><g
         id="g276"><g
           clip-path="url(#clipPath268)"
           opacity="0.199997"
           id="g274"><g
             transform="translate(452.4639,51.2471)"
             id="g272"><path
               d="M 0,0 C 0,-2.545 -50.687,-4.608 -113.211,-4.608 C -175.736,-4.608 -226.422,-2.545 -226.422,0 C -226.422,2.546 -175.736,4.609 -113.211,4.609 C -50.687,4.609 0,2.546 0,0"
               style="fill:#665f52;fill-opacity:1;fill-rule:nonzero;stroke:none"
               id="path270" /></g></g></g></g><g
       id="g278"
       transform="translate(200.6807,232.5977)"><path
         d="M 0,0 L 3.127,3.174 V 112.559 L 0,115.732 Z"
         style="fill:#b5b5b5;fill-opacity:1;fill-rule:nonzero;stroke:none"
         id="path280" /></g><g
       id="g282"><g
         id="g284" /><g
         id="g296"><g
           clip-path="url(#clipPath288)"
           opacity="0.100006"
           id="g294"><g
             transform="translate(289.2344,227.0791)"
             id="g292"><path
               d="M 0,0 H -80.333 L -88.195,6.268 L -88.189,121.25 L -5.761,121.283 L 0,115.661 Z"
               style="fill:#665f52;fill-opacity:1;fill-rule:nonzero;stroke:none"
               id="path290" /></g></g></g></g><path
       d="M 284.987,232.597 H 200.68 V 348.329 H 284.987 Z"
       style="fill:#d4d4d5;fill-opacity:1;fill-rule:nonzero;stroke:none"
       id="path298" /><path
       d="M 281.36,235.771 H 203.887 V 345.155 H 281.36 Z"
       style="fill:#ececec;fill-opacity:1;fill-rule:nonzero;stroke:none"
       id="path300" /><path
       d="M 204.522,235.771 H 203.57 V 345.155 H 204.522 Z"
       style="fill:#a0a0a0;fill-opacity:1;fill-rule:nonzero;stroke:none"
       id="path302" /><g
       id="g304"><g
         id="g306" /><g
         id="g328"><g
           clip-path="url(#clipPath310)"
           opacity="0.600006"
           id="g326"><g
             id="g324"><g
               id="g316" /><g
               id="g322"><g
                 clip-path="url(#clipPath314)"
                 opacity="0.699997"
                 id="g320"><path
                   d="M 281.523,235.771 H 280.891 V 345.155 H 281.523 Z"
                   style="fill:#a0a0a0;fill-opacity:1;fill-rule:nonzero;stroke:none"
                   id="path318" /></g></g></g></g></g></g><path
       d="M 204.522,345.155 H 281.359 V 344.207 H 204.522 Z"
       style="fill:#a0a0a0;fill-opacity:1;fill-rule:nonzero;stroke:none"
       id="path330" /><path
       d="M 272.079,252.369 H 214.452 V 324.607 H 272.079 Z"
       style="fill:#d1cdc1;fill-opacity:1;fill-rule:nonzero;stroke:none"
       id="path332" /><g
       id="g334"
       transform="translate(284.9873,232.5967)"><path
         d="M 0,0 L -3.611,3.175 V 112.559 L 0,115.732 Z"
         style="fill:#eaeaea;fill-opacity:1;fill-rule:nonzero;stroke:none"
         id="path336" /></g><g
       id="g338"
       transform="translate(203.8081,235.7715)"><path
         d="M 0,0 L -3.127,-3.153 V 112.557 L -0.238,109.384 Z"
         style="fill:#bcbcbc;fill-opacity:1;fill-rule:nonzero;stroke:none"
         id="path340" /></g><g
       id="g342"><g
         id="g344" /><g
         id="g354"><g
           clip-path="url(#clipPath348)"
           opacity="0.699997"
           id="g352"><path
             d="M 281.36,235.771 H 204.523 V 236.237 H 281.36 Z"
             style="fill:#a0a0a0;fill-opacity:1;fill-rule:nonzero;stroke:none"
             id="path350" /></g></g></g><g
       id="g356"
       transform="translate(242.6235,281.6675)"><path
         d="M 0,0 C -4.863,0 -8.806,3.943 -8.806,8.806 C -8.806,13.669 -4.863,17.612 0,17.612 C 4.863,17.612 8.806,13.669 8.806,8.806 C 8.806,3.943 4.863,0 0,0 M 0,25.612 C -9.282,25.612 -16.806,18.087 -16.806,8.806 C -16.806,-0.476 -9.282,-8 0,-8 C 9.282,-8 16.806,-0.476 16.806,8.806 C 16.806,18.087 9.282,25.612 0,25.612"
         style="fill:#e2dfd9;fill-opacity:1;fill-rule:nonzero;stroke:none"
         id="path358" /></g><g
       id="g360"
       transform="translate(376.4404,235.3506)"><path
         d="M 0,0 L 3.128,3.174 V 112.559 L 0,115.732 Z"
         style="fill:#b5b5b5;fill-opacity:1;fill-rule:nonzero;stroke:none"
         id="path362" /></g><g
       id="g364"><g
         id="g366" /><g
         id="g378"><g
           clip-path="url(#clipPath370)"
           opacity="0.100006"
           id="g376"><g
             transform="translate(464.9951,229.832)"
             id="g374"><path
               d="M 0,0 H -80.334 L -88.195,6.268 L -88.189,121.25 L -5.762,121.283 L 0,115.661 Z"
               style="fill:#665f52;fill-opacity:1;fill-rule:nonzero;stroke:none"
               id="path372" /></g></g></g></g><path
       d="M 460.747,235.35 H 376.44 V 351.082 H 460.747 Z"
       style="fill:#d4d4d5;fill-opacity:1;fill-rule:nonzero;stroke:none"
       id="path380" /><path
       d="M 457.12,238.524 H 379.647 V 347.908 H 457.12 Z"
       style="fill:#ececec;fill-opacity:1;fill-rule:nonzero;stroke:none"
       id="path382" /><path
       d="M 380.282,238.524 H 379.331 V 347.908 H 380.282 Z"
       style="fill:#a0a0a0;fill-opacity:1;fill-rule:nonzero;stroke:none"
       id="path384" /><g
       id="g386"><g
         id="g388" /><g
         id="g410"><g
           clip-path="url(#clipPath392)"
           opacity="0.600006"
           id="g408"><g
             id="g406"><g
               id="g398" /><g
               id="g404"><g
                 clip-path="url(#clipPath396)"
                 opacity="0.699997"
                 id="g402"><path
                   d="M 457.284,238.524 H 456.651 V 347.908 H 457.284 Z"
                   style="fill:#a0a0a0;fill-opacity:1;fill-rule:nonzero;stroke:none"
                   id="path400" /></g></g></g></g></g></g><path
       d="M 380.282,347.908 H 457.12 V 346.96 H 380.282 Z"
       style="fill:#a0a0a0;fill-opacity:1;fill-rule:nonzero;stroke:none"
       id="path412" /><path
       d="M 447.839,255.122 H 390.212 V 327.36 H 447.839 Z"
       style="fill:#d1cdc1;fill-opacity:1;fill-rule:nonzero;stroke:none"
       id="path414" /><g
       id="g416"
       transform="translate(460.7471,235.3496)"><path
         d="M 0,0 L -3.611,3.175 V 112.559 L 0,115.732 Z"
         style="fill:#eaeaea;fill-opacity:1;fill-rule:nonzero;stroke:none"
         id="path418" /></g><g
       id="g420"
       transform="translate(379.5684,238.5244)"><path
         d="M 0,0 L -3.128,-3.153 V 112.557 L -0.237,109.384 Z"
         style="fill:#bcbcbc;fill-opacity:1;fill-rule:nonzero;stroke:none"
         id="path422" /></g><g
       id="g424"><g
         id="g426" /><g
         id="g436"><g
           clip-path="url(#clipPath430)"
           opacity="0.699997"
           id="g434"><path
             d="M 457.12,238.524 H 380.282 V 238.99 H 457.12 Z"
             style="fill:#a0a0a0;fill-opacity:1;fill-rule:nonzero;stroke:none"
             id="path432" /></g></g></g><g
       id="g438"
       transform="translate(423.2266,284.8374)"><path
         d="M 0,0 H -9.687 L -14.53,8.389 L -9.687,16.778 H 0 L 4.845,8.389 Z M 3.721,23.223 H -13.407 L -21.972,8.389 L -13.407,-6.445 H 3.721 L 12.286,8.389 Z"
         style="fill:#e2dfd9;fill-opacity:1;fill-rule:nonzero;stroke:none"
         id="path440" /></g><g
       id="g2308"
       transform="translate(-1.2863215,29.955805)"><g
         id="g442"
         transform="translate(509.8457,473.749)"><path
           d="M 0,0 H -1.316 V -65.598 C -0.878,-65.34 -0.438,-65.083 0,-64.825 Z"
           style="fill:#6d8480;fill-opacity:1;fill-rule:nonzero;stroke:none"
           id="path444" /></g><g
         id="g446"
         transform="translate(508.5293,408.1514)"><path
           d="M 0,0 V -73.215 H 1.316 V 1.128 C 0.878,0.752 0.438,0.376 0,0"
           style="fill:#5f7571;fill-opacity:1;fill-rule:nonzero;stroke:none"
           id="path448" /></g><g
         id="g450"
         transform="translate(515.9883,329.1602)"><path
           d="M 0,0 L -6.143,7.165 H -7.459 L -13.308,-0.146 V -0.286 H 0 Z"
           style="fill:#5f7571;fill-opacity:1;fill-rule:nonzero;stroke:none"
           id="path452" /></g><path
         d="M 502.681,309.421 H 515.989 V 328.874 H 502.681 Z"
         style="fill:#6d8480;fill-opacity:1;fill-rule:nonzero;stroke:none"
         id="path454" /><g
         id="g456"
         transform="translate(545.7432,287.9248)"><path
           d="M 0,0 L -29.829,21.496 H -31.91 H -33.91 H -36.335 H -36.481 H -42.988 L -72.819,0 C -79.243,-4.426 -77.565,-5.738 -76.62,-6.287 L -36.481,-6.396 H -36.409 H -36.335 L -11.409,-6.329 L 1.257,-6.294 L 3.803,-6.287 C 4.748,-5.738 6.757,-4.426 0,0"
           style="fill:#7b9491;fill-opacity:1;fill-rule:nonzero;stroke:none"
           id="path458" /></g><g
         id="g460"
         transform="translate(511.833,309.4209)"><path
           d="M 0,0 L 21.5,-27.893 L 33.334,-27.795 L 2,0 Z"
           style="fill:#90a5a2;fill-opacity:1;fill-rule:nonzero;stroke:none"
           id="path462" /></g><path
         d="M 513.677,309.421 H 512.115 V 328.874 H 513.677 Z"
         style="fill:#90a5a2;fill-opacity:1;fill-rule:nonzero;stroke:none"
         id="path464" /></g><g
       id="g2294"
       transform="translate(0.32158036,63.559857)"><g
         id="g466"
         transform="translate(329.8267,440.8203)"><path
           d="M 0,0 H -0.961 V -46.897 C -0.641,-46.713 -0.32,-46.53 0,-46.345 Z"
           style="fill:#6d8480;fill-opacity:1;fill-rule:nonzero;stroke:none"
           id="path468" /></g><g
         id="g470"
         transform="translate(328.8657,393.9229)"><path
           d="M 0,0 V -52.343 H 0.961 V 0.807 C 0.641,0.538 0.32,0.269 0,0"
           style="fill:#5f7571;fill-opacity:1;fill-rule:nonzero;stroke:none"
           id="path472" /></g><g
         id="g474"
         transform="translate(334.3101,337.4497)"><path
           d="M 0,0 L -4.483,5.123 H -5.444 L -9.713,-0.104 V -0.205 H 0 Z"
           style="fill:#5f7571;fill-opacity:1;fill-rule:nonzero;stroke:none"
           id="path476" /></g><path
         d="M 324.597,323.338 H 334.31 V 337.245 H 324.597 Z"
         style="fill:#6d8480;fill-opacity:1;fill-rule:nonzero;stroke:none"
         id="path478" /><g
         id="g480"
         transform="translate(356.0278,307.9697)"><path
           d="M 0,0 L -21.772,15.368 H -23.291 H -24.75 H -26.521 H -26.627 H -31.377 L -53.15,0 C -57.839,-3.164 -56.614,-4.103 -55.924,-4.495 L -26.627,-4.573 H -26.575 H -26.521 L -8.327,-4.524 L 0.917,-4.5 L 2.776,-4.495 C 3.466,-4.103 4.932,-3.164 0,0"
           style="fill:#7b9491;fill-opacity:1;fill-rule:nonzero;stroke:none"
           id="path482" /></g><g
         id="g484"
         transform="translate(331.2773,323.3379)"><path
           d="M 0,0 L 15.692,-19.941 L 24.33,-19.871 L 1.459,0 Z"
           style="fill:#90a5a2;fill-opacity:1;fill-rule:nonzero;stroke:none"
           id="path486" /></g><path
         d="M 332.623,323.338 H 331.482 V 337.245 H 332.623 Z"
         style="fill:#90a5a2;fill-opacity:1;fill-rule:nonzero;stroke:none"
         id="path488" /></g><g
       id="g2366"
       transform="translate(-30.8375,2e-4)"><path
         d="M 152.906,141.55 H 68.859 V 177.243 H 152.906 Z"
         style="fill:#72524e;fill-opacity:1;fill-rule:nonzero;stroke:none"
         id="path490" /><g
         id="g492"><g
           id="g494" /><g
           id="g506"><g
             clip-path="url(#clipPath498)"
             opacity="0.300003"
             id="g504"><g
               transform="translate(106.979,169.1104)"
               id="g502"><path
                 d="M 0,0 C 0,-1.796 1.455,-3.252 3.252,-3.252 C 5.049,-3.252 6.504,-1.796 6.504,0 C 6.504,1.796 5.049,3.251 3.252,3.251 C 1.455,3.251 0,1.796 0,0"
                 style="fill:#3b2b23;fill-opacity:1;fill-rule:nonzero;stroke:none"
                 id="path500" /></g></g></g></g><path
         d="M 152.906,105.172 H 68.859 V 140.228 H 152.906 Z"
         style="fill:#2e3449;fill-opacity:1;fill-rule:nonzero;stroke:none"
         id="path508" /><g
         id="g510"><g
           id="g512" /><g
           id="g524"><g
             clip-path="url(#clipPath516)"
             opacity="0.300003"
             id="g522"><g
               transform="translate(106.979,133.3818)"
               id="g520"><path
                 d="M 0,0 C 0,-1.796 1.455,-3.253 3.252,-3.253 C 5.049,-3.253 6.504,-1.796 6.504,0 C 6.504,1.797 5.049,3.251 3.252,3.251 C 1.455,3.251 0,1.797 0,0"
                 style="fill:#0c0c0c;fill-opacity:1;fill-rule:nonzero;stroke:none"
                 id="path518" /></g></g></g></g><g
         id="g526"
         transform="translate(107.6304,134.0576)"><path
           d="M 0,0 C 0,-1.796 1.457,-3.252 3.253,-3.252 C 5.049,-3.252 6.505,-1.796 6.505,0 C 6.505,1.798 5.049,3.253 3.253,3.253 C 1.457,3.253 0,1.798 0,0"
           style="fill:#12182a;fill-opacity:1;fill-rule:nonzero;stroke:none"
           id="path528" /></g><g
         id="g530"
         transform="translate(107.6299,169.8477)"><path
           d="M 0,0 C 0,-1.795 1.456,-3.252 3.252,-3.252 C 5.048,-3.252 6.505,-1.795 6.505,0 C 6.505,1.797 5.048,3.251 3.252,3.251 C 1.456,3.251 0,1.797 0,0"
           style="fill:#3b2b23;fill-opacity:1;fill-rule:nonzero;stroke:none"
           id="path532" /></g><path
         d="M 68.666,103.348 H 66.136 V 178.524 H 68.666 Z"
         style="fill:#3b4963;fill-opacity:1;fill-rule:nonzero;stroke:none"
         id="path534" /><path
         d="M 155.397,104.755 H 153.311 V 178.62 H 155.397 Z"
         style="fill:#3b4963;fill-opacity:1;fill-rule:nonzero;stroke:none"
         id="path536" /><path
         d="M 155.397,100.946 H 66.136 V 104.758 H 155.397 Z"
         style="fill:#36425e;fill-opacity:1;fill-rule:nonzero;stroke:none"
         id="path538" /><path
         d="M 152.906,140.228 H 68.859 V 141.55 H 152.906 Z"
         style="fill:#0c0c0c;fill-opacity:1;fill-rule:nonzero;stroke:none"
         id="path540" /><path
         d="M 152.906,104.755 H 68.859 V 105.349 H 152.906 Z"
         style="fill:#0c0c0c;fill-opacity:1;fill-rule:nonzero;stroke:none"
         id="path542" /><path
         d="M 152.906,177.243 H 68.859 V 178.009 H 152.906 Z"
         style="fill:#0c0c0c;fill-opacity:1;fill-rule:nonzero;stroke:none"
         id="path544" /><path
         d="M 153.311,104.755 H 152.635 V 178.009 H 153.311 Z"
         style="fill:#232323;fill-opacity:1;fill-rule:nonzero;stroke:none"
         id="path546" /><path
         d="M 69.008,104.755 H 68.596 V 178.107 H 69.008 Z"
         style="fill:#232323;fill-opacity:1;fill-rule:nonzero;stroke:none"
         id="path548" /><path
         d="M 156.409,178.027 H 66.136 V 180.516 H 156.409 Z"
         style="fill:#806762;fill-opacity:1;fill-rule:nonzero;stroke:none"
         id="path550" /><g
         id="g552"
         transform="translate(156.4087,180.5166)"><path
           d="M 0,0 H -89.767 L -87.52,2.103 H -2.801 Z"
           style="fill:#b3a49c;fill-opacity:1;fill-rule:nonzero;stroke:none"
           id="path554" /></g><g
         id="g556"><g
           id="g558" /><g
           id="g570"><g
             clip-path="url(#clipPath562)"
             opacity="0.199997"
             id="g568"><g
               transform="translate(149.0586,43.2354)"
               id="g566"><path
                 d="M 0,0 L -75.248,-0.001 L -68.303,23.929 H -11.275 Z"
                 style="fill:#665f52;fill-opacity:1;fill-rule:nonzero;stroke:none"
                 id="path564" /></g></g></g></g><g
         id="g572"
         transform="translate(75.2476,85.6523)"><path
           d="M 0,0 L -5.607,-40.727 C -5.607,-40.727 -5.374,-41.771 -3.156,-42.236 C -0.938,-42.704 -0.317,-42.177 0.149,-41.594 C 0.531,-41.118 7.643,-3.573 10.252,10.252 Z"
           style="fill:#806762;fill-opacity:1;fill-rule:nonzero;stroke:none"
           id="path574" /></g><g
         id="g576"
         transform="translate(86.4497,100.9463)"><path
           d="M 0,0 H -9.097 L -11.202,-15.294 L -0.95,-5.042 C -0.361,-1.917 0,0 0,0"
           style="fill:#6d5854;fill-opacity:1;fill-rule:nonzero;stroke:none"
           id="path578" /></g><g
         id="g580"
         transform="translate(137.9263,100.9463)"><path
           d="M 0,0 L 4.983,-36.191 C 4.983,-36.191 4.832,-36.864 3.399,-37.166 C 1.967,-37.467 1.565,-37.126 1.263,-36.749 C 0.962,-36.373 -5.876,0 -5.876,0 Z"
           style="fill:#604c49;fill-opacity:1;fill-rule:nonzero;stroke:none"
           id="path582" /></g><g
         id="g584"
         transform="translate(145.1938,100.9463)"><path
           d="M 0,0 H -9.097 C -9.097,0 -8.669,-2.275 -7.982,-5.91 L 2.218,-16.111 Z"
           style="fill:#6d5854;fill-opacity:1;fill-rule:nonzero;stroke:none"
           id="path586" /></g><g
         id="g588"
         transform="translate(147.4116,84.835)"><path
           d="M 0,0 L -10.2,10.201 C -7.47,-4.264 -0.635,-40.31 -0.263,-40.776 C 0.204,-41.36 0.826,-41.888 3.043,-41.42 C 5.261,-40.954 5.495,-39.912 5.495,-39.912 Z"
           style="fill:#806762;fill-opacity:1;fill-rule:nonzero;stroke:none"
           id="path590" /></g><g
         id="g592"
         transform="translate(124.1216,266.624)"><path
           d="M 0,0 C -4.048,0.221 -8.447,0.379 -12.745,0.379 C -26.965,0.379 -43.524,-1.348 -43.524,-1.348 V -45.612 C -43.524,-45.612 -21.528,-46.244 -12.745,-46.354 C -9.522,-46.394 -5.037,-46.319 -0.532,-46.204 C 4.845,-31.613 2.716,-15.387 0,0"
           style="fill:#b9b1ad;fill-opacity:1;fill-rule:nonzero;stroke:none"
           id="path594" /></g><g
         id="g596"
         transform="translate(140.9351,265.2764)"><path
           d="M 0,0 C 0,0 -7.468,0.841 -16.813,1.348 C -14.098,-14.039 -11.969,-30.266 -17.346,-44.856 C -8.708,-44.635 0,-44.265 0,-44.265 Z"
           style="fill:#ada5a1;fill-opacity:1;fill-rule:nonzero;stroke:none"
           id="path598" /></g><g
         id="g600"
         transform="translate(140.9351,221.0117)"><path
           d="M 0,0 C 0,0.229 -13.507,0.413 -30.169,0.413 C -46.831,0.413 -60.338,0.229 -60.338,0 C -60.338,-0.228 -46.831,-1.153 -30.169,-1.153 C -13.507,-1.153 0,-0.228 0,0"
           style="fill:#797572;fill-opacity:1;fill-rule:nonzero;stroke:none"
           id="path602" /></g><path
         d="M 113.611,216.809 H 109.76 V 221.425 H 113.611 Z"
         style="fill:#9b9ea0;fill-opacity:1;fill-rule:nonzero;stroke:none"
         id="path604" /><g
         id="g606"
         transform="translate(113.6636,213.4111)"><path
           d="M 0,0 C -1.387,0.465 -1.477,3.088 -1.482,5.044 H -1.978 L -6.816,5.045 C -6.816,5.045 -5.663,2.324 -6.816,1.254 C -7.971,0.183 -16.627,-5.919 -18.852,-8.309 C -21.078,-10.698 -23.632,-18.942 -20.995,-23.723 C -18.357,-28.503 -14.483,-30.234 -12.753,-31.142 C -11.264,-31.921 -3.987,-31.908 -1.978,-31.889 C -0.32,-31.905 4.928,-31.917 7.545,-31.479 C 16.346,-21.621 10.465,-7.609 0,0"
           style="fill:#b7cfcd;fill-opacity:1;fill-rule:nonzero;stroke:none"
           id="path608" /></g><g
         id="g610"
         transform="translate(128.5591,205.1025)"><path
           d="M 0,0 C -2.227,2.39 -10.881,8.491 -12.035,9.563 C -13.188,10.633 -12.035,13.354 -12.035,13.354 L -16.378,13.353 C -16.372,11.396 -16.282,8.773 -14.896,8.309 C -4.431,0.699 1.45,-13.313 -7.351,-23.171 C -6.798,-23.08 -6.359,-22.969 -6.101,-22.833 C -4.37,-21.926 -0.495,-20.194 2.142,-15.414 C 4.78,-10.634 2.226,-2.39 0,0"
           style="fill:#a9bfbc;fill-opacity:1;fill-rule:nonzero;stroke:none"
           id="path612" /></g></g><g
       id="g614"><g
         id="g616" /><g
         id="g628"><g
           clip-path="url(#clipPath620)"
           opacity="0.199997"
           id="g626"><g
             transform="translate(580.7373,45.3223)"
             id="g624"><path
               d="M 0,0 C 0,-1.074 -16.307,-1.945 -36.421,-1.945 C -56.536,-1.945 -72.843,-1.074 -72.843,0 C -72.843,1.074 -56.536,1.944 -36.421,1.944 C -16.307,1.944 0,1.074 0,0"
               style="fill:#665f52;fill-opacity:1;fill-rule:nonzero;stroke:none"
               id="path622" /></g></g></g></g><g
       id="g630"
       transform="translate(527.6367,115.9434)"><path
         d="M 0,0 H -10.11 L -11.613,-11.053 L -1.038,-4.91 Z"
         style="fill:#998f82;fill-opacity:1;fill-rule:nonzero;stroke:none"
         id="path632" /></g><g
       id="g634"
       transform="translate(571.3291,115.9434)"><path
         d="M 0,0 H -10.11 L -8.826,-6.073 L 1.556,-11.44 Z"
         style="fill:#998f82;fill-opacity:1;fill-rule:nonzero;stroke:none"
         id="path636" /></g><g
       id="g638"
       transform="translate(521.6367,103.0742)"><path
         d="M 0,0 V -2.371 H 5.496 C 6.15,-1.63 6.752,-0.896 7.088,0 Z"
         style="fill:#998f82;fill-opacity:1;fill-rule:nonzero;stroke:none"
         id="path640" /></g><path
       d="M 509.692,113.199 H 532.316 V 118.207 H 509.692 Z"
       style="fill:#a3998d;fill-opacity:1;fill-rule:nonzero;stroke:none"
       id="path642" /><path
       d="M 532.316,113.199 H 574.308 V 118.207 H 532.316 Z"
       style="fill:#b1a696;fill-opacity:1;fill-rule:nonzero;stroke:none"
       id="path644" /><g
       id="g646"
       transform="translate(588.0342,118.207)"><path
         d="M 0,0 H -13.726 V -5.008 H 0 C 1.516,-5.008 2.744,-3.887 2.744,-2.504 C 2.744,-1.121 1.516,0 0,0"
         style="fill:#998f82;fill-opacity:1;fill-rule:nonzero;stroke:none"
         id="path648" /></g><g
       id="g650"
       transform="translate(502.2988,118.207)"><path
         d="M 0,0 C -1.515,0 -2.743,-1.121 -2.743,-2.504 C -2.743,-3.887 -1.515,-5.008 0,-5.008 H 7.394 V 0 Z"
         style="fill:#998f82;fill-opacity:1;fill-rule:nonzero;stroke:none"
         id="path652" /></g><g
       id="g654"
       transform="translate(568.6963,103.0742)"><path
         d="M 0,0 H -8.411 L -7.198,-2.371 H 0 Z"
         style="fill:#998f82;fill-opacity:1;fill-rule:nonzero;stroke:none"
         id="path656" /></g><g
       id="g658"
       transform="translate(516.0234,104.8906)"><path
         d="M 0,0 L -8.103,-59.568 H -3.3 L 10.575,6.143 Z"
         style="fill:#b1a696;fill-opacity:1;fill-rule:nonzero;stroke:none"
         id="path660" /></g><g
       id="g662"
       transform="translate(580.9346,45.3223)"><path
         d="M 0,0 L -8.05,59.181 L -18.432,64.548 L -4.803,0 Z"
         style="fill:#b1a696;fill-opacity:1;fill-rule:nonzero;stroke:none"
         id="path664" /></g><g
       id="g666"
       transform="translate(560.2852,103.0742)"><path
         d="M 0,0 H -31.561 L -33.152,-2.371 H 1.213 Z"
         style="fill:#b1a696;fill-opacity:1;fill-rule:nonzero;stroke:none"
         id="path668" /></g><g
       id="g670"
       transform="translate(565.4561,127.2861)"><path
         d="M 0,0 H -42.135 C -42.443,0 -42.744,-0.015 -43.039,-0.038 C -41.942,-1.055 -41.248,-2.583 -41.248,-4.292 C -41.248,-6 -41.942,-7.527 -43.039,-8.546 C -42.744,-8.568 -42.443,-8.583 -42.135,-8.583 H 0 C 2.944,-8.583 5.662,-7.474 5.662,-6.106 V -2.477 C 5.662,-1.109 2.944,0 0,0"
         style="fill:#ffffff;fill-opacity:1;fill-rule:nonzero;stroke:none"
         id="path672" /></g><g
       id="g674"
       transform="translate(565.6221,127.6523)"><path
         d="M 0,0 H -42.135 C -42.64,0 -43.131,-0.034 -43.6,-0.09 C -43.358,-0.298 -43.135,-0.524 -42.928,-0.765 C -42.669,-0.744 -42.404,-0.731 -42.135,-0.731 H 0 C 2.662,-0.731 4.998,-1.718 4.998,-2.843 V -6.473 C 4.998,-7.598 2.662,-8.583 0,-8.583 H -42.135 C -42.418,-8.583 -42.693,-8.57 -42.963,-8.549 C -43.174,-8.788 -43.401,-9.012 -43.646,-9.219 C -43.162,-9.279 -42.657,-9.313 -42.135,-9.313 H 0 C 3.432,-9.313 6.33,-8.013 6.33,-6.473 V -2.843 C 6.33,-1.302 3.432,0 0,0"
         style="fill:#9d9fae;fill-opacity:1;fill-rule:nonzero;stroke:none"
         id="path676" /></g><g
       id="g678"><g
         id="g680" /><g
         id="g692"><g
           clip-path="url(#clipPath684)"
           opacity="0.600006"
           id="g690"><g
             transform="translate(547.9531,124.1357)"
             id="g688"><path
               d="M 0,0 H 3.664 L 3.229,-3.054 Z"
               style="fill:#cecfd1;fill-opacity:1;fill-rule:nonzero;stroke:none"
               id="path686" /></g></g></g></g><g
       id="g694"
       transform="translate(547.9531,124.1357)"><path
         d="M 0,0 H 3.664 V -2.282 Z"
         style="fill:#cdcbc4;fill-opacity:1;fill-rule:nonzero;stroke:none"
         id="path696" /></g><g
       id="g698"><g
         id="g700" /><g
         id="g712"><g
           clip-path="url(#clipPath704)"
           opacity="0.600006"
           id="g710"><g
             transform="translate(522.7695,126.8877)"
             id="g708"><path
               d="M 0,0 L 4.437,-0.761 C 4.437,-0.761 43.696,-0.566 45.135,-1.889 C 46.172,-2.843 46.459,-4.954 45.813,-6.526 C 45.565,-7.131 44.27,-7.314 43.947,-7.771 C 43.947,-7.771 46.374,-7.51 47.491,-6.643 C 48.24,-6.062 47.898,-5.271 47.911,-4.119 C 47.918,-3.161 48.2,-2.264 47.706,-1.521 C 47.212,-0.775 45.883,-0.142 43.396,0.024 Z"
               style="fill:#cecfd1;fill-opacity:1;fill-rule:nonzero;stroke:none"
               id="path706" /></g></g></g></g><g
       id="g714"
       transform="translate(566.5566,136.6895)"><path
         d="M 0,0 H -39.568 C -39.858,0 -40.141,-0.015 -40.417,-0.038 C -39.388,-1.055 -38.735,-2.583 -38.735,-4.292 C -38.735,-6 -39.388,-7.527 -40.417,-8.546 C -40.141,-8.568 -39.858,-8.583 -39.568,-8.583 H 0 C 2.765,-8.583 5.317,-7.474 5.317,-6.106 V -2.477 C 5.317,-1.109 2.765,0 0,0"
         style="fill:#ffffff;fill-opacity:1;fill-rule:nonzero;stroke:none"
         id="path716" /></g><g
       id="g718"
       transform="translate(566.7129,137.0557)"><path
         d="M 0,0 H -39.568 C -40.043,0 -40.504,-0.034 -40.944,-0.09 C -40.718,-0.298 -40.508,-0.524 -40.313,-0.765 C -40.07,-0.744 -39.821,-0.731 -39.568,-0.731 H 0 C 2.5,-0.731 4.693,-1.718 4.693,-2.843 V -6.473 C 4.693,-7.598 2.5,-8.583 0,-8.583 H -39.568 C -39.835,-8.583 -40.093,-8.57 -40.347,-8.549 C -40.544,-8.788 -40.758,-9.012 -40.987,-9.219 C -40.533,-9.279 -40.06,-9.313 -39.568,-9.313 H 0 C 3.223,-9.313 5.944,-8.013 5.944,-6.473 V -2.843 C 5.944,-1.302 3.223,0 0,0"
         style="fill:#c1a24c;fill-opacity:1;fill-rule:nonzero;stroke:none"
         id="path720" /></g><g
       id="g722"><g
         id="g724" /><g
         id="g736"><g
           clip-path="url(#clipPath728)"
           opacity="0.600006"
           id="g734"><g
             transform="translate(550.1201,133.5391)"
             id="g732"><path
               d="M 0,0 H 3.44 L 3.032,-3.054 Z"
               style="fill:#cecfd1;fill-opacity:1;fill-rule:nonzero;stroke:none"
               id="path730" /></g></g></g></g><g
       id="g738"
       transform="translate(550.1201,133.5391)"><path
         d="M 0,0 H 3.44 V -2.282 Z"
         style="fill:#cdcbc4;fill-opacity:1;fill-rule:nonzero;stroke:none"
         id="path740" /></g><g
       id="g742"><g
         id="g744" /><g
         id="g756"><g
           clip-path="url(#clipPath748)"
           opacity="0.600006"
           id="g754"><g
             transform="translate(526.4707,136.291)"
             id="g752"><path
               d="M 0,0 L 4.167,-0.761 C 4.167,-0.761 41.034,-0.566 42.385,-1.889 C 43.359,-2.843 43.629,-4.954 43.021,-6.526 C 42.789,-7.131 41.572,-7.314 41.27,-7.771 C 41.27,-7.771 43.549,-7.51 44.598,-6.643 C 45.301,-6.062 44.98,-5.271 44.992,-4.119 C 44.999,-3.161 45.264,-2.264 44.8,-1.521 C 44.336,-0.775 43.088,-0.142 40.752,0.024 Z"
               style="fill:#cecfd1;fill-opacity:1;fill-rule:nonzero;stroke:none"
               id="path750" /></g></g></g></g><g
       id="g758"
       transform="translate(554.8779,160.6504)"><path
         d="M 0,0 C -0.532,2.655 -2.875,4.654 -5.687,4.654 C -8.66,4.654 -11.107,2.416 -11.444,-0.468 C -7.517,-2.092 -3.609,-1.289 0,0"
         style="fill:#ffffff;fill-opacity:1;fill-rule:nonzero;stroke:none"
         id="path760" /></g><g
       id="g762"
       transform="translate(543.4336,160.1826)"><path
         d="M 0,0 C -0.026,-0.223 -0.043,-0.448 -0.043,-0.679 V -18.604 C -0.043,-21.808 11.559,-21.808 11.559,-18.604 V -0.679 C 11.559,-0.286 11.519,0.098 11.444,0.468 C 7.835,-0.821 3.928,-1.624 0,0"
         style="fill:#f7f5ed;fill-opacity:1;fill-rule:nonzero;stroke:none"
         id="path764" /></g><path
       d="M 549.685,165.305 H 548.698 V 169.205 H 549.685 Z"
       style="fill:#c1a24c;fill-opacity:1;fill-rule:nonzero;stroke:none"
       id="path766" /><g
       id="g768"
       transform="translate(554.4365,140.6914)"><path
         d="M 0,0 H -10.49 C -11.397,0 -12.134,-0.696 -12.215,-1.582 H 1.724 C 1.643,-0.696 0.905,0 0,0"
         style="fill:#183542;fill-opacity:1;fill-rule:nonzero;stroke:none"
         id="path770" /></g><g
       id="g772"
       transform="translate(542.2217,139.1094)"><path
         d="M 0,0 C -0.005,-0.053 -0.016,-0.104 -0.016,-0.158 C -0.016,-1.118 0.764,-1.897 1.725,-1.897 H 12.215 C 13.175,-1.897 13.954,-1.118 13.954,-0.158 C 13.954,-0.104 13.943,-0.053 13.938,0 Z"
         style="fill:#0f2b3a;fill-opacity:1;fill-rule:nonzero;stroke:none"
         id="path774" /></g></g></svg>
