<?xml version="1.0" encoding="UTF-8" standalone="no"?>
<svg
   xmlns:dc="http://purl.org/dc/elements/1.1/"
   xmlns:cc="http://creativecommons.org/ns#"
   xmlns:rdf="http://www.w3.org/1999/02/22-rdf-syntax-ns#"
   xmlns:svg="http://www.w3.org/2000/svg"
   xmlns="http://www.w3.org/2000/svg"
   xmlns:sodipodi="http://sodipodi.sourceforge.net/DTD/sodipodi-0.dtd"
   xmlns:inkscape="http://www.inkscape.org/namespaces/inkscape"
   version="1.1"
   id="svg2"
   xml:space="preserve"
   width="400"
   height="400"
   viewBox="0 0 400 400"
   sodipodi:docname="power_symbol_001.eps"
   inkscape:version="1.0.2 (394de47547, 2021-03-26)"><metadata
     id="metadata8"><rdf:RDF><cc:Work
         rdf:about=""><dc:format>image/svg+xml</dc:format><dc:type
           rdf:resource="http://purl.org/dc/dcmitype/StillImage" /><dc:title></dc:title></cc:Work></rdf:RDF></metadata><defs
     id="defs6" /><sodipodi:namedview
     pagecolor="#ffffff"
     bordercolor="#666666"
     borderopacity="1"
     objecttolerance="10"
     gridtolerance="10"
     guidetolerance="10"
     inkscape:pageopacity="0"
     inkscape:pageshadow="2"
     inkscape:window-width="1848"
     inkscape:window-height="1016"
     id="namedview4"
     showgrid="false"
     inkscape:zoom="1.7840551"
     inkscape:cx="212.47313"
     inkscape:cy="192.1777"
     inkscape:window-x="72"
     inkscape:window-y="27"
     inkscape:window-maximized="1"
     inkscape:current-layer="g10" /><g
     id="g10"
     inkscape:groupmode="layer"
     inkscape:label="ink_ext_XXXXXX"
     transform="matrix(1.3333333,0,0,-1.3333333,0,400)"><g
       id="g12"
       transform="scale(0.1)"><path
         d="M 1916.65,2940.89 V 2499.9 C 2307.78,2336.31 2583.33,1949.77 2583.33,1500 C 2583.33,902.645 2097.36,416.672 1500,416.672 C 902.652,416.672 416.672,902.645 416.672,1500 C 416.672,1949.77 692.219,2336.29 1083.33,2499.88 V 2940.89 C 457.699,2760.29 0,2183.77 0,1500 C 0,671.594 671.566,0 1500,0 C 2328.41,0 3000,671.594 3000,1500 C 3000,2183.8 2542.27,2760.29 1916.65,2940.89 Z M 1708.34,2985.27 C 1640.2,2994.73 1570.72,3000 1500,3000 C 1429.27,3000 1359.79,2994.73 1291.66,2985.27 V 1499.98 H 1708.34 V 2985.27"
         style="fill:#100f0d;fill-opacity:1;fill-rule:nonzero;stroke:none"
         id="path14" /></g></g></svg>
