<?xml version="1.0" encoding="utf-8"?>
<!-- Generator: Adobe Illustrator 19.0.0, SVG Export Plug-In . SVG Version: 6.00 Build 0)  -->
<svg version="1.1" id="Layer_1" xmlns="http://www.w3.org/2000/svg" xmlns:xlink="http://www.w3.org/1999/xlink" x="0px" y="0px"
	 viewBox="0 0 1400 980" style="enable-background:new 0 0 1400 980;" xml:space="preserve">
<style type="text/css">
	.st0{fill:#FCD9AC;}
	.st1{fill:#EAC6A0;}
	.st2{fill:#565759;}
	.st3{fill:#E8B987;}
	.st4{fill:#C38648;}
	.st5{fill:#4B392A;}
	.st6{fill:#404041;}
	.st7{fill:#29282A;}
	.st8{fill:#D6A068;}
	.st9{fill:#B16D29;}
	.st10{fill:#FEF4E9;}
	.st11{fill:#FDE9D3;}
	.st12{fill:#DBDBDB;}
	.st13{fill:#6D6E70;}
	.st14{fill:#B6B7B8;}
	.st15{fill:#FFFFFF;}
	.st16{fill:#FCDDBC;}
	.st17{fill:#FBD2A6;}
	.st18{fill:#A06429;}
	.st19{fill:#FFFFFF;stroke:#231F20;stroke-width:0.8453;stroke-miterlimit:10;}
	.st20{fill:#7E532A;}
</style>
<rect class="st0" width="1400" height="980"/>
<g>
	<g>
		<path class="st1" d="M811.8,374.5c-6.9-6.1-14.5-11.4-22.6-16c-1.6-0.9-3.2-1.8-4.8-2.6c-14.9-7.6-31.6-12.6-49.7-14.3V202.1v0
			v-9.1h28.9l-43.1-34.8l-43.1,34.8h28.9v9.1v139.5c-76,7.2-127.5,72-127.5,151h141.7h141.7h0C862.3,444.8,843.4,402.3,811.8,374.5z
			"/>
		<path class="st1" d="M859.1,672.4c-3.5-5.4-7.4-10.6-11.5-15.6c-1-1.2-2.1-2.5-3.2-3.7c-3.7-4.2-7.7-8.1-11.9-11.9
			c-27.1-24.3-62.9-39-102.1-39l0,0v0c-55.7,0-104.4,29.7-131.2,74.1h-0.5v17H617v53.5h-18.4v17H617v41.3c0,6.7,5.5,12.2,12.2,12.2
			h202.1c6.7,0,12.2-5.5,12.2-12.2v-5.7v-35.6h18.2v0v-17h-37v0h18.6v-53.5h18.4v-17h-0.2C860.7,675,859.9,673.7,859.1,672.4z"/>
		<path class="st1" d="M1145.7,724.5h-1.8H1026H915c-3.5,0-6.3,2.8-6.3,6.3v75.7c0,3.5,2.8,6.3,6.3,6.3h49.3l1.1,5.4h19.8l1.1-5.4
			h39.7h48.3l1.1,5.4h19.8l1.1-5.4h47.5h1.8c3.5,0,6.3-2.8,6.3-6.3v-75.7C1152,727.4,1149.2,724.5,1145.7,724.5z"/>
		<path class="st1" d="M530.9,479.5L530.9,479.5h-7.3l-3.2-35.1l-3.2-35.1c-0.3-3.6-0.9-7.2-1.6-10.7c-0.1-0.7-0.3-1.4-0.5-2.1
			c-1.3-5.5-3.1-10.8-5.4-15.9c-0.3-0.6-0.6-1.3-0.9-1.9c-0.4-0.8-0.8-1.7-1.2-2.5c-0.8-1.6-1.7-3.2-2.6-4.8
			c-1.1-1.8-2.2-3.5-3.3-5.2c-0.8-1.1-1.6-2.2-2.4-3.3c-1.7-2.2-3.4-4.3-5.2-6.3c-1.4-1.5-2.8-3-4.3-4.4c-2.7-2.6-5.6-5.1-8.7-7.3
			c-1.3-1-2.7-1.9-4.1-2.8c-0.8-0.5-1.6-1-2.4-1.5c-0.9-0.6-1.9-1.1-2.8-1.7c-1.2-0.7-2.4-1.3-3.6-1.9c-1.2-0.6-2.5-1.2-3.7-1.8
			c-1.9-0.8-3.8-1.6-5.7-2.3c-9.7-3.6-20.2-5.5-31.1-5.5l0,0h-4.5V180.3v-6.1h18.9V158h-33.6h-33.1v16.2h18.9v6.1v147.1h-5
			c-46.6,0-85.5,35.5-89.7,81.9l-6.3,70.2h-7.3v13h244.8V479.5z"/>
		<polygon class="st1" points="1051.8,164.2 1051.8,156.7 1030.4,156.7 1009,156.7 1009,164.2 1030.4,164.2 		"/>
		<path class="st1" d="M1150.5,492.6v-12.3h-8.9l-2-22.2l-4-44.6c-1.5-17-7.9-32.5-17.6-45.2c-1.9-2.5-3.9-4.8-6.1-7.1
			c-0.5-0.5-1-1-1.5-1.5c-15.8-15.8-37.7-25.5-61.6-25.5h-4.9V189.4h3.6l0,0l0,0v-7.5l0,0h-5.4v-17.6l0,0h-11.8l0,0h-11.8v17.6h-5.4
			v7.5h3.6v144.8h-4.9c-45.1,0-82.7,34.4-86.7,79.3l-6,66.8h-8.9v12.3L1150.5,492.6L1150.5,492.6z"/>
		<path class="st1" d="M552.2,652.3l-89.8-48v-2h0v-11.6h0V579h0v-11.6h6.9l0,0V552l0,0h-60.7l0,0h-60.7v15.3h6.9V579h-0.1v11.6h0.1
			v11.6h0v1.9L266,651.6h-0.6v0.3l-0.6,0.3l0.1,19.2v0.7v11.6v11.6v11.6v11.6h0.2v11.6h-0.2V742v11.6v11.6v11.6v11.6h0.6v0.1h-0.6
			V800h0v11.6v11.6h0.6h17.4h0h35.9l0,0h35.9h35.9h18h18h35.9h35.9h35.9h17.4h0.5v-11.6l0,0v-11.3h0v-11.6h-0.6v-0.1h0.5v-11.6
			v-11.6v-11.6l0,0V742l0,0v-11.6h-0.5v-11.6h0.6v-11.6v-11.6v-11.6v-11.6v-11.6h0V652.3z M462.9,625.5h-0.5v-0.4l0.7,0.4H462.9z
			 M354.7,625.5L354.7,625.5h-0.3l0.3-0.2V625.5z M444.5,590.6L444.5,590.6l0-11.6h0V590.6z"/>
	</g>
	<g>
		<rect x="689.5" y="192.9" class="st2" width="28.3" height="150.3"/>
		<path class="st3" d="M703.7,340.9c-83.8,0-141.7,67.9-141.7,151.6h283.4C845.4,408.8,787.4,340.9,703.7,340.9z"/>
		<path class="st4" d="M703.7,380.2c-56.6,0-95.7,45.9-95.7,102.4h191.4C799.4,426,760.2,380.2,703.7,380.2z"/>
		<path class="st5" d="M703.7,387.3c-49.5,0-89.7,40.1-89.7,89.7h179.3C793.3,427.5,753.2,387.3,703.7,387.3z"/>
		<polygon class="st2" points="660.6,192.9 703.7,158.1 746.8,192.9 		"/>
		<rect x="689.5" y="192.9" class="st6" width="28.3" height="9.1"/>
		<polygon class="st6" points="746.8,192.9 703.7,158.1 703.7,192.9 		"/>
		<rect x="703.7" y="192.9" class="st6" width="14.2" height="150.3"/>
		<rect x="703.7" y="192.9" class="st7" width="14.2" height="9.1"/>
		<path class="st8" d="M845.4,492.6c0-83.8-57.9-151.6-141.7-151.6v151.6H845.4z"/>
		<path class="st9" d="M799.4,482.6c0-56.6-39.1-102.4-95.7-102.4v102.4H799.4z"/>
		<path class="st7" d="M793.3,477c0-49.5-40.1-89.7-89.7-89.7V477H793.3z"/>
	</g>
	<g>
		<path class="st10" d="M812.2,817.3H614.6c-8,0-14.4-6.5-14.4-14.4v-39.1h226.5v39.1C826.6,810.8,820.2,817.3,812.2,817.3z"/>
		<path class="st11" d="M713.4,817.3h95.4c9.9,0,17.8-8,17.8-17.8v-35.6H713.4V817.3z"/>
		<rect x="581.7" y="676.3" class="st3" width="263.2" height="17"/>
		<rect x="581.7" y="746.8" class="st3" width="263.2" height="17"/>
		<rect x="618.6" y="693.3" class="st5" width="189.2" height="53.5"/>
		<rect x="807.9" y="693.3" class="st6" width="18.6" height="53.5"/>
		<rect x="600.1" y="693.3" class="st2" width="18.6" height="53.5"/>
		<circle class="st6" cx="768.2" cy="790.6" r="9.1"/>
		<circle class="st2" cx="658.3" cy="790.6" r="9.1"/>
		<path class="st2" d="M844.7,676.5c-26.8-44.5-75.6-74.2-131.3-74.2c-55.7,0-104.5,29.8-131.3,74.2H844.7z"/>
		<rect x="713.4" y="746.8" class="st8" width="131.5" height="17"/>
		<rect x="713.4" y="693.3" class="st7" width="94.5" height="53.5"/>
		<rect x="713.4" y="676.3" class="st8" width="131.5" height="17"/>
		<path class="st6" d="M713.4,602.3v74.2h131.3C817.9,632,769.1,602.3,713.4,602.3L713.4,602.3z"/>
	</g>
	<g>
		<path class="st2" d="M1127.6,812.9H899.3c-4.1,0-7.5-3.4-7.5-7.5V732c0-4.1,3.4-7.5,7.5-7.5h228.4c4.1,0,7.5,3.4,7.5,7.5v73.4
			C1135.1,809.5,1131.8,812.9,1127.6,812.9z"/>
		<rect x="906.7" y="747.3" class="st12" width="191.7" height="42.9"/>
		<rect x="952.8" y="761.4" class="st13" width="99.5" height="22.3"/>
		<path class="st6" d="M1127,724.5h-117.9v88.4H1127c4.5,0,8.1-3.6,8.1-8.1v-72.1C1135.1,728.2,1131.5,724.5,1127,724.5z"/>
		<rect x="1009.1" y="747.3" class="st14" width="89.3" height="42.9"/>
		<rect x="1009.1" y="761.4" class="st2" width="43.2" height="22.3"/>
		<circle class="st12" cx="1116.3" cy="757.4" r="10.1"/>
		<circle class="st12" cx="1116.3" cy="780" r="10.1"/>
		<path class="st2" d="M1037.4,757.4h-69.6c-1.5,0-2.7-1.2-2.7-2.7v-0.5c0-1.5,1.2-2.7,2.7-2.7h69.6c1.5,0,2.7,1.2,2.7,2.7v0.5
			C1040.1,756.2,1038.9,757.4,1037.4,757.4z"/>
		<polygon class="st15" points="952.8,775.1 966.6,761.4 958.7,761.4 952.8,767.2 		"/>
		<polygon class="st15" points="978.6,761.4 974.8,761.4 952.8,783.3 952.8,783.6 956.3,783.6 		"/>
		<polygon class="st15" points="1002.8,783.6 1025.1,761.4 1015.5,761.4 993.2,783.6 		"/>
		<polygon class="st12" points="1017.8,783.6 1040.1,761.4 1032.9,761.4 1010.7,783.6 		"/>
		<polygon class="st12" points="968.4,818.3 948.5,818.3 947.5,812.9 969.5,812.9 		"/>
		<polygon class="st12" points="1078.4,818.3 1058.5,818.3 1057.5,812.9 1079.5,812.9 		"/>
		<path class="st6" d="M1037.2,751.6h-28v5.8h28c1.6,0,2.9-1.3,2.9-2.9S1038.8,751.6,1037.2,751.6z"/>
		<polygon class="st12" points="1009.1,777.3 1025.1,761.4 1015.5,761.4 1009.1,767.7 		"/>
	</g>
	<g>
		<path class="st10" d="M506.8,479.5H276.5l6.3-70.2c4.2-46.4,43.1-81.9,89.7-81.9h38.3c46.6,0,85.5,35.5,89.7,81.9L506.8,479.5z"/>
		<rect x="334.9" y="415.2" class="st5" width="114.5" height="64.3"/>
		<path class="st11" d="M410.8,327.4h-19.2v152.1h115.1l-6.3-70.2C496.3,362.9,457.4,327.4,410.8,327.4z"/>
		<rect x="391.6" y="415.2" class="st7" width="57.7" height="64.3"/>
		<rect x="322.7" y="447.4" class="st8" width="12.2" height="32.1"/>
		<path class="st9" d="M426.4,404v11.3l0,0c12.5,0,22.6,10.1,22.6,22.6v9.6h12.2v-9.6c0-18.7-15.2-33.9-33.9-33.9H426.4z"/>
		<path class="st4" d="M357.4,404v11.3l0,0c-12.5,0-22.6,10.1-22.6,22.6v9.6h-12.2v-9.6c0-18.7,15.2-33.9,33.9-33.9H357.4z"/>
		<rect x="449" y="447.4" class="st4" width="12.2" height="32.1"/>
		<rect x="357.2" y="404" class="st8" width="34.7" height="11.3"/>
		<rect x="391.6" y="404" class="st4" width="34.7" height="11.3"/>
		<rect x="377.5" y="174.2" class="st11" width="28.9" height="153.2"/>
		<rect x="358.6" y="158" class="st11" width="66.7" height="16.2"/>
		<rect x="377.5" y="174.2" class="st16" width="28.9" height="6.1"/>
		<rect x="391.6" y="158" class="st17" width="33.6" height="16.2"/>
		<rect x="391.6" y="174.2" class="st17" width="14.7" height="153.2"/>
		<rect x="391.6" y="174.2" class="st3" width="14.7" height="6.1"/>
		<rect x="269.3" y="479.5" class="st3" width="244.8" height="13"/>
		<rect x="391.6" y="479.5" class="st8" width="122.4" height="13"/>
	</g>
	<g>
		<path class="st3" d="M1124.8,481.4H902.1l6.1-67.9c4-44.9,41.7-79.3,86.7-79.3h37.1c45.1,0,82.7,34.4,86.7,79.3L1124.8,481.4z"/>
		<rect x="999.8" y="189.4" class="st4" width="27.3" height="144.8"/>
		<rect x="918.2" y="386.1" class="st10" width="190.5" height="95.2"/>
		<rect x="958.8" y="426.7" class="st5" width="109.3" height="54.6"/>
		<rect x="996.2" y="181.9" class="st3" width="34.5" height="7.5"/>
		<rect x="992" y="156.7" class="st3" width="42.8" height="7.5"/>
		<rect x="1001.6" y="164.3" class="st5" width="23.7" height="17.6"/>
		<path class="st8" d="M1032,334.2h-18.5v147.2h111.4l-6.1-67.9C1114.7,368.6,1077.1,334.2,1032,334.2z"/>
		<rect x="1013.5" y="386.1" class="st11" width="95.2" height="95.2"/>
		<rect x="1013.5" y="426.7" class="st7" width="54.6" height="54.6"/>
		<rect x="1013.5" y="189.4" class="st9" width="13.6" height="144.8"/>
		<rect x="1013.5" y="181.9" class="st8" width="17.3" height="7.5"/>
		<rect x="1013.5" y="164.3" class="st7" width="11.8" height="17.6"/>
		<rect x="1013.5" y="156.7" class="st8" width="21.4" height="7.5"/>
		<rect x="893.3" y="480.2" class="st4" width="240.3" height="12.3"/>
		<rect x="1013.5" y="480.2" class="st9" width="120.2" height="12.3"/>
	</g>
	<g>
		<polygon class="st9" points="498.3,651.6 462.6,633.7 446,625.5 337.8,625.5 310.5,638.9 285.1,651.6 248.6,651.6 248.6,823.3 
			534.8,823.3 534.8,653.5 		"/>
		<rect x="445.6" y="637.2" class="st18" width="35.9" height="11.6"/>
		<rect x="517.4" y="660.5" class="st18" width="18" height="11.6"/>
		<rect x="311" y="793.8" class="st19" width="32.8" height="10.6"/>
		<rect x="343.6" y="793.8" class="st19" width="32.8" height="10.6"/>
		<rect x="331" y="552" class="st11" width="121.4" height="15.3"/>
		<rect x="319.9" y="625.5" class="st4" width="35.9" height="11.6"/>
		<rect x="355.8" y="625.5" class="st9" width="35.9" height="11.6"/>
		<rect x="427.6" y="625.5" class="st9" width="35.9" height="11.6"/>
		<rect x="337.8" y="637.2" class="st8" width="35.9" height="11.6"/>
		<rect x="373.7" y="637.2" class="st4" width="35.9" height="11.6"/>
		<rect x="409.6" y="637.2" class="st4" width="35.9" height="11.6"/>
		<rect x="301.9" y="637.2" class="st9" width="35.9" height="11.6"/>
		<rect x="319.9" y="648.8" class="st4" width="35.9" height="11.6"/>
		<rect x="355.8" y="648.8" class="st9" width="35.9" height="11.6"/>
		<rect x="427.6" y="648.8" class="st9" width="35.9" height="11.6"/>
		<rect x="337.8" y="660.5" class="st8" width="35.9" height="11.6"/>
		<rect x="373.7" y="660.5" class="st4" width="35.9" height="11.6"/>
		<rect x="409.6" y="660.5" class="st4" width="35.9" height="11.6"/>
		<rect x="301.9" y="660.5" class="st9" width="35.9" height="11.6"/>
		<rect x="319.9" y="672.1" class="st4" width="35.9" height="11.6"/>
		<rect x="355.8" y="672.1" class="st9" width="35.9" height="11.6"/>
		<rect x="427.6" y="672.1" class="st9" width="35.9" height="11.6"/>
		<rect x="337.8" y="683.8" class="st8" width="35.9" height="11.6"/>
		<rect x="373.7" y="683.8" class="st4" width="35.9" height="11.6"/>
		<rect x="409.6" y="683.8" class="st4" width="35.9" height="11.6"/>
		<rect x="463.5" y="648.8" class="st8" width="35.9" height="11.6"/>
		<rect x="499.4" y="648.8" class="st18" width="27.4" height="11.6"/>
		<rect x="481.5" y="660.5" class="st4" width="35.9" height="11.6"/>
		<rect x="463.5" y="672.1" class="st8" width="35.9" height="11.6"/>
		<rect x="499.4" y="672.1" class="st9" width="35.9" height="11.6"/>
		<rect x="481.5" y="683.8" class="st4" width="35.9" height="11.6"/>
		<rect x="463.5" y="695.4" class="st8" width="35.9" height="11.6"/>
		<rect x="499.4" y="695.4" class="st9" width="35.9" height="11.6"/>
		<rect x="481.5" y="707.1" class="st4" width="35.9" height="11.6"/>
		<rect x="283.9" y="648.8" class="st3" width="35.9" height="11.6"/>
		<rect x="256.5" y="648.8" class="st4" width="27.4" height="11.6"/>
		<rect x="266" y="660.5" class="st8" width="35.9" height="11.6"/>
		<rect x="248" y="660.5" class="st9" width="18" height="11.6"/>
		<rect x="283.9" y="672.1" class="st3" width="35.9" height="11.6"/>
		<rect x="248" y="672.1" class="st4" width="35.9" height="11.6"/>
		<rect x="266" y="683.8" class="st8" width="35.9" height="11.6"/>
		<rect x="248" y="683.8" class="st9" width="18" height="11.6"/>
		<rect x="283.9" y="695.4" class="st3" width="35.9" height="11.6"/>
		<rect x="248" y="695.4" class="st4" width="35.9" height="11.6"/>
		<rect x="266" y="707.1" class="st8" width="35.9" height="11.6"/>
		<rect x="248" y="707.1" class="st9" width="18" height="11.6"/>
		<rect x="283.9" y="718.7" class="st3" width="35.9" height="11.6"/>
		<rect x="319.9" y="718.7" class="st4" width="35.9" height="11.6"/>
		<rect x="248.3" y="718.7" class="st4" width="35.7" height="11.6"/>
		<rect x="266" y="730.3" class="st8" width="35.9" height="11.6"/>
		<rect x="301.9" y="707.1" class="st9" width="35.9" height="11.6"/>
		<rect x="319.9" y="695.4" class="st4" width="35.9" height="11.6"/>
		<rect x="427.6" y="695.4" class="st9" width="35.9" height="11.6"/>
		<rect x="301.9" y="730.3" class="st9" width="35.9" height="11.6"/>
		<rect x="248" y="730.3" class="st9" width="18" height="11.6"/>
		<rect x="283.9" y="742" class="st3" width="35.9" height="11.6"/>
		<rect x="248" y="742" class="st4" width="35.9" height="11.6"/>
		<rect x="266" y="753.6" class="st8" width="35.9" height="11.6"/>
		<rect x="248" y="753.6" class="st9" width="18" height="11.6"/>
		<rect x="283.9" y="765.3" class="st3" width="35.9" height="11.6"/>
		<rect x="248" y="765.3" class="st4" width="35.9" height="11.6"/>
		<rect x="266" y="776.9" class="st8" width="35.9" height="11.6"/>
		<rect x="248" y="776.9" class="st9" width="18" height="11.6"/>
		<rect x="463.5" y="718.7" class="st8" width="35.9" height="11.6"/>
		<rect x="427.6" y="718.7" class="st9" width="35.9" height="11.6"/>
		<rect x="499.4" y="718.7" class="st9" width="27.4" height="11.6"/>
		<rect x="481.4" y="730.3" class="st4" width="35.9" height="11.6"/>
		<rect x="463.5" y="742" class="st8" width="35.9" height="11.6"/>
		<rect x="499.4" y="742" class="st9" width="35.9" height="11.6"/>
		<rect x="481.4" y="753.6" class="st4" width="35.9" height="11.6"/>
		<rect x="463.5" y="765.3" class="st8" width="35.9" height="11.6"/>
		<rect x="499.4" y="765.3" class="st9" width="35.9" height="11.6"/>
		<rect x="481.4" y="776.9" class="st4" width="35.9" height="11.6"/>
		<rect x="301.9" y="683.8" class="st9" width="35.9" height="11.6"/>
		<rect x="319.8" y="800" class="st4" width="35.9" height="11.6"/>
		<rect x="355.7" y="800" class="st3" width="35.9" height="11.6"/>
		<rect x="391.7" y="800" class="st8" width="35.9" height="11.6"/>
		<rect x="427.6" y="800" class="st9" width="35.9" height="11.6"/>
		<rect x="337.8" y="811.6" class="st3" width="35.9" height="11.6"/>
		<rect x="373.7" y="811.6" class="st4" width="35.9" height="11.6"/>
		<rect x="409.6" y="811.6" class="st8" width="35.9" height="11.6"/>
		<rect x="463.5" y="800" class="st8" width="35.9" height="11.6"/>
		<rect x="481.4" y="811.6" class="st4" width="35.9" height="11.6"/>
		<rect x="517.4" y="811.6" class="st9" width="18" height="11.6"/>
		<rect x="283.9" y="800" class="st3" width="35.9" height="11.6"/>
		<rect x="248" y="800" class="st9" width="35.9" height="11.6"/>
		<rect x="499.4" y="788.7" class="st9" width="35.9" height="11.6"/>
		<rect x="248" y="788.7" class="st4" width="35.9" height="11.6"/>
		<rect x="266" y="811.6" class="st8" width="35.9" height="11.6"/>
		<rect x="248" y="811.6" class="st4" width="18" height="11.6"/>
		<rect x="301.9" y="811.6" class="st9" width="35.9" height="11.6"/>
		<polygon class="st11" points="391.6,575.4 248,652.3 248,671.5 391.6,597.7 535.3,670.9 535.3,652.3 		"/>
		<rect x="272.1" y="788.7" class="st5" width="39.8" height="12.9"/>
		<rect x="312" y="788.7" class="st20" width="39.8" height="12.9"/>
		<rect x="351.8" y="788.7" class="st5" width="39.8" height="12.9"/>
		<rect x="391.7" y="788.7" class="st20" width="39.8" height="12.9"/>
		<rect x="431.5" y="788.7" class="st5" width="39.8" height="12.9"/>
		<path class="st11" d="M391.7,690c-54.5,0-92.2,44.2-92.2,98.7h184.4C483.9,734.2,446.2,690,391.7,690z"/>
		<path class="st5" d="M391.7,696.9c-47.7,0-86.4,38.7-86.4,86.4h172.7C478.1,735.6,439.4,696.9,391.7,696.9z"/>
		<rect x="427.6" y="579" class="st9" width="17.9" height="11.6"/>
		<rect x="337.8" y="567.3" class="st8" width="35.9" height="11.6"/>
		<rect x="373.7" y="567.3" class="st4" width="35.9" height="11.6"/>
		<rect x="409.6" y="567.3" class="st4" width="35.9" height="11.6"/>
		<rect x="337.8" y="579" class="st4" width="18" height="11.6"/>
		<rect x="355.8" y="579" class="st9" width="35.9" height="11.6"/>
		<rect x="337.8" y="590.6" class="st8" width="35.9" height="11.6"/>
		<rect x="373.7" y="590.6" class="st4" width="35.9" height="11.6"/>
		<rect x="409.6" y="590.6" class="st4" width="35.9" height="11.6"/>
		<rect x="337.8" y="602.3" class="st4" width="17.9" height="11.6"/>
		<rect x="355.8" y="602.3" class="st9" width="35.9" height="11.6"/>
		<rect x="391.7" y="625.5" class="st18" width="35.9" height="11.6"/>
		<rect x="391.7" y="648.8" class="st18" width="35.9" height="11.6"/>
		<rect x="445.6" y="660.5" class="st18" width="35.9" height="11.6"/>
		<rect x="391.7" y="672.1" class="st18" width="35.9" height="11.6"/>
		<rect x="445.6" y="683.8" class="st18" width="35.9" height="11.6"/>
		<rect x="517.4" y="683.8" class="st18" width="18" height="11.6"/>
		<rect x="517.4" y="707.1" class="st18" width="18" height="11.6"/>
		<rect x="445.6" y="707.1" class="st18" width="35.9" height="11.6"/>
		<rect x="445.5" y="730.3" class="st18" width="35.9" height="11.6"/>
		<rect x="517.4" y="730.3" class="st18" width="18" height="11.6"/>
		<rect x="517.4" y="753.6" class="st18" width="18" height="11.6"/>
		<rect x="517.4" y="776.9" class="st18" width="18" height="11.6"/>
		<rect x="445.5" y="811.6" class="st18" width="35.9" height="11.6"/>
		<rect x="499.4" y="800" class="st18" width="35.9" height="11.6"/>
		<rect x="391.7" y="579" class="st18" width="35.9" height="11.6"/>
		<rect x="391.7" y="602.3" class="st18" width="35.9" height="11.6"/>
		<rect x="427.6" y="602.3" class="st9" width="18" height="11.6"/>
		<rect x="337.8" y="613.9" class="st8" width="35.9" height="11.6"/>
		<rect x="373.7" y="613.9" class="st4" width="35.9" height="11.6"/>
		<rect x="409.6" y="613.9" class="st4" width="35.9" height="11.6"/>
		<rect x="391.7" y="811.6" class="st9" width="18" height="11.6"/>
		<rect x="391.7" y="552" class="st3" width="60.7" height="15.3"/>
		<rect x="391.7" y="567.3" class="st9" width="18" height="11.6"/>
		<rect x="391.7" y="590.6" class="st9" width="18" height="11.6"/>
		<rect x="391.7" y="613.9" class="st9" width="18" height="11.6"/>
		<rect x="391.7" y="637.2" class="st9" width="18" height="11.6"/>
		<rect x="391.7" y="660.5" class="st9" width="18" height="11.6"/>
		<rect x="391.7" y="683.8" class="st9" width="18" height="11.6"/>
		<path class="st3" d="M391.7,690v98.7h92.2C483.9,734.2,446.2,690,391.7,690C391.7,690,391.7,690,391.7,690z"/>
		<path class="st7" d="M391.7,696.9v86.4h86.4C478.1,735.6,439.4,696.9,391.7,696.9C391.7,696.9,391.7,696.9,391.7,696.9z"/>
		<rect x="471.4" y="788.7" class="st20" width="39.8" height="12.9"/>
	</g>
</g>
</svg>
