<?xml version="1.0" encoding="UTF-8" standalone="no"?>
<svg
   xmlns:dc="http://purl.org/dc/elements/1.1/"
   xmlns:cc="http://creativecommons.org/ns#"
   xmlns:rdf="http://www.w3.org/1999/02/22-rdf-syntax-ns#"
   xmlns:svg="http://www.w3.org/2000/svg"
   xmlns="http://www.w3.org/2000/svg"
   xmlns:sodipodi="http://sodipodi.sourceforge.net/DTD/sodipodi-0.dtd"
   xmlns:inkscape="http://www.inkscape.org/namespaces/inkscape"
   version="1.1"
   id="svg2"
   xml:space="preserve"
   width="2599.7905"
   height="1423.5623"
   viewBox="0 0 2599.7906 1423.5623"
   sodipodi:docname="concessions.svg"
   inkscape:version="1.0.2 (394de47547, 2021-03-26)"><metadata
     id="metadata8"><rdf:RDF><cc:Work
         rdf:about=""><dc:format>image/svg+xml</dc:format><dc:type
           rdf:resource="http://purl.org/dc/dcmitype/StillImage" /><dc:title /></cc:Work></rdf:RDF></metadata><defs
     id="defs6" /><sodipodi:namedview
     pagecolor="#ffffff"
     bordercolor="#666666"
     borderopacity="1"
     objecttolerance="10"
     gridtolerance="10"
     guidetolerance="10"
     inkscape:pageopacity="0"
     inkscape:pageshadow="2"
     inkscape:window-width="1848"
     inkscape:window-height="1016"
     id="namedview4"
     showgrid="false"
     inkscape:zoom="0.26742764"
     inkscape:cx="898.16618"
     inkscape:cy="192.73682"
     inkscape:window-x="72"
     inkscape:window-y="27"
     inkscape:window-maximized="1"
     inkscape:current-layer="g10"
     inkscape:document-rotation="0" /><g
     id="g10"
     inkscape:groupmode="layer"
     inkscape:label="ink_ext_XXXXXX"
     transform="matrix(1.3333333,0,0,-1.3333333,-566.77785,1767.6021)"><g
       id="g18"
       transform="scale(0.143555)"><path
         d="M 3691.24,8977.6 V 7381.74 C 3691.24,7239.7 3806.39,7124.56 3948.43,7124.56 H 16042.8 C 16184.9,7124.56 16300,7239.7 16300,7381.74 V 8977.6 C 16300,9119.63 16184.9,9234.78 16042.8,9234.78 H 3948.43 C 3806.39,9234.78 3691.24,9119.63 3691.24,8977.6"
         style="fill:#586aac;fill-opacity:1;fill-rule:nonzero;stroke:none"
         id="path20" /></g><g
       id="g22"
       transform="scale(0.141413)"><path
         d="M 3500.21,9113.61 V 7493.57 C 3500.21,7349.38 3617.09,7232.49 3761.28,7232.49 H 16038.9 C 16183.1,7232.49 16300,7349.38 16300,7493.57 V 9113.61 C 16300,9257.79 16183.1,9374.68 16038.9,9374.68 H 3761.28 C 3617.09,9374.68 3500.21,9257.79 3500.21,9113.61"
         style="fill:#8593c7;fill-opacity:1;fill-rule:nonzero;stroke:none"
         id="path24" /></g><path
       d="M 945.409,1089.2 H 747.529 C 732.417,1089.2 720.167,1101.45 720.167,1116.56 V 1231.91 C 720.167,1247.02 732.417,1259.27 747.529,1259.27 H 945.409 C 960.521,1259.27 972.771,1247.02 972.771,1231.91 V 1116.56 C 972.771,1101.45 960.521,1089.2 945.409,1089.2"
       style="fill:#a4acd0;fill-opacity:1;fill-rule:nonzero;stroke:none;stroke-width:0.1"
       id="path26" /><path
       d="M 681.122,1239.65 H 564.821 V 1259.27 H 681.122 V 1239.65"
       style="fill:#a4acd0;fill-opacity:1;fill-rule:nonzero;stroke:none;stroke-width:0.1"
       id="path28" /><path
       d="M 681.122,1189.5 H 564.821 V 1209.12 H 681.122 V 1189.5"
       style="fill:#a4acd0;fill-opacity:1;fill-rule:nonzero;stroke:none;stroke-width:0.1"
       id="path30" /><path
       d="M 681.122,1139.35 H 564.821 V 1158.97 H 681.122 V 1139.35"
       style="fill:#a4acd0;fill-opacity:1;fill-rule:nonzero;stroke:none;stroke-width:0.1"
       id="path32" /><path
       d="M 681.122,1089.2 H 564.821 V 1108.82 H 681.122 V 1089.2"
       style="fill:#a4acd0;fill-opacity:1;fill-rule:nonzero;stroke:none;stroke-width:0.1"
       id="path34" /><path
       d="M 774.267,1142.91 H 812.408 V 1131.44 H 774.267 V 1142.91"
       style="fill:#8593c7;fill-opacity:1;fill-rule:nonzero;stroke:none;stroke-width:0.1"
       id="path36" /><path
       d="M 774.267,1117.36 H 842.403 V 1105.89 H 774.267 V 1117.36"
       style="fill:#8593c7;fill-opacity:1;fill-rule:nonzero;stroke:none;stroke-width:0.1"
       id="path38" /><path
       d="M 927.44,1220.59 H 889.299 V 1209.12 H 927.44 V 1220.59"
       style="fill:#8593c7;fill-opacity:1;fill-rule:nonzero;stroke:none;stroke-width:0.1"
       id="path40" /><path
       d="M 927.44,1195.04 H 859.304 V 1183.57 H 927.44 V 1195.04"
       style="fill:#8593c7;fill-opacity:1;fill-rule:nonzero;stroke:none;stroke-width:0.1"
       id="path42" /><path
       d="M 1576.61,1089.2 H 1378.73 C 1363.62,1089.2 1351.37,1101.45 1351.37,1116.56 V 1231.91 C 1351.37,1247.02 1363.62,1259.27 1378.73,1259.27 H 1576.61 C 1591.72,1259.27 1603.97,1247.02 1603.97,1231.91 V 1116.56 C 1603.97,1101.45 1591.72,1089.2 1576.61,1089.2"
       style="fill:#a4acd0;fill-opacity:1;fill-rule:nonzero;stroke:none;stroke-width:0.1"
       id="path44" /><path
       d="M 1312.33,1239.65 H 1196.02 V 1259.27 H 1312.33 V 1239.65"
       style="fill:#a4acd0;fill-opacity:1;fill-rule:nonzero;stroke:none;stroke-width:0.1"
       id="path46" /><path
       d="M 1312.33,1189.5 H 1196.02 V 1209.12 H 1312.33 V 1189.5"
       style="fill:#a4acd0;fill-opacity:1;fill-rule:nonzero;stroke:none;stroke-width:0.1"
       id="path48" /><path
       d="M 1312.33,1139.35 H 1196.02 V 1158.97 H 1312.33 V 1139.35"
       style="fill:#a4acd0;fill-opacity:1;fill-rule:nonzero;stroke:none;stroke-width:0.1"
       id="path50" /><path
       d="M 1312.33,1089.2 H 1196.02 V 1108.82 H 1312.33 V 1089.2"
       style="fill:#a4acd0;fill-opacity:1;fill-rule:nonzero;stroke:none;stroke-width:0.1"
       id="path52" /><path
       d="M 1542.62,1099.08 H 1513.85 L 1508.27,1145.99 H 1548.2 L 1542.62,1099.08"
       style="fill:#8593c7;fill-opacity:1;fill-rule:nonzero;stroke:none;stroke-width:0.1"
       id="path54" /><path
       d="M 1548.09,1154.12 H 1508.38 C 1505.3,1154.12 1502.8,1151.63 1502.8,1148.55 C 1502.8,1145.47 1505.3,1142.97 1508.38,1142.97 H 1548.09 C 1551.17,1142.97 1553.67,1145.47 1553.67,1148.55 C 1553.67,1151.63 1551.17,1154.12 1548.09,1154.12"
       style="fill:#8593c7;fill-opacity:1;fill-rule:nonzero;stroke:none;stroke-width:0.1"
       id="path56" /><path
       d="M 1522.45,1127.34 C 1521.28,1127.34 1520.22,1128.13 1519.93,1129.32 L 1510.98,1165.79 L 1500.35,1162.05 C 1499,1161.58 1497.52,1162.29 1497.04,1163.64 C 1496.57,1164.99 1497.28,1166.47 1498.63,1166.94 L 1511.96,1171.63 C 1512.65,1171.88 1513.41,1171.81 1514.05,1171.47 C 1514.7,1171.12 1515.16,1170.52 1515.34,1169.81 L 1524.97,1130.55 C 1525.31,1129.16 1524.46,1127.76 1523.07,1127.42 C 1522.86,1127.37 1522.65,1127.34 1522.45,1127.34"
       style="fill:#8593c7;fill-opacity:1;fill-rule:nonzero;stroke:none;stroke-width:0.1"
       id="path58" /><path
       d="M 1405.47,1142.91 H 1443.61 V 1131.44 H 1405.47 V 1142.91"
       style="fill:#8593c7;fill-opacity:1;fill-rule:nonzero;stroke:none;stroke-width:0.1"
       id="path60" /><path
       d="M 1405.47,1117.36 H 1473.61 V 1105.89 H 1405.47 V 1117.36"
       style="fill:#8593c7;fill-opacity:1;fill-rule:nonzero;stroke:none;stroke-width:0.1"
       id="path62" /><path
       d="M 1558.64,1220.59 H 1520.5 V 1209.12 H 1558.64 V 1220.59"
       style="fill:#8593c7;fill-opacity:1;fill-rule:nonzero;stroke:none;stroke-width:0.1"
       id="path64" /><path
       d="M 1558.64,1195.04 H 1490.51 V 1183.57 H 1558.64 V 1195.04"
       style="fill:#8593c7;fill-opacity:1;fill-rule:nonzero;stroke:none;stroke-width:0.1"
       id="path66" /><path
       d="M 1449.35,1215.91 H 1390.01 C 1387.3,1215.91 1385.1,1218.11 1385.1,1220.82 V 1220.82 C 1385.1,1223.52 1387.3,1225.72 1390.01,1225.72 H 1449.35 C 1452.06,1225.72 1454.26,1223.52 1454.26,1220.82 V 1220.82 C 1454.26,1218.11 1452.06,1215.91 1449.35,1215.91"
       style="fill:#8593c7;fill-opacity:1;fill-rule:nonzero;stroke:none;stroke-width:0.1"
       id="path68" /><path
       d="M 1442.98,1177.06 H 1396.38 L 1392.99,1219.14 H 1446.37 L 1442.98,1177.06"
       style="fill:#8593c7;fill-opacity:1;fill-rule:nonzero;stroke:none;stroke-width:0.1"
       id="path70" /><g
       id="g72"
       transform="scale(0.137128)"><path
         d="M 16100.5,7942.95 H 14657.4 C 14547.3,7942.95 14457.9,8032.29 14457.9,8142.5 V 8983.66 C 14457.9,9093.86 14547.3,9183.2 14657.4,9183.2 H 16100.5 C 16210.7,9183.2 16300,9093.86 16300,8983.66 V 8142.5 C 16300,8032.29 16210.7,7942.95 16100.5,7942.95"
         style="fill:#a4acd0;fill-opacity:1;fill-rule:nonzero;stroke:none"
         id="path74" /></g><g
       id="g76"
       transform="scale(0.119235)"><path
         d="M 16300,10396.7 H 15324.6 V 10561.2 H 16300 V 10396.7"
         style="fill:#a4acd0;fill-opacity:1;fill-rule:nonzero;stroke:none"
         id="path78" /></g><g
       id="g80"
       transform="scale(0.119235)"><path
         d="M 16300,9976.08 H 15324.6 V 10140.7 H 16300 V 9976.08"
         style="fill:#a4acd0;fill-opacity:1;fill-rule:nonzero;stroke:none"
         id="path82" /></g><g
       id="g84"
       transform="scale(0.119235)"><path
         d="M 16300,9555.48 H 15324.6 V 9720.06 H 16300 V 9555.48"
         style="fill:#a4acd0;fill-opacity:1;fill-rule:nonzero;stroke:none"
         id="path86" /></g><g
       id="g88"
       transform="scale(0.119235)"><path
         d="M 16300,9134.89 H 15324.6 V 9299.47 H 16300 V 9134.89"
         style="fill:#a4acd0;fill-opacity:1;fill-rule:nonzero;stroke:none"
         id="path90" /></g><g
       id="g92"
       transform="scale(0.12729)"><path
         d="M 16000.3,8978.8 H 16300 V 8888.69 H 16000.3 V 8978.8"
         style="fill:#8593c7;fill-opacity:1;fill-rule:nonzero;stroke:none"
         id="path94" /></g><g
       id="g96"
       transform="scale(0.129129)"><path
         d="M 15772.3,8653 H 16300 V 8564.17 H 15772.3 V 8653"
         style="fill:#8593c7;fill-opacity:1;fill-rule:nonzero;stroke:none"
         id="path98" /></g><g
       id="g100"
       transform="scale(0.134347)"><path
         d="M 16300,9085.36 H 16016.1 V 8999.98 H 16300 V 9085.36"
         style="fill:#8593c7;fill-opacity:1;fill-rule:nonzero;stroke:none"
         id="path102" /></g><g
       id="g104"
       transform="scale(0.134347)"><path
         d="M 16300,8895.17 H 15792.8 V 8809.79 H 16300 V 8895.17"
         style="fill:#8593c7;fill-opacity:1;fill-rule:nonzero;stroke:none"
         id="path106" /></g><path
       d="M 748.778,818.548 H 613.466 C 604.014,818.548 596.352,826.21 596.352,835.662 V 970.974 C 596.352,980.425 604.014,988.088 613.466,988.088 H 748.778 C 758.229,988.088 765.892,980.425 765.892,970.974 V 835.662 C 765.892,826.21 758.229,818.548 748.778,818.548"
       style="fill:#b9c4e1;fill-opacity:1;fill-rule:nonzero;stroke:none;stroke-width:0.1"
       id="path108" /><path
       d="M 724.028,951.773 H 638.216 V 969.734 H 724.028 V 951.773"
       style="fill:#a4acd0;fill-opacity:1;fill-rule:nonzero;stroke:none;stroke-width:0.1"
       id="path110" /><path
       d="M 970.637,809.375 H 878.069 C 872.142,809.375 867.336,814.18 867.336,820.107 V 839.829 C 867.336,845.757 872.142,850.562 878.069,850.562 H 970.637 C 976.564,850.562 981.37,845.757 981.37,839.829 V 820.107 C 981.37,814.18 976.564,809.375 970.637,809.375"
       style="fill:#4f4b63;fill-opacity:1;fill-rule:nonzero;stroke:none;stroke-width:0.1"
       id="path166" /><path
       d="M 958.727,809.375 H 866.16 C 860.232,809.375 855.427,814.18 855.427,820.107 V 839.829 C 855.427,845.757 860.232,850.562 866.16,850.562 H 958.727 C 964.655,850.562 969.46,845.757 969.46,839.829 V 820.107 C 969.46,814.18 964.655,809.375 958.727,809.375"
       style="fill:#6c6881;fill-opacity:1;fill-rule:nonzero;stroke:none;stroke-width:0.1"
       id="path168" /><path
       d="M 867.336,821.284 V 838.652 H 957.55 V 821.284 H 867.336"
       style="fill:#eddae7;fill-opacity:1;fill-rule:nonzero;stroke:none;stroke-width:0.1"
       id="path170" /><path
       d="M 929.939,725.37 H 906.857 V 809.375 H 929.939 V 725.37"
       style="fill:#d3bdcd;fill-opacity:1;fill-rule:nonzero;stroke:none;stroke-width:0.1"
       id="path172" /><path
       d="M 920.479,725.37 H 906.857 V 809.375 H 920.479 V 725.37"
       style="fill:#eddae7;fill-opacity:1;fill-rule:nonzero;stroke:none;stroke-width:0.1"
       id="path174" /><path
       d="M 985.123,790.83 H 956.743 C 951.415,790.83 947.094,786.51 947.094,781.18 V 723.67 C 947.094,718.34 951.415,714.02 956.743,714.02 H 985.123 C 990.451,714.02 994.771,718.34 994.771,723.67 V 781.18 C 994.771,786.51 990.451,790.83 985.123,790.83"
       style="fill:#eddae7;fill-opacity:1;fill-rule:nonzero;stroke:none;stroke-width:0.1"
       id="path176" /><path
       d="M 1016.91,790.83 H 988.528 C 983.199,790.83 978.879,786.51 978.879,781.18 V 723.67 C 978.879,718.34 983.199,714.02 988.528,714.02 H 1016.91 C 1022.24,714.02 1026.56,718.34 1026.56,723.67 V 781.18 C 1026.56,786.51 1022.24,790.83 1016.91,790.83"
       style="fill:#d3bdcd;fill-opacity:1;fill-rule:nonzero;stroke:none;stroke-width:0.1"
       id="path178" /><path
       d="M 864.503,700.4 C 864.503,723.18 882.969,741.64 905.748,741.64 C 928.526,741.64 946.992,723.18 946.992,700.4 C 946.992,677.62 928.526,659.15 905.748,659.15 C 882.969,659.15 864.503,677.62 864.503,700.4"
       style="fill:#eddae7;fill-opacity:1;fill-rule:nonzero;stroke:none;stroke-width:0.1"
       id="path180" /><path
       d="M 905.748,741.64 H 1028.07 V 659.15 H 905.748 V 741.64"
       style="fill:#eddae7;fill-opacity:1;fill-rule:nonzero;stroke:none;stroke-width:0.1"
       id="path182" /><path
       d="M 1126.35,683.95 C 1126.35,697.64 1137.45,708.75 1151.15,708.75 C 1164.84,708.75 1175.94,697.64 1175.94,683.95 C 1175.94,670.26 1164.84,659.15 1151.15,659.15 C 1137.45,659.15 1126.35,670.26 1126.35,683.95"
       style="fill:#d3bdcd;fill-opacity:1;fill-rule:nonzero;stroke:none;stroke-width:0.1"
       id="path184" /><path
       d="M 986.825,700.4 C 986.825,723.18 1005.29,741.64 1028.07,741.64 C 1050.85,741.64 1069.31,723.18 1069.31,700.4 C 1069.31,677.62 1050.85,659.15 1028.07,659.15 C 1005.29,659.15 986.825,677.62 986.825,700.4"
       style="fill:#d3bdcd;fill-opacity:1;fill-rule:nonzero;stroke:none;stroke-width:0.1"
       id="path186" /><path
       d="M 1151.15,659.15 C 1104.93,659.15 1104.93,659.15 1028.07,659.15 L 1038.9,740.2 C 1113.07,720.01 1113.07,720.01 1157.66,707.88 L 1151.15,659.15"
       style="fill:#d3bdcd;fill-opacity:1;fill-rule:nonzero;stroke:none;stroke-width:0.1"
       id="path188" /><g
       id="g190"
       transform="scale(0.143803)"><path
         d="M 3580.49,4413.95 V 1964.07 C 3580.49,1870.34 3656.5,1794.33 3750.27,1794.33 H 16130.2 C 16224,1794.33 16300,1870.34 16300,1964.07 V 4413.95 C 16300,4507.69 16224,4583.7 16130.2,4583.7 H 3750.27 C 3656.5,4583.7 3580.49,4507.69 3580.49,4413.95"
         style="fill:#963f49;fill-opacity:1;fill-rule:nonzero;stroke:none"
         id="path192" /></g><g
       id="g194"
       transform="scale(0.145701)"><path
         d="M 3321.56,4407.33 V 4314.88 C 3321.56,4250.43 3373.82,4198.13 3438.27,4198.13 H 16183.3 C 16247.7,4198.13 16300,4250.43 16300,4314.88 V 4407.33 C 16300,4471.77 16247.7,4524 16183.3,4524 H 3438.27 C 3373.82,4524 3321.56,4471.77 3321.56,4407.33"
         style="fill:#bd7979;fill-opacity:1;fill-rule:nonzero;stroke:none"
         id="path196" /></g><g
       id="g198"
       transform="scale(0.140191)"><path
         d="M 3252.81,4449.37 V 2014.68 C 3252.81,1918.53 3330.78,1840.56 3426.96,1840.56 H 16125.9 C 16222,1840.56 16300,1918.53 16300,2014.68 V 4449.37 C 16300,4545.59 16222,4623.56 16125.9,4623.56 H 3426.96 C 3330.78,4623.56 3252.81,4545.59 3252.81,4449.37"
         style="fill:#ad5b62;fill-opacity:1;fill-rule:nonzero;stroke:none"
         id="path200" /></g><path
       d="M 1244.27,523.42 H 1003.31 C 994.213,523.42 986.836,530.8 986.836,539.9 V 539.9 C 986.836,549 994.213,556.37 1003.31,556.37 H 1244.27 C 1253.37,556.37 1260.75,549 1260.75,539.9 V 539.9 C 1260.75,530.8 1253.37,523.42 1244.27,523.42"
       style="fill:#d79793;fill-opacity:1;fill-rule:nonzero;stroke:none;stroke-width:0.1"
       id="path202" /><path
       d="M 1359.96,371.38 H 1119 C 1109.9,371.38 1102.52,378.76 1102.52,387.86 V 387.86 C 1102.52,396.96 1109.9,404.33 1119,404.33 H 1359.96 C 1369.06,404.33 1376.43,396.96 1376.43,387.86 V 387.86 C 1376.43,378.76 1369.06,371.38 1359.96,371.38"
       style="fill:#d79793;fill-opacity:1;fill-rule:nonzero;stroke:none;stroke-width:0.1"
       id="path204" /><g
       id="g206"
       transform="scale(0.106658)"><path
         d="M 16145.6,4907.45 H 13886.4 C 13801.1,4907.45 13731.9,4976.64 13731.9,5061.96 V 5061.96 C 13731.9,5147.28 13801.1,5216.38 13886.4,5216.38 H 16145.6 C 16230.9,5216.38 16300,5147.28 16300,5061.96 V 5061.96 C 16300,4976.64 16230.9,4907.45 16145.6,4907.45"
         style="fill:#d79793;fill-opacity:1;fill-rule:nonzero;stroke:none"
         id="path208" /></g><g
       id="g210"
       transform="scale(0.113756)"><path
         d="M 16155.1,3264.71 H 14036.9 C 13956.9,3264.71 13892.1,3329.59 13892.1,3409.59 V 3409.59 C 13892.1,3489.58 13956.9,3554.37 14036.9,3554.37 H 16155.1 C 16235.1,3554.37 16300,3489.58 16300,3409.59 V 3409.59 C 16300,3329.59 16235.1,3264.71 16155.1,3264.71"
         style="fill:#d79793;fill-opacity:1;fill-rule:nonzero;stroke:none"
         id="path212" /></g><g
       id="g214"
       transform="scale(0.142089)"><path
         d="M 2991.67,4519.35 V 4424.55 C 2991.67,4358.47 3045.25,4304.84 3111.34,4304.84 H 16180.3 C 16246.4,4304.84 16300,4358.47 16300,4424.55 V 4519.35 C 16300,4585.44 16246.4,4639 16180.3,4639 H 3111.34 C 3045.25,4639 2991.67,4585.44 2991.67,4519.35"
         style="fill:#d79793;fill-opacity:1;fill-rule:nonzero;stroke:none"
         id="path216" /></g><path
       d="M 649.703,445.62 C 611.858,445.62 581.069,476.41 581.069,514.25 V 659.15 H 942.208 V 514.25 C 942.208,476.41 911.419,445.62 873.574,445.62 H 649.703"
       style="fill:#d79793;fill-opacity:1;fill-rule:nonzero;stroke:none;stroke-width:0.1"
       id="path218" /><path
       d="M 873.575,472.61 H 649.703 C 626.704,472.61 608.059,491.25 608.059,514.25 V 659.15 H 915.218 V 514.25 C 915.218,491.25 896.574,472.61 873.575,472.61"
       style="fill:#d0d9f1;fill-opacity:1;fill-rule:nonzero;stroke:none;stroke-width:0.1"
       id="path220" /><path
       d="M 915.218,592.3 H 608.059 V 605.36 H 915.218 V 592.3"
       style="fill:#a4acd0;fill-opacity:1;fill-rule:nonzero;stroke:none;stroke-width:0.1"
       id="path222" /><path
       d="M 915.218,520.77 H 608.059 V 533.83 H 915.218 V 520.77"
       style="fill:#a4acd0;fill-opacity:1;fill-rule:nonzero;stroke:none;stroke-width:0.1"
       id="path224" /><path
       d="M 900.405,620.47 H 874.131 C 870.653,620.47 867.833,617.65 867.833,614.17 V 605.36 H 906.704 V 614.17 C 906.704,617.65 903.884,620.47 900.405,620.47"
       style="fill:#b9c4e1;fill-opacity:1;fill-rule:nonzero;stroke:none;stroke-width:0.1"
       id="path226" /><path
       d="M 837.59,620.47 H 811.317 C 807.838,620.47 805.018,617.65 805.018,614.17 V 605.36 H 843.889 V 614.17 C 843.889,617.65 841.069,620.47 837.59,620.47"
       style="fill:#b9c4e1;fill-opacity:1;fill-rule:nonzero;stroke:none;stroke-width:0.1"
       id="path228" /><path
       d="M 774.775,620.47 H 748.502 C 745.023,620.47 742.204,617.65 742.204,614.17 V 605.36 H 781.074 V 614.17 C 781.074,617.65 778.254,620.47 774.775,620.47"
       style="fill:#b9c4e1;fill-opacity:1;fill-rule:nonzero;stroke:none;stroke-width:0.1"
       id="path230" /><path
       d="M 711.961,620.47 H 685.687 C 682.208,620.47 679.389,617.65 679.389,614.17 V 605.36 H 718.259 V 614.17 C 718.259,617.65 715.439,620.47 711.961,620.47"
       style="fill:#b9c4e1;fill-opacity:1;fill-rule:nonzero;stroke:none;stroke-width:0.1"
       id="path232" /><path
       d="M 649.146,620.47 H 622.873 C 619.394,620.47 616.574,617.65 616.574,614.17 V 605.36 H 655.444 V 614.17 C 655.444,617.65 652.625,620.47 649.146,620.47"
       style="fill:#b9c4e1;fill-opacity:1;fill-rule:nonzero;stroke:none;stroke-width:0.1"
       id="path234" /><path
       d="M 833.704,489.26 H 859.203 V 472.61 H 833.704 V 489.26"
       style="fill:#a4acd0;fill-opacity:1;fill-rule:nonzero;stroke:none;stroke-width:0.1"
       id="path236" /><path
       d="M 792.544,489.26 H 818.043 V 472.61 H 792.544 V 489.26"
       style="fill:#a4acd0;fill-opacity:1;fill-rule:nonzero;stroke:none;stroke-width:0.1"
       id="path238" /><path
       d="M 751.384,489.26 H 776.883 V 472.61 H 751.384 V 489.26"
       style="fill:#a4acd0;fill-opacity:1;fill-rule:nonzero;stroke:none;stroke-width:0.1"
       id="path240" /><path
       d="M 710.223,489.26 H 735.722 V 472.61 H 710.223 V 489.26"
       style="fill:#a4acd0;fill-opacity:1;fill-rule:nonzero;stroke:none;stroke-width:0.1"
       id="path242" /><path
       d="M 669.063,489.26 H 694.562 V 472.61 H 669.063 V 489.26"
       style="fill:#a4acd0;fill-opacity:1;fill-rule:nonzero;stroke:none;stroke-width:0.1"
       id="path244" /><path
       d="M 828.715,489.26 H 854.214 V 472.61 H 828.715 V 489.26"
       style="fill:#b9c4e1;fill-opacity:1;fill-rule:nonzero;stroke:none;stroke-width:0.1"
       id="path246" /><path
       d="M 787.555,489.26 H 813.054 V 472.61 H 787.555 V 489.26"
       style="fill:#b9c4e1;fill-opacity:1;fill-rule:nonzero;stroke:none;stroke-width:0.1"
       id="path248" /><path
       d="M 746.395,489.26 H 771.894 V 472.61 H 746.395 V 489.26"
       style="fill:#b9c4e1;fill-opacity:1;fill-rule:nonzero;stroke:none;stroke-width:0.1"
       id="path250" /><path
       d="M 705.234,489.26 H 730.733 V 472.61 H 705.234 V 489.26"
       style="fill:#b9c4e1;fill-opacity:1;fill-rule:nonzero;stroke:none;stroke-width:0.1"
       id="path252" /><path
       d="M 664.074,489.26 H 689.573 V 472.61 H 664.074 V 489.26"
       style="fill:#b9c4e1;fill-opacity:1;fill-rule:nonzero;stroke:none;stroke-width:0.1"
       id="path254" /><path
       d="M 868.805,544.62 H 851.378 C 848.996,544.62 847.064,542.69 847.064,540.31 V 538.15 C 847.064,535.77 848.996,533.83 851.378,533.83 H 868.805 C 871.187,533.83 873.118,535.77 873.118,538.15 V 540.31 C 873.118,542.69 871.187,544.62 868.805,544.62"
       style="fill:#b9c4e1;fill-opacity:1;fill-rule:nonzero;stroke:none;stroke-width:0.1"
       id="path256" /><path
       d="M 835.888,544.62 H 818.462 C 816.08,544.62 814.148,542.69 814.148,540.31 V 538.15 C 814.148,535.77 816.08,533.83 818.462,533.83 H 835.888 C 838.27,533.83 840.202,535.77 840.202,538.15 V 540.31 C 840.202,542.69 838.27,544.62 835.888,544.62"
       style="fill:#b9c4e1;fill-opacity:1;fill-rule:nonzero;stroke:none;stroke-width:0.1"
       id="path258" /><path
       d="M 802.972,544.62 H 785.545 C 783.163,544.62 781.232,542.69 781.232,540.31 V 538.15 C 781.232,535.77 783.163,533.83 785.545,533.83 H 802.972 C 805.354,533.83 807.286,535.77 807.286,538.15 V 540.31 C 807.286,542.69 805.354,544.62 802.972,544.62"
       style="fill:#b9c4e1;fill-opacity:1;fill-rule:nonzero;stroke:none;stroke-width:0.1"
       id="path260" /><path
       d="M 770.056,544.62 H 752.629 C 750.247,544.62 748.315,542.69 748.315,540.31 V 538.15 C 748.315,535.77 750.247,533.83 752.629,533.83 H 770.056 C 772.438,533.83 774.369,535.77 774.369,538.15 V 540.31 C 774.369,542.69 772.438,544.62 770.056,544.62"
       style="fill:#b9c4e1;fill-opacity:1;fill-rule:nonzero;stroke:none;stroke-width:0.1"
       id="path262" /><path
       d="M 761.399,494.44 H 748.65 L 851.406,627.22 H 864.156 L 761.399,494.44"
       style="fill:#f1f5f7;fill-opacity:1;fill-rule:nonzero;stroke:none;stroke-width:0.1"
       id="path264" /><path
       d="M 847.179,595.26 L 765.154,489.26 H 774.36 L 856.385,595.26 H 847.179"
       style="fill:#f1f5f7;fill-opacity:1;fill-rule:nonzero;stroke:none;stroke-width:0.1"
       id="path266" /><g
       id="g268"
       transform="scale(0.132519)"><path
         d="M 14092.7,3362.69 C 13807.2,3362.69 13574.8,3595.03 13574.8,3880.57 V 4974 H 16300 V 3880.57 C 16300,3595.03 16067.7,3362.69 15782.1,3362.69 H 14092.7"
         style="fill:#d79793;fill-opacity:1;fill-rule:nonzero;stroke:none"
         id="path270" /></g><g
       id="g272"
       transform="scale(0.130863)"><path
         d="M 15981.8,3611.48 H 14271 C 14095.3,3611.48 13952.8,3753.92 13952.8,3929.68 V 5036.94 H 16300 V 3929.68 C 16300,3753.92 16157.5,3611.48 15981.8,3611.48"
         style="fill:#d0d9f1;fill-opacity:1;fill-rule:nonzero;stroke:none"
         id="path274" /></g><g
       id="g276"
       transform="scale(0.130863)"><path
         d="M 16300,4526.1 H 13952.8 V 4625.9 H 16300 V 4526.1"
         style="fill:#a4acd0;fill-opacity:1;fill-rule:nonzero;stroke:none"
         id="path278" /></g><g
       id="g280"
       transform="scale(0.130863)"><path
         d="M 16300,3979.5 H 13952.8 V 4079.3 H 16300 V 3979.5"
         style="fill:#a4acd0;fill-opacity:1;fill-rule:nonzero;stroke:none"
         id="path282" /></g><g
       id="g284"
       transform="scale(0.13034)"><path
         d="M 16251.7,4760.38 H 16050.1 C 16023.4,4760.38 16001.8,4738.74 16001.8,4712.04 V 4644.45 H 16300 V 4712.04 C 16300,4738.74 16278.4,4760.38 16251.7,4760.38"
         style="fill:#b9c4e1;fill-opacity:1;fill-rule:nonzero;stroke:none"
         id="path286" /></g><g
       id="g288"
       transform="scale(0.126487)"><path
         d="M 16250.2,4905.4 H 16042.5 C 16015,4905.4 15992.7,4883.11 15992.7,4855.59 V 4785.94 H 16300 V 4855.59 C 16300,4883.11 16277.7,4905.4 16250.2,4905.4"
         style="fill:#b9c4e1;fill-opacity:1;fill-rule:nonzero;stroke:none"
         id="path290" /></g><g
       id="g292"
       transform="scale(0.122633)"><path
         d="M 16248.7,5059.56 H 16034.4 C 16006.1,5059.56 15983,5036.57 15983,5008.19 V 4936.35 H 16300 V 5008.19 C 16300,5036.57 16277.1,5059.56 16248.7,5059.56"
         style="fill:#b9c4e1;fill-opacity:1;fill-rule:nonzero;stroke:none"
         id="path294" /></g><g
       id="g296"
       transform="scale(0.11878)"><path
         d="M 16247,5223.7 H 16025.8 C 15996.5,5223.7 15972.8,5199.96 15972.8,5170.66 V 5096.49 H 16300 V 5170.66 C 16300,5199.96 16276.3,5223.7 16247,5223.7"
         style="fill:#b9c4e1;fill-opacity:1;fill-rule:nonzero;stroke:none"
         id="path298" /></g><g
       id="g300"
       transform="scale(0.114926)"><path
         d="M 16245.2,5398.85 H 16016.5 C 15986.3,5398.85 15961.7,5374.31 15961.7,5344.03 V 5267.37 H 16300 V 5344.03 C 16300,5374.31 16275.5,5398.85 16245.2,5398.85"
         style="fill:#b9c4e1;fill-opacity:1;fill-rule:nonzero;stroke:none"
         id="path302" /></g><g
       id="g304"
       transform="scale(0.129723)"><path
         d="M 16103.4,4398.07 H 16300 V 4115.16 H 16103.4 V 4398.07"
         style="fill:#b9c4e1;fill-opacity:1;fill-rule:nonzero;stroke:none"
         id="path306" /></g><g
       id="g308"
       transform="scale(0.12891)"><path
         d="M 16205,4454.74 H 16300 V 4141.11 H 16205 V 4454.74"
         style="fill:#b9c4e1;fill-opacity:1;fill-rule:nonzero;stroke:none"
         id="path310" /></g><g
       id="g312"
       transform="scale(0.127269)"><path
         d="M 16099.6,4482.86 H 16300 V 4194.49 H 16099.6 V 4482.86"
         style="fill:#b9c4e1;fill-opacity:1;fill-rule:nonzero;stroke:none"
         id="path314" /></g><g
       id="g316"
       transform="scale(0.126456)"><path
         d="M 16203.1,4541.17 H 16300 V 4221.45 H 16203.1 V 4541.17"
         style="fill:#b9c4e1;fill-opacity:1;fill-rule:nonzero;stroke:none"
         id="path318" /></g><g
       id="g320"
       transform="scale(0.124816)"><path
         d="M 16095.7,4570.97 H 16300 V 4276.94 H 16095.7 V 4570.97"
         style="fill:#b9c4e1;fill-opacity:1;fill-rule:nonzero;stroke:none"
         id="path322" /></g><g
       id="g324"
       transform="scale(0.124004)"><path
         d="M 16201.1,4630.99 H 16300 V 4304.95 H 16201.1 V 4630.99"
         style="fill:#b9c4e1;fill-opacity:1;fill-rule:nonzero;stroke:none"
         id="path326" /></g><g
       id="g328"
       transform="scale(0.122363)"><path
         d="M 16091.6,4662.62 H 16300 V 4362.69 H 16091.6 V 4662.62"
         style="fill:#b9c4e1;fill-opacity:1;fill-rule:nonzero;stroke:none"
         id="path330" /></g><g
       id="g332"
       transform="scale(0.12155)"><path
         d="M 16199.1,4724.47 H 16300 V 4391.85 H 16199.1 V 4724.47"
         style="fill:#b9c4e1;fill-opacity:1;fill-rule:nonzero;stroke:none"
         id="path334" /></g><g
       id="g336"
       transform="scale(0.119678)"><path
         d="M 16279.8,4511.28 H 16198 C 16186.8,4511.28 16177.7,4502.17 16177.7,4490.97 V 4480.86 C 16177.7,4469.66 16186.8,4460.56 16198,4460.56 H 16279.8 C 16291,4460.56 16300,4469.66 16300,4480.86 V 4490.97 C 16300,4502.17 16291,4511.28 16279.8,4511.28"
         style="fill:#b9c4e1;fill-opacity:1;fill-rule:nonzero;stroke:none"
         id="path338" /></g><g
       id="g340"
       transform="scale(0.118543)"><path
         d="M 16279.6,4554.47 H 16196.9 C 16185.6,4554.47 16176.5,4545.27 16176.5,4533.97 V 4523.76 C 16176.5,4512.46 16185.6,4503.26 16196.9,4503.26 H 16279.6 C 16290.9,4503.26 16300,4512.46 16300,4523.76 V 4533.97 C 16300,4545.27 16290.9,4554.47 16279.6,4554.47"
         style="fill:#b9c4e1;fill-opacity:1;fill-rule:nonzero;stroke:none"
         id="path342" /></g><g
       id="g344"
       transform="scale(0.117408)"><path
         d="M 16279.4,4598.5 H 16195.9 C 16184.5,4598.5 16175.3,4589.21 16175.3,4577.8 V 4567.49 C 16175.3,4556.08 16184.5,4546.8 16195.9,4546.8 H 16279.4 C 16290.8,4546.8 16300,4556.08 16300,4567.49 V 4577.8 C 16300,4589.21 16290.8,4598.5 16279.4,4598.5"
         style="fill:#b9c4e1;fill-opacity:1;fill-rule:nonzero;stroke:none"
         id="path346" /></g><g
       id="g348"
       transform="scale(0.116273)"><path
         d="M 16279.1,4643.38 H 16194.9 C 16183.4,4643.38 16174,4634.01 16174,4622.48 V 4612.08 C 16174,4600.55 16183.4,4591.18 16194.9,4591.18 H 16279.1 C 16290.6,4591.18 16300,4600.55 16300,4612.08 V 4622.48 C 16300,4634.01 16290.6,4643.38 16279.1,4643.38"
         style="fill:#b9c4e1;fill-opacity:1;fill-rule:nonzero;stroke:none"
         id="path350" /></g><g
       id="g352"
       transform="scale(0.130863)"><path
         d="M 16300,4200.26 V 4286.31 L 15826.9,3611.48 H 15887.3 L 16300,4200.26"
         style="fill:#f1f5f7;fill-opacity:1;fill-rule:nonzero;stroke:none"
         id="path354" /></g><g
       id="g356"
       transform="scale(0.130863)"><path
         d="M 15640.1,3611.48 H 15760.8 L 16300,4380.68 V 4552.69 L 15640.1,3611.48"
         style="fill:#f1f5f7;fill-opacity:1;fill-rule:nonzero;stroke:none"
         id="path358" /></g><g
       id="g360"
       transform="scale(0.135015)"><path
         d="M 16300,6992.18 H 15896 V 4882.04 H 16300 V 6992.18"
         style="fill:#586aac;fill-opacity:1;fill-rule:nonzero;stroke:none"
         id="path362" /></g><g
       id="g364"
       transform="scale(0.134241)"><path
         d="M 16300,7032.54 H 15997.7 V 4910.22 H 16300 V 7032.54"
         style="fill:#c0cae6;fill-opacity:1;fill-rule:nonzero;stroke:none"
         id="path366" /></g><g
       id="g368"
       transform="scale(0.134241)"><path
         d="M 16300,4958.04 V 5098.61 C 16285.4,5109.41 16267.4,5115.89 16247.9,5115.89 C 16234.1,5115.89 16221.1,5112.61 16209.5,5106.95 C 16199.1,5133.18 16173.6,5151.8 16143.6,5151.8 C 16139.7,5151.8 16135.9,5151.43 16132.2,5150.83 C 16117.2,5212.96 16063.3,5259.81 15997.7,5264.13 V 4910.22 H 16247.9 C 16247.9,4920.79 16246.8,4931 16244.7,4940.91 C 16245.8,4940.91 16246.8,4940.76 16247.9,4940.76 C 16267.4,4940.76 16285.4,4947.24 16300,4958.04"
         style="fill:#a4b3cf;fill-opacity:1;fill-rule:nonzero;stroke:none"
         id="path370" /></g><g
       id="g372"
       transform="scale(0.131751)"><path
         d="M 13733.5,7165.42 H 16300 V 5003 H 13733.5 V 7165.42"
         style="fill:#7889c8;fill-opacity:1;fill-rule:nonzero;stroke:none"
         id="path374" /></g><g
       id="g376"
       transform="scale(0.130801)"><path
         d="M 13951.7,7217.48 H 16300 V 5039.35 H 13951.7 V 7217.48"
         style="fill:#d0d9f1;fill-opacity:1;fill-rule:nonzero;stroke:none"
         id="path378" /></g><g
       id="g380"
       transform="scale(0.130801)"><path
         d="M 16300,6493.85 C 16270.2,6565.71 16199.3,6616.24 16116.7,6616.24 C 16092.4,6616.24 16069.2,6611.87 16047.7,6603.91 C 16048.3,6607.6 16048.8,6611.36 16048.8,6615.22 C 16048.8,6652.66 16018.4,6683.01 15981,6683.01 C 15943.5,6683.01 15913.2,6652.66 15913.2,6615.22 C 15913.2,6612.44 15913.4,6609.72 15913.7,6607.03 C 15899.6,6612.23 15884.4,6615.22 15868.5,6615.22 C 15797.6,6615.22 15740,6558.61 15738.2,6488.11 C 15734,6485.09 15730.1,6481.91 15726.3,6478.56 C 15721.2,6522.99 15683.5,6557.5 15637.7,6557.5 C 15610.3,6557.5 15585.9,6545.15 15569.5,6525.78 C 15558.9,6530.2 15547.3,6532.66 15535.1,6532.66 C 15508.2,6532.66 15484.1,6520.69 15467.7,6501.84 C 15431.5,6549.38 15374.2,6580.08 15309.9,6580.08 C 15217.8,6580.08 15140.4,6517.42 15118,6432.46 C 15115.2,6432.63 15112.5,6432.87 15109.7,6432.87 C 15035.9,6432.87 14976.2,6373.06 14976.2,6299.28 C 14976.2,6298.57 14976.2,6297.88 14976.2,6297.16 C 14930.4,6288.23 14892.1,6258.98 14870.6,6219.27 H 15141.3 H 15195.7 H 15424 H 16221.5 H 16300 V 6493.85"
         style="fill:#a4acd0;fill-opacity:1;fill-rule:nonzero;stroke:none"
         id="path382" /></g><g
       id="g384"
       transform="scale(0.130801)"><path
         d="M 14641.7,6219.27 H 14912.4 H 14966.8 H 15195.2 H 15992.6 H 16300 V 6431.14 C 16267.4,6454.44 16227.7,6468.19 16184.6,6468.19 C 16148.2,6468.19 16114.2,6458.37 16084.9,6441.29 C 16073.2,6539.81 15989.5,6616.24 15887.8,6616.24 C 15863.6,6616.24 15840.4,6611.87 15818.9,6603.91 C 15819.5,6607.6 15819.9,6611.36 15819.9,6615.22 C 15819.9,6652.66 15789.5,6683.01 15752.1,6683.01 C 15714.7,6683.01 15684.3,6652.66 15684.3,6615.22 C 15684.3,6612.44 15684.5,6609.72 15684.9,6607.03 C 15670.7,6612.23 15655.6,6615.22 15639.7,6615.22 C 15568.7,6615.22 15511.2,6558.61 15509.3,6488.11 C 15505.2,6485.09 15501.2,6481.91 15497.5,6478.56 C 15492.3,6522.99 15454.6,6557.5 15408.8,6557.5 C 15381.4,6557.5 15357,6545.15 15340.6,6525.78 C 15330.1,6530.2 15318.4,6532.66 15306.3,6532.66 C 15279.3,6532.66 15255.3,6520.69 15238.8,6501.84 C 15202.6,6549.38 15145.4,6580.08 15081,6580.08 C 14989,6580.08 14911.6,6517.42 14889.2,6432.46 C 14886.4,6432.63 14883.6,6432.87 14880.8,6432.87 C 14807,6432.87 14747.3,6373.06 14747.3,6299.28 C 14747.3,6298.57 14747.3,6297.88 14747.3,6297.16 C 14701.6,6288.23 14663.2,6258.98 14641.7,6219.27"
         style="fill:#b9c4e1;fill-opacity:1;fill-rule:nonzero;stroke:none"
         id="path386" /></g><g
       id="g388"
       transform="scale(0.135852)"><path
         d="M 16189.9,6904.13 H 13539.2 C 13478.4,6904.13 13429.1,6953.44 13429.1,7014.27 V 7470.19 C 13429.1,7531.01 13478.4,7580.32 13539.2,7580.32 H 16189.9 C 16250.7,7580.32 16300,7531.01 16300,7470.19 V 7014.27 C 16300,6953.44 16250.7,6904.13 16189.9,6904.13"
         style="fill:#dbb26d;fill-opacity:1;fill-rule:nonzero;stroke:none"
         id="path390" /></g><g
       id="g392"
       transform="scale(0.133342)"><path
         d="M 16187.8,7034.08 H 13487.2 C 13425.3,7034.08 13375,7084.31 13375,7146.29 V 7610.79 C 13375,7672.76 13425.3,7723 13487.2,7723 H 16187.8 C 16249.8,7723 16300,7672.76 16300,7610.79 V 7146.29 C 16300,7084.31 16249.8,7034.08 16187.8,7034.08"
         style="fill:#fcd889;fill-opacity:1;fill-rule:nonzero;stroke:none"
         id="path394" /></g><g
       id="g396"
       transform="scale(0.115276)"><path
         d="M 16112.3,8556.87 H 16170.9 C 16210.4,8556.87 16232.8,8574.79 16232.8,8610.63 C 16232.8,8645.58 16210.4,8663.05 16170.9,8663.05 H 16112.3 Z M 16174.6,8721.74 C 16254.3,8721.74 16300,8682.31 16300,8612.87 C 16300,8539.84 16254.3,8497.73 16174.6,8497.73 H 16112.3 V 8408.13 H 16041.5 V 8721.74 H 16174.6"
         style="fill:#ca2a56;fill-opacity:1;fill-rule:nonzero;stroke:none"
         id="path398" /></g><g
       id="g400"
       transform="scale(0.11782)"><path
         d="M 16041.4,8379.99 C 16041.4,8326.06 16084.8,8283.99 16136,8283.99 C 16187.4,8283.99 16229,8326.06 16229,8379.99 C 16229,8433.9 16187.4,8475.11 16136,8475.11 C 16084.3,8475.11 16041.4,8433.9 16041.4,8379.99 Z M 16300,8379.99 C 16300,8291.44 16229,8223.5 16135.2,8223.5 C 16041.4,8223.5 15970.3,8291 15970.3,8379.99 C 15970.3,8469.4 16041.4,8535.6 16135.2,8535.6 C 16229,8535.6 16300,8468.96 16300,8379.99"
         style="fill:#ca2a56;fill-opacity:1;fill-rule:nonzero;stroke:none"
         id="path402" /></g><g
       id="g404"
       transform="scale(0.119978)"><path
         d="M 16119.6,8221.53 H 16176.1 C 16213.9,8221.53 16235.4,8238.75 16235.4,8273.19 C 16235.4,8306.76 16213.9,8323.55 16176.1,8323.55 H 16119.6 Z M 16179.5,8379.94 C 16256.1,8379.94 16300,8342.06 16300,8275.34 C 16300,8205.17 16256.1,8164.71 16179.5,8164.71 H 16119.6 V 8078.62 H 16051.6 V 8379.94 H 16179.5"
         style="fill:#ca2a56;fill-opacity:1;fill-rule:nonzero;stroke:none"
         id="path406" /></g><g
       id="g408"
       transform="scale(0.122199)"><path
         d="M 16299.6,8180.73 L 16260.7,8133.4 C 16240.4,8156.64 16211.3,8171.85 16183.8,8171.85 C 16133.1,8171.85 16093.8,8132.54 16093.8,8080.99 C 16093.8,8029.42 16133.1,7989.69 16183.8,7989.69 C 16210.5,7989.69 16239.6,8003.22 16260.7,8024.35 L 16300,7981.67 C 16268.7,7949.55 16223.6,7928.84 16180.4,7928.84 C 16092.1,7928.84 16025.4,7994.34 16025.4,8080.14 C 16025.4,8165.51 16093.4,8229.75 16183,8229.75 C 16225.7,8229.75 16270.5,8210.74 16299.6,8180.73"
         style="fill:#ca2a56;fill-opacity:1;fill-rule:nonzero;stroke:none"
         id="path410" /></g><g
       id="g412"
       transform="scale(0.124677)"><path
         d="M 16055.6,7919.14 C 16055.6,7868.18 16096.7,7828.42 16145.1,7828.42 C 16193.6,7828.42 16232.9,7868.18 16232.9,7919.14 C 16232.9,7970.09 16193.6,8009.03 16145.1,8009.03 C 16096.2,8009.03 16055.6,7970.09 16055.6,7919.14 Z M 16300,7919.14 C 16300,7835.46 16232.9,7771.26 16144.2,7771.26 C 16055.6,7771.26 15988.6,7835.05 15988.6,7919.14 C 15988.6,8003.64 16055.6,8066.19 16144.2,8066.19 C 16232.9,8066.19 16300,8003.22 16300,7919.14"
         style="fill:#ca2a56;fill-opacity:1;fill-rule:nonzero;stroke:none"
         id="path414" /></g><g
       id="g416"
       transform="scale(0.126936)"><path
         d="M 16175.8,7770.85 C 16211.3,7770.85 16231.6,7787.12 16231.6,7819.68 C 16231.6,7851.41 16211.3,7867.28 16175.8,7867.28 H 16116.4 V 7770.85 Z M 16182,7717.15 H 16175.8 H 16116.4 V 7635.77 H 16052.2 V 7920.58 H 16175.8 C 16250.4,7920.58 16292.7,7884.77 16292.7,7821.71 C 16292.7,7777.77 16273.9,7746.03 16239.3,7729.76 L 16300,7635.77 H 16227.1 L 16182,7717.15"
         style="fill:#ca2a56;fill-opacity:1;fill-rule:nonzero;stroke:none"
         id="path418" /></g><g
       id="g420"
       transform="scale(0.129309)"><path
         d="M 16242.5,7495.64 L 16107.1,7674.97 V 7495.64 H 16046.8 V 7775.22 H 16104.3 L 16240.1,7595.49 V 7775.22 H 16300 V 7495.64 H 16242.5"
         style="fill:#ca2a56;fill-opacity:1;fill-rule:nonzero;stroke:none"
         id="path422" /></g><g
       id="g424"
       transform="scale(0.130801)"><path
         d="M 16300,6095 H 13951.7 V 6219.27 H 16300 V 6095"
         style="fill:#7889c8;fill-opacity:1;fill-rule:nonzero;stroke:none"
         id="path426" /></g><g
       id="g428"
       transform="scale(0.134587)"><path
         d="M 16300,4969.35 V 4897.5 H 15956.5 V 4969.35 H 16300"
         style="fill:#586aac;fill-opacity:1;fill-rule:nonzero;stroke:none"
         id="path430" /></g><g
       id="g432"
       transform="scale(0.130801)"><path
         d="M 16292,5410.98 C 16289.2,5452.42 16254.8,5485.22 16212.6,5485.22 C 16168.6,5485.22 16133,5449.52 16133,5405.56 C 16133,5401.96 16133.3,5398.44 16133.7,5395 C 16131.2,5395.16 16128.7,5395.39 16126.1,5395.39 C 16083.7,5395.39 16045.7,5376.73 16019.6,5347.22 C 15994.6,5388.28 15949.6,5415.72 15898.1,5415.72 C 15868.7,5415.72 15841.4,5406.78 15818.7,5391.49 C 15786.2,5407.01 15749.9,5415.72 15711.5,5415.72 C 15587.9,5415.72 15485.4,5325.82 15465.8,5207.93 C 15428.8,5229.56 15385.8,5242.1 15339.8,5242.1 C 15286.1,5242.1 15236.4,5224.98 15195.7,5196.08 C 15176.5,5230.02 15140.1,5252.96 15098.3,5252.96 C 15090.2,5252.96 15082.3,5252.04 15074.6,5250.44 C 15049.5,5282.85 15010.3,5303.87 14966.1,5303.87 C 14890.3,5303.87 14828.8,5242.33 14828.8,5166.49 C 14828.8,5109 14864.2,5059.84 14914.3,5039.35 H 15017.6 C 15023.9,5041.95 15030,5044.93 15035.7,5048.37 C 15040.8,5044.85 15046.3,5041.95 15051.9,5039.35 H 16300 V 5415.26 C 16297.3,5413.81 16294.6,5412.51 16292,5410.98"
         style="fill:#a4acd0;fill-opacity:1;fill-rule:nonzero;stroke:none"
         id="path434" /></g><g
       id="g436"
       transform="scale(0.130801)"><path
         d="M 16300,5428.03 C 16272.3,5438.58 16242.3,5444.47 16210.9,5444.47 C 16165.4,5444.47 16122.7,5432.24 16086,5410.98 C 16083.3,5452.42 16048.8,5485.22 16006.7,5485.22 C 15962.6,5485.22 15927,5449.52 15927,5405.56 C 15927,5401.96 15927.3,5398.44 15927.8,5395 C 15925.2,5395.16 15922.7,5395.39 15920.2,5395.39 C 15877.8,5395.39 15839.8,5376.73 15813.6,5347.22 C 15788.6,5388.28 15743.7,5415.72 15692.1,5415.72 C 15662.7,5415.72 15635.3,5406.78 15612.7,5391.49 C 15580.2,5407.01 15543.8,5415.72 15505.4,5415.72 C 15382,5415.72 15279.4,5325.82 15259.7,5207.93 C 15222.8,5229.56 15179.8,5242.1 15133.9,5242.1 C 15080.1,5242.1 15030.4,5224.98 14989.8,5196.08 C 14970.5,5230.02 14934.1,5252.96 14892.4,5252.96 C 14884.3,5252.96 14876.3,5252.04 14868.7,5250.44 C 14843.6,5282.85 14804.4,5303.87 14760.1,5303.87 C 14684.3,5303.87 14622.8,5242.33 14622.8,5166.49 C 14622.8,5109 14658.2,5059.84 14708.3,5039.35 H 14811.6 C 14817.9,5041.95 14824,5044.93 14829.7,5048.37 C 14834.9,5044.85 14840.3,5041.95 14845.9,5039.35 H 16300 V 5428.03"
         style="fill:#b9c4e1;fill-opacity:1;fill-rule:nonzero;stroke:none"
         id="path438" /></g><g
       id="g440"
       transform="scale(0.131751)"><path
         d="M 13733.5,5078.75 V 5003 H 16300 V 5078.75 H 13733.5"
         style="fill:#7889c8;fill-opacity:1;fill-rule:nonzero;stroke:none"
         id="path442" /></g><g
       id="g444"
       transform="scale(0.134172)"><path
         d="M 16199.2,6202.24 C 16186.2,6202.24 16173.8,6199.7 16162.3,6195.22 C 16150.9,6199.7 16138.6,6202.24 16125.6,6202.24 C 16106.7,6202.24 16089.2,6196.98 16074.1,6188 C 16057.1,6211.33 16033.4,6229.46 16005.8,6239.58 V 5963.22 C 16033.4,5973.33 16057.1,5991.46 16074.1,6014.79 C 16089.2,6005.8 16106.7,6000.55 16125.6,6000.55 C 16138.6,6000.55 16150.9,6003.09 16162.3,6007.57 C 16173.8,6003.09 16186.2,6000.55 16199.2,6000.55 C 16254.8,6000.55 16300,6045.7 16300,6101.4 C 16300,6157.09 16254.8,6202.24 16199.2,6202.24"
         style="fill:#a4b3cf;fill-opacity:1;fill-rule:nonzero;stroke:none"
         id="path446" /></g><g
       id="g448"
       transform="scale(0.134485)"><path
         d="M 15968.6,6048.87 V 5928.01 H 16300 V 6048.87 H 15968.6"
         style="fill:#586aac;fill-opacity:1;fill-rule:nonzero;stroke:none"
         id="path450" /></g><g
       id="g452"
       transform="scale(0.127753)"><path
         d="M 15252.8,5334.84 H 15396.8 L 16300,6693.9 H 16156 L 15252.8,5334.84"
         style="fill:#f1f5f7;fill-opacity:1;fill-rule:nonzero;stroke:none"
         id="path454" /></g><g
       id="g456"
       transform="scale(0.129086)"><path
         d="M 16228.8,6624.77 L 15334.9,5279.74 H 15406.1 L 16300,6624.77 H 16228.8"
         style="fill:#f1f5f7;fill-opacity:1;fill-rule:nonzero;stroke:none"
         id="path458" /></g><path
       d="M 1435.34,793.63 V 793.62 C 1431.72,793.5 1428.44,791.06 1427.42,787.38 L 1394.88,669.94 C 1394.17,667.38 1394.7,664.63 1396.31,662.51 C 1397.92,660.4 1400.43,659.15 1403.09,659.15 H 1464.58 H 1484.72 L 1516.23,793.63 H 1435.34"
       style="fill:#b9c4e1;fill-opacity:1;fill-rule:nonzero;stroke:none;stroke-width:0.1"
       id="path460" /><path
       d="M 1544.04,659.15 H 1482.55 C 1479.89,659.15 1477.38,660.4 1475.77,662.51 C 1474.16,664.63 1473.63,667.38 1474.34,669.94 L 1506.89,787.38 C 1508.14,791.92 1512.84,794.57 1517.36,793.32 C 1521.9,792.06 1524.55,787.37 1523.29,782.84 L 1493.74,676.18 H 1544.04 C 1548.74,676.18 1552.55,672.37 1552.55,667.67 C 1552.55,662.96 1548.74,659.15 1544.04,659.15"
       style="fill:#7889c8;fill-opacity:1;fill-rule:nonzero;stroke:none;stroke-width:0.1"
       id="path462" /><path
       d="M 1461.45,761.6 H 1433.64 C 1431.76,761.6 1430.24,763.13 1430.24,765.01 C 1430.24,766.89 1431.76,768.41 1433.64,768.41 H 1461.45 C 1463.33,768.41 1464.86,766.89 1464.86,765.01 C 1464.86,763.13 1463.33,761.6 1461.45,761.6"
       style="fill:#a4acd0;fill-opacity:1;fill-rule:nonzero;stroke:none;stroke-width:0.1"
       id="path464" /><path
       d="M 1453.98,735.8 H 1426.17 C 1424.29,735.8 1422.76,737.33 1422.76,739.21 C 1422.76,741.09 1424.29,742.61 1426.17,742.61 H 1453.98 C 1455.86,742.61 1457.39,741.09 1457.39,739.21 C 1457.39,737.33 1455.86,735.8 1453.98,735.8"
       style="fill:#a4acd0;fill-opacity:1;fill-rule:nonzero;stroke:none;stroke-width:0.1"
       id="path466" /><path
       d="M 1446.51,710 H 1418.7 C 1416.81,710 1415.29,711.52 1415.29,713.4 C 1415.29,715.29 1416.81,716.81 1418.7,716.81 H 1446.51 C 1448.39,716.81 1449.91,715.29 1449.91,713.4 C 1449.91,711.52 1448.39,710 1446.51,710"
       style="fill:#a4acd0;fill-opacity:1;fill-rule:nonzero;stroke:none;stroke-width:0.1"
       id="path468" /><path
       d="M 1439.03,684.2 H 1411.22 C 1409.34,684.2 1407.82,685.72 1407.82,687.6 C 1407.82,689.48 1409.34,691.01 1411.22,691.01 H 1439.03 C 1440.92,691.01 1442.44,689.48 1442.44,687.6 C 1442.44,685.72 1440.92,684.2 1439.03,684.2"
       style="fill:#a4acd0;fill-opacity:1;fill-rule:nonzero;stroke:none;stroke-width:0.1"
       id="path470" /><path
       d="M 583.392,658.14 H 521.904 C 519.244,658.14 516.738,659.38 515.127,661.5 C 513.518,663.61 512.989,666.36 513.699,668.92 L 546.241,786.37 C 547.496,790.9 552.191,793.55 556.719,792.3 C 561.25,791.04 563.906,786.35 562.65,781.82 L 533.097,675.16 H 583.392 C 588.095,675.16 591.906,671.35 591.906,666.65 C 591.906,661.95 588.095,658.14 583.392,658.14"
       style="fill:#7889c8;fill-opacity:1;fill-rule:nonzero;stroke:none;stroke-width:0.1"
       id="path472" /><path
       d="M 1612.2,659.15 H 1573.44 L 1565.92,722.37 H 1619.72 L 1612.2,659.15"
       style="fill:#7889c8;fill-opacity:1;fill-rule:nonzero;stroke:none;stroke-width:0.1"
       id="path474" /><path
       d="M 1610.19,722.37 L 1605.33,659.15 H 1612.2 L 1619.72,722.37 H 1610.19"
       style="fill:#586aac;fill-opacity:1;fill-rule:nonzero;stroke:none;stroke-width:0.1"
       id="path476" /><path
       d="M 1619.57,733.32 H 1566.06 C 1561.91,733.32 1558.55,729.96 1558.55,725.81 C 1558.55,721.66 1561.91,718.3 1566.06,718.3 H 1619.57 C 1623.72,718.3 1627.08,721.66 1627.08,725.81 C 1627.08,729.96 1623.72,733.32 1619.57,733.32"
       style="fill:#c7cde9;fill-opacity:1;fill-rule:nonzero;stroke:none;stroke-width:0.1"
       id="path478" /><path
       d="M 1619.57,733.32 H 1610.19 C 1614.33,733.32 1617.7,729.96 1617.7,725.81 C 1617.7,721.66 1614.33,718.3 1610.19,718.3 H 1619.57 C 1623.72,718.3 1627.08,721.66 1627.08,725.81 C 1627.08,729.96 1623.72,733.32 1619.57,733.32"
       style="fill:#7889c8;fill-opacity:1;fill-rule:nonzero;stroke:none;stroke-width:0.1"
       id="path480" /><g
       id="g482"
       transform="scale(0.104063)"><path
         d="M 16227.7,6334.17 H 15855.3 L 15783,6941.69 H 16300 L 16227.7,6334.17"
         style="fill:#7889c8;fill-opacity:1;fill-rule:nonzero;stroke:none"
         id="path484" /></g><g
       id="g486"
       transform="scale(0.104063)"><path
         d="M 16208.4,6941.69 L 16161.7,6334.17 H 16227.7 L 16300,6941.69 H 16208.4"
         style="fill:#586aac;fill-opacity:1;fill-rule:nonzero;stroke:none"
         id="path488" /></g><g
       id="g490"
       transform="scale(0.104514)"><path
         d="M 16228.1,7016.47 H 15716.2 C 15676.4,7016.47 15644.3,6984.32 15644.3,6944.61 C 15644.3,6904.91 15676.4,6872.76 15716.2,6872.76 H 16228.1 C 16267.9,6872.76 16300,6904.91 16300,6944.61 C 16300,6984.32 16267.9,7016.47 16228.1,7016.47"
         style="fill:#c7cde9;fill-opacity:1;fill-rule:nonzero;stroke:none"
         id="path492" /></g><g
       id="g494"
       transform="scale(0.104514)"><path
         d="M 16228.1,7016.47 H 16138.4 C 16178,7016.47 16210.3,6984.32 16210.3,6944.61 C 16210.3,6904.91 16178,6872.76 16138.4,6872.76 H 16228.1 C 16267.9,6872.76 16300,6904.91 16300,6944.61 C 16300,6984.32 16267.9,7016.47 16228.1,7016.47"
         style="fill:#7889c8;fill-opacity:1;fill-rule:nonzero;stroke:none"
         id="path496" /></g><g
       id="g498"
       transform="scale(0.108756)"><path
         d="M 16230.9,6060.82 H 15874.5 L 15805.3,6642.13 H 16300 L 16230.9,6060.82"
         style="fill:#7889c8;fill-opacity:1;fill-rule:nonzero;stroke:none"
         id="path500" /></g><g
       id="g502"
       transform="scale(0.108756)"><path
         d="M 16212.4,6642.13 L 16167.7,6060.82 H 16230.9 L 16300,6642.13 H 16212.4"
         style="fill:#586aac;fill-opacity:1;fill-rule:nonzero;stroke:none"
         id="path504" /></g><g
       id="g506"
       transform="scale(0.109207)"><path
         d="M 16231.2,6714.93 H 15741.2 C 15703.2,6714.93 15672.5,6684.17 15672.5,6646.16 C 15672.5,6608.16 15703.2,6577.4 15741.2,6577.4 H 16231.2 C 16269.2,6577.4 16300,6608.16 16300,6646.16 C 16300,6684.17 16269.2,6714.93 16231.2,6714.93"
         style="fill:#c7cde9;fill-opacity:1;fill-rule:nonzero;stroke:none"
         id="path508" /></g><g
       id="g510"
       transform="scale(0.109207)"><path
         d="M 16231.2,6714.93 H 16145.3 C 16183.2,6714.93 16214.1,6684.17 16214.1,6646.16 C 16214.1,6608.16 16183.2,6577.4 16145.3,6577.4 H 16231.2 C 16269.2,6577.4 16300,6608.16 16300,6646.16 C 16300,6684.17 16269.2,6714.93 16231.2,6714.93"
         style="fill:#7889c8;fill-opacity:1;fill-rule:nonzero;stroke:none"
         id="path512" /></g></g></svg>
