<?xml version="1.0" encoding="UTF-8" standalone="no"?>
<svg
   xmlns:dc="http://purl.org/dc/elements/1.1/"
   xmlns:cc="http://creativecommons.org/ns#"
   xmlns:rdf="http://www.w3.org/1999/02/22-rdf-syntax-ns#"
   xmlns:svg="http://www.w3.org/2000/svg"
   xmlns="http://www.w3.org/2000/svg"
   xmlns:sodipodi="http://sodipodi.sourceforge.net/DTD/sodipodi-0.dtd"
   xmlns:inkscape="http://www.inkscape.org/namespaces/inkscape"
   version="1.1"
   id="svg2"
   xml:space="preserve"
   width="1591.6769"
   height="1031.0394"
   viewBox="0 0 1591.6769 1031.0394"
   sodipodi:docname="fair.svg"
   inkscape:version="1.0.2 (394de47547, 2021-03-26)"><metadata
     id="metadata8"><rdf:RDF><cc:Work
         rdf:about=""><dc:format>image/svg+xml</dc:format><dc:type
           rdf:resource="http://purl.org/dc/dcmitype/StillImage" /><dc:title /></cc:Work></rdf:RDF></metadata><defs
     id="defs6"><clipPath
       clipPathUnits="userSpaceOnUse"
       id="clipPath20"><path
         d="M 398.227,1192.936 C 298.094,1104.097 377.71,1093.566 227.695,1030.559 V 1030.559 C 152.574,999.009 100.103,818.733 149.788,700.731 V 700.731 C 199.473,582.729 108.506,444.928 115.46,358.159 V 358.159 C 125.869,228.314 262.972,177.96 343.709,213.153 V 213.153 C 424.447,248.347 511.803,238.115 625.665,159.449 V 159.449 C 739.526,80.78 1056.664,168.652 1118.77,253.531 V 253.531 C 1180.876,338.409 1183.162,382.891 1245.269,473.98 V 473.98 C 1307.374,565.069 1289.802,604.516 1238.797,727.529 V 727.529 C 1201.792,816.776 1242.633,962.805 1188.807,1058.035 V 1058.035 C 1134.983,1153.264 1015.236,1188.288 893.094,1192.428 V 1192.428 C 770.953,1196.569 777.432,1267.415 632.488,1271.009 V 1271.009 C 627.451,1271.134 622.532,1271.195 617.707,1271.195 V 1271.195 C 502.578,1271.193 446.96,1236.172 398.227,1192.936"
         id="path18" /></clipPath><clipPath
       clipPathUnits="userSpaceOnUse"
       id="clipPath116"><path
         d="M 428.751,1009.8 H 465.469 V 1008.1 H 428.751 Z"
         id="path114" /></clipPath><clipPath
       clipPathUnits="userSpaceOnUse"
       id="clipPath156"><path
         d="M 428.751,503.85 H 465.469 V 502.154 H 428.751 Z"
         id="path154" /></clipPath><clipPath
       clipPathUnits="userSpaceOnUse"
       id="clipPath196"><path
         d="M 609.739,577.197 H 646.457 V 575.502 H 609.739 Z"
         id="path194" /></clipPath><clipPath
       clipPathUnits="userSpaceOnUse"
       id="clipPath236"><path
         d="M 247.763,577.197 H 284.48 V 575.502 H 247.763 Z"
         id="path234" /></clipPath><clipPath
       clipPathUnits="userSpaceOnUse"
       id="clipPath276"><path
         d="M 609.739,934.171 H 646.457 V 932.475 H 609.739 Z"
         id="path274" /></clipPath><clipPath
       clipPathUnits="userSpaceOnUse"
       id="clipPath316"><path
         d="M 247.763,934.171 H 284.48 V 932.475 H 247.763 Z"
         id="path314" /></clipPath><clipPath
       clipPathUnits="userSpaceOnUse"
       id="clipPath356"><path
         d="M 683.835,755.327 H 720.553 V 753.631 H 683.835 Z"
         id="path354" /></clipPath><clipPath
       clipPathUnits="userSpaceOnUse"
       id="clipPath396"><path
         d="M 173.667,755.327 H 210.385 V 753.631 H 173.667 Z"
         id="path394" /></clipPath><clipPath
       clipPathUnits="userSpaceOnUse"
       id="clipPath472"><path
         d="M 507.097,563.532 H 890.357 V 345.44 H 507.097 Z"
         id="path470" /></clipPath><clipPath
       clipPathUnits="userSpaceOnUse"
       id="clipPath536"><path
         d="M 488.046,555.591 H 909.408 V 531.241 H 488.046 Z"
         id="path534" /></clipPath><clipPath
       clipPathUnits="userSpaceOnUse"
       id="clipPath766"><path
         d="M 347.53,396.781 H 401.284 V 361.6 H 347.53 Z"
         id="path764" /></clipPath><clipPath
       clipPathUnits="userSpaceOnUse"
       id="clipPath848"><path
         d="M 1029.41,477.687 H 1133.82 V 376.76 H 1029.41 Z"
         id="path846" /></clipPath><clipPath
       clipPathUnits="userSpaceOnUse"
       id="clipPath864"><path
         d="M 989.665,503.098 H 1173.56 V 482.037 H 989.665 Z"
         id="path862" /></clipPath><clipPath
       clipPathUnits="userSpaceOnUse"
       id="clipPath892"><path
         d="M 1000.91,384.156 H 1162.31 V 362.259 H 1000.91 Z"
         id="path890" /></clipPath><clipPath
       clipPathUnits="userSpaceOnUse"
       id="clipPath908"><path
         d="M 989.665,311.18 H 1173.56 V 290.625 H 989.665 Z"
         id="path906" /></clipPath><clipPath
       clipPathUnits="userSpaceOnUse"
       id="clipPath924"><path
         d="M 981.971,301.79 H 1181.25 V 290.045 H 981.971 Z"
         id="path922" /></clipPath><clipPath
       clipPathUnits="userSpaceOnUse"
       id="clipPath960"><path
         d="M 970.491,503.098 H 1192.73 V 486.387 H 970.491 Z"
         id="path958" /></clipPath></defs><sodipodi:namedview
     pagecolor="#ffffff"
     bordercolor="#666666"
     borderopacity="1"
     objecttolerance="10"
     gridtolerance="10"
     guidetolerance="10"
     inkscape:pageopacity="0"
     inkscape:pageshadow="2"
     inkscape:window-width="1848"
     inkscape:window-height="1016"
     id="namedview4"
     showgrid="false"
     inkscape:zoom="0.85499185"
     inkscape:cx="611.28057"
     inkscape:cy="565.04366"
     inkscape:window-x="72"
     inkscape:window-y="27"
     inkscape:window-maximized="1"
     inkscape:current-layer="g10"
     inkscape:document-rotation="0" /><g
     id="g10"
     inkscape:groupmode="layer"
     inkscape:label="County Fair Vector Illustration 1"
     transform="matrix(1.3333333,0,0,-1.3333333,-152.66026,1417.7654)"><g
       id="g24"
       transform="matrix(1,0,0,0.52877578,1307.2922,652.42992)"
       style="fill:#cccccc"><path
         d="M 0,0 C -12.85,-1.48 -14.739,-1.448 -26.412,0.099 C -38.34,1.681 -38.34,-6.227 -45.155,-12.552 C -51.972,-18.877 -60.491,-28.365 -72.42,-31.527 C -84.348,-34.69 -79.235,-28.365 -94.571,-22.04 C -109.907,-15.715 -113.315,-22.04 -130.355,-23.621 C -147.396,-25.202 -157.619,-31.527 -166.14,-39.435 C -174.659,-47.341 -164.436,-58.41 -169.547,-66.316 C -174.659,-74.224 -179.771,-80.549 -189.995,-88.455 C -200.219,-96.362 -215.556,-82.13 -241.115,-75.805 C -266.675,-69.479 -263.267,-90.037 -283.641,-93.452 C -304.015,-96.867 -307.571,-96.362 -338.243,-88.455 C -368.915,-80.549 -365.507,-75.805 -413.219,-63.154 C -460.931,-50.504 -423.442,-74.224 -455.818,-77.386 C -488.194,-80.549 -515.458,-69.479 -578.506,-61.573 C -641.554,-53.666 -653.482,-42.597 -699.49,-28.365 C -745.498,-14.133 -743.794,-15.715 -770.884,-18.819 C -797.974,-21.925 -802.894,-42.21 -837.514,-39.435 C -872.134,-36.659 -953.385,-31.527 -985.882,-37.018 C -1018.378,-42.508 -1113.682,-66.065 -1154.457,-63.154 C -1165.661,-62.354 -1180.351,-52.251 -1192.797,-42.05 V -454.533 H 0 Z"
         style="fill:#cccccc;fill-opacity:1;fill-rule:nonzero;stroke:none"
         id="path26" /></g><g
       id="g28"
       transform="matrix(1,0,0,0.60268949,1308.2529,553.09889)"
       style="fill:#b3b3b3"><path
         d="M 0,0 C -7.67,-0.013 -14.931,0.129 -21.396,0.482 C -64.853,2.854 -39.29,-1.89 -64.853,-6.635 C -90.415,-11.379 -85.303,-11.379 -100.64,-13.751 C -115.978,-16.123 -164.546,-13.751 -220.225,-17.359 C -275.903,-20.967 -251.459,-13.751 -277.021,-16.123 C -302.584,-18.496 -338.371,-35.102 -361.378,-46.962 C -384.384,-58.823 -425.284,-42.218 -445.733,-37.474 C -466.184,-32.729 -486.634,-16.123 -522.421,0.482 C -558.209,17.088 -630.327,20.272 -630.327,20.272 C -630.327,20.272 -670.684,17.088 -693.69,17.088 C -716.696,17.088 -734.59,26.577 -837.889,42.069 C -941.188,57.562 -867.515,33.693 -917.609,26.633 C -967.704,19.571 -967.208,28.949 -982.546,38.438 C -997.884,47.927 -995.328,38.438 -1033.671,38.438 C -1072.015,38.438 -1061.79,36.065 -1100.134,45.555 C -1138.478,55.043 -1112.915,57.416 -1146.146,74.021 C -1162.163,82.025 -1175.806,81.763 -1192.797,83.327 V -349.114 H 0 Z"
         style="fill:#b3b3b3;fill-opacity:1;fill-rule:nonzero;stroke:none"
         id="path30" /></g><g
       id="g58"
       transform="translate(1202.1973,1092.5786)" /><g
       id="g66"
       transform="translate(447.1099,1002.3877)"><path
         d="M 0,0 C -65.123,0 -126.347,-25.36 -172.396,-71.409 C -218.445,-117.458 -243.805,-178.683 -243.805,-243.805 C -243.805,-308.928 -218.445,-370.152 -172.396,-416.201 C -126.347,-462.25 -65.123,-487.61 0,-487.61 C 65.123,-487.61 126.348,-462.25 172.396,-416.201 C 218.445,-370.153 243.805,-308.928 243.805,-243.805 C 243.805,-178.683 218.445,-117.458 172.396,-71.409 C 126.347,-25.36 65.123,0 0,0 M 0,-489.605 C -65.656,-489.605 -127.382,-464.039 -173.808,-417.612 C -220.233,-371.187 -245.801,-309.461 -245.801,-243.805 C -245.801,-178.149 -220.233,-116.423 -173.808,-69.998 C -127.382,-23.572 -65.656,1.996 0,1.996 C 65.656,1.996 127.382,-23.572 173.807,-69.998 C 220.233,-116.423 245.801,-178.149 245.801,-243.805 C 245.801,-309.461 220.233,-371.187 173.807,-417.612 C 127.382,-464.039 65.656,-489.605 0,-489.605"
         style="fill:#55575b;fill-opacity:1;fill-rule:nonzero;stroke:none"
         id="path68" /></g><g
       id="g70"
       transform="translate(447.1099,803.7583)"><path
         d="M 0,0 C -24.91,0 -45.176,-20.266 -45.176,-45.176 C -45.176,-70.086 -24.91,-90.352 0,-90.352 C 24.91,-90.352 45.176,-70.086 45.176,-45.176 C 45.176,-20.266 24.91,0 0,0 M 0,-92.348 C -26.011,-92.348 -47.172,-71.187 -47.172,-45.176 C -47.172,-19.165 -26.011,1.996 0,1.996 C 26.011,1.996 47.172,-19.165 47.172,-45.176 C 47.172,-71.187 26.011,-92.348 0,-92.348"
         style="fill:#55575b;fill-opacity:1;fill-rule:nonzero;stroke:none"
         id="path72" /></g><g
       id="g74"
       transform="translate(447.1099,794.7646)"><path
         d="M 0,0 C -19.951,0 -36.182,-16.231 -36.182,-36.182 C -36.182,-56.133 -19.951,-72.365 0,-72.365 C 19.951,-72.365 36.183,-56.133 36.183,-36.182 C 36.183,-16.231 19.951,0 0,0 M 0,-74.36 C -21.051,-74.36 -38.178,-57.234 -38.178,-36.182 C -38.178,-15.131 -21.051,1.996 0,1.996 C 21.052,1.996 38.178,-15.131 38.178,-36.182 C 38.178,-57.234 21.052,-74.36 0,-74.36"
         style="fill:#55575b;fill-opacity:1;fill-rule:nonzero;stroke:none"
         id="path76" /></g><g
       id="g78"
       transform="translate(447.1099,1011.0947)"><path
         d="M 0,0 C -67.448,0 -130.86,-26.266 -178.553,-73.959 C -226.247,-121.652 -252.513,-185.064 -252.513,-252.512 C -252.513,-319.961 -226.247,-383.372 -178.553,-431.065 C -130.86,-478.759 -67.448,-505.025 0,-505.025 C 67.449,-505.025 130.86,-478.759 178.553,-431.065 C 226.247,-383.372 252.513,-319.961 252.513,-252.512 C 252.513,-185.064 226.247,-121.652 178.553,-73.959 C 130.86,-26.266 67.449,0 0,0 M 0,-509.017 C -68.515,-509.017 -132.929,-482.336 -181.376,-433.888 C -229.823,-385.441 -256.504,-321.027 -256.504,-252.512 C -256.504,-183.998 -229.823,-119.583 -181.376,-71.136 C -132.929,-22.689 -68.515,3.992 0,3.992 C 68.515,3.992 132.929,-22.689 181.376,-71.136 C 229.823,-119.583 256.504,-183.998 256.504,-252.512 C 256.504,-321.027 229.823,-385.441 181.376,-433.888 C 132.929,-482.336 68.515,-509.017 0,-509.017"
         style="fill:#55575b;fill-opacity:1;fill-rule:nonzero;stroke:none"
         id="path80" /></g><g
       id="g82"
       transform="translate(441.1221,506.0693)"><path
         d="M 0,0 H 11.976 V 238.056 L 180.307,69.725 L 188.776,78.194 L 20.445,246.525 H 258.5 V 258.501 H 20.445 L 188.776,426.833 L 180.307,435.3 L 11.976,266.969 V 505.025 H 0 V 266.969 L -168.332,435.3 L -176.799,426.833 L -8.468,258.501 H -246.525 V 246.525 H -8.468 L -176.799,78.194 L -168.332,69.725 L 0,238.056 Z M 15.968,-3.991 H -3.992 V 228.419 L -168.332,64.08 L -182.445,78.194 L -18.106,242.533 H -250.517 V 262.493 H -18.106 L -182.445,426.833 L -168.332,440.946 L -3.992,276.607 V 509.018 H 15.968 V 276.607 L 180.307,440.946 L 194.42,426.833 L 30.082,262.493 H 262.492 V 242.533 H 30.082 L 194.42,78.194 L 180.307,64.08 L 15.968,228.419 Z"
         style="fill:#55575b;fill-opacity:1;fill-rule:nonzero;stroke:none"
         id="path84" /></g><g
       id="g86"
       transform="translate(447.1099,818.7075)"><path
         d="M 0,0 C -33.153,0 -60.125,-26.972 -60.125,-60.125 C -60.125,-93.278 -33.153,-120.25 0,-120.25 C 33.153,-120.25 60.125,-93.278 60.125,-60.125 C 60.125,-26.972 33.153,0 0,0 M 0,-124.242 C -35.354,-124.242 -64.117,-95.479 -64.117,-60.125 C -64.117,-24.771 -35.354,3.992 0,3.992 C 35.354,3.992 64.117,-24.771 64.117,-60.125 C 64.117,-95.479 35.354,-124.242 0,-124.242"
         style="fill:#55575b;fill-opacity:1;fill-rule:nonzero;stroke:none"
         id="path88" /></g><path
       d="M 416.261,956.358 H 413.636 V 995.466 H 416.261 Z"
       style="fill:#55575b;fill-opacity:1;fill-rule:nonzero;stroke:none"
       id="path90" /><path
       d="M 480.584,956.358 H 477.959 V 995.466 H 480.584 Z"
       style="fill:#55575b;fill-opacity:1;fill-rule:nonzero;stroke:none"
       id="path92" /><path
       d="M 429.388,956.358 H 426.763 V 995.466 H 429.388 Z"
       style="fill:#55575b;fill-opacity:1;fill-rule:nonzero;stroke:none"
       id="path94" /><path
       d="M 467.458,956.358 H 464.833 V 995.466 H 467.458 Z"
       style="fill:#55575b;fill-opacity:1;fill-rule:nonzero;stroke:none"
       id="path96" /><path
       d="M 472.292,923.7583 H 421.928 C 415.173,923.7583 409.697,929.2343 409.697,935.9893 V 962.4843 H 484.523 V 935.9893 C 484.523,929.2343 479.047,923.7583 472.292,923.7583"
       style="fill:#ffd223;fill-opacity:1;fill-rule:nonzero;stroke:none"
       id="path100" /><g
       id="g102"
       transform="translate(432.3208,962.4839)"><path
         d="M 0,0 V -27.854 C 0,-29.629 1.439,-31.068 3.214,-31.068 H 26.364 C 28.139,-31.068 29.578,-29.629 29.578,-27.854 V 0 Z"
         style="fill:#ced2d4;fill-opacity:1;fill-rule:nonzero;stroke:none"
         id="path104" /></g><g
       id="g106"
       transform="translate(469.7544,1008.1016)"><path
         d="M 0,0 H -4.286 C -5.235,2.981 -8.026,5.142 -11.322,5.142 H -33.967 C -37.263,5.142 -40.054,2.981 -41.003,0 H -45.289 C -53.445,0 -60.058,-6.612 -60.058,-14.769 H 14.769 C 14.769,-6.612 8.157,0 0,0"
         style="fill:#ced2d4;fill-opacity:1;fill-rule:nonzero;stroke:none"
         id="path108" /></g><g
       id="g110"><g
         id="g112" /><g
         id="g124"><g
           clip-path="url(#clipPath116)"
           opacity="0.300003"
           id="g122"><g
             transform="translate(464.6738,1009.7969)"
             id="g120"><path
               d="M 0,0 H -35.128 C -35.459,-0.525 -35.73,-1.092 -35.923,-1.695 H 0.795 C 0.603,-1.092 0.332,-0.525 0,0"
               style="fill:#8e9298;fill-opacity:1;fill-rule:nonzero;stroke:none"
               id="path118" /></g></g></g></g><g
       id="g126"
       transform="translate(459.3433,959.0142)"><path
         d="M 0,0 H -6.881 C -7.444,0 -7.901,0.457 -7.901,1.02 C -7.901,1.583 -7.444,2.039 -6.881,2.039 H 0 C 0.563,2.039 1.02,1.583 1.02,1.02 C 1.02,0.457 0.563,0 0,0"
         style="fill:#55575b;fill-opacity:1;fill-rule:nonzero;stroke:none"
         id="path128" /></g><path
       d="M 416.261,450.41 H 413.636 V 489.519 H 416.261 Z"
       style="fill:#55575b;fill-opacity:1;fill-rule:nonzero;stroke:none"
       id="path130" /><path
       d="M 480.584,450.41 H 477.959 V 489.519 H 480.584 Z"
       style="fill:#55575b;fill-opacity:1;fill-rule:nonzero;stroke:none"
       id="path132" /><path
       d="M 429.388,450.41 H 426.763 V 489.519 H 429.388 Z"
       style="fill:#55575b;fill-opacity:1;fill-rule:nonzero;stroke:none"
       id="path134" /><path
       d="M 467.458,450.41 H 464.833 V 489.519 H 467.458 Z"
       style="fill:#55575b;fill-opacity:1;fill-rule:nonzero;stroke:none"
       id="path136" /><path
       d="M 472.292,417.8105 H 421.928 C 415.173,417.8105 409.697,423.2875 409.697,430.0415 V 456.5375 H 484.523 V 430.0415 C 484.523,423.2875 479.047,417.8105 472.292,417.8105"
       style="fill:#ffd223;fill-opacity:1;fill-rule:nonzero;stroke:none"
       id="path140" /><g
       id="g142"
       transform="translate(432.3208,456.5371)"><path
         d="M 0,0 V -27.854 C 0,-29.629 1.439,-31.068 3.214,-31.068 H 26.364 C 28.139,-31.068 29.578,-29.629 29.578,-27.854 V 0 Z"
         style="fill:#ced2d4;fill-opacity:1;fill-rule:nonzero;stroke:none"
         id="path144" /></g><g
       id="g146"
       transform="translate(469.7544,502.1543)"><path
         d="M 0,0 H -4.286 C -5.235,2.981 -8.026,5.142 -11.322,5.142 H -33.967 C -37.263,5.142 -40.054,2.981 -41.003,0 H -45.289 C -53.445,0 -60.058,-6.612 -60.058,-14.769 H 14.769 C 14.769,-6.612 8.157,0 0,0"
         style="fill:#ced2d4;fill-opacity:1;fill-rule:nonzero;stroke:none"
         id="path148" /></g><g
       id="g150"><g
         id="g152" /><g
         id="g164"><g
           clip-path="url(#clipPath156)"
           opacity="0.300003"
           id="g162"><g
             transform="translate(464.6738,503.8496)"
             id="g160"><path
               d="M 0,0 H -35.128 C -35.459,-0.524 -35.73,-1.092 -35.923,-1.695 H 0.795 C 0.603,-1.092 0.332,-0.524 0,0"
               style="fill:#8e9298;fill-opacity:1;fill-rule:nonzero;stroke:none"
               id="path158" /></g></g></g></g><g
       id="g166"
       transform="translate(459.3433,453.0674)"><path
         d="M 0,0 H -6.881 C -7.444,0 -7.901,0.456 -7.901,1.019 C -7.901,1.582 -7.444,2.038 -6.881,2.038 H 0 C 0.563,2.038 1.02,1.582 1.02,1.019 C 1.02,0.456 0.563,0 0,0"
         style="fill:#55575b;fill-opacity:1;fill-rule:nonzero;stroke:none"
         id="path168" /></g><path
       d="M 597.249,523.758 H 594.624 V 562.866 H 597.249 Z"
       style="fill:#55575b;fill-opacity:1;fill-rule:nonzero;stroke:none"
       id="path170" /><path
       d="M 661.573,523.758 H 658.948 V 562.866 H 661.573 Z"
       style="fill:#55575b;fill-opacity:1;fill-rule:nonzero;stroke:none"
       id="path172" /><path
       d="M 610.376,523.758 H 607.751 V 562.866 H 610.376 Z"
       style="fill:#55575b;fill-opacity:1;fill-rule:nonzero;stroke:none"
       id="path174" /><path
       d="M 648.445,523.758 H 645.82 V 562.866 H 648.445 Z"
       style="fill:#55575b;fill-opacity:1;fill-rule:nonzero;stroke:none"
       id="path176" /><g
       id="g178"
       transform="translate(653.2803,491.1582)"><path
         d="M 0,0 H -50.364 C -57.119,0 -62.595,5.477 -62.595,12.231 V 38.726 H 12.231 V 12.231 C 12.231,5.477 6.755,0 0,0"
         style="fill:#009ee1;fill-opacity:1;fill-rule:nonzero;stroke:none"
         id="path180" /></g><g
       id="g182"
       transform="translate(613.3086,529.8838)"><path
         d="M 0,0 V -27.854 C 0,-29.629 1.439,-31.067 3.215,-31.067 H 26.364 C 28.14,-31.067 29.579,-29.629 29.579,-27.854 V 0 Z"
         style="fill:#ced2d4;fill-opacity:1;fill-rule:nonzero;stroke:none"
         id="path184" /></g><g
       id="g186"
       transform="translate(650.7427,575.502)"><path
         d="M 0,0 H -4.286 C -5.235,2.981 -8.026,5.142 -11.322,5.142 H -33.967 C -37.263,5.142 -40.054,2.981 -41.003,0 H -45.29 C -53.446,0 -60.058,-6.612 -60.058,-14.769 H 14.769 C 14.769,-6.612 8.156,0 0,0"
         style="fill:#ced2d4;fill-opacity:1;fill-rule:nonzero;stroke:none"
         id="path188" /></g><g
       id="g190"><g
         id="g192" /><g
         id="g204"><g
           clip-path="url(#clipPath196)"
           opacity="0.300003"
           id="g202"><g
             transform="translate(645.6621,577.1973)"
             id="g200"><path
               d="M 0,0 H -35.128 C -35.46,-0.524 -35.73,-1.092 -35.923,-1.695 H 0.794 C 0.603,-1.092 0.332,-0.524 0,0"
               style="fill:#8e9298;fill-opacity:1;fill-rule:nonzero;stroke:none"
               id="path198" /></g></g></g></g><g
       id="g206"
       transform="translate(640.3315,526.4141)"><path
         d="M 0,0 H -6.881 C -7.444,0 -7.901,0.457 -7.901,1.02 C -7.901,1.583 -7.444,2.039 -6.881,2.039 H 0 C 0.563,2.039 1.02,1.583 1.02,1.02 C 1.02,0.457 0.563,0 0,0"
         style="fill:#55575b;fill-opacity:1;fill-rule:nonzero;stroke:none"
         id="path208" /></g><path
       d="M 235.272,523.758 H 232.647 V 562.866 H 235.272 Z"
       style="fill:#55575b;fill-opacity:1;fill-rule:nonzero;stroke:none"
       id="path210" /><path
       d="M 299.597,523.758 H 296.972 V 562.866 H 299.597 Z"
       style="fill:#55575b;fill-opacity:1;fill-rule:nonzero;stroke:none"
       id="path212" /><path
       d="M 248.4,523.758 H 245.775 V 562.866 H 248.4 Z"
       style="fill:#55575b;fill-opacity:1;fill-rule:nonzero;stroke:none"
       id="path214" /><path
       d="M 286.469,523.758 H 283.844 V 562.866 H 286.469 Z"
       style="fill:#55575b;fill-opacity:1;fill-rule:nonzero;stroke:none"
       id="path216" /><path
       d="M 291.3037,491.1582 H 240.9397 C 234.1847,491.1582 228.7087,496.6352 228.7087,503.3892 V 529.8842 H 303.5347 V 503.3892 C 303.5347,496.6352 298.0587,491.1582 291.3037,491.1582"
       style="fill:#ffd223;fill-opacity:1;fill-rule:nonzero;stroke:none"
       id="path220" /><g
       id="g222"
       transform="translate(251.3325,529.8838)"><path
         d="M 0,0 V -27.854 C 0,-29.629 1.439,-31.067 3.214,-31.067 H 26.364 C 28.139,-31.067 29.579,-29.629 29.579,-27.854 V 0 Z"
         style="fill:#ced2d4;fill-opacity:1;fill-rule:nonzero;stroke:none"
         id="path224" /></g><g
       id="g226"
       transform="translate(288.7666,575.502)"><path
         d="M 0,0 H -4.286 C -5.236,2.981 -8.026,5.142 -11.323,5.142 H -33.967 C -37.263,5.142 -40.054,2.981 -41.003,0 H -45.29 C -53.446,0 -60.058,-6.612 -60.058,-14.769 H 14.768 C 14.768,-6.612 8.156,0 0,0"
         style="fill:#ced2d4;fill-opacity:1;fill-rule:nonzero;stroke:none"
         id="path228" /></g><g
       id="g230"><g
         id="g232" /><g
         id="g244"><g
           clip-path="url(#clipPath236)"
           opacity="0.300003"
           id="g242"><g
             transform="translate(283.6855,577.1973)"
             id="g240"><path
               d="M 0,0 H -35.128 C -35.459,-0.524 -35.73,-1.092 -35.922,-1.695 H 0.795 C 0.603,-1.092 0.332,-0.524 0,0"
               style="fill:#8e9298;fill-opacity:1;fill-rule:nonzero;stroke:none"
               id="path238" /></g></g></g></g><g
       id="g246"
       transform="translate(278.355,526.4141)"><path
         d="M 0,0 H -6.881 C -7.444,0 -7.9,0.457 -7.9,1.02 C -7.9,1.583 -7.444,2.039 -6.881,2.039 H 0 C 0.563,2.039 1.02,1.583 1.02,1.02 C 1.02,0.457 0.563,0 0,0"
         style="fill:#55575b;fill-opacity:1;fill-rule:nonzero;stroke:none"
         id="path248" /></g><path
       d="M 597.249,880.731 H 594.624 V 919.84 H 597.249 Z"
       style="fill:#55575b;fill-opacity:1;fill-rule:nonzero;stroke:none"
       id="path250" /><path
       d="M 661.573,880.731 H 658.948 V 919.84 H 661.573 Z"
       style="fill:#55575b;fill-opacity:1;fill-rule:nonzero;stroke:none"
       id="path252" /><path
       d="M 610.376,880.731 H 607.751 V 919.84 H 610.376 Z"
       style="fill:#55575b;fill-opacity:1;fill-rule:nonzero;stroke:none"
       id="path254" /><path
       d="M 648.445,880.731 H 645.82 V 919.84 H 648.445 Z"
       style="fill:#55575b;fill-opacity:1;fill-rule:nonzero;stroke:none"
       id="path256" /><path
       d="M 653.2803,848.1318 H 602.9163 C 596.1613,848.1318 590.6853,853.6078 590.6853,860.3628 V 886.8578 H 665.5113 V 860.3628 C 665.5113,853.6078 660.0353,848.1318 653.2803,848.1318"
       style="fill:#ffd223;fill-opacity:1;fill-rule:nonzero;stroke:none"
       id="path260" /><g
       id="g262"
       transform="translate(613.3086,886.8579)"><path
         d="M 0,0 V -27.854 C 0,-29.629 1.439,-31.068 3.215,-31.068 H 26.364 C 28.14,-31.068 29.579,-29.629 29.579,-27.854 V 0 Z"
         style="fill:#ced2d4;fill-opacity:1;fill-rule:nonzero;stroke:none"
         id="path264" /></g><g
       id="g266"
       transform="translate(650.7427,932.4756)"><path
         d="M 0,0 H -4.286 C -5.235,2.981 -8.026,5.142 -11.322,5.142 H -33.967 C -37.263,5.142 -40.054,2.981 -41.003,0 H -45.29 C -53.446,0 -60.058,-6.612 -60.058,-14.769 H 14.769 C 14.769,-6.612 8.156,0 0,0"
         style="fill:#ced2d4;fill-opacity:1;fill-rule:nonzero;stroke:none"
         id="path268" /></g><g
       id="g270"><g
         id="g272" /><g
         id="g284"><g
           clip-path="url(#clipPath276)"
           opacity="0.300003"
           id="g282"><g
             transform="translate(645.6621,934.1709)"
             id="g280"><path
               d="M 0,0 H -35.128 C -35.46,-0.525 -35.73,-1.092 -35.923,-1.695 H 0.794 C 0.603,-1.092 0.332,-0.525 0,0"
               style="fill:#8e9298;fill-opacity:1;fill-rule:nonzero;stroke:none"
               id="path278" /></g></g></g></g><g
       id="g286"
       transform="translate(640.3315,883.3882)"><path
         d="M 0,0 H -6.881 C -7.444,0 -7.901,0.456 -7.901,1.019 C -7.901,1.582 -7.444,2.039 -6.881,2.039 H 0 C 0.563,2.039 1.02,1.582 1.02,1.019 C 1.02,0.456 0.563,0 0,0"
         style="fill:#55575b;fill-opacity:1;fill-rule:nonzero;stroke:none"
         id="path288" /></g><path
       d="M 235.272,880.731 H 232.647 V 919.84 H 235.272 Z"
       style="fill:#55575b;fill-opacity:1;fill-rule:nonzero;stroke:none"
       id="path290" /><path
       d="M 299.597,880.731 H 296.972 V 919.84 H 299.597 Z"
       style="fill:#55575b;fill-opacity:1;fill-rule:nonzero;stroke:none"
       id="path292" /><path
       d="M 248.4,880.731 H 245.775 V 919.84 H 248.4 Z"
       style="fill:#55575b;fill-opacity:1;fill-rule:nonzero;stroke:none"
       id="path294" /><path
       d="M 286.469,880.731 H 283.844 V 919.84 H 286.469 Z"
       style="fill:#55575b;fill-opacity:1;fill-rule:nonzero;stroke:none"
       id="path296" /><path
       d="M 291.3037,848.1318 H 240.9397 C 234.1847,848.1318 228.7087,853.6078 228.7087,860.3628 V 886.8578 H 303.5347 V 860.3628 C 303.5347,853.6078 298.0587,848.1318 291.3037,848.1318"
       style="fill:#ffd223;fill-opacity:1;fill-rule:nonzero;stroke:none"
       id="path300" /><g
       id="g302"
       transform="translate(251.3325,886.8579)"><path
         d="M 0,0 V -27.854 C 0,-29.629 1.439,-31.068 3.214,-31.068 H 26.364 C 28.139,-31.068 29.579,-29.629 29.579,-27.854 V 0 Z"
         style="fill:#ced2d4;fill-opacity:1;fill-rule:nonzero;stroke:none"
         id="path304" /></g><g
       id="g306"
       transform="translate(288.7666,932.4756)"><path
         d="M 0,0 H -4.286 C -5.236,2.981 -8.026,5.142 -11.323,5.142 H -33.967 C -37.263,5.142 -40.054,2.981 -41.003,0 H -45.29 C -53.446,0 -60.058,-6.612 -60.058,-14.769 H 14.768 C 14.768,-6.612 8.156,0 0,0"
         style="fill:#ced2d4;fill-opacity:1;fill-rule:nonzero;stroke:none"
         id="path308" /></g><g
       id="g310"><g
         id="g312" /><g
         id="g324"><g
           clip-path="url(#clipPath316)"
           opacity="0.300003"
           id="g322"><g
             transform="translate(283.6855,934.1709)"
             id="g320"><path
               d="M 0,0 H -35.128 C -35.459,-0.525 -35.73,-1.092 -35.922,-1.695 H 0.795 C 0.603,-1.092 0.332,-0.525 0,0"
               style="fill:#8e9298;fill-opacity:1;fill-rule:nonzero;stroke:none"
               id="path318" /></g></g></g></g><g
       id="g326"
       transform="translate(278.355,883.3882)"><path
         d="M 0,0 H -6.881 C -7.444,0 -7.9,0.456 -7.9,1.019 C -7.9,1.582 -7.444,2.039 -6.881,2.039 H 0 C 0.563,2.039 1.02,1.582 1.02,1.019 C 1.02,0.456 0.563,0 0,0"
         style="fill:#55575b;fill-opacity:1;fill-rule:nonzero;stroke:none"
         id="path328" /></g><path
       d="M 671.345,701.887 H 668.72 V 740.996 H 671.345 Z"
       style="fill:#55575b;fill-opacity:1;fill-rule:nonzero;stroke:none"
       id="path330" /><path
       d="M 735.669,701.887 H 733.043 V 740.996 H 735.669 Z"
       style="fill:#55575b;fill-opacity:1;fill-rule:nonzero;stroke:none"
       id="path332" /><path
       d="M 684.472,701.887 H 681.847 V 740.996 H 684.472 Z"
       style="fill:#55575b;fill-opacity:1;fill-rule:nonzero;stroke:none"
       id="path334" /><path
       d="M 722.541,701.887 H 719.916 V 740.996 H 722.541 Z"
       style="fill:#55575b;fill-opacity:1;fill-rule:nonzero;stroke:none"
       id="path336" /><path
       d="M 727.376,669.2881 H 677.012 C 670.257,669.2881 664.781,674.7641 664.781,681.5181 V 708.0131 H 739.606 V 681.5181 C 739.606,674.7641 734.131,669.2881 727.376,669.2881"
       style="fill:#ffd223;fill-opacity:1;fill-rule:nonzero;stroke:none"
       id="path340" /><g
       id="g342"
       transform="translate(687.4048,708.0132)"><path
         d="M 0,0 V -27.853 C 0,-29.628 1.439,-31.068 3.214,-31.068 H 26.364 C 28.139,-31.068 29.579,-29.628 29.579,-27.853 V 0 Z"
         style="fill:#ced2d4;fill-opacity:1;fill-rule:nonzero;stroke:none"
         id="path344" /></g><g
       id="g346"
       transform="translate(724.8389,753.6309)"><path
         d="M 0,0 H -4.286 C -5.235,2.981 -8.026,5.142 -11.322,5.142 H -33.967 C -37.264,5.142 -40.054,2.981 -41.004,0 H -45.29 C -53.446,0 -60.058,-6.612 -60.058,-14.768 H 14.768 C 14.768,-6.612 8.156,0 0,0"
         style="fill:#ced2d4;fill-opacity:1;fill-rule:nonzero;stroke:none"
         id="path348" /></g><g
       id="g350"><g
         id="g352" /><g
         id="g364"><g
           clip-path="url(#clipPath356)"
           opacity="0.300003"
           id="g362"><g
             transform="translate(719.7578,755.3267)"
             id="g360"><path
               d="M 0,0 H -35.128 C -35.459,-0.525 -35.73,-1.092 -35.923,-1.696 H 0.795 C 0.603,-1.092 0.332,-0.525 0,0"
               style="fill:#8e9298;fill-opacity:1;fill-rule:nonzero;stroke:none"
               id="path358" /></g></g></g></g><g
       id="g366"
       transform="translate(714.4268,704.5435)"><path
         d="M 0,0 H -6.881 C -7.443,0 -7.9,0.457 -7.9,1.02 C -7.9,1.583 -7.443,2.039 -6.881,2.039 H 0 C 0.563,2.039 1.02,1.583 1.02,1.02 C 1.02,0.457 0.563,0 0,0"
         style="fill:#55575b;fill-opacity:1;fill-rule:nonzero;stroke:none"
         id="path368" /></g><path
       d="M 161.177,701.887 H 158.552 V 740.996 H 161.177 Z"
       style="fill:#55575b;fill-opacity:1;fill-rule:nonzero;stroke:none"
       id="path370" /><path
       d="M 225.5,701.887 H 222.875 V 740.996 H 225.5 Z"
       style="fill:#55575b;fill-opacity:1;fill-rule:nonzero;stroke:none"
       id="path372" /><path
       d="M 174.304,701.887 H 171.679 V 740.996 H 174.304 Z"
       style="fill:#55575b;fill-opacity:1;fill-rule:nonzero;stroke:none"
       id="path374" /><path
       d="M 212.374,701.887 H 209.749 V 740.996 H 212.374 Z"
       style="fill:#55575b;fill-opacity:1;fill-rule:nonzero;stroke:none"
       id="path376" /><path
       d="M 217.208,669.2881 H 166.844 C 160.089,669.2881 154.613,674.7641 154.613,681.5181 V 708.0131 H 229.439 V 681.5181 C 229.439,674.7641 223.963,669.2881 217.208,669.2881"
       style="fill:#ffd223;fill-opacity:1;fill-rule:nonzero;stroke:none"
       id="path380" /><g
       id="g382"
       transform="translate(177.2368,708.0132)"><path
         d="M 0,0 V -27.853 C 0,-29.628 1.439,-31.068 3.214,-31.068 H 26.364 C 28.139,-31.068 29.578,-29.628 29.578,-27.853 V 0 Z"
         style="fill:#ced2d4;fill-opacity:1;fill-rule:nonzero;stroke:none"
         id="path384" /></g><g
       id="g386"
       transform="translate(214.6704,753.6309)"><path
         d="M 0,0 H -4.286 C -5.235,2.981 -8.026,5.142 -11.322,5.142 H -33.967 C -37.263,5.142 -40.054,2.981 -41.003,0 H -45.289 C -53.445,0 -60.058,-6.612 -60.058,-14.768 H 14.769 C 14.769,-6.612 8.157,0 0,0"
         style="fill:#ced2d4;fill-opacity:1;fill-rule:nonzero;stroke:none"
         id="path388" /></g><g
       id="g390"><g
         id="g392" /><g
         id="g404"><g
           clip-path="url(#clipPath396)"
           opacity="0.300003"
           id="g402"><g
             transform="translate(209.5898,755.3267)"
             id="g400"><path
               d="M 0,0 H -35.128 C -35.459,-0.525 -35.73,-1.092 -35.923,-1.696 H 0.795 C 0.603,-1.092 0.332,-0.525 0,0"
               style="fill:#8e9298;fill-opacity:1;fill-rule:nonzero;stroke:none"
               id="path398" /></g></g></g></g><g
       id="g406"
       transform="translate(204.2593,704.5435)"><path
         d="M 0,0 H -6.881 C -7.444,0 -7.901,0.457 -7.901,1.02 C -7.901,1.583 -7.444,2.039 -6.881,2.039 H 0 C 0.563,2.039 1.02,1.583 1.02,1.02 C 1.02,0.457 0.563,0 0,0"
         style="fill:#55575b;fill-opacity:1;fill-rule:nonzero;stroke:none"
         id="path408" /></g><path
       d="M 640.717,355.835 H 253.503 V 364.383 H 640.717 Z"
       style="fill:#55575b;fill-opacity:1;fill-rule:nonzero;stroke:none"
       id="path410" /><path
       d="M 657.125,355.835 H 237.095 V 343.702 H 657.125 Z"
       style="fill:#55575b;fill-opacity:1;fill-rule:nonzero;stroke:none"
       id="path412" /><g
       id="g414"
       transform="translate(447.1099,748.9771)"><path
         d="M 0,0 C -5.305,0 -9.605,4.3 -9.605,9.605 C -9.605,14.91 -5.305,19.211 0,19.211 C 5.305,19.211 9.605,14.91 9.605,9.605 C 9.605,4.3 5.305,0 0,0 M 20.202,-1.97 C 22.16,1.44 23.286,5.39 23.286,9.605 C 23.286,22.466 12.86,32.892 0,32.892 C -12.86,32.892 -23.286,22.466 -23.286,9.605 C -23.286,5.39 -22.16,1.44 -20.202,-1.97 L -102.12,-385.344 L -73.941,-391.365 L 0,-45.322 L 73.941,-391.365 L 102.12,-385.344 Z"
         style="fill:#55575b;fill-opacity:1;fill-rule:nonzero;stroke:none"
         id="path416" /></g><g
       id="g418"
       transform="translate(699.4404,697.5479)"><path
         d="M 0,0 H -1.351 V 26.013 C -1.351,26.386 -1.049,26.689 -0.675,26.689 C -0.302,26.689 0,26.386 0,26.013 Z"
         style="fill:#b8bcc0;fill-opacity:1;fill-rule:nonzero;stroke:none"
         id="path420" /></g><g
       id="g422"
       transform="translate(697.4146,708.0767)"><path
         d="M 0,0 V 14.063 C 0,14.343 0.227,14.57 0.506,14.57 H 19.727 L 13.95,7.032 L 19.727,-0.506 H 0.506 C 0.227,-0.506 0,-0.28 0,0"
         style="fill:#ed0009;fill-opacity:1;fill-rule:nonzero;stroke:none"
         id="path424" /></g><g
       id="g426"
       transform="translate(880.1113,555.9824)"><path
         d="M 0,0 C -0.216,0.543 -0.833,0.81 -1.375,0.593 C -1.919,0.377 -2.184,-0.238 -1.968,-0.782 L 82.339,-213.051 C 82.504,-213.467 82.902,-213.719 83.323,-213.719 C 83.453,-213.719 83.586,-213.695 83.714,-213.645 C 84.258,-213.428 84.522,-212.812 84.308,-212.27 Z"
         style="fill:#725a3e;fill-opacity:1;fill-rule:nonzero;stroke:none"
         id="path428" /></g><g
       id="g430"
       transform="translate(518.7178,556.5752)"><path
         d="M 0,0 C -0.546,0.219 -1.16,-0.05 -1.375,-0.593 L -85.682,-212.862 C -85.898,-213.405 -85.632,-214.021 -85.089,-214.237 C -84.961,-214.288 -84.829,-214.312 -84.699,-214.312 C -84.277,-214.312 -83.879,-214.06 -83.715,-213.644 L 0.593,-1.375 C 0.809,-0.831 0.543,-0.216 0,0"
         style="fill:#725a3e;fill-opacity:1;fill-rule:nonzero;stroke:none"
         id="path432" /></g><g
       id="g434"
       transform="translate(1002.2129,343.7598)"><path
         d="M 0,0 L -96.352,212.27 C -96.592,212.801 -97.219,213.037 -97.752,212.796 C -98.285,212.554 -98.521,211.926 -98.278,211.394 L -1.927,-0.875 C -1.75,-1.266 -1.365,-1.496 -0.962,-1.496 C -0.816,-1.496 -0.667,-1.466 -0.525,-1.4 C 0.007,-1.16 0.242,-0.532 0,0"
         style="fill:#725a3e;fill-opacity:1;fill-rule:nonzero;stroke:none"
         id="path436" /></g><g
       id="g438"
       transform="translate(492.9927,556.5557)"><path
         d="M 0,0 C -0.534,0.244 -1.161,0.006 -1.401,-0.526 L -97.753,-212.796 C -97.994,-213.328 -97.758,-213.956 -97.226,-214.196 C -97.084,-214.262 -96.936,-214.292 -96.789,-214.292 C -96.386,-214.292 -96.002,-214.062 -95.825,-213.671 L 0.527,-1.402 C 0.768,-0.87 0.533,-0.242 0,0"
         style="fill:#725a3e;fill-opacity:1;fill-rule:nonzero;stroke:none"
         id="path440" /></g><g
       id="g442"
       transform="translate(885.0293,563.5312)"><path
         d="M 0,0 H -186.302 H -372.605 L -409.687,-218.092 H -186.302 H 37.083 Z"
         style="fill:#fb9600;fill-opacity:1;fill-rule:nonzero;stroke:none"
         id="path444" /></g><g
       id="g446"
       transform="translate(698.7271,563.5312)"><path
         d="M 0,0 H -157.166 L -188.448,-218.092 H 0 H 188.448 L 157.166,0 Z"
         style="fill:#f0f2f2;fill-opacity:1;fill-rule:nonzero;stroke:none"
         id="path448" /></g><g
       id="g450"
       transform="translate(822.5977,563.5312)"><path
         d="M 0,0 H -123.871 H -247.741 L -272.397,-218.092 H -123.871 H 24.655 Z"
         style="fill:#fb9600;fill-opacity:1;fill-rule:nonzero;stroke:none"
         id="path452" /></g><g
       id="g454"
       transform="translate(788.6719,563.5312)"><path
         d="M 0,0 H -89.945 H -179.89 L -197.793,-218.092 H -89.945 H 17.903 Z"
         style="fill:#f0f2f2;fill-opacity:1;fill-rule:nonzero;stroke:none"
         id="path456" /></g><g
       id="g458"
       transform="translate(754.2559,563.5312)"><path
         d="M 0,0 H -55.529 H -111.058 L -122.11,-218.092 H -55.529 H 11.053 Z"
         style="fill:#fb9600;fill-opacity:1;fill-rule:nonzero;stroke:none"
         id="path460" /></g><g
       id="g462"
       transform="translate(724.0137,563.5312)"><path
         d="M 0,0 H -25.287 H -50.574 L -55.607,-218.092 H -25.287 H 5.033 Z"
         style="fill:#f0f2f2;fill-opacity:1;fill-rule:nonzero;stroke:none"
         id="path464" /></g><g
       id="g466"><g
         id="g468" /><g
         id="g480"><g
           clip-path="url(#clipPath472)"
           opacity="0.300003"
           id="g478"><g
             transform="translate(885.0293,563.5312)"
             id="g476"><path
               d="M 0,0 H -186.302 H -372.605 L -377.932,-31.33 C -376.189,-31.608 -374.411,-31.761 -372.605,-31.761 C -363.364,-31.761 -354.774,-28.005 -348.543,-21.639 C -341.27,-30.286 -330.621,-35.466 -319.084,-35.466 C -307.763,-35.466 -297.296,-30.479 -290.036,-22.118 C -281.871,-32.104 -269.669,-38.112 -256.433,-38.112 C -243.252,-38.112 -231.098,-32.153 -222.933,-22.242 C -216.82,-29.807 -208.507,-35.281 -199.143,-37.923 L -277.925,-183.672 L -270.615,-185.997 C -259.358,-189.578 -227.204,-203.065 -225.04,-218.092 H -186.302 H -147.568 C -145.61,-204.7 -118.739,-191.344 -101.989,-185.997 L -94.68,-183.672 L -173.462,-37.923 C -164.097,-35.282 -155.784,-29.807 -149.672,-22.242 C -141.507,-32.153 -129.353,-38.112 -116.172,-38.112 C -102.936,-38.112 -90.734,-32.104 -82.568,-22.118 C -75.309,-30.479 -64.842,-35.466 -53.52,-35.466 C -41.983,-35.466 -31.334,-30.287 -24.062,-21.64 C -17.83,-28.005 -9.24,-31.761 0.001,-31.761 C 1.806,-31.761 3.584,-31.608 5.327,-31.33 Z"
               style="fill:#231b1d;fill-opacity:1;fill-rule:nonzero;stroke:none"
               id="path474" /></g></g></g></g><g
       id="g482"
       transform="translate(666.4053,345.4395)"><path
         d="M 0,0 H 64.644 L 32.322,190.566 Z"
         style="fill:#696b71;fill-opacity:1;fill-rule:nonzero;stroke:none"
         id="path484" /></g><g
       id="g486"
       transform="translate(666.4053,345.4395)"><path
         d="M 0,0 L 32.322,190.566 L -50.065,38.147 C -50.065,38.147 -2.1,22.889 0,0"
         style="fill:#ced2d4;fill-opacity:1;fill-rule:nonzero;stroke:none"
         id="path488" /></g><g
       id="g490"
       transform="translate(731.0488,345.4395)"><path
         d="M 0,0 L -32.322,190.566 L 50.065,38.147 C 50.065,38.147 2.1,22.889 0,0"
         style="fill:#ced2d4;fill-opacity:1;fill-rule:nonzero;stroke:none"
         id="path492" /></g><g
       id="g494"
       transform="translate(781.1143,383.5869)"><path
         d="M 0,0 L -82.387,152.419 L -14.233,5.225 C -14.233,5.225 -52.256,-9.305 -50.065,-38.147 C -47.966,-15.259 0,0 0,0"
         style="fill:#b8bcc0;fill-opacity:1;fill-rule:nonzero;stroke:none"
         id="path496" /></g><g
       id="g498"
       transform="translate(616.3398,383.5869)"><path
         d="M 0,0 L 82.387,152.419 L 14.233,5.225 C 14.233,5.225 52.256,-9.305 50.065,-38.147 C 47.965,-15.259 0,0 0,0"
         style="fill:#b8bcc0;fill-opacity:1;fill-rule:nonzero;stroke:none"
         id="path500" /></g><g
       id="g502"
       transform="translate(662.1055,555.5918)"><path
         d="M 0,0 C 6.003,-14.304 20.138,-24.351 36.622,-24.351 C 53.105,-24.351 67.24,-14.304 73.243,0 Z"
         style="fill:#f0f2f2;fill-opacity:1;fill-rule:nonzero;stroke:none"
         id="path504" /></g><g
       id="g506"
       transform="translate(735.3486,555.5918)"><path
         d="M 0,0 C 5.492,-13.371 18.427,-22.763 33.509,-22.763 C 48.592,-22.763 61.525,-13.371 67.019,0 Z"
         style="fill:#fb9600;fill-opacity:1;fill-rule:nonzero;stroke:none"
         id="path508" /></g><g
       id="g510"
       transform="translate(802.3672,555.5918)"><path
         d="M 0,0 C 4.777,-11.816 16.025,-20.115 29.143,-20.115 C 42.26,-20.115 53.508,-11.816 58.284,0 Z"
         style="fill:#f0f2f2;fill-opacity:1;fill-rule:nonzero;stroke:none"
         id="path512" /></g><g
       id="g514"
       transform="translate(860.6514,555.5918)"><path
         d="M 0,0 C 3.996,-9.64 13.405,-16.41 24.378,-16.41 C 35.352,-16.41 44.761,-9.64 48.757,0 Z"
         style="fill:#fb9600;fill-opacity:1;fill-rule:nonzero;stroke:none"
         id="path516" /></g><g
       id="g518"
       transform="translate(662.1055,555.5918)"><path
         d="M 0,0 C -5.493,-13.371 -18.427,-22.763 -33.509,-22.763 C -48.592,-22.763 -61.526,-13.371 -67.019,0 Z"
         style="fill:#fb9600;fill-opacity:1;fill-rule:nonzero;stroke:none"
         id="path520" /></g><g
       id="g522"
       transform="translate(595.0864,555.5918)"><path
         d="M 0,0 C -4.777,-11.816 -16.025,-20.115 -29.142,-20.115 C -42.259,-20.115 -53.507,-11.816 -58.284,0 Z"
         style="fill:#f0f2f2;fill-opacity:1;fill-rule:nonzero;stroke:none"
         id="path524" /></g><g
       id="g526"
       transform="translate(536.8022,555.5918)"><path
         d="M 0,0 C -3.996,-9.64 -13.405,-16.41 -24.378,-16.41 C -35.351,-16.41 -44.76,-9.64 -48.756,0 Z"
         style="fill:#fb9600;fill-opacity:1;fill-rule:nonzero;stroke:none"
         id="path528" /></g><g
       id="g530"><g
         id="g532" /><g
         id="g568"><g
           clip-path="url(#clipPath536)"
           opacity="0.199997"
           id="g566"><g
             transform="translate(698.7271,531.2412)"
             id="g540"><path
               d="M 0,0 C 16.484,0 30.619,10.047 36.622,24.351 H -36.622 C -30.619,10.047 -16.484,0 0,0"
               style="fill:#000000;fill-opacity:1;fill-rule:nonzero;stroke:none"
               id="path538" /></g><g
             transform="translate(768.8574,532.8291)"
             id="g544"><path
               d="M 0,0 C 15.083,0 28.017,9.392 33.51,22.763 H -33.509 C -28.017,9.392 -15.082,0 0,0"
               style="fill:#000000;fill-opacity:1;fill-rule:nonzero;stroke:none"
               id="path542" /></g><g
             transform="translate(831.5098,535.4766)"
             id="g548"><path
               d="M 0,0 C 13.117,0 24.365,8.299 29.142,20.115 H -29.143 C -24.365,8.299 -13.117,0 0,0"
               style="fill:#000000;fill-opacity:1;fill-rule:nonzero;stroke:none"
               id="path546" /></g><g
             transform="translate(860.6514,555.5918)"
             id="g552"><path
               d="M 0,0 C 3.996,-9.64 13.405,-16.41 24.378,-16.41 C 35.352,-16.41 44.761,-9.64 48.757,0 Z"
               style="fill:#000000;fill-opacity:1;fill-rule:nonzero;stroke:none"
               id="path550" /></g><g
             transform="translate(628.5962,532.8291)"
             id="g556"><path
               d="M 0,0 C 15.083,0 28.017,9.392 33.509,22.763 H -33.51 C -28.017,9.392 -15.083,0 0,0"
               style="fill:#000000;fill-opacity:1;fill-rule:nonzero;stroke:none"
               id="path554" /></g><g
             transform="translate(565.9443,535.4766)"
             id="g560"><path
               d="M 0,0 C 13.117,0 24.365,8.299 29.142,20.115 H -29.142 C -24.365,8.299 -13.117,0 0,0"
               style="fill:#000000;fill-opacity:1;fill-rule:nonzero;stroke:none"
               id="path558" /></g><g
             transform="translate(512.4243,539.1816)"
             id="g564"><path
               d="M 0,0 C 10.973,0 20.382,6.771 24.378,16.41 H -24.378 C -20.382,6.771 -10.973,0 0,0"
               style="fill:#000000;fill-opacity:1;fill-rule:nonzero;stroke:none"
               id="path562" /></g></g></g></g><g
       id="g570"
       transform="translate(698.7271,701.1621)"><path
         d="M 0,0 L -36.622,-145.57 H 36.622 Z"
         style="fill:#f0f2f2;fill-opacity:1;fill-rule:nonzero;stroke:none"
         id="path572" /></g><g
       id="g574"
       transform="translate(698.7271,701.1621)"><path
         d="M 0,0 L 103.64,-145.57 H 36.622 Z"
         style="fill:#fb9600;fill-opacity:1;fill-rule:nonzero;stroke:none"
         id="path576" /></g><g
       id="g578"
       transform="translate(860.6514,555.5918)"><path
         d="M 0,0 L -161.924,145.57 L -58.284,0 Z"
         style="fill:#f0f2f2;fill-opacity:1;fill-rule:nonzero;stroke:none"
         id="path580" /></g><g
       id="g582"
       transform="translate(909.4082,555.5918)"><path
         d="M 0,0 L -210.681,145.57 L -48.757,0 Z"
         style="fill:#fb9600;fill-opacity:1;fill-rule:nonzero;stroke:none"
         id="path584" /></g><g
       id="g586"
       transform="translate(698.7271,701.1621)"><path
         d="M 0,0 L -103.641,-145.57 H -36.622 Z"
         style="fill:#fb9600;fill-opacity:1;fill-rule:nonzero;stroke:none"
         id="path588" /></g><g
       id="g590"
       transform="translate(536.8022,555.5918)"><path
         d="M 0,0 L 161.925,145.57 L 58.284,0 Z"
         style="fill:#f0f2f2;fill-opacity:1;fill-rule:nonzero;stroke:none"
         id="path592" /></g><g
       id="g594"
       transform="translate(488.0459,555.5918)"><path
         d="M 0,0 L 210.681,145.57 L 48.756,0 Z"
         style="fill:#fb9600;fill-opacity:1;fill-rule:nonzero;stroke:none"
         id="path596" /></g><path
       d="M 312.737,415.058 H 315.375 V 570.118 H 312.737 Z"
       style="fill:#b8bcc0;fill-opacity:1;fill-rule:nonzero;stroke:none"
       id="path598" /><g
       id="g600"
       transform="translate(180.9541,399.9502)"><path
         d="M 0,0 L 34.34,-26.583 L 36.997,-23.151 L 2.657,3.432 Z"
         style="fill:#ced2d4;fill-opacity:1;fill-rule:nonzero;stroke:none"
         id="path602" /></g><g
       id="g604"
       transform="translate(189.3721,398.9229)"><path
         d="M 0,0 H -7.09 L -8.418,1.027 L -5.761,4.459 Z"
         style="fill:#a2a6ac;fill-opacity:1;fill-rule:nonzero;stroke:none"
         id="path606" /></g><path
       d="M 179.025,399.468 H 206.514 V 403.809 H 179.025 Z"
       style="fill:#ced2d4;fill-opacity:1;fill-rule:nonzero;stroke:none"
       id="path608" /><g
       id="g610"
       transform="translate(182.814,401.6084)"><path
         d="M 0,0 C 0,-0.777 -0.205,-1.502 -0.55,-2.141 H -3.789 V 2.2 H -0.587 C -0.22,1.547 0,0.802 0,0"
         style="fill:#a2a6ac;fill-opacity:1;fill-rule:nonzero;stroke:none"
         id="path612" /></g><g
       id="g614"
       transform="translate(174.9146,401.6035)"><path
         d="M 0,0 C 0,-2.004 1.625,-3.628 3.628,-3.628 C 5.632,-3.628 7.256,-2.004 7.256,0 C 7.256,2.004 5.632,3.629 3.628,3.629 C 1.625,3.629 0,2.004 0,0"
         style="fill:#ced2d4;fill-opacity:1;fill-rule:nonzero;stroke:none"
         id="path616" /></g><g
       id="g618"
       transform="translate(314.9717,578.6348)"><path
         d="M 0,0 H -1.351 V 26.014 C -1.351,26.387 -1.049,26.689 -0.676,26.689 C -0.302,26.689 0,26.387 0,26.014 Z"
         style="fill:#b8bcc0;fill-opacity:1;fill-rule:nonzero;stroke:none"
         id="path620" /></g><g
       id="g622"
       transform="translate(312.9453,589.1641)"><path
         d="M 0,0 V 14.063 C 0,14.343 0.227,14.57 0.507,14.57 H 19.727 L 13.95,7.031 L 19.727,-0.507 H 0.507 C 0.227,-0.507 0,-0.28 0,0"
         style="fill:#ed0009;fill-opacity:1;fill-rule:nonzero;stroke:none"
         id="path624" /></g><g
       id="g626"
       transform="translate(314.0562,581.4209)"><path
         d="M 0,0 C 66.689,0 113.537,-52.589 113.537,-78.447 C 109.761,-68.768 102.845,-65.312 94.936,-65.312 C 87.025,-65.312 80.109,-68.768 76.334,-78.447 C 71.472,-68.768 62.565,-63.658 52.378,-63.658 C 42.191,-63.658 33.285,-68.768 28.423,-78.447 C 22.654,-68.768 12.086,-62.28 0,-62.28 C -12.086,-62.28 -22.654,-68.768 -28.422,-78.447 C -33.285,-68.768 -42.191,-63.658 -52.378,-63.658 C -62.565,-63.658 -71.472,-68.768 -76.334,-78.447 C -80.109,-68.768 -87.025,-65.312 -94.935,-65.312 C -102.845,-65.312 -109.761,-68.768 -113.537,-78.447 C -113.537,-52.589 -66.689,0 0,0"
         style="fill:#ff8600;fill-opacity:1;fill-rule:nonzero;stroke:none"
         id="path628" /></g><g
       id="g630"
       transform="translate(314.0562,581.4209)"><path
         d="M 0,0 C -69.261,-20.576 -76.334,-78.447 -76.334,-78.447 C -80.109,-68.768 -87.025,-65.312 -94.935,-65.312 C -102.845,-65.312 -109.761,-68.768 -113.537,-78.447 C -113.537,-52.589 -66.689,0 0,0"
         style="fill:#ffb100;fill-opacity:1;fill-rule:nonzero;stroke:none"
         id="path632" /></g><g
       id="g634"
       transform="translate(427.5928,502.9736)"><path
         d="M 0,0 C -3.775,9.68 -10.691,13.136 -18.601,13.136 C -26.511,13.136 -33.427,9.68 -37.203,0 C -37.203,0 -44.275,57.871 -113.537,78.447 C -46.848,78.447 0,25.858 0,0"
         style="fill:#ffb100;fill-opacity:1;fill-rule:nonzero;stroke:none"
         id="path636" /></g><g
       id="g638"
       transform="translate(342.479,502.9736)"><path
         d="M 0,0 C -5.769,9.68 -16.336,16.167 -28.423,16.167 C -40.509,16.167 -51.077,9.68 -56.845,0 C -56.845,56.585 -28.423,78.447 -28.423,78.447 C -28.423,78.447 0,56.585 0,0"
         style="fill:#ffb100;fill-opacity:1;fill-rule:nonzero;stroke:none"
         id="path640" /></g><path
       d="M 204.935,315.763 H 423.177 V 418.73 H 204.935 Z"
       style="fill:#ed0009;fill-opacity:1;fill-rule:nonzero;stroke:none"
       id="path642" /><path
       d="M 204.935,395.56 H 423.177 V 412.453 H 204.935 Z"
       style="fill:#e4e6e8;fill-opacity:1;fill-rule:nonzero;stroke:none"
       id="path644" /><path
       d="M 204.935,371.053 H 423.177 V 387.946 H 204.935 Z"
       style="fill:#e4e6e8;fill-opacity:1;fill-rule:nonzero;stroke:none"
       id="path646" /><path
       d="M 204.935,346.546 H 423.177 V 363.439 H 204.935 Z"
       style="fill:#e4e6e8;fill-opacity:1;fill-rule:nonzero;stroke:none"
       id="path648" /><path
       d="M 204.935,322.039 H 423.177 V 338.932 H 204.935 Z"
       style="fill:#e4e6e8;fill-opacity:1;fill-rule:nonzero;stroke:none"
       id="path650" /><path
       d="M 423.177,315.763 H 204.935 V 322.039 H 423.177 Z"
       style="fill:#ff8600;fill-opacity:1;fill-rule:nonzero;stroke:none"
       id="path652" /><path
       d="M 204.935,406.44 H 423.177 V 412.452 H 204.935 Z"
       style="fill:#b8bcc0;fill-opacity:1;fill-rule:nonzero;stroke:none"
       id="path654" /><g
       id="g656"
       transform="translate(352.5547,318.9805)"><path
         d="M 0,0 C 0,-14.225 11.531,-25.756 25.756,-25.756 C 39.981,-25.756 51.512,-14.225 51.512,0 C 51.512,14.225 39.981,25.757 25.756,25.757 C 11.531,25.757 0,14.225 0,0"
         style="fill:#a2a6ac;fill-opacity:1;fill-rule:nonzero;stroke:none"
         id="path658" /></g><g
       id="g660"
       transform="translate(357.8799,318.9805)"><path
         d="M 0,0 C 0,-11.283 9.147,-20.431 20.431,-20.431 C 31.715,-20.431 40.862,-11.283 40.862,0 C 40.862,11.284 31.715,20.432 20.431,20.432 C 9.147,20.432 0,11.284 0,0"
         style="fill:#e4e6e8;fill-opacity:1;fill-rule:nonzero;stroke:none"
         id="path662" /></g><g
       id="g664"
       transform="translate(352.2354,320.2529)"><path
         d="M 0,0 H 23.005 L 6.738,16.267 L 8.537,18.065 L 24.804,1.799 V 24.804 H 27.348 V 1.799 L 43.614,18.065 L 45.413,16.267 L 29.146,0 H 52.151 V -2.544 H 29.146 L 45.413,-18.811 L 43.614,-20.609 L 27.348,-4.343 V -27.348 H 24.804 V -4.343 L 8.537,-20.609 L 6.738,-18.811 L 23.005,-2.544 H 0 Z"
         style="fill:#8e9298;fill-opacity:1;fill-rule:nonzero;stroke:none"
         id="path666" /></g><g
       id="g668"
       transform="translate(355.7344,318.9805)"><path
         d="M 0,0 C 0,12.449 10.128,22.576 22.577,22.576 C 35.025,22.576 45.153,12.449 45.153,0 C 45.153,-12.448 35.025,-22.576 22.577,-22.576 C 10.128,-22.576 0,-12.448 0,0 M -6.36,0 C -6.36,-15.955 6.621,-28.936 22.577,-28.936 C 38.532,-28.936 51.513,-15.955 51.513,0 C 51.513,15.956 38.532,28.937 22.577,28.937 C 6.621,28.937 -6.36,15.956 -6.36,0"
         style="fill:#55575b;fill-opacity:1;fill-rule:nonzero;stroke:none"
         id="path670" /></g><g
       id="g672"
       transform="translate(225.3071,330.4629)"><path
         d="M 0,0 C 0,-19.869 16.107,-35.977 35.977,-35.977 C 55.846,-35.977 71.953,-19.869 71.953,0 C 71.953,19.869 55.846,35.977 35.977,35.977 C 16.107,35.977 0,19.869 0,0"
         style="fill:#a2a6ac;fill-opacity:1;fill-rule:nonzero;stroke:none"
         id="path674" /></g><g
       id="g676"
       transform="translate(232.7456,330.4629)"><path
         d="M 0,0 C 0,-15.761 12.777,-28.538 28.538,-28.538 C 44.299,-28.538 57.076,-15.761 57.076,0 C 57.076,15.762 44.299,28.538 28.538,28.538 C 12.777,28.538 0,15.762 0,0"
         style="fill:#e4e6e8;fill-opacity:1;fill-rule:nonzero;stroke:none"
         id="path678" /></g><g
       id="g680"
       transform="translate(224.8613,332.2393)"><path
         d="M 0,0 H 32.133 L 9.412,22.722 L 11.924,25.234 L 34.646,2.513 V 34.646 H 38.199 V 2.513 L 60.921,25.234 L 63.433,22.722 L 40.711,0 H 72.845 V -3.553 H 40.711 L 63.433,-26.274 L 60.921,-28.787 L 38.199,-6.065 V -38.199 H 34.646 V -6.065 L 11.924,-28.787 L 9.412,-26.274 L 32.133,-3.553 H 0 Z"
         style="fill:#8e9298;fill-opacity:1;fill-rule:nonzero;stroke:none"
         id="path682" /></g><g
       id="g684"
       transform="translate(229.749,330.4629)"><path
         d="M 0,0 C 0,17.389 14.147,31.535 31.535,31.535 C 48.923,31.535 63.07,17.389 63.07,0 C 63.07,-17.388 48.923,-31.535 31.535,-31.535 C 14.147,-31.535 0,-17.388 0,0 M -8.884,0 C -8.884,-22.287 9.248,-40.418 31.535,-40.418 C 53.822,-40.418 71.953,-22.287 71.953,0 C 71.953,22.287 53.822,40.419 31.535,40.419 C 9.248,40.419 -8.884,22.287 -8.884,0"
         style="fill:#55575b;fill-opacity:1;fill-rule:nonzero;stroke:none"
         id="path686" /></g><g
       id="g688"
       transform="translate(204.3267,411.8535)"><path
         d="M 0,0 H 219.459 C 221.416,0 223.002,1.586 223.002,3.543 C 223.002,5.499 221.416,7.085 219.459,7.085 H 0 C -1.957,7.085 -3.542,5.499 -3.542,3.543 C -3.542,1.586 -1.957,0 0,0"
         style="fill:#ff8600;fill-opacity:1;fill-rule:nonzero;stroke:none"
         id="path690" /></g><g
       id="g692"
       transform="translate(416.4819,418.9385)"><path
         d="M 0,0 H -82.497 V 44.751 C -82.497,50.87 -77.537,55.83 -71.418,55.83 H -11.079 C -4.96,55.83 0,50.87 0,44.751 Z"
         style="fill:#e4e6e8;fill-opacity:1;fill-rule:nonzero;stroke:none"
         id="path694" /></g><g
       id="g696"
       transform="translate(400.8618,465.8125)"><path
         d="M 0,0 H 2.48 C 4.763,0 6.614,-1.851 6.614,-4.134 V -11.161 C 6.614,-13.444 4.763,-15.295 2.48,-15.295 H 0 C -2.283,-15.295 -4.133,-13.444 -4.133,-11.161 V -4.134 C -4.133,-1.851 -2.283,0 0,0"
         style="fill:#a2a6ac;fill-opacity:1;fill-rule:nonzero;stroke:none"
         id="path698" /></g><g
       id="g700"
       transform="translate(382.9497,465.8125)"><path
         d="M 0,0 H 2.48 C 4.763,0 6.614,-1.851 6.614,-4.134 V -11.161 C 6.614,-13.444 4.763,-15.295 2.48,-15.295 H 0 C -2.283,-15.295 -4.134,-13.444 -4.134,-11.161 V -4.134 C -4.134,-1.851 -2.283,0 0,0"
         style="fill:#a2a6ac;fill-opacity:1;fill-rule:nonzero;stroke:none"
         id="path702" /></g><g
       id="g704"
       transform="translate(347.125,465.8125)"><path
         d="M 0,0 H 2.48 C 4.763,0 6.614,-1.851 6.614,-4.134 V -11.161 C 6.614,-13.444 4.763,-15.295 2.48,-15.295 H 0 C -2.283,-15.295 -4.133,-13.444 -4.133,-11.161 V -4.134 C -4.133,-1.851 -2.283,0 0,0"
         style="fill:#a2a6ac;fill-opacity:1;fill-rule:nonzero;stroke:none"
         id="path706" /></g><g
       id="g708"
       transform="translate(365.0376,465.8125)"><path
         d="M 0,0 H 2.48 C 4.763,0 6.614,-1.851 6.614,-4.134 V -11.161 C 6.614,-13.444 4.763,-15.295 2.48,-15.295 H 0 C -2.283,-15.295 -4.134,-13.444 -4.134,-11.161 V -4.134 C -4.134,-1.851 -2.283,0 0,0"
         style="fill:#a2a6ac;fill-opacity:1;fill-rule:nonzero;stroke:none"
         id="path710" /></g><g
       id="g712"
       transform="translate(400.8618,443.7666)"><path
         d="M 0,0 H 2.48 C 4.763,0 6.614,-1.851 6.614,-4.134 V -11.161 C 6.614,-13.444 4.763,-15.295 2.48,-15.295 H 0 C -2.283,-15.295 -4.133,-13.444 -4.133,-11.161 V -4.134 C -4.133,-1.851 -2.283,0 0,0"
         style="fill:#a2a6ac;fill-opacity:1;fill-rule:nonzero;stroke:none"
         id="path714" /></g><g
       id="g716"
       transform="translate(382.9497,443.7666)"><path
         d="M 0,0 H 2.48 C 4.763,0 6.614,-1.851 6.614,-4.134 V -11.161 C 6.614,-13.444 4.763,-15.295 2.48,-15.295 H 0 C -2.283,-15.295 -4.134,-13.444 -4.134,-11.161 V -4.134 C -4.134,-1.851 -2.283,0 0,0"
         style="fill:#a2a6ac;fill-opacity:1;fill-rule:nonzero;stroke:none"
         id="path718" /></g><g
       id="g720"
       transform="translate(365.0376,443.7666)"><path
         d="M 0,0 H 2.48 C 4.763,0 6.614,-1.851 6.614,-4.134 V -11.161 C 6.614,-13.444 4.763,-15.295 2.48,-15.295 H 0 C -2.283,-15.295 -4.134,-13.444 -4.134,-11.161 V -4.134 C -4.134,-1.851 -2.283,0 0,0"
         style="fill:#a2a6ac;fill-opacity:1;fill-rule:nonzero;stroke:none"
         id="path722" /></g><g
       id="g724"
       transform="translate(347.125,443.7666)"><path
         d="M 0,0 H 2.48 C 4.763,0 6.614,-1.851 6.614,-4.134 V -11.161 C 6.614,-13.444 4.763,-15.295 2.48,-15.295 H 0 C -2.283,-15.295 -4.133,-13.444 -4.133,-11.161 V -4.134 C -4.133,-1.851 -2.283,0 0,0"
         style="fill:#a2a6ac;fill-opacity:1;fill-rule:nonzero;stroke:none"
         id="path726" /></g><g
       id="g728"
       transform="translate(309.9077,418.9385)"><path
         d="M 0,0 H 15.397 V 13.764 C 15.397,18.016 11.95,21.462 7.698,21.462 C 3.447,21.462 0,18.016 0,13.764 Z"
         style="fill:#ed0009;fill-opacity:1;fill-rule:nonzero;stroke:none"
         id="path730" /></g><g
       id="g732"
       transform="translate(289.5151,418.9385)"><path
         d="M 0,0 H 15.397 V 13.764 C 15.397,18.016 11.95,21.462 7.699,21.462 H 7.698 C 3.447,21.462 0,18.016 0,13.764 Z"
         style="fill:#ff8600;fill-opacity:1;fill-rule:nonzero;stroke:none"
         id="path734" /></g><g
       id="g736"
       transform="translate(269.1226,418.9385)"><path
         d="M 0,0 H 15.397 V 13.764 C 15.397,18.016 11.95,21.462 7.699,21.462 C 3.447,21.462 0,18.016 0,13.764 Z"
         style="fill:#ffb100;fill-opacity:1;fill-rule:nonzero;stroke:none"
         id="path738" /></g><g
       id="g740"
       transform="translate(348.606,356.2256)"><path
         d="M 0,0 H 51.913 C 53.396,0 54.599,1.202 54.599,2.686 V 44.529 C 54.599,46.013 53.396,47.215 51.913,47.215 H 0 C -1.483,47.215 -2.686,46.013 -2.686,44.529 V 2.686 C -2.686,1.202 -1.483,0 0,0"
         style="fill:#ffb100;fill-opacity:1;fill-rule:nonzero;stroke:none"
         id="path742" /></g><g
       id="g744"
       transform="translate(400.6323,402.2236)"><path
         d="M 0,0 C 0.837,0 1.516,-0.679 1.516,-1.516 C 1.516,-2.353 0.837,-3.031 0,-3.031 C -0.837,-3.031 -1.516,-2.353 -1.516,-1.516 C -1.516,-0.679 -0.837,0 0,0"
         style="fill:#55575b;fill-opacity:1;fill-rule:nonzero;stroke:none"
         id="path746" /></g><g
       id="g748"
       transform="translate(348.4922,402.2236)"><path
         d="M 0,0 C 0.837,0 1.516,-0.679 1.516,-1.516 C 1.516,-2.353 0.837,-3.031 0,-3.031 C -0.837,-3.031 -1.516,-2.353 -1.516,-1.516 C -1.516,-0.679 -0.837,0 0,0"
         style="fill:#55575b;fill-opacity:1;fill-rule:nonzero;stroke:none"
         id="path750" /></g><g
       id="g752"
       transform="translate(400.6323,360.4746)"><path
         d="M 0,0 C 0.837,0 1.516,-0.679 1.516,-1.516 C 1.516,-2.354 0.837,-3.032 0,-3.032 C -0.837,-3.032 -1.516,-2.354 -1.516,-1.516 C -1.516,-0.679 -0.837,0 0,0"
         style="fill:#55575b;fill-opacity:1;fill-rule:nonzero;stroke:none"
         id="path754" /></g><g
       id="g756"
       transform="translate(348.4922,360.4746)"><path
         d="M 0,0 C 0.837,0 1.516,-0.679 1.516,-1.516 C 1.516,-2.354 0.837,-3.032 0,-3.032 C -0.837,-3.032 -1.516,-2.354 -1.516,-1.516 C -1.516,-0.679 -0.837,0 0,0"
         style="fill:#55575b;fill-opacity:1;fill-rule:nonzero;stroke:none"
         id="path758" /></g><g
       id="g760"><g
         id="g762" /><g
         id="g774"><g
           clip-path="url(#clipPath766)"
           opacity="0.300003"
           id="g772"><g
             transform="translate(370.4844,371.0273)"
             id="g770"><path
               d="M 0,0 L -4.9,9.243 C -4.7,9.726 -4.569,10.229 -4.497,10.739 C -4.038,10.281 -3.514,9.889 -2.94,9.575 Z M 12.746,9.243 L 7.002,-1.591 L 10.522,9.875 C 11.183,10.148 11.782,10.536 12.303,11.009 C 12.362,10.406 12.51,9.811 12.746,9.243 M -20.959,1.231 C -19.132,-0.597 -16.525,-1.17 -14.208,-0.489 L 2.371,-9.278 C 2.818,-9.516 3.28,-9.449 3.626,-9.216 C 3.802,-9.232 3.978,-9.22 4.146,-9.164 C 4.498,-9.439 4.995,-9.532 5.475,-9.278 L 22.053,-0.489 C 24.37,-1.17 26.977,-0.597 28.805,1.231 C 31.33,3.757 31.457,7.768 29.192,10.447 C 30.016,12.444 29.618,14.826 27.995,16.449 C 26.128,18.316 23.256,18.562 21.122,17.19 C 18.911,18.244 16.21,17.911 14.313,16.191 C 14.079,18.619 12.439,20.631 10.219,21.417 C 9.68,23.896 7.476,25.754 4.835,25.754 C 2.541,25.754 0.574,24.351 -0.255,22.356 C -3.544,22.08 -6.167,19.473 -6.466,16.19 C -8.364,17.911 -11.065,18.245 -13.276,17.19 C -15.411,18.562 -18.283,18.316 -20.15,16.449 C -21.772,14.826 -22.171,12.444 -21.347,10.447 C -23.611,7.768 -23.485,3.757 -20.959,1.231"
               style="fill:#231b1d;fill-opacity:1;fill-rule:nonzero;stroke:none"
               id="path768" /></g></g></g></g><g
       id="g776"
       transform="translate(370.0732,389.5527)"><path
         d="M 0,0 C 0,-2.869 2.325,-5.194 5.194,-5.194 C 8.062,-5.194 10.387,-2.869 10.387,0 C 10.387,2.868 8.062,5.193 5.194,5.193 C 2.325,5.193 0,2.868 0,0"
         style="fill:#ed0009;fill-opacity:1;fill-rule:nonzero;stroke:none"
         id="path778" /></g><g
       id="g780"
       transform="translate(374.2397,382.0176)"><path
         d="M 0,0 H 7.071 L 1.109,-19.415 C 0.774,-20.508 -0.774,-20.508 -1.109,-19.415 L -7.071,0 Z"
         style="fill:#c47014;fill-opacity:1;fill-rule:nonzero;stroke:none"
         id="path782" /></g><g
       id="g784"
       transform="translate(364.5894,385.1475)"><path
         d="M 0,0 C 0,-3.549 2.876,-6.426 6.426,-6.426 C 9.975,-6.426 12.851,-3.549 12.851,0 C 12.851,3.549 9.975,6.426 6.426,6.426 C 2.876,6.426 0,3.549 0,0"
         style="fill:#e4e6e8;fill-opacity:1;fill-rule:nonzero;stroke:none"
         id="path786" /></g><g
       id="g788"
       transform="translate(372.5674,385.1709)"><path
         d="M 0,0 C 0,-3.219 2.61,-5.828 5.829,-5.828 C 9.048,-5.828 11.657,-3.219 11.657,0 C 11.657,3.219 9.048,5.828 5.829,5.828 C 2.61,5.828 0,3.219 0,0"
         style="fill:#ff8600;fill-opacity:1;fill-rule:nonzero;stroke:none"
         id="path790" /></g><g
       id="g792"
       transform="translate(351.7271,378.6348)"><path
         d="M 0,0 C 2.028,-2.028 5.316,-2.028 7.345,0 C 9.373,2.028 9.373,5.317 7.345,7.345 C 5.316,9.373 2.028,9.373 0,7.345 C -2.028,5.317 -2.028,2.028 0,0"
         style="fill:#ed0009;fill-opacity:1;fill-rule:nonzero;stroke:none"
         id="path794" /></g><g
       id="g796"
       transform="translate(360.001,376.2529)"><path
         d="M 0,0 L 5,5 L 14.513,-12.943 C 15.048,-13.954 13.954,-15.048 12.944,-14.513 L -5,-4.999 Z"
         style="fill:#c47014;fill-opacity:1;fill-rule:nonzero;stroke:none"
         id="path798" /></g><g
       id="g800"
       transform="translate(350.9644,371.6416)"><path
         d="M 0,0 C 2.509,-2.509 6.578,-2.509 9.087,0 C 11.597,2.51 11.597,6.578 9.087,9.088 C 6.578,11.598 2.509,11.598 0,9.088 C -2.51,6.578 -2.51,2.51 0,0"
         style="fill:#e4e6e8;fill-opacity:1;fill-rule:nonzero;stroke:none"
         id="path802" /></g><g
       id="g804"
       transform="translate(356.5889,377.3008)"><path
         d="M 0,0 C 2.276,-2.276 5.967,-2.276 8.243,0 C 10.519,2.276 10.519,5.967 8.243,8.242 C 5.967,10.519 2.276,10.519 0,8.242 C -2.276,5.967 -2.276,2.276 0,0"
         style="fill:#ff8600;fill-opacity:1;fill-rule:nonzero;stroke:none"
         id="path806" /></g><g
       id="g808"
       transform="translate(397.0869,378.6348)"><path
         d="M 0,0 C -2.028,-2.028 -5.317,-2.028 -7.345,0 C -9.373,2.028 -9.373,5.317 -7.345,7.345 C -5.317,9.373 -2.028,9.373 0,7.345 C 2.028,5.317 2.028,2.028 0,0"
         style="fill:#ed0009;fill-opacity:1;fill-rule:nonzero;stroke:none"
         id="path810" /></g><g
       id="g812"
       transform="translate(388.813,376.2529)"><path
         d="M 0,0 L -5,5 L -14.513,-12.943 C -15.048,-13.954 -13.954,-15.048 -12.944,-14.513 L 5,-4.999 Z"
         style="fill:#c47014;fill-opacity:1;fill-rule:nonzero;stroke:none"
         id="path814" /></g><g
       id="g816"
       transform="translate(397.8496,371.6416)"><path
         d="M 0,0 C -2.509,-2.509 -6.578,-2.509 -9.087,0 C -11.597,2.51 -11.597,6.578 -9.087,9.088 C -6.578,11.598 -2.509,11.598 0,9.088 C 2.509,6.578 2.509,2.51 0,0"
         style="fill:#e4e6e8;fill-opacity:1;fill-rule:nonzero;stroke:none"
         id="path818" /></g><g
       id="g820"
       transform="translate(392.2251,377.3008)"><path
         d="M 0,0 C -2.276,-2.276 -5.967,-2.276 -8.243,0 C -10.519,2.276 -10.519,5.967 -8.243,8.242 C -5.967,10.519 -2.276,10.519 0,8.242 C 2.276,5.967 2.276,2.276 0,0"
         style="fill:#ff8600;fill-opacity:1;fill-rule:nonzero;stroke:none"
         id="path822" /></g><g
       id="g824"
       transform="translate(1082.5088,591.4014)"><path
         d="M 0,0 H -1.352 V 26.013 C -1.352,26.386 -1.049,26.688 -0.676,26.688 C -0.303,26.688 0,26.386 0,26.013 Z"
         style="fill:#b8bcc0;fill-opacity:1;fill-rule:nonzero;stroke:none"
         id="path826" /></g><g
       id="g828"
       transform="translate(1080.4824,601.9297)"><path
         d="M 0,0 V 14.064 C 0,14.344 0.227,14.57 0.507,14.57 H 19.727 L 13.949,7.032 L 19.727,-0.506 H 0.507 C 0.227,-0.506 0,-0.279 0,0"
         style="fill:#ed0009;fill-opacity:1;fill-rule:nonzero;stroke:none"
         id="path830" /></g><path
       d="M 989.665,503.098 H 1173.56 V 290.625 H 989.665 Z"
       style="fill:#f0f2f2;fill-opacity:1;fill-rule:nonzero;stroke:none"
       id="path832" /><g
       id="g834"
       transform="translate(1140.4629,503.0977)"
       style="fill:#ffd223;fill-opacity:1"><path
         d="M 0,0 V -212.473 H 33.096 H 33.097 V 0 C 33.097,0 1.034,-1.507 0,0"
         style="fill:#ffd223;fill-opacity:1;fill-rule:nonzero;stroke:none"
         id="path836" /></g><path
       d="M 1102.407,503.098 H 1060.817 V 290.625 H 1102.407 Z"
       style="fill:#ffd223;fill-opacity:1;fill-rule:nonzero;stroke:none"
       id="path838" /><path
       d="M 1022.762,503.098 H 989.665 V 290.625 H 1022.762 Z"
       style="fill:#ffd223;fill-opacity:1;fill-rule:nonzero;stroke:none"
       id="path840" /><g
       id="g842"><g
         id="g844" /><g
         id="g856"><g
           clip-path="url(#clipPath848)"
           opacity="0.300003"
           id="g854"><g
             transform="translate(1081.6123,477.6865)"
             id="g852"><path
               d="M 0,0 C -28.785,0 -52.203,-23.418 -52.203,-52.203 V -100.926 H -37.412 V -52.203 C -37.412,-31.574 -20.63,-14.791 0,-14.791 C 20.629,-14.791 37.412,-31.574 37.412,-52.203 V -100.926 H 52.203 V -52.203 C 52.203,-23.418 28.785,0 0,0"
               style="fill:#000000;fill-opacity:1;fill-rule:nonzero;stroke:none"
               id="path850" /></g></g></g></g><g
       id="g858"><g
         id="g860" /><g
         id="g872"><g
           clip-path="url(#clipPath864)"
           opacity="0.300003"
           id="g870"><g
             transform="translate(989.665,484.9814)"
             id="g868"><path
               d="M 0,0 C 2.916,-0.094 5.848,0.291 8.626,1.19 C 11.059,1.977 13.363,3.13 15.474,4.615 C 17.47,6.02 19.25,7.685 20.778,9.564 C 20.905,9.4 21.033,9.237 21.163,9.076 C 22.053,7.972 23.028,6.923 24.062,5.959 C 24.575,5.479 25.117,5.011 25.669,4.566 C 26.501,3.896 27.419,3.247 28.475,2.584 C 28.921,2.304 29.375,2.034 29.838,1.777 C 30.958,1.155 32.003,0.651 33.027,0.238 C 34.371,-0.306 35.767,-0.75 37.177,-1.083 C 38.611,-1.422 40.085,-1.652 41.561,-1.768 C 42.304,-1.825 43.063,-1.854 43.819,-1.854 C 47.546,-1.854 51.177,-1.15 54.609,0.237 C 57.255,1.305 59.73,2.762 61.969,4.564 C 62.522,5.011 63.064,5.479 63.579,5.959 C 64.614,6.925 65.589,7.973 66.479,9.078 C 66.589,9.216 66.699,9.355 66.808,9.496 C 72.689,1.761 81.909,-2.944 91.947,-2.944 C 101.985,-2.944 111.205,1.761 117.087,9.496 C 117.196,9.355 117.306,9.216 117.417,9.078 C 118.307,7.973 119.281,6.923 120.314,5.96 C 120.826,5.482 121.367,5.014 121.925,4.565 C 124.163,2.762 126.64,1.305 129.284,0.237 C 132.719,-1.15 136.349,-1.854 140.075,-1.854 C 140.831,-1.854 141.592,-1.825 142.337,-1.767 C 143.809,-1.652 145.282,-1.422 146.718,-1.083 C 148.127,-0.75 149.523,-0.306 150.862,0.237 C 151.891,0.651 152.937,1.155 154.058,1.777 C 154.519,2.034 154.971,2.303 155.42,2.584 C 156.474,3.245 157.39,3.893 158.227,4.566 C 158.784,5.018 159.325,5.486 159.833,5.959 C 160.865,6.921 161.841,7.971 162.731,9.078 C 162.862,9.238 162.989,9.401 163.116,9.564 C 164.645,7.685 166.425,6.02 168.42,4.616 C 170.532,3.129 172.837,1.977 175.267,1.19 C 178.047,0.29 180.978,-0.094 183.894,0 V 18.116 H 0 Z"
               style="fill:#000000;fill-opacity:1;fill-rule:nonzero;stroke:none"
               id="path866" /></g></g></g></g><g
       id="g874"
       transform="translate(1126.4199,384.1562)"><path
         d="M 0,0 H -89.615 V 41.327 C -89.615,66.074 -69.555,86.135 -44.808,86.135 C -20.061,86.135 0,66.074 0,41.327 Z"
         style="fill:#403e42;fill-opacity:1;fill-rule:nonzero;stroke:none"
         id="path876" /></g><g
       id="g878"
       transform="translate(1117.5908,384.1562)"><path
         d="M 0,0 H -71.957 V 40.167 C -71.957,60.037 -55.849,76.146 -35.979,76.146 C -16.108,76.146 0,60.037 0,40.167 Z"
         style="fill:#231b1d;fill-opacity:1;fill-rule:nonzero;stroke:none"
         id="path880" /></g><g
       id="g882"
       transform="translate(1040.2842,425.4834)"
       style="fill:#ffd223;fill-opacity:1"><path
         d="M 0,0 C 0,22.788 18.54,41.328 41.328,41.328 C 64.116,41.328 82.655,22.788 82.655,0 V -35.962 H 0 Z M 94.728,-35.962 H 89.616 V 0 C 89.616,26.626 67.954,48.288 41.328,48.288 C 14.701,48.288 -6.96,26.626 -6.96,0 V -35.962 H -12.071 V -41.327 H -6.96 V -44.808 H 0 V -41.327 H 82.655 V -44.808 H 89.616 V -41.327 H 94.728 Z"
         style="fill:#ffd223;fill-opacity:1;fill-rule:nonzero;stroke:none"
         id="path884" /></g><g
       id="g886"><g
         id="g888" /><g
         id="g898"><g
           clip-path="url(#clipPath892)"
           opacity="0.300003"
           id="g896"><path
             d="M 1000.912,384.156 H 1162.312 V 362.26 H 1000.912 Z"
             style="fill:#000000;fill-opacity:1;fill-rule:nonzero;stroke:none"
             id="path894" /></g></g></g><path
       d="M 1000.912,384.156 H 1162.312 V 367.189 H 1000.912 Z"
       style="fill:#f0f2f2;fill-opacity:1;fill-rule:nonzero;stroke:none"
       id="path900" /><g
       id="g902"><g
         id="g904" /><g
         id="g914"><g
           clip-path="url(#clipPath908)"
           opacity="0.300003"
           id="g912"><path
             d="M 989.665,311.18 H 1173.56 V 290.625 H 989.665 Z"
             style="fill:#000000;fill-opacity:1;fill-rule:nonzero;stroke:none"
             id="path910" /></g></g></g><path
       d="M 981.972,307.011 H 1181.253 V 290.045 H 981.972 Z"
       style="fill:#ced2d4;fill-opacity:1;fill-rule:nonzero;stroke:none"
       id="path916" /><g
       id="g918"><g
         id="g920" /><g
         id="g930"><g
           clip-path="url(#clipPath924)"
           opacity="0.300003"
           id="g928"><path
             d="M 981.972,301.79 H 1181.253 V 290.045 H 981.972 Z"
             style="fill:#000000;fill-opacity:1;fill-rule:nonzero;stroke:none"
             id="path926" /></g></g></g><path
       d="M 975.555,298.891 H 1187.67 V 290.045 H 975.555 Z"
       style="fill:#ced2d4;fill-opacity:1;fill-rule:nonzero;stroke:none"
       id="path932" /><g
       id="g934"
       transform="translate(1056.4805,503.0977)"
       style="fill:#ffd223;fill-opacity:1"><path
         d="M 0,0 C 4.119,-9.815 13.819,-16.71 25.132,-16.71 C 36.443,-16.71 46.144,-9.815 50.264,0 Z"
         style="fill:#ffd223;fill-opacity:1;fill-rule:nonzero;stroke:none"
         id="path936" /></g><g
       id="g938"
       transform="translate(1106.7441,503.0977)"><path
         d="M 0,0 C 3.769,-9.176 12.645,-15.62 22.995,-15.62 C 33.346,-15.62 42.222,-9.176 45.991,0 Z"
         style="fill:#f0f2f2;fill-opacity:1;fill-rule:nonzero;stroke:none"
         id="path940" /></g><g
       id="g942"
       transform="translate(1152.7354,503.0977)"
       style="fill:#ffd223;fill-opacity:1"><path
         d="M 0,0 C 3.278,-8.108 10.997,-13.804 19.999,-13.804 C 29,-13.804 36.72,-8.108 39.998,0 Z"
         style="fill:#ffd223;fill-opacity:1;fill-rule:nonzero;stroke:none"
         id="path944" /></g><g
       id="g946"
       transform="translate(1056.4805,503.0977)"><path
         d="M 0,0 C -3.77,-9.176 -12.646,-15.62 -22.996,-15.62 C -33.347,-15.62 -42.222,-9.176 -45.991,0 Z"
         style="fill:#f0f2f2;fill-opacity:1;fill-rule:nonzero;stroke:none"
         id="path948" /></g><g
       id="g950"
       transform="translate(1010.4893,503.0977)"
       style="fill:#ffd223;fill-opacity:1"><path
         d="M 0,0 C -3.278,-8.108 -10.997,-13.804 -19.999,-13.804 C -29.001,-13.804 -36.72,-8.108 -39.998,0 Z"
         style="fill:#ffd223;fill-opacity:1;fill-rule:nonzero;stroke:none"
         id="path952" /></g><g
       id="g954"
       transform="translate(-1e-4,4e-4)"><g
         id="g956" /><g
         id="g984"><g
           clip-path="url(#clipPath960)"
           opacity="0.199997"
           id="g982"><g
             transform="translate(1081.6123,486.3877)"
             id="g964"><path
               d="M 0,0 C 11.312,0 21.012,6.895 25.132,16.71 H -25.132 C -21.013,6.895 -11.313,0 0,0"
               style="fill:#000000;fill-opacity:1;fill-rule:nonzero;stroke:none"
               id="path962" /></g><g
             transform="translate(1129.7393,487.4775)"
             id="g968"><path
               d="M 0,0 C 10.351,0 19.227,6.444 22.996,15.62 H -22.995 C -19.227,6.444 -10.351,0 0,0"
               style="fill:#000000;fill-opacity:1;fill-rule:nonzero;stroke:none"
               id="path966" /></g><g
             transform="translate(1172.7344,489.2939)"
             id="g972"><path
               d="M 0,0 C 9.001,0 16.721,5.695 19.999,13.804 H -19.999 C -16.721,5.695 -9.002,0 0,0"
               style="fill:#000000;fill-opacity:1;fill-rule:nonzero;stroke:none"
               id="path970" /></g><g
             transform="translate(1033.4844,487.4775)"
             id="g976"><path
               d="M 0,0 C 10.351,0 19.227,6.444 22.996,15.62 H -22.995 C -19.226,6.444 -10.351,0 0,0"
               style="fill:#000000;fill-opacity:1;fill-rule:nonzero;stroke:none"
               id="path974" /></g><g
             transform="translate(990.4902,489.2939)"
             id="g980"><path
               d="M 0,0 C 9.002,0 16.721,5.695 19.999,13.804 H -19.999 C -16.721,5.695 -9.002,0 0,0"
               style="fill:#000000;fill-opacity:1;fill-rule:nonzero;stroke:none"
               id="path978" /></g></g></g></g><g
       id="g986"
       transform="translate(1081.6123,597.7549)"
       style="fill:#ffd223;fill-opacity:1"><path
         d="M 0,0 L -25.132,-94.657 H 25.132 Z"
         style="fill:#ffd223;fill-opacity:1;fill-rule:nonzero;stroke:none"
         id="path988" /></g><g
       id="g990"
       transform="translate(1081.6123,597.7549)"><path
         d="M 0,0 L 71.123,-94.657 H 25.132 Z"
         style="fill:#f0f2f2;fill-opacity:1;fill-rule:nonzero;stroke:none"
         id="path992" /></g><g
       id="g994"
       transform="translate(1192.7334,503.0977)"
       style="fill:#ffd223;fill-opacity:1"><path
         d="M 0,0 L -111.121,94.657 L -39.998,0 Z"
         style="fill:#ffd223;fill-opacity:1;fill-rule:nonzero;stroke:none"
         id="path996" /></g><g
       id="g998"
       transform="translate(1081.6123,597.7549)"><path
         d="M 0,0 L -71.123,-94.657 H -25.132 Z"
         style="fill:#f0f2f2;fill-opacity:1;fill-rule:nonzero;stroke:none"
         id="path1000" /></g><g
       id="g1002"
       transform="translate(970.4912,503.0977)"
       style="fill:#ffd223;fill-opacity:1"><path
         d="M 0,0 L 111.121,94.657 L 39.998,0 Z"
         style="fill:#ffd223;fill-opacity:1;fill-rule:nonzero;stroke:none"
         id="path1004" /></g><g
       id="g1006"
       transform="translate(1069.6211,1063.3237)"><path
         d="M 0,0 C -67.35,0 -121.947,-54.597 -121.947,-121.947 C -121.947,-188.453 -66.601,-243.402 -30.48,-272.182 H 30.48 C 66.601,-243.402 121.946,-188.453 121.946,-121.947 C 121.946,-54.597 67.35,0 0,0"
         style="fill:#ed0009;fill-opacity:1;fill-rule:nonzero;stroke:none"
         id="path1008" /></g><g
       id="g1010"
       transform="translate(1091.7793,791.1421)"><path
         d="M 0,0 C 26.258,28.78 66.493,83.729 66.493,150.235 C 66.493,217.584 26.803,272.182 -22.158,272.182 C -71.119,272.182 -110.81,217.584 -110.81,150.235 C -110.81,83.729 -70.574,28.78 -44.316,0 Z"
         style="fill:#f0f2f2;fill-opacity:1;fill-rule:nonzero;stroke:none"
         id="path1012" /></g><path
       d="M 1044.25,738.404 H 1042.091 V 787.569 H 1044.25 Z"
       style="fill:#55575b;fill-opacity:1;fill-rule:nonzero;stroke:none"
       id="path1014" /><path
       d="M 1097.15,738.404 H 1094.991 V 787.569 H 1097.15 Z"
       style="fill:#55575b;fill-opacity:1;fill-rule:nonzero;stroke:none"
       id="path1016" /><path
       d="M 1055.047,738.404 H 1052.888 V 787.569 H 1055.047 Z"
       style="fill:#55575b;fill-opacity:1;fill-rule:nonzero;stroke:none"
       id="path1018" /><path
       d="M 1086.354,738.404 H 1084.195 V 787.569 H 1086.354 Z"
       style="fill:#55575b;fill-opacity:1;fill-rule:nonzero;stroke:none"
       id="path1020" /><g
       id="g1022"
       transform="translate(1090.3311,711.5942)"><path
         d="M 0,0 H -41.42 C -46.976,0 -51.479,4.503 -51.479,10.059 V 31.848 H 10.059 V 10.059 C 10.059,4.503 5.555,0 0,0"
         style="fill:#725a3e;fill-opacity:1;fill-rule:nonzero;stroke:none"
         id="path1024" /></g><g
       id="g1026"
       transform="translate(1057.458,743.4424)"><path
         d="M 0,0 V -22.907 C 0,-24.367 1.184,-25.55 2.644,-25.55 H 21.682 C 23.142,-25.55 24.325,-24.367 24.325,-22.907 V 0 Z"
         style="fill:#ced2d4;fill-opacity:1;fill-rule:nonzero;stroke:none"
         id="path1028" /></g><g
       id="g1030"
       transform="translate(1079.6816,740.5889)"><path
         d="M 0,0 H -5.659 C -6.122,0 -6.497,0.375 -6.497,0.838 C -6.497,1.301 -6.122,1.677 -5.659,1.677 H 0 C 0.463,1.677 0.839,1.301 0.839,0.838 C 0.839,0.375 0.463,0 0,0"
         style="fill:#55575b;fill-opacity:1;fill-rule:nonzero;stroke:none"
         id="path1032" /></g><g
       id="g1034"
       transform="translate(1078.6035,791.1421)"><path
         d="M 0,0 C 10.645,28.78 26.955,83.729 26.955,150.235 C 26.955,217.584 10.865,272.182 -8.982,272.182 C -28.83,272.182 -44.92,217.584 -44.92,150.235 C -44.92,83.729 -28.609,28.78 -17.965,0 Z"
         style="fill:#ed0009;fill-opacity:1;fill-rule:nonzero;stroke:none"
         id="path1036" /></g><g
       id="g1038"
       transform="translate(1034.333,788.0156)"><path
         d="M 0,0 V 0 C 0,-2.33 1.889,-4.218 4.218,-4.218 H 66.357 C 68.688,-4.218 70.576,-2.33 70.576,0 C 70.576,2.33 68.688,4.218 66.357,4.218 H 4.218 C 1.889,4.218 0,2.33 0,0"
         style="fill:#f0f2f2;fill-opacity:1;fill-rule:nonzero;stroke:none"
         id="path1040" /></g><g
       id="g1042"
       transform="translate(858.0342,950.165)"><path
         d="M 0,0 C -33.583,0 -60.807,-27.224 -60.807,-60.806 C -60.807,-93.968 -33.209,-121.367 -15.198,-135.718 H 15.198 C 33.209,-121.367 60.806,-93.968 60.806,-60.806 C 60.806,-27.224 33.582,0 0,0"
         style="fill:#009ee1;fill-opacity:1;fill-rule:nonzero;stroke:none"
         id="path1044" /></g><g
       id="g1046"
       transform="translate(869.082,814.4473)"><path
         d="M 0,0 C 13.094,14.351 33.156,41.75 33.156,74.912 C 33.156,108.494 13.365,135.718 -11.048,135.718 C -35.462,135.718 -55.253,108.494 -55.253,74.912 C -55.253,41.75 -35.19,14.351 -22.097,0 Z"
         style="fill:#f0f2f2;fill-opacity:1;fill-rule:nonzero;stroke:none"
         id="path1048" /></g><path
       d="M 845.384,788.15 H 844.307 V 812.665 H 845.384 Z"
       style="fill:#55575b;fill-opacity:1;fill-rule:nonzero;stroke:none"
       id="path1050" /><path
       d="M 871.761,788.15 H 870.685 V 812.665 H 871.761 Z"
       style="fill:#55575b;fill-opacity:1;fill-rule:nonzero;stroke:none"
       id="path1052" /><path
       d="M 850.767,788.15 H 849.69 V 812.665 H 850.767 Z"
       style="fill:#55575b;fill-opacity:1;fill-rule:nonzero;stroke:none"
       id="path1054" /><path
       d="M 866.378,788.15 H 865.301 V 812.665 H 866.378 Z"
       style="fill:#55575b;fill-opacity:1;fill-rule:nonzero;stroke:none"
       id="path1056" /><g
       id="g1058"
       transform="translate(868.3604,774.7822)"><path
         d="M 0,0 H -20.653 C -23.423,0 -25.669,2.246 -25.669,5.016 V 15.88 H 5.016 V 5.016 C 5.016,2.246 2.77,0 0,0"
         style="fill:#725a3e;fill-opacity:1;fill-rule:nonzero;stroke:none"
         id="path1060" /></g><g
       id="g1062"
       transform="translate(851.9687,790.6626)"><path
         d="M 0,0 V -11.422 C 0,-12.15 0.591,-12.74 1.318,-12.74 H 10.812 C 11.54,-12.74 12.13,-12.15 12.13,-11.422 V 0 Z"
         style="fill:#ced2d4;fill-opacity:1;fill-rule:nonzero;stroke:none"
         id="path1064" /></g><g
       id="g1066"
       transform="translate(863.0508,789.2397)"><path
         d="M 0,0 H -2.822 C -3.053,0 -3.24,0.187 -3.24,0.418 C -3.24,0.649 -3.053,0.836 -2.822,0.836 H 0 C 0.23,0.836 0.418,0.649 0.418,0.418 C 0.418,0.187 0.23,0 0,0"
         style="fill:#55575b;fill-opacity:1;fill-rule:nonzero;stroke:none"
         id="path1068" /></g><g
       id="g1070"
       transform="translate(862.5127,814.4473)"><path
         d="M 0,0 C 5.308,14.351 13.44,41.75 13.44,74.912 C 13.44,108.494 5.418,135.718 -4.479,135.718 C -14.376,135.718 -22.398,108.494 -22.398,74.912 C -22.398,41.75 -14.266,14.351 -8.958,0 Z"
         style="fill:#009ee1;fill-opacity:1;fill-rule:nonzero;stroke:none"
         id="path1072" /></g><g
       id="g1074"
       transform="translate(840.4385,812.8882)"><path
         d="M 0,0 V 0 C 0,-1.162 0.941,-2.104 2.103,-2.104 H 33.088 C 34.249,-2.104 35.191,-1.162 35.191,0 C 35.191,1.162 34.249,2.104 33.088,2.104 H 2.103 C 0.941,2.104 0,1.162 0,0"
         style="fill:#f0f2f2;fill-opacity:1;fill-rule:nonzero;stroke:none"
         id="path1076" /></g></g></svg>
