<?xml version="1.0" encoding="UTF-8" standalone="no"?>
<svg
   xmlns:dc="http://purl.org/dc/elements/1.1/"
   xmlns:cc="http://creativecommons.org/ns#"
   xmlns:rdf="http://www.w3.org/1999/02/22-rdf-syntax-ns#"
   xmlns:svg="http://www.w3.org/2000/svg"
   xmlns="http://www.w3.org/2000/svg"
   xmlns:sodipodi="http://sodipodi.sourceforge.net/DTD/sodipodi-0.dtd"
   xmlns:inkscape="http://www.inkscape.org/namespaces/inkscape"
   version="1.1"
   id="svg2"
   xml:space="preserve"
   width="388"
   height="204.07199"
   viewBox="0 0 388.00001 204.07199"
   sodipodi:docname="picket fence vector 1.eps"
   inkscape:version="1.0.2 (394de47547, 2021-03-26)"><metadata
     id="metadata8"><rdf:RDF><cc:Work
         rdf:about=""><dc:format>image/svg+xml</dc:format><dc:type
           rdf:resource="http://purl.org/dc/dcmitype/StillImage" /><dc:title></dc:title></cc:Work></rdf:RDF></metadata><defs
     id="defs6" /><sodipodi:namedview
     pagecolor="#ffffff"
     bordercolor="#666666"
     borderopacity="1"
     objecttolerance="10"
     gridtolerance="10"
     guidetolerance="10"
     inkscape:pageopacity="0"
     inkscape:pageshadow="2"
     inkscape:window-width="1848"
     inkscape:window-height="1016"
     id="namedview4"
     showgrid="false"
     inkscape:zoom="0.5974744"
     inkscape:cx="-39.745009"
     inkscape:cy="194.38407"
     inkscape:window-x="72"
     inkscape:window-y="27"
     inkscape:window-maximized="1"
     inkscape:current-layer="g10" /><g
     id="g10"
     inkscape:groupmode="layer"
     inkscape:label="ink_ext_XXXXXX"
     transform="matrix(1.3333333,0,0,-1.3333333,-560.39999,805.84931)"><g
       id="g1193"><path
         d="M 429.335,451.333 H 441.202 V 598.453 C 441.202,601.73 438.546,604.387 435.269,604.387 V 604.387 C 431.992,604.387 429.335,601.73 429.335,598.453 V 451.333"
         style="fill:#ffffff;fill-opacity:1;fill-rule:nonzero;stroke:none;stroke-width:0.1"
         id="path68" /><path
         d="M 453.068,451.333 H 464.935 V 598.453 C 464.935,601.73 462.278,604.387 459.002,604.387 V 604.387 C 455.725,604.387 453.068,601.73 453.068,598.453 V 451.333"
         style="fill:#ffffff;fill-opacity:1;fill-rule:nonzero;stroke:none;stroke-width:0.1"
         id="path70" /><path
         d="M 476.801,451.333 H 488.668 V 598.453 C 488.668,601.73 486.011,604.387 482.734,604.387 V 604.387 C 479.458,604.387 476.801,601.73 476.801,598.453 V 451.333"
         style="fill:#ffffff;fill-opacity:1;fill-rule:nonzero;stroke:none;stroke-width:0.1"
         id="path72" /><path
         d="M 500.534,451.333 H 512.401 V 598.453 C 512.401,601.73 509.744,604.387 506.467,604.387 V 604.387 C 503.191,604.387 500.534,601.73 500.534,598.453 V 451.333"
         style="fill:#ffffff;fill-opacity:1;fill-rule:nonzero;stroke:none;stroke-width:0.1"
         id="path74" /><path
         d="M 524.267,451.333 H 536.133 V 598.453 C 536.133,601.73 533.477,604.387 530.2,604.387 V 604.387 C 526.923,604.387 524.267,601.73 524.267,598.453 V 451.333"
         style="fill:#ffffff;fill-opacity:1;fill-rule:nonzero;stroke:none;stroke-width:0.1"
         id="path76" /><path
         d="M 548,451.333 H 559.866 V 598.453 C 559.866,601.73 557.21,604.387 553.933,604.387 V 604.387 C 550.656,604.387 548,601.73 548,598.453 V 451.333"
         style="fill:#ffffff;fill-opacity:1;fill-rule:nonzero;stroke:none;stroke-width:0.1"
         id="path78" /><path
         d="M 571.733,451.333 H 583.599 V 598.453 C 583.599,601.73 580.943,604.387 577.666,604.387 V 604.387 C 574.389,604.387 571.733,601.73 571.733,598.453 V 451.333"
         style="fill:#ffffff;fill-opacity:1;fill-rule:nonzero;stroke:none;stroke-width:0.1"
         id="path80" /><path
         d="M 595.466,451.333 H 607.332 V 598.453 C 607.332,601.73 604.676,604.387 601.399,604.387 V 604.387 C 598.122,604.387 595.466,601.73 595.466,598.453 V 451.333"
         style="fill:#ffffff;fill-opacity:1;fill-rule:nonzero;stroke:none;stroke-width:0.1"
         id="path82" /><path
         d="M 619.199,451.333 H 631.065 V 598.453 C 631.065,601.73 628.409,604.387 625.132,604.387 V 604.387 C 621.855,604.387 619.199,601.73 619.199,598.453 V 451.333"
         style="fill:#ffffff;fill-opacity:1;fill-rule:nonzero;stroke:none;stroke-width:0.1"
         id="path84" /><path
         d="M 642.932,451.333 H 654.798 V 598.453 C 654.798,601.73 652.142,604.387 648.865,604.387 V 604.387 C 645.588,604.387 642.932,601.73 642.932,598.453 V 451.333"
         style="fill:#ffffff;fill-opacity:1;fill-rule:nonzero;stroke:none;stroke-width:0.1"
         id="path86" /><path
         d="M 666.664,451.333 H 678.531 V 598.453 C 678.531,601.73 675.874,604.387 672.598,604.387 V 604.387 C 669.321,604.387 666.664,601.73 666.664,598.453 V 451.333"
         style="fill:#ffffff;fill-opacity:1;fill-rule:nonzero;stroke:none;stroke-width:0.1"
         id="path88" /><path
         d="M 690.397,451.333 H 702.264 V 598.453 C 702.264,601.73 699.607,604.387 696.331,604.387 V 604.387 C 693.054,604.387 690.397,601.73 690.397,598.453 V 451.333"
         style="fill:#ffffff;fill-opacity:1;fill-rule:nonzero;stroke:none;stroke-width:0.1"
         id="path90" /><path
         d="M 711.3,465.22 H 420.3 V 477.22 H 711.3 V 465.22"
         style="fill:#ffffff;fill-opacity:1;fill-rule:nonzero;stroke:none;stroke-width:0.1"
         id="path92" /><path
         d="M 711.3,546.562 H 420.3 V 558.562 H 711.3 V 546.562"
         style="fill:#ffffff;fill-opacity:1;fill-rule:nonzero;stroke:none;stroke-width:0.1"
         id="path94" /></g></g></svg>
