<svg width="229.8225341796875px" height="129.22501220703123px" xmlns="http://www.w3.org/2000/svg" viewBox="135.08873291015624 10.387493896484386 229.8225341796875 129.22501220703123" style="background: rgba(0, 0, 0, 0);" preserveAspectRatio="xMidYMid"><defs><filter id="editing-extrusion" x="-100%" y="-100%" width="300%" height="300%"><feFlood result="color1" flood-color="#444444"></feFlood><feConvolveMatrix order="3,3" divisor="1" kernelMatrix="1 0 0 0 1 0 0 0 1" in="SourceAlpha" result="extrude"></feConvolveMatrix><feComposite in="color1" in2="extrude" result="comp-extrude" operator="in"></feComposite><feOffset dx="1.5" dy="1.5" in="comp-extrude" result="offset-extrude"></feOffset><feMerge><feMergeNode in="offset-extrude"></feMergeNode><feMergeNode in="SourceGraphic"></feMergeNode></feMerge></filter></defs><g filter="url(#editing-extrusion)"><g transform="translate(174.96437811851501, 97.9749984741211)"><path d="M50.75-44.67L50.75-44.67L54.85-44.67L54.85-44.67Q51.65-42.18 46.85-31.87L46.85-31.87L46.85-31.87Q38.21-13.50 38.21-6.08L38.21-6.08L38.21-6.08Q38.21-2.30 40.58-2.30L40.58-2.30L40.58-2.30Q41.60-2.30 43.07-3.14L43.07-3.14L43.14-3.14L43.14-3.14Q43.33-3.14 43.33-2.75L43.33-2.75L43.33-2.75Q43.33-1.54 40.10-0.48L40.10-0.48L40.10-0.48Q36.86 0.58 34.88 0.58L34.88 0.58L34.88 0.58Q30.98 0.58 30.98-3.58L30.98-3.58L30.98-3.58Q30.98-9.02 36.16-21.89L36.16-21.89L18.05-21.89L18.05-21.89Q15.94-16.96 13.82-10.72L13.82-10.72L13.82-10.72Q11.71-4.48 11.71-1.41L11.71-1.41L11.71-1.41Q11.71-0.45 11.97 0L11.97 0L3.71 0L3.71 0Q5.50-7.74 11.26-21.50L11.26-21.50L11.26-21.50Q18.94-39.81 21.18-42.30L21.18-42.30L21.18-42.30Q15.74-42.18 10.14-40.10L10.14-40.10L10.14-40.10Q4.54-38.02 3.65-35.14L3.65-35.14L3.65-35.14Q3.58-34.94 3.39-34.94L3.39-34.94L3.39-34.94Q2.82-34.94 2.82-35.78L2.82-35.78L2.82-35.78Q2.82-35.90 2.94-36.42L2.94-36.42L2.94-36.42Q4.16-39.94 6.46-41.86L6.46-41.86L6.46-41.86Q8.77-43.78 10.98-44.22L10.98-44.22L10.98-44.22Q13.18-44.67 16.45-44.67L16.45-44.67L30.91-44.67L30.91-44.67Q26.56-41.34 19.33-25.02L19.33-25.02L37.44-25.02L37.44-25.02Q43.46-39.10 45.95-42.75L45.95-42.75L45.95-42.75Q46.40-43.46 47.62-44.06L47.62-44.06L47.62-44.06Q48.83-44.67 50.75-44.67ZM76.61-15.74L76.61-15.74L76.61-15.74Q76.80-16.13 76.99-16.13L76.99-16.13L76.99-16.13Q77.38-16.13 77.38-15.17L77.38-15.17L77.38-15.17Q77.38-12.10 74.91-10.08L74.91-10.08L74.91-10.08Q72.45-8.06 70.30-8.06L70.30-8.06L70.30-8.06Q68.16-8.06 66.62-9.28L66.62-9.28L66.62-9.28Q64.32-4.74 61.15-2.11L61.15-2.11L61.15-2.11Q57.98 0.51 52.99 0.51L52.99 0.51L52.99 0.51Q49.79 0.51 47.78-1.44L47.78-1.44L47.78-1.44Q45.76-3.39 45.76-7.39L45.76-7.39L45.76-7.39Q45.76-11.39 47.58-15.65L47.58-15.65L47.58-15.65Q49.41-19.90 53.09-22.98L53.09-22.98L53.09-22.98Q56.77-26.05 61.31-26.05L61.31-26.05L61.31-26.05Q68.93-26.05 68.93-17.98L68.93-17.98L68.93-17.98Q68.93-14.91 67.58-11.52L67.58-11.52L67.58-11.52Q68.54-10.18 70.34-10.18L70.34-10.18L70.34-10.18Q73.66-10.18 76.61-15.74ZM65.54-19.71L65.92-19.71L65.92-19.71Q65.66-23.10 62.85-23.10L62.85-23.10L62.85-23.10Q58.43-23.10 54.21-14.53L54.21-14.53L54.21-14.53Q51.90-9.79 51.90-5.95L51.90-5.95L51.90-5.95Q51.90-2.11 55.23-1.92L55.23-1.92L55.23-1.92Q57.98-1.92 60.32-4.83L60.32-4.83L60.32-4.83Q62.66-7.74 64.26-11.26L64.26-11.26L64.26-11.26Q62.08-13.12 62.08-15.94L62.08-15.94L62.08-15.94Q62.08-17.66 63.01-18.69L63.01-18.69L63.01-18.69Q63.94-19.71 65.54-19.71L65.54-19.71ZM98.88-25.79L98.88-25.79L101.95-25.73L101.95-25.73Q102.91-25.73 103.17-25.79L103.17-25.79L103.17-25.79Q101.38-24.58 98.02-17.31L98.02-17.31L98.02-17.31Q94.66-10.05 94.66-6.85L94.66-6.85L94.66-6.85Q94.66-4.93 95.94-4.93L95.94-4.93L95.94-4.93Q96.77-4.93 98.21-6.02L98.21-6.02L98.21-6.02Q99.65-7.10 100.67-8.42L100.67-8.42L100.67-8.42Q101.70-9.73 102.88-11.65L102.88-11.65L102.88-11.65Q104.06-13.57 104.93-14.98L104.93-14.98L104.93-14.98Q105.79-16.38 105.92-16.38L105.92-16.38L105.92-16.38Q106.30-16.38 106.30-15.17L106.30-15.17L106.30-15.17Q106.30-13.95 105.60-12.86L105.60-12.86L105.60-12.86Q97.66 0.38 92.35 0.38L92.35 0.38L92.35 0.38Q88.77 0.38 88.77-4.93L88.77-4.93L88.77-4.93Q88.77-6.59 89.02-8.13L89.02-8.13L89.02-8.13Q83.01 0.38 77.57 0.38L77.57 0.38L77.57 0.38Q75.97 0.38 74.98-0.96L74.98-0.96L74.98-0.96Q73.98-2.30 73.98-4.93L73.98-4.93L73.98-4.93Q73.98-7.55 75.84-13.60L75.84-13.60L75.84-13.60Q77.70-19.65 80.38-23.55L80.38-23.55L80.38-23.55Q81.02-24.51 81.76-24.74L81.76-24.74L81.76-24.74Q82.50-24.96 84.54-24.96L84.54-24.96L87.62-24.96L87.62-24.96Q86.02-22.78 84.16-19.07L84.16-19.07L84.16-19.07Q79.94-10.30 79.94-6.21L79.94-6.21L79.94-6.21Q79.94-3.78 81.70-3.78L81.70-3.78L81.70-3.78Q83.46-3.78 85.89-7.17L85.89-7.17L85.89-7.17Q88.32-10.56 91.10-15.97L91.10-15.97L91.10-15.97Q93.89-21.38 94.34-22.08L94.34-22.08L94.34-22.08Q96.70-25.79 98.88-25.79ZM129.86-12.99L129.86-12.99L129.86-12.99Q125.06-4.99 121.15-1.86L121.15-1.86L121.15-1.86Q117.25 1.28 111.04 1.28L111.04 1.28L111.04 1.28Q107.46 1.28 105.02-0.10L105.02-0.10L105.02-0.10Q102.59-1.47 102.59-4.16L102.59-4.16L102.59-4.16Q102.59-5.70 103.49-6.98L103.49-6.98L103.49-6.98Q104.38-8.26 105.95-8.26L105.95-8.26L105.95-8.26Q107.52-8.26 107.97-7.10L107.97-7.10L107.97-7.10Q106.75-5.89 106.75-4.29L106.75-4.29L106.75-4.29Q106.75-1.09 110.34-1.09L110.34-1.09L110.34-1.09Q112.45-1.09 114.02-2.56L114.02-2.56L114.02-2.56Q115.58-4.03 115.58-5.79L115.58-5.79L115.58-5.79Q115.58-7.55 114.82-8.90L114.82-8.90L114.82-8.90Q114.05-10.24 112.96-11.26L112.96-11.26L112.96-11.26Q111.87-12.29 110.78-13.31L110.78-13.31L110.78-13.31Q108.16-15.81 108.16-19.04L108.16-19.04L108.16-19.04Q108.16-22.27 110.62-24.48L110.62-24.48L110.62-24.48Q113.09-26.69 117.38-26.69L117.38-26.69L117.38-26.69Q120.06-26.69 121.92-25.73L121.92-25.73L121.92-25.73Q123.78-24.77 123.78-22.75L123.78-22.75L123.78-22.75Q123.78-20.74 122.56-19.26L122.56-19.26L122.56-19.26Q121.34-17.79 119.26-17.79L119.26-17.79L119.26-17.79Q117.18-17.79 117.18-19.71L117.18-19.71L117.18-19.71Q117.18-20.16 118.66-21.06L118.66-21.06L118.66-21.06Q120.13-21.95 120.13-22.91L120.13-22.91L120.13-22.91Q120.13-23.87 119.33-24.35L119.33-24.35L119.33-24.35Q118.53-24.83 117.06-24.83L117.06-24.83L117.06-24.83Q115.58-24.83 114.21-23.81L114.21-23.81L114.21-23.81Q112.83-22.78 112.83-21.12L112.83-21.12L112.83-21.12Q112.83-19.46 114.24-17.98L114.24-17.98L114.24-17.98Q115.65-16.51 117.31-15.49L117.31-15.49L117.31-15.49Q118.98-14.46 120.38-12.64L120.38-12.64L120.38-12.64Q121.79-10.82 121.79-8.80L121.79-8.80L121.79-8.80Q121.79-6.78 120.86-5.18L120.86-5.18L120.86-5.18Q119.94-3.58 118.66-2.62L118.66-2.62L118.66-2.62Q122.24-4.16 126.27-10.30L126.27-10.30L126.27-10.30Q126.66-10.82 127.62-12.42L127.62-12.42L127.62-12.42Q129.86-16.45 130.11-16.45L130.11-16.45L130.11-16.45Q130.50-16.45 130.50-15.26L130.50-15.26L130.50-15.26Q130.50-14.08 129.86-12.99ZM153.09-16.64L153.09-16.64L153.09-16.64Q153.47-16.64 153.47-15.39L153.47-15.39L153.47-15.39Q153.47-14.14 152.45-12.42L152.45-12.42L152.45-12.42Q151.42-10.69 150.43-9.15L150.43-9.15L150.43-9.15Q149.44-7.62 147.78-5.57L147.78-5.57L147.78-5.57Q146.11-3.52 144.51-2.30L144.51-2.30L144.51-2.30Q140.48 0.64 136.42 0.64L136.42 0.64L136.42 0.64Q132.35 0.64 129.86-1.44L129.86-1.44L129.86-1.44Q127.36-3.52 127.36-7.81L127.36-7.81L127.36-7.81Q127.36-14.34 132.16-19.90L132.16-19.90L132.16-19.90Q136.96-25.47 143.36-25.47L143.36-25.47L143.36-25.47Q146.24-25.47 147.97-23.97L147.97-23.97L147.97-23.97Q149.70-22.46 149.70-20.35L149.70-20.35L149.70-20.35Q149.70-16.77 146.30-14.59L146.30-14.59L146.30-14.59Q142.91-12.42 138.30-12.42L138.30-12.42L138.30-12.42Q135.62-12.42 134.34-13.12L134.34-13.12L134.34-13.12Q133.12-9.86 133.12-7.36L133.12-7.36L133.12-7.36Q133.12-1.98 137.66-1.98L137.66-1.98L137.66-1.98Q140.35-1.98 143.20-4.06L143.20-4.06L143.20-4.06Q146.05-6.14 148.06-8.74L148.06-8.74L148.06-8.74Q150.08-11.33 152.64-16.19L152.64-16.19L152.64-16.19Q152.90-16.64 153.09-16.64ZM146.30-21.70L146.30-21.70L146.30-21.70Q146.30-23.55 144.51-23.55L144.51-23.55L144.51-23.55Q142.02-23.55 138.94-20.48L138.94-20.48L138.94-20.48Q135.87-17.41 135.87-15.49L135.87-15.49L135.87-15.49Q135.87-14.21 138.30-14.21L138.30-14.21L138.30-14.21Q140.74-14.21 143.39-16.58L143.39-16.58L143.39-16.58Q146.05-18.94 146.30-21.70Z" fill="#ffffff"></path></g></g><style>text {
  font-size: 64px;
  font-family: Arial Black;
  dominant-baseline: central;
  text-anchor: middle;
}</style></svg>