<svg width="244.35751953125px" height="128.03500976562498px" xmlns="http://www.w3.org/2000/svg" viewBox="127.821240234375 10.982495117187511 244.35751953125 128.03500976562498" style="background: rgba(0, 0, 0, 0);" preserveAspectRatio="xMidYMid"><defs><filter id="editing-extrusion" x="-100%" y="-100%" width="300%" height="300%"><feFlood result="color1" flood-color="#444444"></feFlood><feConvolveMatrix order="8,8" divisor="1" kernelMatrix="1 0 0 0 0 0 0 0 0 1 0 0 0 0 0 0 0 0 1 0 0 0 0 0 0 0 0 1 0 0 0 0 0 0 0 0 1 0 0 0 0 0 0 0 0 1 0 0 0 0 0 0 0 0 1 0 0 0 0 0 0 0 0 1" in="SourceAlpha" result="extrude"></feConvolveMatrix><feComposite in="color1" in2="extrude" result="comp-extrude" operator="in"></feComposite><feOffset dx="4" dy="4" in="comp-extrude" result="offset-extrude"></feOffset><feMerge><feMergeNode in="offset-extrude"></feMergeNode><feMergeNode in="SourceGraphic"></feMergeNode></feMerge></filter></defs><g filter="url(#editing-extrusion)"><g transform="translate(167.7150011062622, 97.81500053405762)"><path d="M3.13 0L3.13 0L3.13 0Q3.31-0.78 3.45-1.89L3.45-1.89L3.45-1.89Q3.59-3 3.59-4.19L3.59-4.19L3.59-4.19Q3.59-5.28 3.44-6.33L3.44-6.33L3.44-6.33Q3.28-7.38 3.13-8.13L3.13-8.13L3.13-8.13Q4.53-8.13 5.59-8.34L5.59-8.34L5.59-8.34Q6.66-8.56 7.38-9.08L7.38-9.08L7.38-9.08Q8.09-9.59 8.45-10.48L8.45-10.48L8.45-10.48Q8.81-11.38 8.81-12.72L8.81-12.72L8.81-12.72Q8.81-15.56 8.67-17.47L8.67-17.47L8.67-17.47Q8.53-19.38 8.27-20.55L8.27-20.55L8.27-20.55Q8-21.72 7.59-22.27L7.59-22.27L7.59-22.27Q7.19-22.81 6.66-22.97L6.66-22.97L6.66-22.97Q7.22-23.16 7.63-23.64L7.63-23.64L7.63-23.64Q8.03-24.13 8.30-25.22L8.30-25.22L8.30-25.22Q8.56-26.31 8.69-28.14L8.69-28.14L8.69-28.14Q8.81-29.97 8.81-32.84L8.81-32.84L8.81-32.84Q8.81-34.09 8.41-34.88L8.41-34.88L8.41-34.88Q8-35.66 7.31-36.11L7.31-36.11L7.31-36.11Q6.63-36.56 5.70-36.72L5.70-36.72L5.70-36.72Q4.78-36.88 3.72-36.88L3.72-36.88L3.13-36.88L3.13-36.88Q3.28-37.63 3.44-38.61L3.44-38.61L3.44-38.61Q3.59-39.59 3.59-40.69L3.59-40.69L3.59-40.69Q3.59-41.84 3.45-43.03L3.45-43.03L3.45-43.03Q3.31-44.22 3.13-45L3.13-45L3.13-45Q4.34-44.56 6.59-44.23L6.59-44.23L6.59-44.23Q8.84-43.91 12.44-43.91L12.44-43.91L12.44-43.91Q14.78-43.91 17-44.17L17-44.17L17-44.17Q19.22-44.44 21.09-44.78L21.09-44.78L21.09-44.78Q21.09-43.28 21.72-41.38L21.72-41.38L21.72-41.38Q22.34-39.47 23.41-37.38L23.41-37.38L23.41-37.38Q24.47-35.28 25.83-33.11L25.83-33.11L25.83-33.11Q27.19-30.94 28.67-28.91L28.67-28.91L28.67-28.91Q30.16-26.88 31.64-25.08L31.64-25.08L31.64-25.08Q33.13-23.28 34.42-21.95L34.42-21.95L34.42-21.95Q35.72-20.63 36.69-19.84L36.69-19.84L36.69-19.84Q37.66-19.06 38.13-19.06L38.13-19.06L38.19-19.06L38.19-19.06Q38.22-19.06 38.27-19.05L38.27-19.05L38.27-19.05Q38.31-19.03 38.38-19.03L38.38-19.03L38.38-19.03Q38.63-19.97 38.77-21.41L38.77-21.41L38.77-21.41Q38.91-22.84 38.98-24.66L38.98-24.66L38.98-24.66Q39.06-26.47 39.09-28.55L39.09-28.55L39.09-28.55Q39.13-30.63 39.13-32.84L39.13-32.84L39.13-32.84Q39.13-34.09 38.72-34.88L38.72-34.88L38.72-34.88Q38.31-35.66 37.63-36.11L37.63-36.11L37.63-36.11Q36.94-36.56 36.02-36.72L36.02-36.72L36.02-36.72Q35.09-36.88 34.03-36.88L34.03-36.88L33.44-36.88L33.44-36.88Q33.59-37.63 33.75-38.61L33.75-38.61L33.75-38.61Q33.91-39.59 33.91-40.69L33.91-40.69L33.91-40.69Q33.91-41.84 33.77-43.03L33.77-43.03L33.77-43.03Q33.63-44.22 33.44-45L33.44-45L33.44-45Q34.03-44.78 35.31-44.59L35.31-44.59L35.31-44.59Q36.59-44.41 38.25-44.25L38.25-44.25L38.25-44.25Q39.91-44.09 41.77-44L41.77-44L41.77-44Q43.63-43.91 45.41-43.91L45.41-43.91L45.41-43.91Q47.22-43.91 49.08-44L49.08-44L49.08-44Q50.94-44.09 52.58-44.25L52.58-44.25L52.58-44.25Q54.22-44.41 55.47-44.59L55.47-44.59L55.47-44.59Q56.72-44.78 57.34-45L57.34-45L57.34-45Q57.16-44.22 57.02-43.03L57.02-43.03L57.02-43.03Q56.88-41.84 56.88-40.69L56.88-40.69L56.88-40.69Q56.88-39.59 57.03-38.61L57.03-38.61L57.03-38.61Q57.19-37.63 57.34-36.88L57.34-36.88L56.69-36.88L56.69-36.88Q55.56-36.88 54.63-36.72L54.63-36.72L54.63-36.72Q53.69-36.56 53.03-36.11L53.03-36.11L53.03-36.11Q52.38-35.66 52.02-34.88L52.02-34.88L52.02-34.88Q51.66-34.09 51.66-32.84L51.66-32.84L51.66-32.84Q51.66-29.97 51.83-28.09L51.83-28.09L51.83-28.09Q52-26.22 52.33-25.09L52.33-25.09L52.33-25.09Q52.66-23.97 53.11-23.50L53.11-23.50L53.11-23.50Q53.56-23.03 54.13-22.97L54.13-22.97L54.13-22.97Q53.59-22.69 53.19-22.09L53.19-22.09L53.19-22.09Q52.78-21.50 52.52-20.22L52.52-20.22L52.52-20.22Q52.25-18.94 52.11-16.81L52.11-16.81L52.11-16.81Q51.97-14.69 51.97-11.34L51.97-11.34L51.97-11.34Q51.97-9.09 52.16-7.23L52.16-7.23L52.16-7.23Q52.34-5.38 52.61-3.95L52.61-3.95L52.61-3.95Q52.88-2.53 53.19-1.55L53.19-1.55L53.19-1.55Q53.50-0.56 53.75 0L53.75 0L53.75 0Q52.97-0.25 52-0.41L52-0.41L52-0.41Q51.03-0.56 50.03-0.64L50.03-0.64L50.03-0.64Q49.03-0.72 48.09-0.75L48.09-0.75L48.09-0.75Q47.16-0.78 46.47-0.78L46.47-0.78L46.47-0.78Q45.72-0.78 44.78-0.75L44.78-0.75L44.78-0.75Q43.84-0.72 42.86-0.64L42.86-0.64L42.86-0.64Q41.88-0.56 40.88-0.41L40.88-0.41L40.88-0.41Q39.88-0.25 39.03 0L39.03 0L39.03 0Q39.03-1.56 38.14-3.72L38.14-3.72L38.14-3.72Q37.25-5.88 35.80-8.25L35.80-8.25L35.80-8.25Q34.34-10.63 32.52-13.06L32.52-13.06L32.52-13.06Q30.69-15.50 28.83-17.67L28.83-17.67L28.83-17.67Q26.97-19.84 25.25-21.58L25.25-21.58L25.25-21.58Q23.53-23.31 22.31-24.28L22.31-24.28L22.31-24.28Q21.72-22.88 21.53-19.88L21.53-19.88L21.53-19.88Q21.34-16.88 21.34-12.72L21.34-12.72L21.34-12.72Q21.34-11.38 21.64-10.48L21.64-10.48L21.64-10.48Q21.94-9.59 22.63-9.08L22.63-9.08L22.63-9.08Q23.31-8.56 24.39-8.34L24.39-8.34L24.39-8.34Q25.47-8.13 27.03-8.13L27.03-8.13L27.03-8.13Q26.88-7.38 26.72-6.33L26.72-6.33L26.72-6.33Q26.56-5.28 26.56-4.19L26.56-4.19L26.56-4.19Q26.56-3 26.70-1.89L26.70-1.89L26.70-1.89Q26.84-0.78 27.03 0L27.03 0L27.03 0Q26.13-0.19 24.75-0.33L24.75-0.33L24.75-0.33Q23.38-0.47 21.75-0.58L21.75-0.58L21.75-0.58Q20.13-0.69 18.41-0.73L18.41-0.73L18.41-0.73Q16.69-0.78 15.09-0.78L15.09-0.78L15.09-0.78Q13.50-0.78 11.77-0.73L11.77-0.73L11.77-0.73Q10.03-0.69 8.41-0.58L8.41-0.58L8.41-0.58Q6.78-0.47 5.39-0.33L5.39-0.33L5.39-0.33Q4-0.19 3.13 0ZM61.72 0L61.72 0L61.72 0Q61.91-0.78 62.05-1.89L62.05-1.89L62.05-1.89Q62.19-3 62.19-4.19L62.19-4.19L62.19-4.19Q62.19-5.28 62.03-6.33L62.03-6.33L62.03-6.33Q61.88-7.38 61.72-8.13L61.72-8.13L61.72-8.13Q63.13-8.13 64.19-8.34L64.19-8.34L64.19-8.34Q65.25-8.56 65.97-9.08L65.97-9.08L65.97-9.08Q66.69-9.59 67.05-10.48L67.05-10.48L67.05-10.48Q67.41-11.38 67.41-12.72L67.41-12.72L67.41-12.72Q67.41-15.34 67.27-17.22L67.27-17.22L67.27-17.22Q67.13-19.09 66.86-20.31L66.86-20.31L66.86-20.31Q66.59-21.53 66.19-22.17L66.19-22.17L66.19-22.17Q65.78-22.81 65.25-22.97L65.25-22.97L65.25-22.97Q65.81-23.16 66.22-23.56L66.22-23.56L66.22-23.56Q66.63-23.97 66.89-24.95L66.89-24.95L66.89-24.95Q67.16-25.94 67.28-27.67L67.28-27.67L67.28-27.67Q67.41-29.41 67.41-32.28L67.41-32.28L67.41-32.28Q67.41-33.63 67.05-34.52L67.05-34.52L67.05-34.52Q66.69-35.41 65.97-35.92L65.97-35.92L65.97-35.92Q65.25-36.44 64.19-36.66L64.19-36.66L64.19-36.66Q63.13-36.88 61.72-36.88L61.72-36.88L61.72-36.88Q61.88-37.63 62.03-38.67L62.03-38.67L62.03-38.67Q62.19-39.72 62.19-40.81L62.19-40.81L62.19-40.81Q62.19-42 62.05-43.11L62.05-43.11L62.05-43.11Q61.91-44.22 61.72-45L61.72-45L61.72-45Q62.34-44.84 63.88-44.70L63.88-44.70L63.88-44.70Q65.41-44.56 67.44-44.44L67.44-44.44L67.44-44.44Q69.47-44.31 71.78-44.22L71.78-44.22L71.78-44.22Q74.09-44.13 76.30-44.05L76.30-44.05L76.30-44.05Q78.50-43.97 80.36-43.94L80.36-43.94L80.36-43.94Q82.22-43.91 83.34-43.91L83.34-43.91L83.34-43.91Q84.47-43.91 86.22-43.94L86.22-43.94L86.22-43.94Q87.97-43.97 89.98-44.05L89.98-44.05L89.98-44.05Q92-44.13 94.11-44.22L94.11-44.22L94.11-44.22Q96.22-44.31 98.08-44.44L98.08-44.44L98.08-44.44Q99.94-44.56 101.36-44.70L101.36-44.70L101.36-44.70Q102.78-44.84 103.41-45L103.41-45L103.41-45Q103.16-43.69 102.89-41.67L102.89-41.67L102.89-41.67Q102.63-39.66 102.63-37.41L102.63-37.41L102.63-37.41Q102.63-36.09 102.72-34.83L102.72-34.83L102.72-34.83Q102.81-33.56 102.92-32.52L102.92-32.52L102.92-32.52Q103.03-31.47 103.17-30.69L103.17-30.69L103.17-30.69Q103.31-29.91 103.41-29.53L103.41-29.53L103.41-29.53Q102.94-29.72 102.23-29.86L102.23-29.86L102.23-29.86Q101.53-30 100.72-30.11L100.72-30.11L100.72-30.11Q99.91-30.22 99.03-30.27L99.03-30.27L99.03-30.27Q98.16-30.31 97.34-30.31L97.34-30.31L97.34-30.31Q95.91-30.31 94.47-30.14L94.47-30.14L94.47-30.14Q93.03-29.97 91.72-29.53L91.72-29.53L91.72-29.53Q91.94-30.19 92.08-31.13L92.08-31.13L92.08-31.13Q92.22-32.06 92.22-33.03L92.22-33.03L92.22-33.03Q92.22-34.63 91.67-35.58L91.67-35.58L91.67-35.58Q91.13-36.53 90.28-37.03L90.28-37.03L90.28-37.03Q89.44-37.53 88.44-37.67L88.44-37.67L88.44-37.67Q87.44-37.81 86.53-37.81L86.53-37.81L86.53-37.81Q85.81-37.81 85.02-37.77L85.02-37.77L85.02-37.77Q84.22-37.72 83.39-37.55L83.39-37.55L83.39-37.55Q82.56-37.38 81.75-37.08L81.75-37.08L81.75-37.08Q80.94-36.78 80.25-36.28L80.25-36.28L80.25-36.28Q80.13-35.56 80.03-34.63L80.03-34.63L80.03-34.63Q79.94-33.69 79.94-32.28L79.94-32.28L79.94-32.28Q79.94-30.19 80.02-29.02L80.02-29.02L80.02-29.02Q80.09-27.84 80.22-27.22L80.22-27.22L80.22-27.22Q81.06-26.84 82.19-26.69L82.19-26.69L82.19-26.69Q83.31-26.53 84.50-26.53L84.50-26.53L84.50-26.53Q86.28-26.53 87.88-26.81L87.88-26.81L87.88-26.81Q89.47-27.09 90.19-27.47L90.19-27.47L90.19-27.47Q89.94-26.78 89.83-25.56L89.83-25.56L89.83-25.56Q89.72-24.34 89.72-23L89.72-23L89.72-23Q89.72-22.25 89.75-21.52L89.75-21.52L89.75-21.52Q89.78-20.78 89.86-20.17L89.86-20.17L89.86-20.17Q89.94-19.56 90.02-19.11L90.02-19.11L90.02-19.11Q90.09-18.66 90.19-18.44L90.19-18.44L90.19-18.44Q89.91-18.59 89.28-18.77L89.28-18.77L89.28-18.77Q88.66-18.94 87.83-19.09L87.83-19.09L87.83-19.09Q87-19.25 86.02-19.36L86.02-19.36L86.02-19.36Q85.03-19.47 84-19.47L84-19.47L84-19.47Q82.94-19.47 81.97-19.34L81.97-19.34L81.97-19.34Q81-19.22 80.22-18.88L80.22-18.88L80.22-18.88Q80.16-18.50 80.11-18.02L80.11-18.02L80.11-18.02Q80.06-17.53 80.02-16.80L80.02-16.80L80.02-16.80Q79.97-16.06 79.95-15.06L79.95-15.06L79.95-15.06Q79.94-14.06 79.94-12.72L79.94-12.72L79.94-12.72Q79.94-11.03 80.06-9.98L80.06-9.98L80.06-9.98Q80.19-8.94 80.34-8.19L80.34-8.19L80.34-8.19Q81.09-7.78 81.94-7.52L81.94-7.52L81.94-7.52Q82.78-7.25 83.64-7.11L83.64-7.11L83.64-7.11Q84.50-6.97 85.31-6.92L85.31-6.92L85.31-6.92Q86.13-6.88 86.84-6.88L86.84-6.88L86.84-6.88Q87.75-6.88 88.70-7.11L88.70-7.11L88.70-7.11Q89.66-7.34 90.44-7.98L90.44-7.98L90.44-7.98Q91.22-8.63 91.72-9.77L91.72-9.77L91.72-9.77Q92.22-10.91 92.22-12.69L92.22-12.69L92.22-12.69Q92.22-13.81 92.08-14.91L92.08-14.91L92.08-14.91Q91.94-16 91.72-16.72L91.72-16.72L91.72-16.72Q93.03-16.28 94.47-16.11L94.47-16.11L94.47-16.11Q95.91-15.94 97.34-15.94L97.34-15.94L97.34-15.94Q98.16-15.94 99.03-15.98L99.03-15.98L99.03-15.98Q99.91-16.03 100.72-16.14L100.72-16.14L100.72-16.14Q101.53-16.25 102.23-16.39L102.23-16.39L102.23-16.39Q102.94-16.53 103.41-16.72L103.41-16.72L103.41-16.72Q103.31-16.31 103.17-15.47L103.17-15.47L103.17-15.47Q103.03-14.63 102.92-13.48L102.92-13.48L102.92-13.48Q102.81-12.34 102.72-10.98L102.72-10.98L102.72-10.98Q102.63-9.63 102.63-8.22L102.63-8.22L102.63-8.22Q102.63-7 102.70-5.83L102.70-5.83L102.70-5.83Q102.78-4.66 102.89-3.59L102.89-3.59L102.89-3.59Q103-2.53 103.14-1.61L103.14-1.61L103.14-1.61Q103.28-0.69 103.41 0L103.41 0L103.41 0Q102.78-0.13 101.36-0.23L101.36-0.23L101.36-0.23Q99.94-0.34 98.08-0.42L98.08-0.42L98.08-0.42Q96.22-0.50 94.11-0.58L94.11-0.58L94.11-0.58Q92-0.66 89.98-0.70L89.98-0.70L89.98-0.70Q87.97-0.75 86.22-0.77L86.22-0.77L86.22-0.77Q84.47-0.78 83.34-0.78L83.34-0.78L83.34-0.78Q82.22-0.78 80.36-0.77L80.36-0.77L80.36-0.77Q78.50-0.75 76.30-0.70L76.30-0.70L76.30-0.70Q74.09-0.66 71.78-0.58L71.78-0.58L71.78-0.58Q69.47-0.50 67.44-0.42L67.44-0.42L67.44-0.42Q65.41-0.34 63.88-0.23L63.88-0.23L63.88-0.23Q62.34-0.13 61.72 0ZM114.25-8.38L114.25-8.38L114.25-8.38Q114.47-9.03 114.70-10.11L114.70-10.11L114.70-10.11Q114.94-11.19 115.13-12.55L115.13-12.55L115.13-12.55Q115.31-13.91 115.42-15.45L115.42-15.45L115.42-15.45Q115.53-17 115.53-18.56L115.53-18.56L115.53-18.56Q115.53-20.53 114.91-21.58L114.91-21.58L114.91-21.58Q114.28-22.63 113.16-22.97L113.16-22.97L113.16-22.97Q114.09-23.19 114.61-23.72L114.61-23.72L114.61-23.72Q115.13-24.25 115.38-25.34L115.38-25.34L115.38-25.34Q115.63-26.44 115.67-28.25L115.67-28.25L115.67-28.25Q115.72-30.06 115.72-32.84L115.72-32.84L115.72-32.84Q115.72-34.09 115.36-34.88L115.36-34.88L115.36-34.88Q115-35.66 114.34-36.11L114.34-36.11L114.34-36.11Q113.69-36.56 112.75-36.72L112.75-36.72L112.75-36.72Q111.81-36.88 110.66-36.88L110.66-36.88L110.03-36.88L110.03-36.88Q110.19-37.63 110.34-38.61L110.34-38.61L110.34-38.61Q110.50-39.59 110.50-40.69L110.50-40.69L110.50-40.69Q110.50-41.84 110.36-43.03L110.36-43.03L110.36-43.03Q110.22-44.22 110.03-45L110.03-45L110.03-45Q110.63-44.78 111.91-44.59L111.91-44.59L111.91-44.59Q113.19-44.41 114.84-44.25L114.84-44.25L114.84-44.25Q116.50-44.09 118.36-44L118.36-44L118.36-44Q120.22-43.91 122-43.91L122-43.91L122-43.91Q123.72-43.91 125.64-44L125.64-44L125.64-44Q127.56-44.09 129.28-44.25L129.28-44.25L129.28-44.25Q131-44.41 132.33-44.59L132.33-44.59L132.33-44.59Q133.66-44.78 134.25-45L134.25-45L134.25-45Q134.03-44.22 133.91-43.03L133.91-43.03L133.91-43.03Q133.78-41.84 133.78-40.69L133.78-40.69L133.78-40.69Q133.78-39.59 133.94-38.61L133.94-38.61L133.94-38.61Q134.09-37.63 134.25-36.88L134.25-36.88L133.69-36.88L133.69-36.88Q132.66-36.88 131.83-36.72L131.83-36.72L131.83-36.72Q131-36.56 130.42-36.11L130.42-36.11L130.42-36.11Q129.84-35.66 129.52-34.88L129.52-34.88L129.52-34.88Q129.19-34.09 129.19-32.84L129.19-32.84L129.19-18.66L129.19-18.66Q129.19-15.03 129.78-12.75L129.78-12.75L129.78-12.75Q130.38-10.47 131.36-9.16L131.36-9.16L131.36-9.16Q132.34-7.84 133.66-7.36L133.66-7.36L133.66-7.36Q134.97-6.88 136.44-6.88L136.44-6.88L136.44-6.88Q137.88-6.88 139.17-7.36L139.17-7.36L139.17-7.36Q140.47-7.84 141.44-9.16L141.44-9.16L141.44-9.16Q142.41-10.47 142.97-12.75L142.97-12.75L142.97-12.75Q143.53-15.03 143.53-18.66L143.53-18.66L143.53-32.84L143.53-32.84Q143.53-34.09 143.17-34.88L143.17-34.88L143.17-34.88Q142.81-35.66 142.20-36.11L142.20-36.11L142.20-36.11Q141.59-36.56 140.77-36.72L140.77-36.72L140.77-36.72Q139.94-36.88 139-36.88L139-36.88L138.47-36.88L138.47-36.88Q138.63-37.63 138.78-38.61L138.78-38.61L138.78-38.61Q138.94-39.59 138.94-40.69L138.94-40.69L138.94-40.69Q138.94-41.84 138.81-43.03L138.81-43.03L138.81-43.03Q138.69-44.22 138.47-45L138.47-45L138.47-45Q139.06-44.78 140.22-44.58L140.22-44.58L140.22-44.58Q141.38-44.38 142.86-44.23L142.86-44.23L142.86-44.23Q144.34-44.09 146.06-44L146.06-44L146.06-44Q147.78-43.91 149.50-43.91L149.50-43.91L149.50-43.91Q151.31-43.91 153.17-44L153.17-44L153.17-44Q155.03-44.09 156.67-44.25L156.67-44.25L156.67-44.25Q158.31-44.41 159.56-44.59L159.56-44.59L159.56-44.59Q160.81-44.78 161.44-45L161.44-45L161.44-45Q161.22-44.22 161.09-43.03L161.09-43.03L161.09-43.03Q160.97-41.84 160.97-40.69L160.97-40.69L160.97-40.69Q160.97-39.59 161.13-38.61L161.13-38.61L161.13-38.61Q161.28-37.63 161.44-36.88L161.44-36.88L160.81-36.88L160.81-36.88Q159.69-36.88 158.86-36.72L158.86-36.72L158.86-36.72Q158.03-36.56 157.47-36.11L157.47-36.11L157.47-36.11Q156.91-35.66 156.64-34.88L156.64-34.88L156.64-34.88Q156.38-34.09 156.38-32.84L156.38-32.84L156.38-32.84Q156.38-30.06 156.42-28.25L156.42-28.25L156.42-28.25Q156.47-26.44 156.72-25.34L156.72-25.34L156.72-25.34Q156.97-24.25 157.48-23.72L157.48-23.72L157.48-23.72Q158-23.19 158.94-22.97L158.94-22.97L158.94-22.97Q157.81-22.63 157.19-21.58L157.19-21.58L157.19-21.58Q156.56-20.53 156.56-18.56L156.56-18.56L156.56-18.56Q156.56-17 156.67-15.45L156.67-15.45L156.67-15.45Q156.78-13.91 156.95-12.55L156.95-12.55L156.95-12.55Q157.13-11.19 157.36-10.11L157.36-10.11L157.36-10.11Q157.59-9.03 157.84-8.38L157.84-8.38L157.84-8.38Q156.78-8.25 155.55-7.81L155.55-7.81L155.55-7.81Q154.31-7.38 153.05-6.69L153.05-6.69L153.05-6.69Q151.78-6 150.58-5.14L150.58-5.14L150.58-5.14Q149.38-4.28 148.39-3.33L148.39-3.33L148.39-3.33Q147.41-2.38 146.72-1.36L146.72-1.36L146.72-1.36Q146.03-0.34 145.81 0.63L145.81 0.63L145.81 0.63Q145.38 0.34 144.41 0.09L144.41 0.09L144.41 0.09Q143.44-0.16 142.11-0.36L142.11-0.36L142.11-0.36Q140.78-0.56 139.16-0.67L139.16-0.67L139.16-0.67Q137.53-0.78 135.81-0.78L135.81-0.78L135.81-0.78Q134.06-0.78 132.45-0.67L132.45-0.67L132.45-0.67Q130.84-0.56 129.52-0.36L129.52-0.36L129.52-0.36Q128.19-0.16 127.22 0.09L127.22 0.09L127.22 0.09Q126.25 0.34 125.81 0.63L125.81 0.63L125.81 0.63Q125.47-0.81 124.56-2.27L124.56-2.27L124.56-2.27Q123.66-3.72 122.19-4.95L122.19-4.95L122.19-4.95Q120.72-6.19 118.73-7.09L118.73-7.09L118.73-7.09Q116.75-8 114.25-8.38Z" fill="#7e3998"></path></g></g><style>text {
  font-size: 64px;
  font-family: Arial Black;
  dominant-baseline: central;
  text-anchor: middle;
}</style></svg>