<?xml version="1.0" encoding="UTF-8" standalone="no"?>
<svg
   xmlns:dc="http://purl.org/dc/elements/1.1/"
   xmlns:cc="http://creativecommons.org/ns#"
   xmlns:rdf="http://www.w3.org/1999/02/22-rdf-syntax-ns#"
   xmlns:svg="http://www.w3.org/2000/svg"
   xmlns="http://www.w3.org/2000/svg"
   xmlns:sodipodi="http://sodipodi.sourceforge.net/DTD/sodipodi-0.dtd"
   xmlns:inkscape="http://www.inkscape.org/namespaces/inkscape"
   version="1.1"
   id="svg2"
   xml:space="preserve"
   width="400"
   height="400"
   viewBox="0 0 400 400"
   sodipodi:docname="power_icon.svg"
   inkscape:version="1.0.2 (394de47547, 2021-03-26)"><metadata
     id="metadata8"><rdf:RDF><cc:Work
         rdf:about=""><dc:format>image/svg+xml</dc:format><dc:type
           rdf:resource="http://purl.org/dc/dcmitype/StillImage" /><dc:title></dc:title></cc:Work></rdf:RDF></metadata><defs
     id="defs6" /><sodipodi:namedview
     pagecolor="#ffffff"
     bordercolor="#666666"
     borderopacity="1"
     objecttolerance="10"
     gridtolerance="10"
     guidetolerance="10"
     inkscape:pageopacity="0"
     inkscape:pageshadow="2"
     inkscape:window-width="1848"
     inkscape:window-height="1016"
     id="namedview4"
     showgrid="false"
     inkscape:zoom="1.7840551"
     inkscape:cx="212.47313"
     inkscape:cy="192.1777"
     inkscape:window-x="72"
     inkscape:window-y="27"
     inkscape:window-maximized="1"
     inkscape:current-layer="g10"
     inkscape:document-rotation="0"
     inkscape:lockguides="true" /><g
     id="g10"
     inkscape:groupmode="layer"
     inkscape:label="ink_ext_XXXXXX"
     transform="matrix(1.3333333,0,0,-1.3333333,0,400)"><path
       d="M 191.665,294.089 V 249.99 C 230.778,233.631 258.333,194.977 258.333,150 C 258.333,90.2645 209.736,41.6672 150,41.6672 C 90.2652,41.6672 41.6672,90.2645 41.6672,150 C 41.6672,194.977 69.2219,233.629 108.333,249.988 V 294.089 C 45.7699,276.029 0,218.377 0,150 C 0,67.1594 67.1566,0 150,0 C 232.841,0 300,67.1594 300,150 C 300,218.38 254.227,276.029 191.665,294.089 Z M 170.834,298.527 C 164.02,299.473 157.072,300 150,300 C 142.927,300 135.979,299.473 129.166,298.527 V 149.998 H 170.834 V 298.527"
       style="fill:#ffd223;fill-opacity:1;fill-rule:nonzero;stroke:none;stroke-width:0.1"
       id="path14" /></g></svg>
